  0
SECTION
  2
HEADER
  9
$ACADVER
  1
AC1014
  9
$ACADMAINTVER
 70
     9
  9
$DWGCODEPAGE
  3
ANSI_1251
  9
$INSBASE
 10
0.0
 20
0.0
 30
0.0
  9
$EXTMIN
 10
-894.9999999999995
 20
-323.4999999999995
 30
0.0
  9
$EXTMAX
 10
-583.7723931248906
 20
-198.589572499563
 30
0.0
  9
$LIMMIN
 10
0.0
 20
0.0
  9
$LIMMAX
 10
12.0
 20
9.0
  9
$ORTHOMODE
 70
     0
  9
$REGENMODE
 70
     1
  9
$FILLMODE
 70
     1
  9
$QTEXTMODE
 70
     0
  9
$MIRRTEXT
 70
     1
  9
$DRAGMODE
 70
     2
  9
$LTSCALE
 40
1.0
  9
$OSMODE
 70
    37
  9
$ATTMODE
 70
     1
  9
$TEXTSIZE
 40
0.2
  9
$TRACEWID
 40
0.05
  9
$TEXTSTYLE
  7
STANDARD
  9
$CLAYER
  8
DEFAULT
  9
$CELTYPE
  6
BYLAYER
  9
$CECOLOR
 62
   256
  9
$CELTSCALE
 40
1.0
  9
$DELOBJ
 70
     1
  9
$DISPSILH
 70
     0
  9
$DIMSCALE
 40
1.0
  9
$DIMASZ
 40
0.18
  9
$DIMEXO
 40
0.0625
  9
$DIMDLI
 40
0.38
  9
$DIMRND
 40
0.0
  9
$DIMDLE
 40
0.0
  9
$DIMEXE
 40
0.18
  9
$DIMTP
 40
0.0
  9
$DIMTM
 40
0.0
  9
$DIMTXT
 40
0.18
  9
$DIMCEN
 40
0.09
  9
$DIMTSZ
 40
0.0
  9
$DIMTOL
 70
     0
  9
$DIMLIM
 70
     0
  9
$DIMTIH
 70
     1
  9
$DIMTOH
 70
     1
  9
$DIMSE1
 70
     0
  9
$DIMSE2
 70
     0
  9
$DIMTAD
 70
     0
  9
$DIMZIN
 70
     0
  9
$DIMBLK
  1

  9
$DIMASO
 70
     1
  9
$DIMSHO
 70
     1
  9
$DIMPOST
  1

  9
$DIMAPOST
  1

  9
$DIMALT
 70
     0
  9
$DIMALTD
 70
     2
  9
$DIMALTF
 40
25.4
  9
$DIMLFAC
 40
1.0
  9
$DIMTOFL
 70
     0
  9
$DIMTVP
 40
0.0
  9
$DIMTIX
 70
     0
  9
$DIMSOXD
 70
     0
  9
$DIMSAH
 70
     0
  9
$DIMBLK1
  1

  9
$DIMBLK2
  1

  9
$DIMSTYLE
  2
STANDARD
  9
$DIMCLRD
 70
     0
  9
$DIMCLRE
 70
     0
  9
$DIMCLRT
 70
     0
  9
$DIMTFAC
 40
1.0
  9
$DIMGAP
 40
0.09
  9
$DIMJUST
 70
     0
  9
$DIMSD1
 70
     0
  9
$DIMSD2
 70
     0
  9
$DIMTOLJ
 70
     1
  9
$DIMTZIN
 70
     0
  9
$DIMALTZ
 70
     0
  9
$DIMALTTZ
 70
     0
  9
$DIMFIT
 70
     5
  9
$DIMUPT
 70
     0
  9
$DIMUNIT
 70
     2
  9
$DIMDEC
 70
     4
  9
$DIMTDEC
 70
     4
  9
$DIMALTU
 70
     2
  9
$DIMALTTD
 70
     2
  9
$DIMTXSTY
  7
STANDARD
  9
$DIMAUNIT
 70
     0
  9
$LUNITS
 70
     2
  9
$LUPREC
 70
     2
  9
$SKETCHINC
 40
0.1
  9
$FILLETRAD
 40
0.5
  9
$AUNITS
 70
     0
  9
$AUPREC
 70
     0
  9
$MENU
  1
.
  9
$ELEVATION
 40
0.0
  9
$PELEVATION
 40
0.0
  9
$THICKNESS
 40
0.0
  9
$LIMCHECK
 70
     0
  9
$CHAMFERA
 40
0.0
  9
$CHAMFERB
 40
0.0
  9
$CHAMFERC
 40
0.0
  9
$CHAMFERD
 40
0.0
  9
$SKPOLY
 70
     0
  9
$TDCREATE
 40
2458893.550754977
  9
$TDUPDATE
 40
2458893.550767141
  9
$TDINDWG
 40
0.0000000116
  9
$TDUSRTIMER
 40
0.0000000116
  9
$USRTIMER
 70
     1
  9
$ANGBASE
 50
0.0
  9
$ANGDIR
 70
     0
  9
$PDMODE
 70
     0
  9
$PDSIZE
 40
0.0
  9
$PLINEWID
 40
0.0
  9
$COORDS
 70
     1
  9
$SPLFRAME
 70
     0
  9
$SPLINETYPE
 70
     6
  9
$SPLINESEGS
 70
     8
  9
$ATTDIA
 70
     0
  9
$ATTREQ
 70
     1
  9
$HANDLING
 70
     1
  9
$HANDSEED
  5
15C
  9
$SURFTAB1
 70
     6
  9
$SURFTAB2
 70
     6
  9
$SURFTYPE
 70
     6
  9
$SURFU
 70
     6
  9
$SURFV
 70
     6
  9
$UCSNAME
  2

  9
$UCSORG
 10
0.0
 20
0.0
 30
0.0
  9
$UCSXDIR
 10
1.0
 20
0.0
 30
0.0
  9
$UCSYDIR
 10
0.0
 20
1.0
 30
0.0
  9
$PUCSNAME
  2

  9
$PUCSORG
 10
0.0
 20
0.0
 30
0.0
  9
$PUCSXDIR
 10
1.0
 20
0.0
 30
0.0
  9
$PUCSYDIR
 10
0.0
 20
1.0
 30
0.0
  9
$USERI1
 70
     0
  9
$USERI2
 70
     0
  9
$USERI3
 70
     0
  9
$USERI4
 70
     0
  9
$USERI5
 70
     0
  9
$USERR1
 40
0.0
  9
$USERR2
 40
0.0
  9
$USERR3
 40
0.0
  9
$USERR4
 40
0.0
  9
$USERR5
 40
0.0
  9
$WORLDVIEW
 70
     1
  9
$SHADEDGE
 70
     3
  9
$SHADEDIF
 70
    70
  9
$TILEMODE
 70
     1
  9
$MAXACTVP
 70
    64
  9
$PINSBASE
 10
0.0
 20
0.0
 30
0.0
  9
$PLIMCHECK
 70
     0
  9
$PEXTMIN
 10
1.000000000000000E+20
 20
1.000000000000000E+20
 30
1.000000000000000E+20
  9
$PEXTMAX
 10
-1.000000000000000E+20
 20
-1.000000000000000E+20
 30
-1.000000000000000E+20
  9
$PLIMMIN
 10
0.0
 20
0.0
  9
$PLIMMAX
 10
12.0
 20
9.0
  9
$UNITMODE
 70
     0
  9
$VISRETAIN
 70
     1
  9
$PLINEGEN
 70
     0
  9
$PSLTSCALE
 70
     1
  9
$TREEDEPTH
 70
  3020
  9
$PICKSTYLE
 70
     1
  9
$CMLSTYLE
  2
STANDARD
  9
$CMLJUST
 70
     0
  9
$CMLSCALE
 40
1.0
  9
$PROXYGRAPHICS
 70
     1
  9
$MEASUREMENT
 70
     0
  0
ENDSEC
  0
SECTION
  2
CLASSES
  0
CLASS
  1
ACDBDICTIONARYWDFLT
  2
AcDbDictionaryWithDefault
  3
ObjectDBX Classes
 90
        0
280
     0
281
     0
  0
CLASS
  1
VISUALSTYLE
  2
AcDbVisualStyle
  3
ObjectDBX Classes
 90
     4095
280
     0
281
     0
  0
CLASS
  1
MATERIAL
  2
AcDbMaterial
  3
ObjectDBX Classes
 90
     1153
280
     0
281
     0
  0
CLASS
  1
SCALE
  2
AcDbScale
  3
ObjectDBX Classes
 90
     1153
280
     0
281
     0
  0
CLASS
  1
SUN
  2
AcDbSun
  3
SCENEOE
 90
     1153
280
     0
281
     0
  0
CLASS
  1
DICTIONARYVAR
  2
AcDbDictionaryVar
  3
ObjectDBX Classes
 90
        0
280
     0
281
     0
  0
CLASS
  1
XRECORD
  2
AcDbXrecord
  3
ObjectDBX Classes
 90
        0
280
     0
281
     0
  0
CLASS
  1
LWPOLYLINE
  2
AcDbPolyline
  3
ObjectDBX Classes
 90
        0
280
     0
281
     1
  0
CLASS
  1
HATCH
  2
AcDbHatch
  3
ObjectDBX Classes
 90
        0
280
     0
281
     1
  0
CLASS
  1
ACDBPLACEHOLDER
  2
AcDbPlaceHolder
  3
ObjectDBX Classes
 90
        0
280
     0
281
     0
  0
CLASS
  1
LAYOUT
  2
AcDbLayout
  3
ObjectDBX Classes
 90
        0
280
     0
281
     0
  0
ENDSEC
  0
SECTION
  2
TABLES
  0
TABLE
  2
VPORT
  5
8
330
0
100
AcDbSymbolTable
 70
     1
  0
VPORT
  5
29
330
8
100
AcDbSymbolTableRecord
100
AcDbViewportTableRecord
  2
*ACTIVE
 70
     0
 10
0.0
 20
0.0
 11
1.0
 21
1.0
 12
-739.3861965624451
 22
-261.0447862497813
 13
0.0
 23
0.0
 14
0.5
 24
0.5
 15
0.5
 25
0.5
 16
0.0
 26
0.0
 36
1.0
 17
0.0
 27
0.0
 37
0.0
 40
127.4086360504453
 41
2.491606290227621
 42
50.0
 43
0.0
 44
0.0
 50
0.0
 51
0.0
 71
     0
 72
   100
 73
     1
 74
     3
 75
     0
 76
     0
 77
     0
 78
     0
  0
ENDTAB
  0
TABLE
  2
LTYPE
  5
5
330
0
100
AcDbSymbolTable
 70
     1
  0
LTYPE
  5
14
330
5
100
AcDbSymbolTableRecord
100
AcDbLinetypeTableRecord
  2
BYBLOCK
 70
     0
  3

 72
    65
 73
     0
 40
0.0
  0
LTYPE
  5
15
330
5
100
AcDbSymbolTableRecord
100
AcDbLinetypeTableRecord
  2
BYLAYER
 70
     0
  3

 72
    65
 73
     0
 40
0.0
  0
LTYPE
  5
16
330
5
100
AcDbSymbolTableRecord
100
AcDbLinetypeTableRecord
  2
CONTINUOUS
 70
     0
  3
Solid line
 72
    65
 73
     0
 40
0.0
  0
ENDTAB
  0
TABLE
  2
LAYER
  5
2
330
0
100
AcDbSymbolTable
 70
     2
  0
LAYER
  5
10
330
2
100
AcDbSymbolTableRecord
100
AcDbLayerTableRecord
  2
0
 70
     0
 62
     7
  6
CONTINUOUS
  0
LAYER
  5
6A
330
2
100
AcDbSymbolTableRecord
100
AcDbLayerTableRecord
  2
DEFAULT
 70
     0
 62
    18
  6
CONTINUOUS
  0
ENDTAB
  0
TABLE
  2
STYLE
  5
3
330
0
100
AcDbSymbolTable
 70
     1
  0
STYLE
  5
11
330
3
100
AcDbSymbolTableRecord
100
AcDbTextStyleTableRecord
  2
STANDARD
 70
     0
 40
0.0
 41
1.0
 50
0.0
 71
     0
 42
0.2
  3
txt
  4

  0
ENDTAB
  0
TABLE
  2
VIEW
  5
6
330
0
100
AcDbSymbolTable
 70
     0
  0
ENDTAB
  0
TABLE
  2
UCS
  5
7
330
0
100
AcDbSymbolTable
 70
     0
  0
ENDTAB
  0
TABLE
  2
APPID
  5
9
330
0
100
AcDbSymbolTable
 70
     1
  0
APPID
  5
12
330
9
100
AcDbSymbolTableRecord
100
AcDbRegAppTableRecord
  2
ACAD
 70
     0
  0
ENDTAB
  0
TABLE
  2
DIMSTYLE
  5
A
330
0
100
AcDbSymbolTable
 70
     1
  0
DIMSTYLE
105
27
330
A
100
AcDbSymbolTableRecord
100
AcDbDimStyleTableRecord
  2
STANDARD
 70
     0
  3

  4

  5

  6

  7

 40
1.0
 41
0.18
 42
0.0625
 43
0.38
 44
0.18
 45
0.0
 46
0.0
 47
0.0
 48
0.0
140
0.18
141
0.09
142
0.0
143
25.4
144
1.0
145
0.0
146
1.0
147
0.09
 71
     0
 72
     0
 73
     1
 74
     1
 75
     0
 76
     0
 77
     0
 78
     0
170
     0
171
     2
172
     0
173
     0
174
     0
175
     0
176
     0
177
     0
178
     0
270
     2
271
     4
272
     4
273
     2
274
     2
340
11
275
     0
280
     0
281
     0
282
     0
283
     1
284
     0
285
     0
286
     0
287
     3
288
     0
  0
ENDTAB
  0
TABLE
  2
BLOCK_RECORD
  5
1
330
0
100
AcDbSymbolTable
 70
     1
  0
BLOCK_RECORD
  5
1F
330
1
100
AcDbSymbolTableRecord
100
AcDbBlockTableRecord
  2
*MODEL_SPACE
  0
BLOCK_RECORD
  5
1B
330
1
100
AcDbSymbolTableRecord
100
AcDbBlockTableRecord
  2
*PAPER_SPACE
  0
ENDTAB
  0
ENDSEC
  0
SECTION
  2
BLOCKS
  0
BLOCK
  5
20
330
1F
100
AcDbEntity
  8
0
100
AcDbBlockBegin
  2
*MODEL_SPACE
 70
     0
 10
0.0
 20
0.0
 30
0.0
  3
*MODEL_SPACE
  1

  0
ENDBLK
  5
21
330
1F
100
AcDbEntity
  8
0
100
AcDbBlockEnd
  0
BLOCK
  5
1C
330
1B
100
AcDbEntity
 67
     1
  8
0
100
AcDbBlockBegin
  2
*PAPER_SPACE
 70
     0
 10
0.0
 20
0.0
 30
0.0
  3
*PAPER_SPACE
  1

  0
ENDBLK
  5
1D
330
1B
100
AcDbEntity
 67
     1
  8
0
100
AcDbBlockEnd
  0
ENDSEC
  0
SECTION
  2
ENTITIES
  0
CIRCLE
  5
6B
330
1F
100
AcDbEntity
  8
DEFAULT
100
AcDbCircle
 10
-630.9999999989294
 20
-305.4999999998155
 30
0.0
 40
6.0
  0
CIRCLE
  5
6C
330
1F
100
AcDbEntity
  8
DEFAULT
100
AcDbCircle
 10
-678.9999999989453
 20
-305.5000000008264
 30
0.0
 40
6.0
  0
CIRCLE
  5
6D
330
1F
100
AcDbEntity
  8
DEFAULT
100
AcDbCircle
 10
-654.9999999989374
 20
-305.5000000003209
 30
0.0
 40
6.0
  0
CIRCLE
  5
6E
330
1F
100
AcDbEntity
  8
DEFAULT
100
AcDbCircle
 10
-871.0000000017635
 20
-305.4999999994936
 30
0.0
 40
6.0
  0
CIRCLE
  5
6F
330
1F
100
AcDbEntity
  8
DEFAULT
100
AcDbCircle
 10
-847.0000000010617
 20
-305.4999999996722
 30
0.0
 40
6.0
  0
CIRCLE
  5
70
330
1F
100
AcDbEntity
  8
DEFAULT
100
AcDbCircle
 10
-678.9999999991136
 20
-305.4999999999968
 30
0.0
 40
6.0
  0
CIRCLE
  5
71
330
1F
100
AcDbEntity
  8
DEFAULT
100
AcDbCircle
 10
-750.9999999999995
 20
-305.4999999999995
 30
0.0
 40
6.0
  0
CIRCLE
  5
72
330
1F
100
AcDbEntity
  8
DEFAULT
100
AcDbCircle
 10
-702.9999999991215
 20
-305.5000000005023
 30
0.0
 40
6.0
  0
CIRCLE
  5
73
330
1F
100
AcDbEntity
  8
DEFAULT
100
AcDbCircle
 10
-726.9999999992978
 20
-305.5000000001781
 30
0.0
 40
6.0
  0
CIRCLE
  5
74
330
1F
100
AcDbEntity
  8
DEFAULT
100
AcDbCircle
 10
-799.0000000001837
 20
-305.500000000175
 30
0.0
 40
6.0
  0
CIRCLE
  5
75
330
1F
100
AcDbEntity
  8
DEFAULT
100
AcDbCircle
 10
-775.0000000000075
 20
-305.5000000004991
 30
0.0
 40
6.0
  0
CIRCLE
  5
76
330
1F
100
AcDbEntity
  8
DEFAULT
100
AcDbCircle
 10
-823.0000000008855
 20
-305.4999999999964
 30
0.0
 40
6.0
  0
ARC
  5
77
330
1F
100
AcDbEntity
  8
DEFAULT
100
AcDbCircle
 10
-703.9999999991137
 20
-233.4999999999819
 30
0.0
 40
6.0
100
AcDbArc
 50
179.9999489743255
 51
359.9999776706275
  0
ARC
  5
78
330
1F
100
AcDbEntity
  8
DEFAULT
100
AcDbCircle
 10
-703.9999999991414
 20
-221.4999999999819
 30
0.0
 40
6.0
100
AcDbArc
 50
359.9999812440364
 51
179.9999776645373
  0
ARC
  5
79
330
1F
100
AcDbEntity
  8
DEFAULT
100
AcDbCircle
 10
-727.9999999992899
 20
-233.4999999996578
 30
0.0
 40
6.0
100
AcDbArc
 50
180.0000131592269
 51
0.0000308559449387
  0
ARC
  5
7A
330
1F
100
AcDbEntity
  8
DEFAULT
100
AcDbCircle
 10
-727.9999999993177
 20
-221.4999999996578
 30
0.0
 40
6.0
100
AcDbArc
 50
0.0000110875763283
 51
180.0000131581068
  0
ARC
  5
7B
330
1F
100
AcDbEntity
  8
DEFAULT
100
AcDbCircle
 10
-751.9999999999917
 20
-233.4999999994792
 30
0.0
 40
6.0
100
AcDbArc
 50
180.000007733062
 51
0.0000101280067467
  0
ARC
  5
7C
330
1F
100
AcDbEntity
  8
DEFAULT
100
AcDbCircle
 10
-752.0000000000194
 20
-221.4999999994792
 30
0.0
 40
6.0
100
AcDbArc
 50
0.0000099251167378
 51
180.0000058416857
  0
LINE
  5
7D
330
1F
100
AcDbEntity
  8
DEFAULT
100
AcDbLine
 10
-697.9999999991413
 20
-221.4999999999821
 30
0.0
 11
-697.9999999991136
 21
-233.4999999999818
 31
0.0
  0
LINE
  5
7E
330
1F
100
AcDbEntity
  8
DEFAULT
100
AcDbLine
 10
-709.9999999991414
 20
-221.4999999994256
 30
0.0
 11
-709.9999999991136
 21
-233.4999999999811
 31
0.0
  0
LINE
  5
7F
330
1F
100
AcDbEntity
  8
DEFAULT
100
AcDbLine
 10
-721.9999999993177
 20
-221.4999999996649
 30
0.0
 11
-721.9999999992898
 21
-233.4999999996575
 31
0.0
  0
LINE
  5
80
330
1F
100
AcDbEntity
  8
DEFAULT
100
AcDbLine
 10
-733.9999999993177
 20
-221.499999999658
 30
0.0
 11
-733.99999999929
 21
-233.4999999996577
 31
0.0
  0
LINE
  5
81
330
1F
100
AcDbEntity
  8
DEFAULT
100
AcDbLine
 10
-746.0000000000196
 20
-221.4999999994645
 30
0.0
 11
-745.9999999999917
 21
-233.4999999994719
 31
0.0
  0
LINE
  5
82
330
1F
100
AcDbEntity
  8
DEFAULT
100
AcDbLine
 10
-758.0000000000194
 20
-221.4999999995204
 30
0.0
 11
-757.9999999999918
 21
-233.4999999994793
 31
0.0
  0
CIRCLE
  5
83
330
1F
100
AcDbEntity
  8
DEFAULT
100
AcDbCircle
 10
-868.0000000008855
 20
-266.4999999999964
 30
0.0
 40
6.0
  0
CIRCLE
  5
84
330
1F
100
AcDbEntity
  8
DEFAULT
100
AcDbCircle
 10
-820.0000000000075
 20
-266.5000000004991
 30
0.0
 40
6.0
  0
CIRCLE
  5
85
330
1F
100
AcDbEntity
  8
DEFAULT
100
AcDbCircle
 10
-844.0000000001837
 20
-266.500000000175
 30
0.0
 40
6.0
  0
CIRCLE
  5
86
330
1F
100
AcDbEntity
  8
DEFAULT
100
AcDbCircle
 10
-771.9999999992978
 20
-266.5000000001781
 30
0.0
 40
6.0
  0
CIRCLE
  5
87
330
1F
100
AcDbEntity
  8
DEFAULT
100
AcDbCircle
 10
-747.9999999991215
 20
-266.5000000005023
 30
0.0
 40
6.0
  0
CIRCLE
  5
88
330
1F
100
AcDbEntity
  8
DEFAULT
100
AcDbCircle
 10
-795.9999999999995
 20
-266.4999999999995
 30
0.0
 40
6.0
  0
CIRCLE
  5
89
330
1F
100
AcDbEntity
  8
DEFAULT
100
AcDbCircle
 10
-723.9999999991136
 20
-266.4999999999968
 30
0.0
 40
6.0
  0
CIRCLE
  5
8A
330
1F
100
AcDbEntity
  8
DEFAULT
100
AcDbCircle
 10
-864.9999999999917
 20
-227.4999999994988
 30
0.0
 40
6.0
  0
CIRCLE
  5
8B
330
1F
100
AcDbEntity
  8
DEFAULT
100
AcDbCircle
 10
-816.9999999991137
 20
-227.5000000000016
 30
0.0
 40
6.0
  0
CIRCLE
  5
8C
330
1F
100
AcDbEntity
  8
DEFAULT
100
AcDbCircle
 10
-840.9999999992899
 20
-227.4999999996775
 30
0.0
 40
6.0
  0
LINE
  5
8D
330
1F
100
AcDbEntity
  8
DEFAULT
100
AcDbLine
 10
-618.9999999999995
 20
-323.4999999999995
 30
0.0
 11
-882.9999999999995
 21
-323.4999999999995
 31
0.0
  0
LINE
  5
8E
330
1F
100
AcDbEntity
  8
DEFAULT
100
AcDbLine
 10
-882.9999999999995
 20
-323.4999999999995
 30
0.0
 11
-882.9999999999995
 21
-305.4999999999995
 31
0.0
  0
LINE
  5
8F
330
1F
100
AcDbEntity
  8
DEFAULT
100
AcDbLine
 10
-882.9999999999995
 20
-305.4999999999995
 30
0.0
 11
-888.9999999999995
 21
-305.4999999999995
 31
0.0
  0
LINE
  5
90
330
1F
100
AcDbEntity
  8
DEFAULT
100
AcDbLine
 10
-888.9999999999995
 20
-305.4999999999995
 30
0.0
 11
-888.9999999999995
 21
-323.4999999999995
 31
0.0
  0
LINE
  5
91
330
1F
100
AcDbEntity
  8
DEFAULT
100
AcDbLine
 10
-888.9999999999995
 20
-323.4999999999995
 30
0.0
 11
-891.9999999999995
 21
-323.4999999999995
 31
0.0
  0
ARC
  5
92
330
1F
100
AcDbEntity
  8
DEFAULT
100
AcDbCircle
 10
-891.9999999999995
 20
-320.4999999999995
 30
0.0
 40
3.0
100
AcDbArc
 50
180.0
 51
270.0
  0
LINE
  5
93
330
1F
100
AcDbEntity
  8
DEFAULT
100
AcDbLine
 10
-894.9999999999995
 20
-320.4999999999995
 30
0.0
 11
-894.9999999999995
 21
-290.4999999999991
 31
0.0
  0
ARC
  5
94
330
1F
100
AcDbEntity
  8
DEFAULT
100
AcDbCircle
 10
-891.9999999999995
 20
-290.4999999999995
 30
0.0
 40
3.0
100
AcDbArc
 50
90.0000000000087
 51
179.9999999999924
  0
LINE
  5
95
330
1F
100
AcDbEntity
  8
DEFAULT
100
AcDbLine
 10
-892.0
 20
-287.4999999999995
 30
0.0
 11
-882.9999999999995
 21
-287.4999999999995
 31
0.0
  0
LINE
  5
96
330
1F
100
AcDbEntity
  8
DEFAULT
100
AcDbLine
 10
-882.9999999999995
 20
-287.4999999999995
 30
0.0
 11
-618.9999999999995
 21
-287.4999999999995
 31
0.0
  0
LINE
  5
97
330
1F
100
AcDbEntity
  8
DEFAULT
100
AcDbLine
 10
-618.9999999999995
 20
-287.4999999999995
 30
0.0
 11
-609.9999999999991
 21
-287.4999999999995
 31
0.0
  0
ARC
  5
98
330
1F
100
AcDbEntity
  8
DEFAULT
100
AcDbCircle
 10
-609.9999999999995
 20
-290.4999999999995
 30
0.0
 40
3.0
100
AcDbArc
 50
0.0000000000075994
 51
89.99999999999133
  0
LINE
  5
99
330
1F
100
AcDbEntity
  8
DEFAULT
100
AcDbLine
 10
-606.9999999999995
 20
-290.5
 30
0.0
 11
-606.9999999999995
 21
-320.4999999999995
 31
0.0
  0
ARC
  5
9A
330
1F
100
AcDbEntity
  8
DEFAULT
100
AcDbCircle
 10
-609.9999999999995
 20
-320.4999999999995
 30
0.0
 40
3.0
100
AcDbArc
 50
270.0
 51
0.0
  0
LINE
  5
9B
330
1F
100
AcDbEntity
  8
DEFAULT
100
AcDbLine
 10
-609.9999999999995
 20
-323.4999999999995
 30
0.0
 11
-612.9999999999995
 21
-323.4999999999995
 31
0.0
  0
LINE
  5
9C
330
1F
100
AcDbEntity
  8
DEFAULT
100
AcDbLine
 10
-612.9999999999995
 20
-323.4999999999995
 30
0.0
 11
-612.9999999999995
 21
-305.4999999999995
 31
0.0
  0
LINE
  5
9D
330
1F
100
AcDbEntity
  8
DEFAULT
100
AcDbLine
 10
-612.9999999999995
 20
-305.4999999999995
 30
0.0
 11
-618.9999999999995
 21
-305.4999999999995
 31
0.0
  0
LINE
  5
9E
330
1F
100
AcDbEntity
  8
DEFAULT
100
AcDbLine
 10
-618.9999999999995
 20
-305.4999999999995
 30
0.0
 11
-618.9999999999995
 21
-323.4999999999995
 31
0.0
  0
LINE
  5
9F
330
1F
100
AcDbEntity
  8
DEFAULT
100
AcDbLine
 10
-882.9999999999995
 20
-284.4999999999995
 30
0.0
 11
-708.9999999999995
 21
-284.4999999999995
 31
0.0
  0
LINE
  5
A0
330
1F
100
AcDbEntity
  8
DEFAULT
100
AcDbLine
 10
-708.9999999999995
 20
-284.4999999999995
 30
0.0
 11
-708.9999999999995
 21
-266.4999999999995
 31
0.0
  0
LINE
  5
A1
330
1F
100
AcDbEntity
  8
DEFAULT
100
AcDbLine
 10
-708.9999999999995
 20
-266.4999999999995
 30
0.0
 11
-702.9999999999995
 21
-266.4999999999995
 31
0.0
  0
LINE
  5
A2
330
1F
100
AcDbEntity
  8
DEFAULT
100
AcDbLine
 10
-702.9999999999995
 20
-266.4999999999995
 30
0.0
 11
-702.9999999999995
 21
-284.4999999999995
 31
0.0
  0
LINE
  5
A3
330
1F
100
AcDbEntity
  8
DEFAULT
100
AcDbLine
 10
-702.9999999999995
 20
-284.4999999999995
 30
0.0
 11
-699.9999999999995
 21
-284.4999999999995
 31
0.0
  0
ARC
  5
A4
330
1F
100
AcDbEntity
  8
DEFAULT
100
AcDbCircle
 10
-699.9999999999995
 20
-281.4999999999995
 30
0.0
 40
3.0
100
AcDbArc
 50
270.0
 51
0.0
  0
LINE
  5
A5
330
1F
100
AcDbEntity
  8
DEFAULT
100
AcDbLine
 10
-696.9999999999995
 20
-281.4999999999995
 30
0.0
 11
-696.9999999999995
 21
-251.5
 31
0.0
  0
ARC
  5
A6
330
1F
100
AcDbEntity
  8
DEFAULT
100
AcDbCircle
 10
-699.9999999999995
 20
-251.4999999999995
 30
0.0
 40
3.0
100
AcDbArc
 50
0.0000000000081422
 51
89.99999999999133
  0
LINE
  5
A7
330
1F
100
AcDbEntity
  8
DEFAULT
100
AcDbLine
 10
-699.9999999999991
 20
-248.4999999999995
 30
0.0
 11
-708.9999999999995
 21
-248.4999999999995
 31
0.0
  0
LINE
  5
A8
330
1F
100
AcDbEntity
  8
DEFAULT
100
AcDbLine
 10
-708.9999999999995
 20
-248.4999999999995
 30
0.0
 11
-882.9999999999995
 21
-248.4999999999995
 31
0.0
  0
LINE
  5
A9
330
1F
100
AcDbEntity
  8
DEFAULT
100
AcDbLine
 10
-882.9999999999995
 20
-248.4999999999995
 30
0.0
 11
-892.0
 21
-248.4999999999995
 31
0.0
  0
ARC
  5
AA
330
1F
100
AcDbEntity
  8
DEFAULT
100
AcDbCircle
 10
-891.9999999999995
 20
-251.4999999999995
 30
0.0
 40
3.0
100
AcDbArc
 50
90.0000000000087
 51
179.9999999999919
  0
LINE
  5
AB
330
1F
100
AcDbEntity
  8
DEFAULT
100
AcDbLine
 10
-894.9999999999995
 20
-251.4999999999991
 30
0.0
 11
-894.9999999999995
 21
-281.4999999999995
 31
0.0
  0
ARC
  5
AC
330
1F
100
AcDbEntity
  8
DEFAULT
100
AcDbCircle
 10
-891.9999999999995
 20
-281.4999999999995
 30
0.0
 40
3.0
100
AcDbArc
 50
180.0
 51
270.0
  0
LINE
  5
AD
330
1F
100
AcDbEntity
  8
DEFAULT
100
AcDbLine
 10
-891.9999999999995
 20
-284.4999999999995
 30
0.0
 11
-888.9999999999995
 21
-284.4999999999995
 31
0.0
  0
LINE
  5
AE
330
1F
100
AcDbEntity
  8
DEFAULT
100
AcDbLine
 10
-888.9999999999995
 20
-284.4999999999995
 30
0.0
 11
-888.9999999999995
 21
-266.4999999999995
 31
0.0
  0
LINE
  5
AF
330
1F
100
AcDbEntity
  8
DEFAULT
100
AcDbLine
 10
-888.9999999999995
 20
-266.4999999999995
 30
0.0
 11
-882.9999999999995
 21
-266.4999999999995
 31
0.0
  0
LINE
  5
B0
330
1F
100
AcDbEntity
  8
DEFAULT
100
AcDbLine
 10
-882.9999999999995
 20
-266.4999999999995
 30
0.0
 11
-882.9999999999995
 21
-284.4999999999995
 31
0.0
  0
LINE
  5
B1
330
1F
100
AcDbEntity
  8
DEFAULT
100
AcDbLine
 10
-882.9999999999995
 20
-245.4999999999995
 30
0.0
 11
-798.9999999999995
 21
-245.4999999999995
 31
0.0
  0
LINE
  5
B2
330
1F
100
AcDbEntity
  8
DEFAULT
100
AcDbLine
 10
-798.9999999999995
 20
-245.4999999999995
 30
0.0
 11
-798.9999999999995
 21
-227.4999999999995
 31
0.0
  0
LINE
  5
B3
330
1F
100
AcDbEntity
  8
DEFAULT
100
AcDbLine
 10
-798.9999999999995
 20
-227.4999999999995
 30
0.0
 11
-792.9999999999995
 21
-227.4999999999995
 31
0.0
  0
LINE
  5
B4
330
1F
100
AcDbEntity
  8
DEFAULT
100
AcDbLine
 10
-792.9999999999995
 20
-227.4999999999995
 30
0.0
 11
-792.9999999999995
 21
-245.4999999999995
 31
0.0
  0
LINE
  5
B5
330
1F
100
AcDbEntity
  8
DEFAULT
100
AcDbLine
 10
-792.9999999999995
 20
-245.4999999999995
 30
0.0
 11
-789.9999999999995
 21
-245.4999999999995
 31
0.0
  0
ARC
  5
B6
330
1F
100
AcDbEntity
  8
DEFAULT
100
AcDbCircle
 10
-789.9999999999995
 20
-242.4999999999995
 30
0.0
 40
3.0
100
AcDbArc
 50
270.0
 51
0.0
  0
LINE
  5
B7
330
1F
100
AcDbEntity
  8
DEFAULT
100
AcDbLine
 10
-786.9999999999995
 20
-242.4999999999995
 30
0.0
 11
-786.9999999999995
 21
-212.5
 31
0.0
  0
ARC
  5
B8
330
1F
100
AcDbEntity
  8
DEFAULT
100
AcDbCircle
 10
-789.9999999999995
 20
-212.4999999999995
 30
0.0
 40
3.0
100
AcDbArc
 50
0.0000000000081422
 51
89.99999999999133
  0
LINE
  5
B9
330
1F
100
AcDbEntity
  8
DEFAULT
100
AcDbLine
 10
-789.9999999999991
 20
-209.4999999999995
 30
0.0
 11
-798.9999999999995
 21
-209.4999999999995
 31
0.0
  0
LINE
  5
BA
330
1F
100
AcDbEntity
  8
DEFAULT
100
AcDbLine
 10
-798.9999999999995
 20
-209.4999999999995
 30
0.0
 11
-882.9999999999995
 21
-209.4999999999995
 31
0.0
  0
LINE
  5
BB
330
1F
100
AcDbEntity
  8
DEFAULT
100
AcDbLine
 10
-882.9999999999995
 20
-209.4999999999995
 30
0.0
 11
-891.9999999999991
 21
-209.4999999999995
 31
0.0
  0
ARC
  5
BC
330
1F
100
AcDbEntity
  8
DEFAULT
100
AcDbCircle
 10
-891.9999999999995
 20
-212.4999999999995
 30
0.0
 40
3.0
100
AcDbArc
 50
90.0000000000087
 51
179.9999999999919
  0
LINE
  5
BD
330
1F
100
AcDbEntity
  8
DEFAULT
100
AcDbLine
 10
-894.9999999999995
 20
-212.5
 30
0.0
 11
-894.9999999999995
 21
-242.4999999999995
 31
0.0
  0
ARC
  5
BE
330
1F
100
AcDbEntity
  8
DEFAULT
100
AcDbCircle
 10
-891.9999999999995
 20
-242.4999999999995
 30
0.0
 40
3.0
100
AcDbArc
 50
180.0
 51
270.0
  0
LINE
  5
BF
330
1F
100
AcDbEntity
  8
DEFAULT
100
AcDbLine
 10
-891.9999999999995
 20
-245.4999999999995
 30
0.0
 11
-888.9999999999995
 21
-245.4999999999995
 31
0.0
  0
LINE
  5
C0
330
1F
100
AcDbEntity
  8
DEFAULT
100
AcDbLine
 10
-888.9999999999995
 20
-245.4999999999995
 30
0.0
 11
-888.9999999999995
 21
-227.4999999999995
 31
0.0
  0
LINE
  5
C1
330
1F
100
AcDbEntity
  8
DEFAULT
100
AcDbLine
 10
-888.9999999999995
 20
-227.4999999999995
 30
0.0
 11
-882.9999999999995
 21
-227.4999999999995
 31
0.0
  0
LINE
  5
C2
330
1F
100
AcDbEntity
  8
DEFAULT
100
AcDbLine
 10
-882.9999999999995
 20
-227.4999999999995
 30
0.0
 11
-882.9999999999995
 21
-245.4999999999995
 31
0.0
  0
LINE
  5
C3
330
1F
100
AcDbEntity
  8
DEFAULT
100
AcDbLine
 10
-769.9999999999995
 20
-245.4999999999995
 30
0.0
 11
-685.9999999999995
 21
-245.4999999999995
 31
0.0
  0
LINE
  5
C4
330
1F
100
AcDbEntity
  8
DEFAULT
100
AcDbLine
 10
-685.9999999999995
 20
-245.4999999999995
 30
0.0
 11
-685.9999999999995
 21
-227.4999999999995
 31
0.0
  0
LINE
  5
C5
330
1F
100
AcDbEntity
  8
DEFAULT
100
AcDbLine
 10
-685.9999999999995
 20
-227.4999999999995
 30
0.0
 11
-679.9999999999995
 21
-227.4999999999995
 31
0.0
  0
LINE
  5
C6
330
1F
100
AcDbEntity
  8
DEFAULT
100
AcDbLine
 10
-679.9999999999995
 20
-227.4999999999995
 30
0.0
 11
-679.9999999999995
 21
-245.4999999999995
 31
0.0
  0
LINE
  5
C7
330
1F
100
AcDbEntity
  8
DEFAULT
100
AcDbLine
 10
-679.9999999999995
 20
-245.4999999999995
 30
0.0
 11
-676.9999999999995
 21
-245.4999999999995
 31
0.0
  0
ARC
  5
C8
330
1F
100
AcDbEntity
  8
DEFAULT
100
AcDbCircle
 10
-676.9999999999995
 20
-242.4999999999995
 30
0.0
 40
3.0
100
AcDbArc
 50
270.0
 51
0.0
  0
LINE
  5
C9
330
1F
100
AcDbEntity
  8
DEFAULT
100
AcDbLine
 10
-673.9999999999995
 20
-242.4999999999995
 30
0.0
 11
-673.9999999999995
 21
-212.5
 31
0.0
  0
ARC
  5
CA
330
1F
100
AcDbEntity
  8
DEFAULT
100
AcDbCircle
 10
-676.9999999999995
 20
-212.4999999999995
 30
0.0
 40
3.0
100
AcDbArc
 50
0.0000000000081422
 51
89.99999999999133
  0
LINE
  5
CB
330
1F
100
AcDbEntity
  8
DEFAULT
100
AcDbLine
 10
-676.9999999999991
 20
-209.4999999999995
 30
0.0
 11
-685.9999999999995
 21
-209.4999999999995
 31
0.0
  0
LINE
  5
CC
330
1F
100
AcDbEntity
  8
DEFAULT
100
AcDbLine
 10
-685.9999999999995
 20
-209.4999999999995
 30
0.0
 11
-769.9999999999995
 21
-209.4999999999995
 31
0.0
  0
LINE
  5
CD
330
1F
100
AcDbEntity
  8
DEFAULT
100
AcDbLine
 10
-769.9999999999995
 20
-209.4999999999995
 30
0.0
 11
-778.9999999999991
 21
-209.4999999999995
 31
0.0
  0
ARC
  5
CE
330
1F
100
AcDbEntity
  8
DEFAULT
100
AcDbCircle
 10
-778.9999999999995
 20
-212.4999999999995
 30
0.0
 40
3.0
100
AcDbArc
 50
90.0000000000087
 51
179.9999999999919
  0
LINE
  5
CF
330
1F
100
AcDbEntity
  8
DEFAULT
100
AcDbLine
 10
-781.9999999999995
 20
-212.5
 30
0.0
 11
-781.9999999999995
 21
-242.4999999999995
 31
0.0
  0
ARC
  5
D0
330
1F
100
AcDbEntity
  8
DEFAULT
100
AcDbCircle
 10
-778.9999999999995
 20
-242.4999999999995
 30
0.0
 40
3.0
100
AcDbArc
 50
180.0
 51
270.0
  0
LINE
  5
D1
330
1F
100
AcDbEntity
  8
DEFAULT
100
AcDbLine
 10
-778.9999999999995
 20
-245.4999999999995
 30
0.0
 11
-775.9999999999995
 21
-245.4999999999995
 31
0.0
  0
LINE
  5
D2
330
1F
100
AcDbEntity
  8
DEFAULT
100
AcDbLine
 10
-775.9999999999995
 20
-245.4999999999995
 30
0.0
 11
-775.9999999999995
 21
-227.4999999999995
 31
0.0
  0
LINE
  5
D3
330
1F
100
AcDbEntity
  8
DEFAULT
100
AcDbLine
 10
-775.9999999999995
 20
-227.4999999999995
 30
0.0
 11
-769.9999999999995
 21
-227.4999999999995
 31
0.0
  0
LINE
  5
D4
330
1F
100
AcDbEntity
  8
DEFAULT
100
AcDbLine
 10
-769.9999999999995
 20
-227.4999999999995
 30
0.0
 11
-769.9999999999995
 21
-245.4999999999995
 31
0.0
  0
LINE
  5
D5
330
1F
100
AcDbEntity
  8
DEFAULT
100
AcDbLine
 10
-666.9999999999995
 20
-278.4999999999991
 30
0.0
 11
-660.9999999999995
 21
-278.4999999999991
 31
0.0
  0
LINE
  5
D6
330
1F
100
AcDbEntity
  8
DEFAULT
100
AcDbLine
 10
-660.9999999999995
 20
-278.4999999999991
 30
0.0
 11
-654.9999999999995
 21
-278.4999999999991
 31
0.0
  0
LINE
  5
D7
330
1F
100
AcDbEntity
  8
DEFAULT
100
AcDbLine
 10
-654.9999999999995
 20
-278.4999999999991
 30
0.0
 11
-648.1533936612427
 21
-278.4999999999991
 31
0.0
  0
ARC
  5
D8
330
1F
100
AcDbEntity
  8
DEFAULT
100
AcDbCircle
 10
-648.1533936612427
 20
-275.4999999999991
 30
0.0
 40
3.0
100
AcDbArc
 50
270.0
 51
339.0751675723598
  0
ARC
  5
D9
330
1F
100
AcDbEntity
  8
DEFAULT
100
AcDbCircle
 10
-621.9999999999995
 20
-285.4999999999995
 30
0.0
 40
24.99999999999959
100
AcDbArc
 50
89.99999999999974
 51
159.0751675723602
  0
ARC
  5
DA
330
1F
100
AcDbEntity
  8
DEFAULT
100
AcDbCircle
 10
-621.9999999999995
 20
-257.5
 30
0.0
 40
3.0
100
AcDbArc
 50
270.0
 51
0.0
  0
LINE
  5
DB
330
1F
100
AcDbEntity
  8
DEFAULT
100
AcDbLine
 10
-618.9999999999995
 20
-257.5
 30
0.0
 11
-618.9999999999995
 21
-254.4999999999995
 31
0.0
  0
LINE
  5
DC
330
1F
100
AcDbEntity
  8
DEFAULT
100
AcDbLine
 10
-618.9999999999995
 20
-254.4999999999995
 30
0.0
 11
-636.9999999999995
 21
-254.4999999999995
 31
0.0
  0
LINE
  5
DD
330
1F
100
AcDbEntity
  8
DEFAULT
100
AcDbLine
 10
-636.9999999999995
 20
-254.4999999999995
 30
0.0
 11
-636.9999999999995
 21
-248.4999999999995
 31
0.0
  0
LINE
  5
DE
330
1F
100
AcDbEntity
  8
DEFAULT
100
AcDbLine
 10
-636.9999999999995
 20
-248.4999999999995
 30
0.0
 11
-618.9999999999995
 21
-248.4999999999995
 31
0.0
  0
LINE
  5
DF
330
1F
100
AcDbEntity
  8
DEFAULT
100
AcDbLine
 10
-618.9999999999995
 20
-248.4999999999995
 30
0.0
 11
-618.9999999999995
 21
-245.4999999999991
 31
0.0
  0
ARC
  5
E0
330
1F
100
AcDbEntity
  8
DEFAULT
100
AcDbCircle
 10
-621.9999999999995
 20
-245.4999999999991
 30
0.0
 40
3.0
100
AcDbArc
 50
0.0
 51
90.0
  0
LINE
  5
E1
330
1F
100
AcDbEntity
  8
DEFAULT
100
AcDbLine
 10
-621.9999999999995
 20
-242.4999999999991
 30
0.0
 11
-666.9999999999995
 21
-242.4999999999991
 31
0.0
  0
LINE
  5
E2
330
1F
100
AcDbEntity
  8
DEFAULT
100
AcDbLine
 10
-666.9999999999995
 20
-242.4999999999991
 30
0.0
 11
-667.4999999999995
 21
-239.589572499563
 31
0.0
  0
LINE
  5
E3
330
1F
100
AcDbEntity
  8
DEFAULT
100
AcDbLine
 10
-667.4999999999995
 20
-239.589572499563
 30
0.0
 11
-671.2276068751084
 21
-239.589572499563
 31
0.0
  0
LINE
  5
E4
330
1F
100
AcDbEntity
  8
DEFAULT
100
AcDbLine
 10
-671.2276068751084
 20
-239.589572499563
 30
0.0
 11
-671.2276068751084
 21
-245.4999999999991
 31
0.0
  0
LINE
  5
E5
330
1F
100
AcDbEntity
  8
DEFAULT
100
AcDbLine
 10
-671.2276068751084
 20
-245.4999999999991
 30
0.0
 11
-663.9999999999995
 21
-248.4999999999991
 31
0.0
  0
LINE
  5
E6
330
1F
100
AcDbEntity
  8
DEFAULT
100
AcDbLine
 10
-663.9999999999995
 20
-248.4999999999991
 30
0.0
 11
-660.9999999999995
 21
-248.4999999999991
 31
0.0
  0
LINE
  5
E7
330
1F
100
AcDbEntity
  8
DEFAULT
100
AcDbLine
 10
-660.9999999999995
 20
-248.4999999999991
 30
0.0
 11
-660.9999999999995
 21
-272.4999999999991
 31
0.0
  0
LINE
  5
E8
330
1F
100
AcDbEntity
  8
DEFAULT
100
AcDbLine
 10
-660.9999999999995
 20
-272.4999999999991
 30
0.0
 11
-663.9999999999995
 21
-272.4999999999991
 31
0.0
  0
LINE
  5
E9
330
1F
100
AcDbEntity
  8
DEFAULT
100
AcDbLine
 10
-663.9999999999995
 20
-272.4999999999991
 30
0.0
 11
-666.9999999999995
 21
-275.4999999999991
 31
0.0
  0
LINE
  5
EA
330
1F
100
AcDbEntity
  8
DEFAULT
100
AcDbLine
 10
-666.9999999999995
 20
-275.4999999999991
 30
0.0
 11
-666.9999999999995
 21
-278.4999999999991
 31
0.0
  0
LINE
  5
EB
330
1F
100
AcDbEntity
  8
DEFAULT
100
AcDbLine
 10
-587.9999999999995
 20
-246.5
 30
0.0
 11
-593.9999999999995
 21
-246.5
 31
0.0
  0
LINE
  5
EC
330
1F
100
AcDbEntity
  8
DEFAULT
100
AcDbLine
 10
-593.9999999999995
 20
-246.5
 30
0.0
 11
-599.9999999999995
 21
-246.5
 31
0.0
  0
LINE
  5
ED
330
1F
100
AcDbEntity
  8
DEFAULT
100
AcDbLine
 10
-599.9999999999995
 20
-246.5
 30
0.0
 11
-606.8466063387559
 21
-246.5
 31
0.0
  0
ARC
  5
EE
330
1F
100
AcDbEntity
  8
DEFAULT
100
AcDbCircle
 10
-606.8466063387559
 20
-249.5
 30
0.0
 40
3.0
100
AcDbArc
 50
90.0
 51
159.0751675723598
  0
ARC
  5
EF
330
1F
100
AcDbEntity
  8
DEFAULT
100
AcDbCircle
 10
-632.9999999999993
 20
-239.4999999999995
 30
0.0
 40
24.99999999999959
100
AcDbArc
 50
269.9999999999998
 51
339.0751675723602
  0
ARC
  5
F0
330
1F
100
AcDbEntity
  8
DEFAULT
100
AcDbCircle
 10
-632.9999999999995
 20
-267.4999999999991
 30
0.0
 40
3.0
100
AcDbArc
 50
90.0
 51
180.0
  0
LINE
  5
F1
330
1F
100
AcDbEntity
  8
DEFAULT
100
AcDbLine
 10
-635.9999999999995
 20
-267.4999999999991
 30
0.0
 11
-635.9999999999995
 21
-270.4999999999995
 31
0.0
  0
LINE
  5
F2
330
1F
100
AcDbEntity
  8
DEFAULT
100
AcDbLine
 10
-635.9999999999995
 20
-270.4999999999995
 30
0.0
 11
-617.9999999999995
 21
-270.4999999999995
 31
0.0
  0
LINE
  5
F3
330
1F
100
AcDbEntity
  8
DEFAULT
100
AcDbLine
 10
-617.9999999999995
 20
-270.4999999999995
 30
0.0
 11
-617.9999999999995
 21
-276.4999999999995
 31
0.0
  0
LINE
  5
F4
330
1F
100
AcDbEntity
  8
DEFAULT
100
AcDbLine
 10
-617.9999999999995
 20
-276.4999999999995
 30
0.0
 11
-635.9999999999995
 21
-276.4999999999995
 31
0.0
  0
LINE
  5
F5
330
1F
100
AcDbEntity
  8
DEFAULT
100
AcDbLine
 10
-635.9999999999995
 20
-276.4999999999995
 30
0.0
 11
-635.9999999999995
 21
-279.5
 31
0.0
  0
ARC
  5
F6
330
1F
100
AcDbEntity
  8
DEFAULT
100
AcDbCircle
 10
-632.9999999999995
 20
-279.5
 30
0.0
 40
3.0
100
AcDbArc
 50
180.0
 51
270.0
  0
LINE
  5
F7
330
1F
100
AcDbEntity
  8
DEFAULT
100
AcDbLine
 10
-632.9999999999995
 20
-282.5
 30
0.0
 11
-587.9999999999995
 21
-282.5
 31
0.0
  0
LINE
  5
F8
330
1F
100
AcDbEntity
  8
DEFAULT
100
AcDbLine
 10
-587.9999999999995
 20
-282.5
 30
0.0
 11
-587.4999999999995
 21
-285.4104275004361
 31
0.0
  0
LINE
  5
F9
330
1F
100
AcDbEntity
  8
DEFAULT
100
AcDbLine
 10
-587.4999999999995
 20
-285.4104275004361
 30
0.0
 11
-583.7723931248906
 21
-285.4104275004361
 31
0.0
  0
LINE
  5
FA
330
1F
100
AcDbEntity
  8
DEFAULT
100
AcDbLine
 10
-583.7723931248906
 20
-285.4104275004361
 30
0.0
 11
-583.7723931248906
 21
-279.5
 31
0.0
  0
LINE
  5
FB
330
1F
100
AcDbEntity
  8
DEFAULT
100
AcDbLine
 10
-583.7723931248906
 20
-279.5
 30
0.0
 11
-590.9999999999995
 21
-276.5
 31
0.0
  0
LINE
  5
FC
330
1F
100
AcDbEntity
  8
DEFAULT
100
AcDbLine
 10
-590.9999999999995
 20
-276.5
 30
0.0
 11
-593.9999999999995
 21
-276.5
 31
0.0
  0
LINE
  5
FD
330
1F
100
AcDbEntity
  8
DEFAULT
100
AcDbLine
 10
-593.9999999999995
 20
-276.5
 30
0.0
 11
-593.9999999999995
 21
-252.5
 31
0.0
  0
LINE
  5
FE
330
1F
100
AcDbEntity
  8
DEFAULT
100
AcDbLine
 10
-593.9999999999995
 20
-252.5
 30
0.0
 11
-590.9999999999995
 21
-252.5
 31
0.0
  0
LINE
  5
FF
330
1F
100
AcDbEntity
  8
DEFAULT
100
AcDbLine
 10
-590.9999999999995
 20
-252.5
 30
0.0
 11
-587.9999999999995
 21
-249.5
 31
0.0
  0
LINE
  5
100
330
1F
100
AcDbEntity
  8
DEFAULT
100
AcDbLine
 10
-587.9999999999995
 20
-249.5
 30
0.0
 11
-587.9999999999995
 21
-246.5
 31
0.0
  0
LINE
  5
101
330
1F
100
AcDbEntity
  8
DEFAULT
100
AcDbLine
 10
-590.9999999999995
 20
-205.5
 30
0.0
 11
-596.9999999999995
 21
-205.5
 31
0.0
  0
LINE
  5
102
330
1F
100
AcDbEntity
  8
DEFAULT
100
AcDbLine
 10
-596.9999999999995
 20
-205.5
 30
0.0
 11
-602.9999999999995
 21
-205.5
 31
0.0
  0
LINE
  5
103
330
1F
100
AcDbEntity
  8
DEFAULT
100
AcDbLine
 10
-602.9999999999995
 20
-205.5
 30
0.0
 11
-609.8466063387561
 21
-205.5
 31
0.0
  0
ARC
  5
104
330
1F
100
AcDbEntity
  8
DEFAULT
100
AcDbCircle
 10
-609.8466063387561
 20
-208.5
 30
0.0
 40
3.0
100
AcDbArc
 50
90.0
 51
159.0751675723598
  0
ARC
  5
105
330
1F
100
AcDbEntity
  8
DEFAULT
100
AcDbCircle
 10
-635.9999999999995
 20
-198.4999999999995
 30
0.0
 40
24.99999999999959
100
AcDbArc
 50
269.9999999999998
 51
339.0751675723602
  0
ARC
  5
106
330
1F
100
AcDbEntity
  8
DEFAULT
100
AcDbCircle
 10
-635.9999999999995
 20
-226.4999999999991
 30
0.0
 40
3.0
100
AcDbArc
 50
90.0
 51
180.0
  0
LINE
  5
107
330
1F
100
AcDbEntity
  8
DEFAULT
100
AcDbLine
 10
-638.9999999999995
 20
-226.4999999999991
 30
0.0
 11
-638.9999999999995
 21
-229.4999999999995
 31
0.0
  0
LINE
  5
108
330
1F
100
AcDbEntity
  8
DEFAULT
100
AcDbLine
 10
-638.9999999999995
 20
-229.4999999999995
 30
0.0
 11
-620.9999999999995
 21
-229.4999999999995
 31
0.0
  0
LINE
  5
109
330
1F
100
AcDbEntity
  8
DEFAULT
100
AcDbLine
 10
-620.9999999999995
 20
-229.4999999999995
 30
0.0
 11
-620.9999999999995
 21
-235.4999999999995
 31
0.0
  0
LINE
  5
10A
330
1F
100
AcDbEntity
  8
DEFAULT
100
AcDbLine
 10
-620.9999999999995
 20
-235.4999999999995
 30
0.0
 11
-638.9999999999995
 21
-235.4999999999995
 31
0.0
  0
LINE
  5
10B
330
1F
100
AcDbEntity
  8
DEFAULT
100
AcDbLine
 10
-638.9999999999995
 20
-235.4999999999995
 30
0.0
 11
-638.9999999999995
 21
-238.5
 31
0.0
  0
ARC
  5
10C
330
1F
100
AcDbEntity
  8
DEFAULT
100
AcDbCircle
 10
-635.9999999999995
 20
-238.5
 30
0.0
 40
3.0
100
AcDbArc
 50
180.0
 51
270.0
  0
LINE
  5
10D
330
1F
100
AcDbEntity
  8
DEFAULT
100
AcDbLine
 10
-635.9999999999995
 20
-241.5
 30
0.0
 11
-590.9999999999995
 21
-241.5
 31
0.0
  0
LINE
  5
10E
330
1F
100
AcDbEntity
  8
DEFAULT
100
AcDbLine
 10
-590.9999999999995
 20
-241.5
 30
0.0
 11
-590.4999999999995
 21
-244.4104275004361
 31
0.0
  0
LINE
  5
10F
330
1F
100
AcDbEntity
  8
DEFAULT
100
AcDbLine
 10
-590.4999999999995
 20
-244.4104275004361
 30
0.0
 11
-586.7723931248906
 21
-244.4104275004361
 31
0.0
  0
LINE
  5
110
330
1F
100
AcDbEntity
  8
DEFAULT
100
AcDbLine
 10
-586.7723931248906
 20
-244.4104275004361
 30
0.0
 11
-586.7723931248906
 21
-238.5
 31
0.0
  0
LINE
  5
111
330
1F
100
AcDbEntity
  8
DEFAULT
100
AcDbLine
 10
-586.7723931248906
 20
-238.5
 30
0.0
 11
-593.9999999999995
 21
-235.5
 31
0.0
  0
LINE
  5
112
330
1F
100
AcDbEntity
  8
DEFAULT
100
AcDbLine
 10
-593.9999999999995
 20
-235.5
 30
0.0
 11
-596.9999999999995
 21
-235.5
 31
0.0
  0
LINE
  5
113
330
1F
100
AcDbEntity
  8
DEFAULT
100
AcDbLine
 10
-596.9999999999995
 20
-235.5
 30
0.0
 11
-596.9999999999995
 21
-211.5
 31
0.0
  0
LINE
  5
114
330
1F
100
AcDbEntity
  8
DEFAULT
100
AcDbLine
 10
-596.9999999999995
 20
-211.5
 30
0.0
 11
-593.9999999999995
 21
-211.5
 31
0.0
  0
LINE
  5
115
330
1F
100
AcDbEntity
  8
DEFAULT
100
AcDbLine
 10
-593.9999999999995
 20
-211.5
 30
0.0
 11
-590.9999999999995
 21
-208.5
 31
0.0
  0
LINE
  5
116
330
1F
100
AcDbEntity
  8
DEFAULT
100
AcDbLine
 10
-590.9999999999995
 20
-208.5
 30
0.0
 11
-590.9999999999995
 21
-205.5
 31
0.0
  0
LINE
  5
117
330
1F
100
AcDbEntity
  8
DEFAULT
100
AcDbLine
 10
-669.9999999999995
 20
-237.4999999999991
 30
0.0
 11
-663.9999999999995
 21
-237.4999999999991
 31
0.0
  0
LINE
  5
118
330
1F
100
AcDbEntity
  8
DEFAULT
100
AcDbLine
 10
-663.9999999999995
 20
-237.4999999999991
 30
0.0
 11
-657.9999999999995
 21
-237.4999999999991
 31
0.0
  0
LINE
  5
119
330
1F
100
AcDbEntity
  8
DEFAULT
100
AcDbLine
 10
-657.9999999999995
 20
-237.4999999999991
 30
0.0
 11
-651.153393661243
 21
-237.4999999999991
 31
0.0
  0
ARC
  5
11A
330
1F
100
AcDbEntity
  8
DEFAULT
100
AcDbCircle
 10
-651.153393661243
 20
-234.4999999999991
 30
0.0
 40
3.0
100
AcDbArc
 50
270.0
 51
339.0751675723598
  0
ARC
  5
11B
330
1F
100
AcDbEntity
  8
DEFAULT
100
AcDbCircle
 10
-624.9999999999995
 20
-244.4999999999995
 30
0.0
 40
24.99999999999959
100
AcDbArc
 50
89.99999999999974
 51
159.0751675723602
  0
ARC
  5
11C
330
1F
100
AcDbEntity
  8
DEFAULT
100
AcDbCircle
 10
-624.9999999999995
 20
-216.5
 30
0.0
 40
3.0
100
AcDbArc
 50
270.0
 51
0.0
  0
LINE
  5
11D
330
1F
100
AcDbEntity
  8
DEFAULT
100
AcDbLine
 10
-621.9999999999995
 20
-216.5
 30
0.0
 11
-621.9999999999995
 21
-213.4999999999995
 31
0.0
  0
LINE
  5
11E
330
1F
100
AcDbEntity
  8
DEFAULT
100
AcDbLine
 10
-621.9999999999995
 20
-213.4999999999995
 30
0.0
 11
-639.9999999999995
 21
-213.4999999999995
 31
0.0
  0
LINE
  5
11F
330
1F
100
AcDbEntity
  8
DEFAULT
100
AcDbLine
 10
-639.9999999999995
 20
-213.4999999999995
 30
0.0
 11
-639.9999999999995
 21
-207.4999999999995
 31
0.0
  0
LINE
  5
120
330
1F
100
AcDbEntity
  8
DEFAULT
100
AcDbLine
 10
-639.9999999999995
 20
-207.4999999999995
 30
0.0
 11
-621.9999999999995
 21
-207.4999999999995
 31
0.0
  0
LINE
  5
121
330
1F
100
AcDbEntity
  8
DEFAULT
100
AcDbLine
 10
-621.9999999999995
 20
-207.4999999999995
 30
0.0
 11
-621.9999999999995
 21
-204.4999999999991
 31
0.0
  0
ARC
  5
122
330
1F
100
AcDbEntity
  8
DEFAULT
100
AcDbCircle
 10
-624.9999999999995
 20
-204.4999999999991
 30
0.0
 40
3.0
100
AcDbArc
 50
0.0
 51
90.0
  0
LINE
  5
123
330
1F
100
AcDbEntity
  8
DEFAULT
100
AcDbLine
 10
-624.9999999999995
 20
-201.4999999999991
 30
0.0
 11
-669.9999999999995
 21
-201.4999999999991
 31
0.0
  0
LINE
  5
124
330
1F
100
AcDbEntity
  8
DEFAULT
100
AcDbLine
 10
-669.9999999999995
 20
-201.4999999999991
 30
0.0
 11
-670.4999999999995
 21
-198.589572499563
 31
0.0
  0
LINE
  5
125
330
1F
100
AcDbEntity
  8
DEFAULT
100
AcDbLine
 10
-670.4999999999995
 20
-198.589572499563
 30
0.0
 11
-674.2276068751084
 21
-198.589572499563
 31
0.0
  0
LINE
  5
126
330
1F
100
AcDbEntity
  8
DEFAULT
100
AcDbLine
 10
-674.2276068751084
 20
-198.589572499563
 30
0.0
 11
-674.2276068751084
 21
-204.4999999999991
 31
0.0
  0
LINE
  5
127
330
1F
100
AcDbEntity
  8
DEFAULT
100
AcDbLine
 10
-674.2276068751084
 20
-204.4999999999991
 30
0.0
 11
-666.9999999999995
 21
-207.4999999999991
 31
0.0
  0
LINE
  5
128
330
1F
100
AcDbEntity
  8
DEFAULT
100
AcDbLine
 10
-666.9999999999995
 20
-207.4999999999991
 30
0.0
 11
-663.9999999999995
 21
-207.4999999999991
 31
0.0
  0
LINE
  5
129
330
1F
100
AcDbEntity
  8
DEFAULT
100
AcDbLine
 10
-663.9999999999995
 20
-207.4999999999991
 30
0.0
 11
-663.9999999999995
 21
-231.4999999999991
 31
0.0
  0
LINE
  5
12A
330
1F
100
AcDbEntity
  8
DEFAULT
100
AcDbLine
 10
-663.9999999999995
 20
-231.4999999999991
 30
0.0
 11
-666.9999999999995
 21
-231.4999999999991
 31
0.0
  0
LINE
  5
12B
330
1F
100
AcDbEntity
  8
DEFAULT
100
AcDbLine
 10
-666.9999999999995
 20
-231.4999999999991
 30
0.0
 11
-669.9999999999995
 21
-234.4999999999991
 31
0.0
  0
LINE
  5
12C
330
1F
100
AcDbEntity
  8
DEFAULT
100
AcDbLine
 10
-669.9999999999995
 20
-234.4999999999991
 30
0.0
 11
-669.9999999999995
 21
-237.4999999999991
 31
0.0
  0
ENDSEC
  0
SECTION
  2
OBJECTS
  0
DICTIONARY
  5
C
330
0
100
AcDbDictionary
  3
ACAD_GROUP
350
D
  3
ACAD_LAYOUT
350
1A
  3
ACAD_MATERIAL
350
43
  3
ACAD_MLEADERSTYLE
350
14F
  3
ACAD_MLINESTYLE
350
17
  3
ACAD_PLOTSETTINGS
350
19
  3
ACAD_SCALELIST
350
47
  3
ACAD_VISUALSTYLE
350
2A
  3
ACDBHEADERROUNDTRIPXREC
350
12D
  3
ACDBVARIABLEDICTIONARY
350
14D
  0
DICTIONARY
  5
D
102
{ACAD_REACTORS
330
C
102
}
330
C
100
AcDbDictionary
  0
DICTIONARY
  5
1A
102
{ACAD_REACTORS
330
C
102
}
330
C
100
AcDbDictionary
  0
DICTIONARY
  5
43
102
{ACAD_REACTORS
330
C
102
}
330
C
100
AcDbDictionary
  3
BYBLOCK
350
45
  3
BYLAYER
350
44
  3
GLOBAL
350
46
  0
DICTIONARY
  5
14F
102
{ACAD_REACTORS
330
C
102
}
330
C
100
AcDbDictionary
  0
DICTIONARY
  5
17
102
{ACAD_REACTORS
330
C
102
}
330
C
100
AcDbDictionary
  3
STANDARD
350
18
  0
DICTIONARY
  5
19
102
{ACAD_REACTORS
330
C
102
}
330
C
100
AcDbDictionary
  0
DICTIONARY
  5
47
102
{ACAD_REACTORS
330
C
102
}
330
C
100
AcDbDictionary
  3
A0
350
48
  3
A1
350
49
  3
A2
350
4A
  3
A3
350
4B
  3
A4
350
4C
  3
A5
350
4D
  3
A6
350
4E
  3
A7
350
4F
  3
A8
350
50
  3
A9
350
51
  3
B0
350
52
  3
B1
350
53
  3
B2
350
54
  3
B3
350
55
  3
B4
350
56
  3
B5
350
57
  3
B6
350
58
  3
B7
350
59
  3
B8
350
5A
  3
B9
350
5B
  3
C0
350
5C
  3
C1
350
5D
  3
C2
350
5E
  3
C3
350
5F
  3
C4
350
60
  3
C5
350
61
  3
C6
350
62
  3
C7
350
63
  3
C8
350
64
  3
C9
350
65
  3
D0
350
66
  3
D1
350
67
  3
D2
350
68
  0
DICTIONARY
  5
2A
102
{ACAD_REACTORS
330
C
102
}
330
C
100
AcDbDictionary
  3
2DWIREFRAME
350
2F
  3
BASIC
350
32
  3
BRIGHTEN
350
36
  3
COLORCHANGE
350
3A
  3
CONCEPTUAL
350
34
  3
DIM
350
35
  3
EDGECOLOROFF
350
3D
  3
FACEPATTERN
350
39
  3
FLAT
350
2B
  3
FLATWITHEDGES
350
2C
  3
GOURAUD
350
2D
  3
GOURAUDWITHEDGES
350
2E
  3
HIDDEN
350
31
  3
JITTEROFF
350
3B
  3
LINEPATTERN
350
38
  3
OVERHANGOFF
350
3C
  3
REALISTIC
350
33
  3
SHADED
350
42
  3
SHADED_WITH_EDGES
350
41
  3
SHADES_OF_GRAY
350
3E
  3
SKETCHY
350
3F
  3
THICKEN
350
37
  3
WIREFRAME
350
30
  3
X-RAY
350
40
  0
DICTIONARY
  5
12D
102
{ACAD_REACTORS
330
C
102
}
330
C
100
AcDbDictionary
  3
CEPSNTYPE
350
136
  3
DIMSTYLEDATA
350
14C
  3
FINGERPRINTGUID
350
137
  3
HYPERLINKBASE
350
130
  3
INSUNITS
350
135
  3
LAYOUTDICT
350
132
  3
LWETCUNION
350
134
  3
PLOTSETDICT
350
133
  3
PSVPSCALE
350
139
  3
PUCSBASE
350
13C
  3
PUCSORGBACK
350
142
  3
PUCSORGBOTTOM
350
13E
  3
PUCSORGFRONT
350
141
  3
PUCSORGLEFT
350
13F
  3
PUCSORGRIGHT
350
140
  3
PUCSORGTOP
350
13D
  3
PUCSORTHOREF
350
13A
  3
PUCSORTHOVIEW
350
13B
  3
STYLESHEET
350
131
  3
TSTACKALIGN
350
12E
  3
TSTACKSIZE
350
12F
  3
UCSBASE
350
145
  3
UCSORGBACK
350
14B
  3
UCSORGBOTTOM
350
147
  3
UCSORGFRONT
350
14A
  3
UCSORGLEFT
350
148
  3
UCSORGRIGHT
350
149
  3
UCSORGTOP
350
146
  3
UCSORTHOREF
350
143
  3
UCSORTHOVIEW
350
144
  3
VERSIONGUID
350
138
  0
DICTIONARY
  5
14D
102
{ACAD_REACTORS
330
C
102
}
330
C
100
AcDbDictionary
  3
CANNOSCALE
350
154
  3
DIMASSOC
350
152
  3
HIDETEXT
350
153
  3
MSLTSCALE
350
155
  0
MATERIAL
  5
45
102
{ACAD_REACTORS
330
43
102
}
102
{ACAD_XDICTIONARY
360
158
102
}
330
43
100
AcDbMaterial
  1
BYBLOCK
  0
MATERIAL
  5
44
102
{ACAD_REACTORS
330
43
102
}
102
{ACAD_XDICTIONARY
360
156
102
}
330
43
100
AcDbMaterial
  1
BYLAYER
  0
MATERIAL
  5
46
102
{ACAD_REACTORS
330
43
102
}
102
{ACAD_XDICTIONARY
360
15A
102
}
330
43
100
AcDbMaterial
  1
GLOBAL
  0
MLINESTYLE
  5
18
102
{ACAD_REACTORS
330
17
102
}
330
17
100
AcDbMlineStyle
  2
Standard
 70
     0
  3

 62
   256
 51
90.0
 52
90.0
 71
     2
 49
0.5
 62
   256
  6
BYLAYER
 49
-0.5
 62
   256
  6
BYLAYER
  0
ACAD_PROXY_OBJECT
  5
48
102
{ACAD_REACTORS
330
47
102
}
330
47
100
AcDbProxyObject
 90
      499
 91
      503
 93
       41
310
903313A31580
  0
ACAD_PROXY_OBJECT
  5
49
102
{ACAD_REACTORS
330
47
102
}
330
47
100
AcDbProxyObject
 90
      499
 91
      503
 93
      105
310
903313A324000000000000004000
  0
ACAD_PROXY_OBJECT
  5
4A
102
{ACAD_REACTORS
330
47
102
}
330
47
100
AcDbProxyObject
 90
      499
 91
      503
 93
      105
310
903313A344000000000000104000
  0
ACAD_PROXY_OBJECT
  5
4B
102
{ACAD_REACTORS
330
47
102
}
330
47
100
AcDbProxyObject
 90
      499
 91
      503
 93
      105
310
903313A354000000000000144000
  0
ACAD_PROXY_OBJECT
  5
4C
102
{ACAD_REACTORS
330
47
102
}
330
47
100
AcDbProxyObject
 90
      499
 91
      503
 93
      105
310
903313A384000000000000204000
  0
ACAD_PROXY_OBJECT
  5
4D
102
{ACAD_REACTORS
330
47
102
}
330
47
100
AcDbProxyObject
 90
      499
 91
      503
 93
      113
310
904313A31304000000000000244000
  0
ACAD_PROXY_OBJECT
  5
4E
102
{ACAD_REACTORS
330
47
102
}
330
47
100
AcDbProxyObject
 90
      499
 91
      503
 93
      113
310
904313A31364000000000000304000
  0
ACAD_PROXY_OBJECT
  5
4F
102
{ACAD_REACTORS
330
47
102
}
330
47
100
AcDbProxyObject
 90
      499
 91
      503
 93
      113
310
904313A32304000000000000344000
  0
ACAD_PROXY_OBJECT
  5
50
102
{ACAD_REACTORS
330
47
102
}
330
47
100
AcDbProxyObject
 90
      499
 91
      503
 93
      113
310
904313A333040000000000003E4000
  0
ACAD_PROXY_OBJECT
  5
51
102
{ACAD_REACTORS
330
47
102
}
330
47
100
AcDbProxyObject
 90
      499
 91
      503
 93
      113
310
904313A34304000000000000444000
  0
ACAD_PROXY_OBJECT
  5
52
102
{ACAD_REACTORS
330
47
102
}
330
47
100
AcDbProxyObject
 90
      499
 91
      503
 93
      113
310
904313A35304000000000000494000
  0
ACAD_PROXY_OBJECT
  5
53
102
{ACAD_REACTORS
330
47
102
}
330
47
100
AcDbProxyObject
 90
      499
 91
      503
 93
      121
310
905313A3130304000000000000594000
  0
ACAD_PROXY_OBJECT
  5
54
102
{ACAD_REACTORS
330
47
102
}
330
47
100
AcDbProxyObject
 90
      499
 91
      503
 93
      105
310
903323A310000000000000010100
  0
ACAD_PROXY_OBJECT
  5
55
102
{ACAD_REACTORS
330
47
102
}
330
47
100
AcDbProxyObject
 90
      499
 91
      503
 93
      105
310
903343A310000000000000410100
  0
ACAD_PROXY_OBJECT
  5
56
102
{ACAD_REACTORS
330
47
102
}
330
47
100
AcDbProxyObject
 90
      499
 91
      503
 93
      105
310
903383A310000000000000810100
  0
ACAD_PROXY_OBJECT
  5
57
102
{ACAD_REACTORS
330
47
102
}
330
47
100
AcDbProxyObject
 90
      499
 91
      503
 93
      113
310
90431303A310000000000000910100
  0
ACAD_PROXY_OBJECT
  5
58
102
{ACAD_REACTORS
330
47
102
}
330
47
100
AcDbProxyObject
 90
      499
 91
      503
 93
      121
310
9053130303A310000000000001650100
  0
ACAD_PROXY_OBJECT
  5
59
102
{ACAD_REACTORS
330
47
102
}
330
47
100
AcDbProxyObject
 90
      499
 91
      503
 93
      257
310
90E312F31323822203D2031272D3022000000000000200FC000000000000284000
  0
ACAD_PROXY_OBJECT
  5
5A
102
{ACAD_REACTORS
330
47
102
}
330
47
100
AcDbProxyObject
 90
      499
 91
      503
 93
      249
310
90D312F363422203D2031272D3022000000000000240FC000000000000284000
  0
ACAD_PROXY_OBJECT
  5
5B
102
{ACAD_REACTORS
330
47
102
}
330
47
100
AcDbProxyObject
 90
      499
 91
      503
 93
      249
310
90D312F333222203D2031272D3022000000000000280FC000000000000284000
  0
ACAD_PROXY_OBJECT
  5
5C
102
{ACAD_REACTORS
330
47
102
}
330
47
100
AcDbProxyObject
 90
      499
 91
      503
 93
      249
310
90D312F313622203D2031272D30220000000000002C0FC000000000000284000
  0
ACAD_PROXY_OBJECT
  5
5D
102
{ACAD_REACTORS
330
47
102
}
330
47
100
AcDbProxyObject
 90
      499
 91
      503
 93
      249
310
90D332F333222203D2031272D30220000000000002E0FC000000000000284000
  0
ACAD_PROXY_OBJECT
  5
5E
102
{ACAD_REACTORS
330
47
102
}
330
47
100
AcDbProxyObject
 90
      499
 91
      503
 93
      241
310
90C312F3822203D2031272D3022000000000000300FC000000000000284000
  0
ACAD_PROXY_OBJECT
  5
5F
102
{ACAD_REACTORS
330
47
102
}
330
47
100
AcDbProxyObject
 90
      499
 91
      503
 93
      249
310
90D332F313622203D2031272D3022000000000000320FC000000000000284000
  0
ACAD_PROXY_OBJECT
  5
60
102
{ACAD_REACTORS
330
47
102
}
330
47
100
AcDbProxyObject
 90
      499
 91
      503
 93
      241
310
90C312F3422203D2031272D3022000000000000340FC000000000000284000
  0
ACAD_PROXY_OBJECT
  5
61
102
{ACAD_REACTORS
330
47
102
}
330
47
100
AcDbProxyObject
 90
      499
 91
      503
 93
      241
310
90C332F3822203D2031272D3022000000000000360FC000000000000284000
  0
ACAD_PROXY_OBJECT
  5
62
102
{ACAD_REACTORS
330
47
102
}
330
47
100
AcDbProxyObject
 90
      499
 91
      503
 93
      241
310
90C312F3222203D2031272D3022000000000000380FC000000000000284000
  0
ACAD_PROXY_OBJECT
  5
63
102
{ACAD_REACTORS
330
47
102
}
330
47
100
AcDbProxyObject
 90
      499
 91
      503
 93
      241
310
90C332F3422203D2031272D30220000000000003A0FC000000000000284000
  0
ACAD_PROXY_OBJECT
  5
64
102
{ACAD_REACTORS
330
47
102
}
330
47
100
AcDbProxyObject
 90
      499
 91
      503
 93
      161
310
90A3122203D2031272D30224000000000000284000
  0
ACAD_PROXY_OBJECT
  5
65
102
{ACAD_REACTORS
330
47
102
}
330
47
100
AcDbProxyObject
 90
      499
 91
      503
 93
      257
310
90E312D312F3222203D2031272D30220000000000003E0FC000000000000284000
  0
ACAD_PROXY_OBJECT
  5
66
102
{ACAD_REACTORS
330
47
102
}
330
47
100
AcDbProxyObject
 90
      499
 91
      503
 93
      225
310
90A3322203D2031272D302200000000000002100000000000000284000
  0
ACAD_PROXY_OBJECT
  5
67
102
{ACAD_REACTORS
330
47
102
}
330
47
100
AcDbProxyObject
 90
      499
 91
      503
 93
      225
310
90A3622203D2031272D302200000000000006100000000000000284000
  0
ACAD_PROXY_OBJECT
  5
68
102
{ACAD_REACTORS
330
47
102
}
330
47
100
AcDbProxyObject
 90
      499
 91
      503
 93
      249
310
90D31272D3022203D2031272D30220000000000000A100000000000000284000
  0
ACAD_PROXY_OBJECT
  5
2F
102
{ACAD_REACTORS
330
2A
102
}
330
2A
100
AcDbProxyObject
 90
      499
 91
      501
 93
      436
310
42CC9915DA5C99599C985B595049028333333333333E33F0000000000000F90107901411070040501600405405064090741402480A0340
1001
ACAD
1000
AcDbSavedByObjectVersion
1070
     0
  0
ACAD_PROXY_OBJECT
  5
32
102
{ACAD_REACTORS
330
2A
102
}
330
2A
100
AcDbProxyObject
 90
      499
 91
      501
 93
      388
310
4150985CDA58D07406404333333333333E33F0000000000000F90107A41107004050150841D405064090741402480A0350
1001
ACAD
1000
AcDbSavedByObjectVersion
1070
     0
  0
ACAD_PROXY_OBJECT
  5
36
102
{ACAD_REACTORS
330
2A
102
}
330
2A
100
AcDbProxyObject
 90
      499
 91
      501
 93
      428
310
42109C9A59DA1D195B90C409028333333333333E33F0000000000000F9010790141107004050150841D405064090741402480A029950
1001
ACAD
1000
AcDbSavedByObjectVersion
1070
     0
  0
ACAD_PROXY_OBJECT
  5
3A
102
{ACAD_REACTORS
330
2A
102
}
330
2A
100
AcDbProxyObject
 90
      499
 91
      501
 93
      452
310
42D0DBDB1BDC90DA185B99D95104090240C333333333333E33F0000000000000F90108901411070040501508421405064090741402480A0350
1001
ACAD
1000
AcDbSavedByObjectVersion
1070
     0
  0
ACAD_PROXY_OBJECT
  5
34
102
{ACAD_REACTORS
330
2A
102
}
330
2A
100
AcDbProxyObject
 90
      499
 91
      501
 93
      500
310
4290DBDB98D95C1D1D585B10940D028333333333333E33F0000000000000F90107902409070040501000000000018199010841D405064090740C02480A0340
1001
ACAD
1000
AcDbSavedByObjectVersion
1070
     0
  0
ACAD_PROXY_OBJECT
  5
35
102
{ACAD_REACTORS
330
2A
102
}
330
2A
100
AcDbProxyObject
 90
      499
 91
      501
 93
      412
310
40D11A5B50B409028333333333333E33F0000000000000F9010790141107004050150841D405064090741402480A02677FFFFFD0
1001
ACAD
1000
AcDbSavedByObjectVersion
1070
     0
  0
ACAD_PROXY_OBJECT
  5
3D
102
{ACAD_REACTORS
330
2A
102
}
330
2A
100
AcDbProxyObject
 90
      499
 91
      501
 93
      452
310
43115919D950DBDB1BDC93D999916409028333333333333E33F0000000000000F9010790141107004050150841D405064090741402480A0350
1001
ACAD
1000
AcDbSavedByObjectVersion
1070
     0
  0
ACAD_PROXY_OBJECT
  5
39
102
{ACAD_REACTORS
330
2A
102
}
330
2A
100
AcDbProxyObject
 90
      499
 91
      501
 93
      444
310
42D19858D95C185D1D195C9B90F409028333333333333E33F0000000000000F9010790141107004050150841D405064090741402480A0350
1001
ACAD
1000
AcDbSavedByObjectVersion
1070
     0
  0
ACAD_PROXY_OBJECT
  5
2B
102
{ACAD_REACTORS
330
2A
102
}
330
2A
100
AcDbProxyObject
 90
      499
 91
      501
 93
      380
310
41119B185D240901404333333333333E33F0000000000000F9010740A907004050150841D405064090741402480A1B50
1001
ACAD
1000
AcDbSavedByObjectVersion
1070
     0
  0
ACAD_PROXY_OBJECT
  5
2C
102
{ACAD_REACTORS
330
2A
102
}
330
2A
100
AcDbProxyObject
 90
      499
 91
      501
 93
      468
310
43519B185D15DA5D1A115919D95CD0140901404333333333333E33F0000000000000F90107409019070040501600405405064090741402480A1B50
1001
ACAD
1000
AcDbSavedByObjectVersion
1070
     0
  0
ACAD_PROXY_OBJECT
  5
2D
102
{ACAD_REACTORS
330
2A
102
}
330
2A
100
AcDbProxyObject
 90
      499
 91
      501
 93
      404
310
41D1DBDD5C985D5910240902404333333333333E33F0000000000000F9010740A9070040501641D405064090741402480A1B50
1001
ACAD
1000
AcDbSavedByObjectVersion
1070
     0
  0
ACAD_PROXY_OBJECT
  5
2E
102
{ACAD_REACTORS
330
2A
102
}
330
2A
100
AcDbProxyObject
 90
      499
 91
      501
 93
      492
310
4411DBDD5C985D5915DA5D1A115919D95CD0340902404333333333333E33F0000000000000F90107409019070040501600405405064090741402480A1B50
1001
ACAD
1000
AcDbSavedByObjectVersion
1070
     0
  0
ACAD_PROXY_OBJECT
  5
31
102
{ACAD_REACTORS
330
2A
102
}
330
2A
100
AcDbProxyObject
 90
      499
 91
      501
 93
      476
310
41921A5919195B90640502408333333333333E33F0000000000000F901079024090700405020000000000001110200405405064090740C02480A0340
1001
ACAD
1000
AcDbSavedByObjectVersion
1070
     0
  0
ACAD_PROXY_OBJECT
  5
3B
102
{ACAD_REACTORS
330
2A
102
}
330
2A
100
AcDbProxyObject
 90
      499
 91
      501
 93
      428
310
42529A5D1D195C93D999914409028333333333333E33F0000000000000F9010790141107004050150A41D405064090741402480A0350
1001
ACAD
1000
AcDbSavedByObjectVersion
1070
     0
  0
ACAD_PROXY_OBJECT
  5
38
102
{ACAD_REACTORS
330
2A
102
}
330
2A
100
AcDbProxyObject
 90
      499
 91
      501
 93
      444
310
42D31A5B995C185D1D195C9B90E409028333333333333E33F0000000000000F9010790141107004050750841D405064090741402483A0350
1001
ACAD
1000
AcDbSavedByObjectVersion
1070
     0
  0
ACAD_PROXY_OBJECT
  5
3C
102
{ACAD_REACTORS
330
2A
102
}
330
2A
100
AcDbProxyObject
 90
      499
 91
      501
 93
      444
310
42D3DD995C9A185B99D3D999915409028333333333333E33F0000000000000F9010790141107004050150941D405064090741402480A0350
1001
ACAD
1000
AcDbSavedByObjectVersion
1070
     0
  0
ACAD_PROXY_OBJECT
  5
33
102
{ACAD_REACTORS
330
2A
102
}
330
2A
100
AcDbProxyObject
 90
      499
 91
      501
 93
      428
310
425499585B1A5CDD1A58D08409038333333333333E33F0000000000000F9010740A907004050150800405405064090740C02480A1B40
1001
ACAD
1000
AcDbSavedByObjectVersion
1070
     0
  0
ACAD_PROXY_OBJECT
  5
42
102
{ACAD_REACTORS
330
2A
102
}
330
2A
100
AcDbProxyObject
 90
      499
 91
      501
 93
      420
310
4194DA1859195911B40902404333333333333E33F0000000000000F9010740A41107004050150800405405064090840C02480A0B40
1001
ACAD
1000
AcDbSavedByObjectVersion
1070
     0
  0
ACAD_PROXY_OBJECT
  5
41
102
{ACAD_REACTORS
330
2A
102
}
330
2A
100
AcDbProxyObject
 90
      499
 91
      501
 93
      516
310
4454DA18591959081DDA5D1A08195919D95CD1A40902404333333333333E33F0000000000000F901074090142907004050250800405405064090740C02480A0B40
1001
ACAD
1000
AcDbSavedByObjectVersion
1070
     0
  0
ACAD_PROXY_OBJECT
  5
3E
102
{ACAD_REACTORS
330
2A
102
}
330
2A
100
AcDbProxyObject
 90
      499
 91
      501
 93
      532
310
4394DA1859195CC81BD98811DC985E5174090240C333333333333E33F0000000000000F901079024090741D01000000000000111010841D405064090740C02480A0340
1001
ACAD
1000
AcDbSavedByObjectVersion
1070
     0
  0
ACAD_PROXY_OBJECT
  5
3F
102
{ACAD_REACTORS
330
2A
102
}
330
2A
100
AcDbProxyObject
 90
      499
 91
      501
 93
      476
310
41D4DAD95D18DA1E51840502408333333333333E33F0000000000000F901079024090741D01000000000000111010B41D405064090741802480A0340
1001
ACAD
1000
AcDbSavedByObjectVersion
1070
     0
  0
ACAD_PROXY_OBJECT
  5
37
102
{ACAD_REACTORS
330
2A
102
}
330
2A
100
AcDbProxyObject
 90
      499
 91
      501
 93
      412
310
41D51A1A58DAD95B90D409028333333333333E33F0000000000000F9010790141107004050150C41D405064090741402480A0350
1001
ACAD
1000
AcDbSavedByObjectVersion
1070
     0
  0
ACAD_PROXY_OBJECT
  5
30
102
{ACAD_REACTORS
330
2A
102
}
330
2A
100
AcDbProxyObject
 90
      499
 91
      501
 93
      420
310
4255DA5C99599C985B595059028333333333333E33F0000000000000F90107901411070040501600405405064090740C02480A0340
1001
ACAD
1000
AcDbSavedByObjectVersion
1070
     0
  0
ACAD_PROXY_OBJECT
  5
40
102
{ACAD_REACTORS
330
2A
102
}
330
2A
100
AcDbProxyObject
 90
      499
 91
      501
 93
      404
310
41560B54985E51940902404000000000000E03F0000000000000F9010740501907004050150841D405064090740C02480A1B40
1001
ACAD
1000
AcDbSavedByObjectVersion
1070
     0
  0
XRECORD
  5
136
102
{ACAD_REACTORS
330
12D
102
}
330
12D
100
AcDbXrecord
 90
        0
  0
XRECORD
  5
14C
102
{ACAD_REACTORS
330
12D
102
}
330
12D
100
AcDbXrecord
1000
DSTYLE
1002
{
1070
   279
 70
     2
1070
   340
340
11
1002
}
  0
XRECORD
  5
137
102
{ACAD_REACTORS
330
12D
102
}
330
12D
100
AcDbXrecord
  1
{A0D56C87-7ECE-4A8A-B165-B73FB585CF0F}
  0
XRECORD
  5
130
102
{ACAD_REACTORS
330
12D
102
}
330
12D
100
AcDbXrecord
  1

  0
XRECORD
  5
135
102
{ACAD_REACTORS
330
12D
102
}
330
12D
100
AcDbXrecord
 90
        4
  0
XRECORD
  5
132
102
{ACAD_REACTORS
330
12D
102
}
330
12D
100
AcDbXrecord
340
1A
  0
XRECORD
  5
134
102
{ACAD_REACTORS
330
12D
102
}
330
12D
100
AcDbXrecord
 90
    10781
  0
XRECORD
  5
133
102
{ACAD_REACTORS
330
12D
102
}
330
12D
100
AcDbXrecord
340
19
  0
XRECORD
  5
139
102
{ACAD_REACTORS
330
12D
102
}
330
12D
100
AcDbXrecord
 40
0.0
  0
XRECORD
  5
13C
102
{ACAD_REACTORS
330
12D
102
}
330
12D
100
AcDbXrecord
340
0
  0
XRECORD
  5
142
102
{ACAD_REACTORS
330
12D
102
}
330
12D
100
AcDbXrecord
 10
0.0
 20
0.0
 30
0.0
  0
XRECORD
  5
13E
102
{ACAD_REACTORS
330
12D
102
}
330
12D
100
AcDbXrecord
 10
0.0
 20
0.0
 30
0.0
  0
XRECORD
  5
141
102
{ACAD_REACTORS
330
12D
102
}
330
12D
100
AcDbXrecord
 10
0.0
 20
0.0
 30
0.0
  0
XRECORD
  5
13F
102
{ACAD_REACTORS
330
12D
102
}
330
12D
100
AcDbXrecord
 10
0.0
 20
0.0
 30
0.0
  0
XRECORD
  5
140
102
{ACAD_REACTORS
330
12D
102
}
330
12D
100
AcDbXrecord
 10
0.0
 20
0.0
 30
0.0
  0
XRECORD
  5
13D
102
{ACAD_REACTORS
330
12D
102
}
330
12D
100
AcDbXrecord
 10
0.0
 20
0.0
 30
0.0
  0
XRECORD
  5
13A
102
{ACAD_REACTORS
330
12D
102
}
330
12D
100
AcDbXrecord
340
0
  0
XRECORD
  5
13B
102
{ACAD_REACTORS
330
12D
102
}
330
12D
100
AcDbXrecord
 70
     0
  0
XRECORD
  5
131
102
{ACAD_REACTORS
330
12D
102
}
330
12D
100
AcDbXrecord
  1

  0
XRECORD
  5
12E
102
{ACAD_REACTORS
330
12D
102
}
330
12D
100
AcDbXrecord
 90
        1
  0
XRECORD
  5
12F
102
{ACAD_REACTORS
330
12D
102
}
330
12D
100
AcDbXrecord
 90
       70
  0
XRECORD
  5
145
102
{ACAD_REACTORS
330
12D
102
}
330
12D
100
AcDbXrecord
340
0
  0
XRECORD
  5
14B
102
{ACAD_REACTORS
330
12D
102
}
330
12D
100
AcDbXrecord
 10
0.0
 20
0.0
 30
0.0
  0
XRECORD
  5
147
102
{ACAD_REACTORS
330
12D
102
}
330
12D
100
AcDbXrecord
 10
0.0
 20
0.0
 30
0.0
  0
XRECORD
  5
14A
102
{ACAD_REACTORS
330
12D
102
}
330
12D
100
AcDbXrecord
 10
0.0
 20
0.0
 30
0.0
  0
XRECORD
  5
148
102
{ACAD_REACTORS
330
12D
102
}
330
12D
100
AcDbXrecord
 10
0.0
 20
0.0
 30
0.0
  0
XRECORD
  5
149
102
{ACAD_REACTORS
330
12D
102
}
330
12D
100
AcDbXrecord
 10
0.0
 20
0.0
 30
0.0
  0
XRECORD
  5
146
102
{ACAD_REACTORS
330
12D
102
}
330
12D
100
AcDbXrecord
 10
0.0
 20
0.0
 30
0.0
  0
XRECORD
  5
143
102
{ACAD_REACTORS
330
12D
102
}
330
12D
100
AcDbXrecord
340
0
  0
XRECORD
  5
144
102
{ACAD_REACTORS
330
12D
102
}
330
12D
100
AcDbXrecord
 70
     0
  0
XRECORD
  5
138
102
{ACAD_REACTORS
330
12D
102
}
330
12D
100
AcDbXrecord
  1
{FAEB1C32-E019-11D5-929B-00C0DF256EC4}
  0
DICTIONARYVAR
  5
154
102
{ACAD_REACTORS
330
14D
102
}
330
14D
100
DictionaryVariables
280
     0
  1
1:1
  0
DICTIONARYVAR
  5
152
102
{ACAD_REACTORS
330
14D
102
}
330
14D
100
DictionaryVariables
280
     0
  1
2
  0
DICTIONARYVAR
  5
153
102
{ACAD_REACTORS
330
14D
102
}
330
14D
100
DictionaryVariables
280
     0
  1
1
  0
DICTIONARYVAR
  5
155
102
{ACAD_REACTORS
330
14D
102
}
330
14D
100
DictionaryVariables
280
     0
  1
1
  0
DICTIONARY
  5
158
330
45
100
AcDbDictionary
280
     1
  3
ACAD_XREC_ROUNDTRIP
360
159
  0
DICTIONARY
  5
156
330
44
100
AcDbDictionary
280
     1
  3
ACAD_XREC_ROUNDTRIP
360
157
  0
DICTIONARY
  5
15A
330
46
100
AcDbDictionary
280
     1
  3
ACAD_XREC_ROUNDTRIP
360
15B
  0
XRECORD
  5
159
102
{ACAD_REACTORS
330
158
102
}
330
158
100
AcDbXrecord
102
MATERIAL
148
0.0
149
0.0
149
0.0
 93
        0
 94
      127
282
     0
 72
     1
 77
     1
171
     1
175
     1
179
     1
273
     0
  0
XRECORD
  5
157
102
{ACAD_REACTORS
330
156
102
}
330
156
100
AcDbXrecord
102
MATERIAL
148
0.0
149
0.0
149
0.0
 93
        0
 94
      127
282
     0
 72
     1
 77
     1
171
     1
175
     1
179
     1
273
     0
  0
XRECORD
  5
15B
102
{ACAD_REACTORS
330
15A
102
}
330
15A
100
AcDbXrecord
102
MATERIAL
148
0.0
149
0.0
149
0.0
 93
        0
 94
      127
282
     0
 72
     1
 77
     1
171
     1
175
     1
179
     1
273
     0
  0
ENDSEC
  0
EOF
