  0
SECTION
  2
HEADER
  9
$ACADVER
  1
AC1014
  9
$ACADMAINTVER
 70
     9
  9
$DWGCODEPAGE
  3
ANSI_1251
  9
$INSBASE
 10
0.0
 20
0.0
 30
0.0
  9
$EXTMIN
 10
-858.675466106095
 20
-604.4999999999995
 30
0.0
  9
$EXTMAX
 10
-337.9999999999995
 20
-363.2723931248906
 30
0.0
  9
$LIMMIN
 10
0.0
 20
0.0
  9
$LIMMAX
 10
12.0
 20
9.0
  9
$ORTHOMODE
 70
     0
  9
$REGENMODE
 70
     1
  9
$FILLMODE
 70
     1
  9
$QTEXTMODE
 70
     0
  9
$MIRRTEXT
 70
     1
  9
$DRAGMODE
 70
     2
  9
$LTSCALE
 40
1.0
  9
$OSMODE
 70
    37
  9
$ATTMODE
 70
     1
  9
$TEXTSIZE
 40
0.2
  9
$TRACEWID
 40
0.05
  9
$TEXTSTYLE
  7
STANDARD
  9
$CLAYER
  8
DEFAULT
  9
$CELTYPE
  6
BYLAYER
  9
$CECOLOR
 62
   256
  9
$CELTSCALE
 40
1.0
  9
$DELOBJ
 70
     1
  9
$DISPSILH
 70
     0
  9
$DIMSCALE
 40
1.0
  9
$DIMASZ
 40
0.18
  9
$DIMEXO
 40
0.0625
  9
$DIMDLI
 40
0.38
  9
$DIMRND
 40
0.0
  9
$DIMDLE
 40
0.0
  9
$DIMEXE
 40
0.18
  9
$DIMTP
 40
0.0
  9
$DIMTM
 40
0.0
  9
$DIMTXT
 40
0.18
  9
$DIMCEN
 40
0.09
  9
$DIMTSZ
 40
0.0
  9
$DIMTOL
 70
     0
  9
$DIMLIM
 70
     0
  9
$DIMTIH
 70
     1
  9
$DIMTOH
 70
     1
  9
$DIMSE1
 70
     0
  9
$DIMSE2
 70
     0
  9
$DIMTAD
 70
     0
  9
$DIMZIN
 70
     0
  9
$DIMBLK
  1

  9
$DIMASO
 70
     1
  9
$DIMSHO
 70
     1
  9
$DIMPOST
  1

  9
$DIMAPOST
  1

  9
$DIMALT
 70
     0
  9
$DIMALTD
 70
     2
  9
$DIMALTF
 40
25.4
  9
$DIMLFAC
 40
1.0
  9
$DIMTOFL
 70
     0
  9
$DIMTVP
 40
0.0
  9
$DIMTIX
 70
     0
  9
$DIMSOXD
 70
     0
  9
$DIMSAH
 70
     0
  9
$DIMBLK1
  1

  9
$DIMBLK2
  1

  9
$DIMSTYLE
  2
STANDARD
  9
$DIMCLRD
 70
     0
  9
$DIMCLRE
 70
     0
  9
$DIMCLRT
 70
     0
  9
$DIMTFAC
 40
1.0
  9
$DIMGAP
 40
0.09
  9
$DIMJUST
 70
     0
  9
$DIMSD1
 70
     0
  9
$DIMSD2
 70
     0
  9
$DIMTOLJ
 70
     1
  9
$DIMTZIN
 70
     0
  9
$DIMALTZ
 70
     0
  9
$DIMALTTZ
 70
     0
  9
$DIMFIT
 70
     5
  9
$DIMUPT
 70
     0
  9
$DIMUNIT
 70
     2
  9
$DIMDEC
 70
     4
  9
$DIMTDEC
 70
     4
  9
$DIMALTU
 70
     2
  9
$DIMALTTD
 70
     2
  9
$DIMTXSTY
  7
STANDARD
  9
$DIMAUNIT
 70
     0
  9
$LUNITS
 70
     2
  9
$LUPREC
 70
     2
  9
$SKETCHINC
 40
0.1
  9
$FILLETRAD
 40
0.5
  9
$AUNITS
 70
     0
  9
$AUPREC
 70
     0
  9
$MENU
  1
.
  9
$ELEVATION
 40
0.0
  9
$PELEVATION
 40
0.0
  9
$THICKNESS
 40
0.0
  9
$LIMCHECK
 70
     0
  9
$CHAMFERA
 40
0.0
  9
$CHAMFERB
 40
0.0
  9
$CHAMFERC
 40
0.0
  9
$CHAMFERD
 40
0.0
  9
$SKPOLY
 70
     0
  9
$TDCREATE
 40
2458893.551871262
  9
$TDUPDATE
 40
2458893.551883391
  9
$TDINDWG
 40
0.0000000116
  9
$TDUSRTIMER
 40
0.0000000116
  9
$USRTIMER
 70
     1
  9
$ANGBASE
 50
0.0
  9
$ANGDIR
 70
     0
  9
$PDMODE
 70
     0
  9
$PDSIZE
 40
0.0
  9
$PLINEWID
 40
0.0
  9
$COORDS
 70
     1
  9
$SPLFRAME
 70
     0
  9
$SPLINETYPE
 70
     6
  9
$SPLINESEGS
 70
     8
  9
$ATTDIA
 70
     0
  9
$ATTREQ
 70
     1
  9
$HANDLING
 70
     1
  9
$HANDSEED
  5
306
  9
$SURFTAB1
 70
     6
  9
$SURFTAB2
 70
     6
  9
$SURFTYPE
 70
     6
  9
$SURFU
 70
     6
  9
$SURFV
 70
     6
  9
$UCSNAME
  2

  9
$UCSORG
 10
0.0
 20
0.0
 30
0.0
  9
$UCSXDIR
 10
1.0
 20
0.0
 30
0.0
  9
$UCSYDIR
 10
0.0
 20
1.0
 30
0.0
  9
$PUCSNAME
  2

  9
$PUCSORG
 10
0.0
 20
0.0
 30
0.0
  9
$PUCSXDIR
 10
1.0
 20
0.0
 30
0.0
  9
$PUCSYDIR
 10
0.0
 20
1.0
 30
0.0
  9
$USERI1
 70
     0
  9
$USERI2
 70
     0
  9
$USERI3
 70
     0
  9
$USERI4
 70
     0
  9
$USERI5
 70
     0
  9
$USERR1
 40
0.0
  9
$USERR2
 40
0.0
  9
$USERR3
 40
0.0
  9
$USERR4
 40
0.0
  9
$USERR5
 40
0.0
  9
$WORLDVIEW
 70
     1
  9
$SHADEDGE
 70
     3
  9
$SHADEDIF
 70
    70
  9
$TILEMODE
 70
     1
  9
$MAXACTVP
 70
    64
  9
$PINSBASE
 10
0.0
 20
0.0
 30
0.0
  9
$PLIMCHECK
 70
     0
  9
$PEXTMIN
 10
1.000000000000000E+20
 20
1.000000000000000E+20
 30
1.000000000000000E+20
  9
$PEXTMAX
 10
-1.000000000000000E+20
 20
-1.000000000000000E+20
 30
-1.000000000000000E+20
  9
$PLIMMIN
 10
0.0
 20
0.0
  9
$PLIMMAX
 10
12.0
 20
9.0
  9
$UNITMODE
 70
     0
  9
$VISRETAIN
 70
     1
  9
$PLINEGEN
 70
     0
  9
$PSLTSCALE
 70
     1
  9
$TREEDEPTH
 70
  3020
  9
$PICKSTYLE
 70
     1
  9
$CMLSTYLE
  2
STANDARD
  9
$CMLJUST
 70
     0
  9
$CMLSCALE
 40
1.0
  9
$PROXYGRAPHICS
 70
     1
  9
$MEASUREMENT
 70
     0
  0
ENDSEC
  0
SECTION
  2
CLASSES
  0
CLASS
  1
ACDBDICTIONARYWDFLT
  2
AcDbDictionaryWithDefault
  3
ObjectDBX Classes
 90
        0
280
     0
281
     0
  0
CLASS
  1
VISUALSTYLE
  2
AcDbVisualStyle
  3
ObjectDBX Classes
 90
     4095
280
     0
281
     0
  0
CLASS
  1
MATERIAL
  2
AcDbMaterial
  3
ObjectDBX Classes
 90
     1153
280
     0
281
     0
  0
CLASS
  1
SCALE
  2
AcDbScale
  3
ObjectDBX Classes
 90
     1153
280
     0
281
     0
  0
CLASS
  1
SUN
  2
AcDbSun
  3
SCENEOE
 90
     1153
280
     0
281
     0
  0
CLASS
  1
DICTIONARYVAR
  2
AcDbDictionaryVar
  3
ObjectDBX Classes
 90
        0
280
     0
281
     0
  0
CLASS
  1
XRECORD
  2
AcDbXrecord
  3
ObjectDBX Classes
 90
        0
280
     0
281
     0
  0
CLASS
  1
LWPOLYLINE
  2
AcDbPolyline
  3
ObjectDBX Classes
 90
        0
280
     0
281
     1
  0
CLASS
  1
HATCH
  2
AcDbHatch
  3
ObjectDBX Classes
 90
        0
280
     0
281
     1
  0
CLASS
  1
ACDBPLACEHOLDER
  2
AcDbPlaceHolder
  3
ObjectDBX Classes
 90
        0
280
     0
281
     0
  0
CLASS
  1
LAYOUT
  2
AcDbLayout
  3
ObjectDBX Classes
 90
        0
280
     0
281
     0
  0
ENDSEC
  0
SECTION
  2
TABLES
  0
TABLE
  2
VPORT
  5
8
330
0
100
AcDbSymbolTable
 70
     1
  0
VPORT
  5
29
330
8
100
AcDbSymbolTableRecord
100
AcDbViewportTableRecord
  2
*ACTIVE
 70
     0
 10
0.0
 20
0.0
 11
1.0
 21
1.0
 12
-598.3377330530473
 22
-483.8861965624451
 13
0.0
 23
0.0
 14
0.5
 24
0.5
 15
0.5
 25
0.5
 16
0.0
 26
0.0
 36
1.0
 17
0.0
 27
0.0
 37
0.0
 40
246.0521590126111
 41
2.158440623156642
 42
50.0
 43
0.0
 44
0.0
 50
0.0
 51
0.0
 71
     0
 72
   100
 73
     1
 74
     3
 75
     0
 76
     0
 77
     0
 78
     0
  0
ENDTAB
  0
TABLE
  2
LTYPE
  5
5
330
0
100
AcDbSymbolTable
 70
     1
  0
LTYPE
  5
14
330
5
100
AcDbSymbolTableRecord
100
AcDbLinetypeTableRecord
  2
BYBLOCK
 70
     0
  3

 72
    65
 73
     0
 40
0.0
  0
LTYPE
  5
15
330
5
100
AcDbSymbolTableRecord
100
AcDbLinetypeTableRecord
  2
BYLAYER
 70
     0
  3

 72
    65
 73
     0
 40
0.0
  0
LTYPE
  5
16
330
5
100
AcDbSymbolTableRecord
100
AcDbLinetypeTableRecord
  2
CONTINUOUS
 70
     0
  3
Solid line
 72
    65
 73
     0
 40
0.0
  0
ENDTAB
  0
TABLE
  2
LAYER
  5
2
330
0
100
AcDbSymbolTable
 70
     2
  0
LAYER
  5
10
330
2
100
AcDbSymbolTableRecord
100
AcDbLayerTableRecord
  2
0
 70
     0
 62
     7
  6
CONTINUOUS
  0
LAYER
  5
6A
330
2
100
AcDbSymbolTableRecord
100
AcDbLayerTableRecord
  2
DEFAULT
 70
     0
 62
    18
  6
CONTINUOUS
  0
ENDTAB
  0
TABLE
  2
STYLE
  5
3
330
0
100
AcDbSymbolTable
 70
     1
  0
STYLE
  5
11
330
3
100
AcDbSymbolTableRecord
100
AcDbTextStyleTableRecord
  2
STANDARD
 70
     0
 40
0.0
 41
1.0
 50
0.0
 71
     0
 42
0.2
  3
txt
  4

  0
ENDTAB
  0
TABLE
  2
VIEW
  5
6
330
0
100
AcDbSymbolTable
 70
     0
  0
ENDTAB
  0
TABLE
  2
UCS
  5
7
330
0
100
AcDbSymbolTable
 70
     0
  0
ENDTAB
  0
TABLE
  2
APPID
  5
9
330
0
100
AcDbSymbolTable
 70
     1
  0
APPID
  5
12
330
9
100
AcDbSymbolTableRecord
100
AcDbRegAppTableRecord
  2
ACAD
 70
     0
  0
ENDTAB
  0
TABLE
  2
DIMSTYLE
  5
A
330
0
100
AcDbSymbolTable
 70
     1
  0
DIMSTYLE
105
27
330
A
100
AcDbSymbolTableRecord
100
AcDbDimStyleTableRecord
  2
STANDARD
 70
     0
  3

  4

  5

  6

  7

 40
1.0
 41
0.18
 42
0.0625
 43
0.38
 44
0.18
 45
0.0
 46
0.0
 47
0.0
 48
0.0
140
0.18
141
0.09
142
0.0
143
25.4
144
1.0
145
0.0
146
1.0
147
0.09
 71
     0
 72
     0
 73
     1
 74
     1
 75
     0
 76
     0
 77
     0
 78
     0
170
     0
171
     2
172
     0
173
     0
174
     0
175
     0
176
     0
177
     0
178
     0
270
     2
271
     4
272
     4
273
     2
274
     2
340
11
275
     0
280
     0
281
     0
282
     0
283
     1
284
     0
285
     0
286
     0
287
     3
288
     0
  0
ENDTAB
  0
TABLE
  2
BLOCK_RECORD
  5
1
330
0
100
AcDbSymbolTable
 70
     1
  0
BLOCK_RECORD
  5
1F
330
1
100
AcDbSymbolTableRecord
100
AcDbBlockTableRecord
  2
*MODEL_SPACE
  0
BLOCK_RECORD
  5
1B
330
1
100
AcDbSymbolTableRecord
100
AcDbBlockTableRecord
  2
*PAPER_SPACE
  0
ENDTAB
  0
ENDSEC
  0
SECTION
  2
BLOCKS
  0
BLOCK
  5
20
330
1F
100
AcDbEntity
  8
0
100
AcDbBlockBegin
  2
*MODEL_SPACE
 70
     0
 10
0.0
 20
0.0
 30
0.0
  3
*MODEL_SPACE
  1

  0
ENDBLK
  5
21
330
1F
100
AcDbEntity
  8
0
100
AcDbBlockEnd
  0
BLOCK
  5
1C
330
1B
100
AcDbEntity
 67
     1
  8
0
100
AcDbBlockBegin
  2
*PAPER_SPACE
 70
     0
 10
0.0
 20
0.0
 30
0.0
  3
*PAPER_SPACE
  1

  0
ENDBLK
  5
1D
330
1B
100
AcDbEntity
 67
     1
  8
0
100
AcDbBlockEnd
  0
ENDSEC
  0
SECTION
  2
ENTITIES
  0
ARC
  5
6B
330
1F
100
AcDbEntity
  8
DEFAULT
100
AcDbCircle
 10
-414.9999999999998
 20
-587.4999999999998
 30
0.0
 40
2.999999999999773
100
AcDbArc
 50
179.9999999999957
 51
270.0000000000043
  0
LINE
  5
6C
330
1F
100
AcDbEntity
  8
DEFAULT
100
AcDbLine
 10
-414.9999999999995
 20
-590.4999999999995
 30
0.0
 11
-386.9999999999995
 21
-590.4999999999995
 31
0.0
  0
ARC
  5
6D
330
1F
100
AcDbEntity
  8
DEFAULT
100
AcDbCircle
 10
-386.9999999999994
 20
-587.4999999999998
 30
0.0
 40
2.999999999999773
100
AcDbArc
 50
269.9999999999968
 51
0.0000000000065138
  0
LINE
  5
6E
330
1F
100
AcDbEntity
  8
DEFAULT
100
AcDbLine
 10
-383.9999999999995
 20
-576.4999999999995
 30
0.0
 11
-383.9999999999995
 21
-587.4999999999995
 31
0.0
  0
LINE
  5
6F
330
1F
100
AcDbEntity
  8
DEFAULT
100
AcDbLine
 10
-417.9999999999995
 20
-576.4999999999995
 30
0.0
 11
-417.9999999999995
 21
-587.4999999999995
 31
0.0
  0
ARC
  5
70
330
1F
100
AcDbEntity
  8
DEFAULT
100
AcDbCircle
 10
-414.9999999999996
 20
-576.4999999999995
 30
0.0
 40
2.999999999999943
100
AcDbArc
 50
89.99999999999892
 51
180.0
  0
LINE
  5
71
330
1F
100
AcDbEntity
  8
DEFAULT
100
AcDbLine
 10
-414.9999999999995
 20
-573.4999999999995
 30
0.0
 11
-386.9999999999995
 21
-573.4999999999995
 31
0.0
  0
ARC
  5
72
330
1F
100
AcDbEntity
  8
DEFAULT
100
AcDbCircle
 10
-386.9999999999996
 20
-576.4999999999997
 30
0.0
 40
3.000000000000114
100
AcDbArc
 50
0.0000000000021713
 51
89.99999999999892
  0
ARC
  5
73
330
1F
100
AcDbEntity
  8
DEFAULT
100
AcDbCircle
 10
-592.9999999999998
 20
-587.4999999999998
 30
0.0
 40
2.999999999999773
100
AcDbArc
 50
179.9999999999957
 51
270.0000000000043
  0
ARC
  5
74
330
1F
100
AcDbEntity
  8
DEFAULT
100
AcDbCircle
 10
-534.9999999999999
 20
-587.4999999999993
 30
0.0
 40
3.000000000000227
100
AcDbArc
 50
270.0000000000065
 51
359.9999999999957
  0
LINE
  5
75
330
1F
100
AcDbEntity
  8
DEFAULT
100
AcDbLine
 10
-592.9999999999995
 20
-590.4999999999995
 30
0.0
 11
-534.9999999999995
 21
-590.4999999999995
 31
0.0
  0
LINE
  5
76
330
1F
100
AcDbEntity
  8
DEFAULT
100
AcDbLine
 10
-531.9999999999995
 20
-576.4999999999995
 30
0.0
 11
-531.9999999999995
 21
-587.4999999999995
 31
0.0
  0
LINE
  5
77
330
1F
100
AcDbEntity
  8
DEFAULT
100
AcDbLine
 10
-595.9999999999995
 20
-576.4999999999995
 30
0.0
 11
-595.9999999999995
 21
-587.4999999999995
 31
0.0
  0
ARC
  5
78
330
1F
100
AcDbEntity
  8
DEFAULT
100
AcDbCircle
 10
-592.9999999999995
 20
-576.4999999999994
 30
0.0
 40
3.0
100
AcDbArc
 50
90.0
 51
180.0000000000022
  0
ARC
  5
79
330
1F
100
AcDbEntity
  8
DEFAULT
100
AcDbCircle
 10
-534.9999999999995
 20
-576.4999999999994
 30
0.0
 40
2.999999999999886
100
AcDbArc
 50
359.9999999999978
 51
90.0
  0
LINE
  5
7A
330
1F
100
AcDbEntity
  8
DEFAULT
100
AcDbLine
 10
-592.9999999999995
 20
-573.4999999999995
 30
0.0
 11
-534.9999999999995
 21
-573.4999999999995
 31
0.0
  0
CIRCLE
  5
7B
330
1F
100
AcDbEntity
  8
DEFAULT
100
AcDbCircle
 10
-748.0504661054945
 20
-445.9999999988099
 30
0.0
 40
6.0
  0
CIRCLE
  5
7C
330
1F
100
AcDbEntity
  8
DEFAULT
100
AcDbCircle
 10
-783.300466105494
 20
-445.9999999981164
 30
0.0
 40
6.0
  0
CIRCLE
  5
7D
330
1F
100
AcDbEntity
  8
DEFAULT
100
AcDbCircle
 10
-765.6754661060947
 20
-462.9999999981164
 30
0.0
 40
6.0
  0
CIRCLE
  5
7E
330
1F
100
AcDbEntity
  8
DEFAULT
100
AcDbCircle
 10
-730.4254661060947
 20
-462.9999999984632
 30
0.0
 40
6.0
  0
CIRCLE
  5
7F
330
1F
100
AcDbEntity
  8
DEFAULT
100
AcDbCircle
 10
-800.9254661060943
 20
-462.9999999974229
 30
0.0
 40
6.0
  0
CIRCLE
  5
80
330
1F
100
AcDbEntity
  8
DEFAULT
100
AcDbCircle
 10
-680.9254661060943
 20
-462.9999999974229
 30
0.0
 40
6.0
  0
CIRCLE
  5
81
330
1F
100
AcDbEntity
  8
DEFAULT
100
AcDbCircle
 10
-610.4254661060947
 20
-462.9999999984632
 30
0.0
 40
6.0
  0
CIRCLE
  5
82
330
1F
100
AcDbEntity
  8
DEFAULT
100
AcDbCircle
 10
-645.6754661060947
 20
-462.9999999981164
 30
0.0
 40
6.0
  0
CIRCLE
  5
83
330
1F
100
AcDbEntity
  8
DEFAULT
100
AcDbCircle
 10
-663.300466105494
 20
-445.9999999981164
 30
0.0
 40
6.0
  0
CIRCLE
  5
84
330
1F
100
AcDbEntity
  8
DEFAULT
100
AcDbCircle
 10
-628.0504661054945
 20
-445.9999999988099
 30
0.0
 40
6.0
  0
LINE
  5
85
330
1F
100
AcDbEntity
  8
DEFAULT
100
AcDbLine
 10
-708.6754661060947
 20
-373.4999999999995
 30
0.0
 11
-822.6754661060949
 21
-373.4999999999995
 31
0.0
  0
LINE
  5
86
330
1F
100
AcDbEntity
  8
DEFAULT
100
AcDbLine
 10
-828.6754661060949
 20
-418.4999999999995
 30
0.0
 11
-702.6754661060947
 21
-418.4999999999995
 31
0.0
  0
CIRCLE
  5
87
330
1F
100
AcDbEntity
  8
DEFAULT
100
AcDbCircle
 10
-800.9254661060943
 20
-395.9999999996517
 30
0.0
 40
11.75000000000007
  0
CIRCLE
  5
88
330
1F
100
AcDbEntity
  8
DEFAULT
100
AcDbCircle
 10
-765.6754661060947
 20
-396.0000000003449
 30
0.0
 40
11.75000000000007
  0
CIRCLE
  5
89
330
1F
100
AcDbEntity
  8
DEFAULT
100
AcDbCircle
 10
-730.4254661060947
 20
-396.0000000006917
 30
0.0
 40
11.75000000000007
  0
ARC
  5
8A
330
1F
100
AcDbEntity
  8
DEFAULT
100
AcDbCircle
 10
-855.6754661060949
 20
-377.5277885027895
 30
0.0
 40
3.000000000000057
100
AcDbArc
 50
180.0
 51
245.1882675329788
  0
LINE
  5
8B
330
1F
100
AcDbEntity
  8
DEFAULT
100
AcDbLine
 10
-858.6754661060949
 20
-377.5277885027895
 30
0.0
 11
-858.6754661060949
 21
-373.4999999999995
 31
0.0
  0
LINE
  5
8C
330
1F
100
AcDbEntity
  8
DEFAULT
100
AcDbLine
 10
-858.6754661060949
 20
-373.4999999999995
 30
0.0
 11
-858.6754661060949
 21
-367.4999999999995
 31
0.0
  0
LINE
  5
8D
330
1F
100
AcDbEntity
  8
DEFAULT
100
AcDbLine
 10
-858.6754661060949
 20
-367.4999999999995
 30
0.0
 11
-855.6754661060949
 21
-367.4999999999995
 31
0.0
  0
LINE
  5
8E
330
1F
100
AcDbEntity
  8
DEFAULT
100
AcDbLine
 10
-855.6754661060949
 20
-367.4999999999995
 30
0.0
 11
-852.6754661060949
 21
-370.4999999999995
 31
0.0
  0
LINE
  5
8F
330
1F
100
AcDbEntity
  8
DEFAULT
100
AcDbLine
 10
-852.6754661060949
 20
-370.4999999999995
 30
0.0
 11
-852.6754661060949
 21
-373.4999999999995
 31
0.0
  0
LINE
  5
90
330
1F
100
AcDbEntity
  8
DEFAULT
100
AcDbLine
 10
-852.6754661060949
 20
-373.4999999999995
 30
0.0
 11
-828.6754661060949
 21
-373.4999999999995
 31
0.0
  0
LINE
  5
91
330
1F
100
AcDbEntity
  8
DEFAULT
100
AcDbLine
 10
-828.6754661060949
 20
-373.4999999999995
 30
0.0
 11
-828.6754661060949
 21
-370.4999999999995
 31
0.0
  0
LINE
  5
92
330
1F
100
AcDbEntity
  8
DEFAULT
100
AcDbLine
 10
-828.6754661060949
 20
-370.4999999999995
 30
0.0
 11
-825.6754661060949
 21
-363.2723931248906
 31
0.0
  0
LINE
  5
93
330
1F
100
AcDbEntity
  8
DEFAULT
100
AcDbLine
 10
-825.6754661060949
 20
-363.2723931248906
 30
0.0
 11
-819.7650386056588
 21
-363.2723931248906
 31
0.0
  0
LINE
  5
94
330
1F
100
AcDbEntity
  8
DEFAULT
100
AcDbLine
 10
-819.7650386056588
 20
-363.2723931248906
 30
0.0
 11
-819.7650386056588
 21
-366.9999999999995
 31
0.0
  0
LINE
  5
95
330
1F
100
AcDbEntity
  8
DEFAULT
100
AcDbLine
 10
-819.7650386056588
 20
-366.9999999999995
 30
0.0
 11
-822.6754661060949
 21
-367.4999999999995
 31
0.0
  0
LINE
  5
96
330
1F
100
AcDbEntity
  8
DEFAULT
100
AcDbLine
 10
-822.6754661060949
 20
-367.4999999999995
 30
0.0
 11
-822.6754661060949
 21
-373.4999999999995
 31
0.0
  0
LINE
  5
97
330
1F
100
AcDbEntity
  8
DEFAULT
100
AcDbLine
 10
-822.6754661060949
 20
-373.4999999999995
 30
0.0
 11
-822.6754661060949
 21
-379.4999999999995
 31
0.0
  0
LINE
  5
98
330
1F
100
AcDbEntity
  8
DEFAULT
100
AcDbLine
 10
-822.6754661060949
 20
-379.4999999999995
 30
0.0
 11
-822.6754661060949
 21
-383.4999999999995
 31
0.0
  0
LINE
  5
99
330
1F
100
AcDbEntity
  8
DEFAULT
100
AcDbLine
 10
-822.6754661060949
 20
-383.4999999999995
 30
0.0
 11
-828.6754661060949
 21
-383.4999999999995
 31
0.0
  0
LINE
  5
9A
330
1F
100
AcDbEntity
  8
DEFAULT
100
AcDbLine
 10
-828.6754661060949
 20
-383.4999999999995
 30
0.0
 11
-828.6754661060949
 21
-393.4999999999995
 31
0.0
  0
LINE
  5
9B
330
1F
100
AcDbEntity
  8
DEFAULT
100
AcDbLine
 10
-828.6754661060949
 20
-393.4999999999995
 30
0.0
 11
-822.6754661060949
 21
-393.4999999999995
 31
0.0
  0
LINE
  5
9C
330
1F
100
AcDbEntity
  8
DEFAULT
100
AcDbLine
 10
-822.6754661060949
 20
-393.4999999999995
 30
0.0
 11
-822.6754661060949
 21
-403.4999999999995
 31
0.0
  0
LINE
  5
9D
330
1F
100
AcDbEntity
  8
DEFAULT
100
AcDbLine
 10
-822.6754661060949
 20
-403.4999999999995
 30
0.0
 11
-828.6754661060949
 21
-403.4999999999995
 31
0.0
  0
LINE
  5
9E
330
1F
100
AcDbEntity
  8
DEFAULT
100
AcDbLine
 10
-828.6754661060949
 20
-403.4999999999995
 30
0.0
 11
-828.6754661060949
 21
-413.4999999999995
 31
0.0
  0
LINE
  5
9F
330
1F
100
AcDbEntity
  8
DEFAULT
100
AcDbLine
 10
-828.6754661060949
 20
-413.4999999999995
 30
0.0
 11
-828.6754661060949
 21
-418.4999999999995
 31
0.0
  0
LINE
  5
A0
330
1F
100
AcDbEntity
  8
DEFAULT
100
AcDbLine
 10
-828.6754661060949
 20
-418.4999999999995
 30
0.0
 11
-832.6754661060949
 21
-418.4999999999995
 31
0.0
  0
ARC
  5
A1
330
1F
100
AcDbEntity
  8
DEFAULT
100
AcDbCircle
 10
-832.6754661060949
 20
-415.4999999999995
 30
0.0
 40
3.0
100
AcDbArc
 50
180.0
 51
270.0
  0
LINE
  5
A2
330
1F
100
AcDbEntity
  8
DEFAULT
100
AcDbLine
 10
-835.6754661060949
 20
-415.4999999999995
 30
0.0
 11
-835.6754661060949
 21
-413.4999999999995
 31
0.0
  0
ARC
  5
A3
330
1F
100
AcDbEntity
  8
DEFAULT
100
AcDbCircle
 10
-872.3059008887034
 20
-413.4999999999995
 30
0.0
 40
36.6304347826088
100
AcDbArc
 50
0.0
 51
65.18826753297893
  0
CIRCLE
  5
A4
330
1F
100
AcDbEntity
  8
DEFAULT
100
AcDbCircle
 10
-680.9254661060943
 20
-395.9999999996517
 30
0.0
 40
11.75000000000007
  0
CIRCLE
  5
A5
330
1F
100
AcDbEntity
  8
DEFAULT
100
AcDbCircle
 10
-645.6754661060947
 20
-396.0000000003449
 30
0.0
 40
11.75000000000007
  0
CIRCLE
  5
A6
330
1F
100
AcDbEntity
  8
DEFAULT
100
AcDbCircle
 10
-610.4254661060947
 20
-396.0000000006917
 30
0.0
 40
11.75000000000007
  0
ARC
  5
A7
330
1F
100
AcDbEntity
  8
DEFAULT
100
AcDbCircle
 10
-555.6754661060947
 20
-377.5277885027895
 30
0.0
 40
3.000000000000057
100
AcDbArc
 50
294.8117324670212
 51
0.0
  0
LINE
  5
A8
330
1F
100
AcDbEntity
  8
DEFAULT
100
AcDbLine
 10
-552.6754661060947
 20
-377.5277885027895
 30
0.0
 11
-552.6754661060947
 21
-373.4999999999995
 31
0.0
  0
LINE
  5
A9
330
1F
100
AcDbEntity
  8
DEFAULT
100
AcDbLine
 10
-552.6754661060947
 20
-373.4999999999995
 30
0.0
 11
-552.6754661060947
 21
-367.4999999999995
 31
0.0
  0
LINE
  5
AA
330
1F
100
AcDbEntity
  8
DEFAULT
100
AcDbLine
 10
-552.6754661060947
 20
-367.4999999999995
 30
0.0
 11
-555.6754661060947
 21
-367.4999999999995
 31
0.0
  0
LINE
  5
AB
330
1F
100
AcDbEntity
  8
DEFAULT
100
AcDbLine
 10
-555.6754661060947
 20
-367.4999999999995
 30
0.0
 11
-558.6754661060947
 21
-370.4999999999995
 31
0.0
  0
LINE
  5
AC
330
1F
100
AcDbEntity
  8
DEFAULT
100
AcDbLine
 10
-558.6754661060947
 20
-370.4999999999995
 30
0.0
 11
-558.6754661060947
 21
-373.4999999999995
 31
0.0
  0
LINE
  5
AD
330
1F
100
AcDbEntity
  8
DEFAULT
100
AcDbLine
 10
-558.6754661060947
 20
-373.4999999999995
 30
0.0
 11
-582.6754661060947
 21
-373.4999999999995
 31
0.0
  0
LINE
  5
AE
330
1F
100
AcDbEntity
  8
DEFAULT
100
AcDbLine
 10
-582.6754661060947
 20
-373.4999999999995
 30
0.0
 11
-582.6754661060947
 21
-370.4999999999995
 31
0.0
  0
LINE
  5
AF
330
1F
100
AcDbEntity
  8
DEFAULT
100
AcDbLine
 10
-582.6754661060947
 20
-370.4999999999995
 30
0.0
 11
-585.6754661060947
 21
-363.2723931248906
 31
0.0
  0
LINE
  5
B0
330
1F
100
AcDbEntity
  8
DEFAULT
100
AcDbLine
 10
-585.6754661060947
 20
-363.2723931248906
 30
0.0
 11
-591.5858936065308
 21
-363.2723931248906
 31
0.0
  0
LINE
  5
B1
330
1F
100
AcDbEntity
  8
DEFAULT
100
AcDbLine
 10
-591.5858936065308
 20
-363.2723931248906
 30
0.0
 11
-591.5858936065308
 21
-366.9999999999995
 31
0.0
  0
LINE
  5
B2
330
1F
100
AcDbEntity
  8
DEFAULT
100
AcDbLine
 10
-591.5858936065308
 20
-366.9999999999995
 30
0.0
 11
-588.6754661060947
 21
-367.4999999999995
 31
0.0
  0
LINE
  5
B3
330
1F
100
AcDbEntity
  8
DEFAULT
100
AcDbLine
 10
-588.6754661060947
 20
-367.4999999999995
 30
0.0
 11
-588.6754661060947
 21
-373.4999999999995
 31
0.0
  0
LINE
  5
B4
330
1F
100
AcDbEntity
  8
DEFAULT
100
AcDbLine
 10
-588.6754661060947
 20
-373.4999999999995
 30
0.0
 11
-588.6754661060947
 21
-379.4999999999995
 31
0.0
  0
LINE
  5
B5
330
1F
100
AcDbEntity
  8
DEFAULT
100
AcDbLine
 10
-588.6754661060947
 20
-379.4999999999995
 30
0.0
 11
-588.6754661060947
 21
-383.4999999999995
 31
0.0
  0
LINE
  5
B6
330
1F
100
AcDbEntity
  8
DEFAULT
100
AcDbLine
 10
-588.6754661060947
 20
-383.4999999999995
 30
0.0
 11
-582.6754661060947
 21
-383.4999999999995
 31
0.0
  0
LINE
  5
B7
330
1F
100
AcDbEntity
  8
DEFAULT
100
AcDbLine
 10
-582.6754661060947
 20
-383.4999999999995
 30
0.0
 11
-582.6754661060947
 21
-393.4999999999995
 31
0.0
  0
LINE
  5
B8
330
1F
100
AcDbEntity
  8
DEFAULT
100
AcDbLine
 10
-582.6754661060947
 20
-393.4999999999995
 30
0.0
 11
-588.6754661060947
 21
-393.4999999999995
 31
0.0
  0
LINE
  5
B9
330
1F
100
AcDbEntity
  8
DEFAULT
100
AcDbLine
 10
-588.6754661060947
 20
-393.4999999999995
 30
0.0
 11
-588.6754661060947
 21
-403.4999999999995
 31
0.0
  0
LINE
  5
BA
330
1F
100
AcDbEntity
  8
DEFAULT
100
AcDbLine
 10
-588.6754661060947
 20
-403.4999999999995
 30
0.0
 11
-582.6754661060947
 21
-403.4999999999995
 31
0.0
  0
LINE
  5
BB
330
1F
100
AcDbEntity
  8
DEFAULT
100
AcDbLine
 10
-582.6754661060947
 20
-403.4999999999995
 30
0.0
 11
-582.6754661060947
 21
-413.4999999999995
 31
0.0
  0
LINE
  5
BC
330
1F
100
AcDbEntity
  8
DEFAULT
100
AcDbLine
 10
-582.6754661060947
 20
-413.4999999999995
 30
0.0
 11
-582.6754661060947
 21
-418.4999999999995
 31
0.0
  0
LINE
  5
BD
330
1F
100
AcDbEntity
  8
DEFAULT
100
AcDbLine
 10
-582.6754661060947
 20
-418.4999999999995
 30
0.0
 11
-578.6754661060947
 21
-418.4999999999995
 31
0.0
  0
ARC
  5
BE
330
1F
100
AcDbEntity
  8
DEFAULT
100
AcDbCircle
 10
-578.6754661060947
 20
-415.4999999999995
 30
0.0
 40
3.0
100
AcDbArc
 50
270.0
 51
0.0
  0
LINE
  5
BF
330
1F
100
AcDbEntity
  8
DEFAULT
100
AcDbLine
 10
-575.6754661060947
 20
-415.4999999999995
 30
0.0
 11
-575.6754661060947
 21
-413.4999999999995
 31
0.0
  0
ARC
  5
C0
330
1F
100
AcDbEntity
  8
DEFAULT
100
AcDbCircle
 10
-539.0450313234858
 20
-413.4999999999995
 30
0.0
 40
36.6304347826088
100
AcDbArc
 50
114.8117324670211
 51
180.0
  0
POLYLINE
  5
C1
330
1F
100
AcDbEntity
  8
DEFAULT
100
AcDb2dPolyline
 66
     1
 10
0.0
 20
0.0
 30
0.0
  0
VERTEX
  5
C2
330
C1
100
AcDbEntity
  8
DEFAULT
100
AcDbVertex
100
AcDb2dVertex
 10
-708.6754661060947
 20
-373.4999999999995
 30
0.0
  0
VERTEX
  5
C3
330
C1
100
AcDbEntity
  8
DEFAULT
100
AcDbVertex
100
AcDb2dVertex
 10
-708.6754661060947
 20
-383.4999999999995
 30
0.0
  0
VERTEX
  5
C4
330
C1
100
AcDbEntity
  8
DEFAULT
100
AcDbVertex
100
AcDb2dVertex
 10
-702.6754661060947
 20
-383.4999999999995
 30
0.0
  0
VERTEX
  5
C5
330
C1
100
AcDbEntity
  8
DEFAULT
100
AcDbVertex
100
AcDb2dVertex
 10
-702.6754661060947
 20
-373.4999999999995
 30
0.0
  0
SEQEND
  5
C6
330
C1
100
AcDbEntity
  8
DEFAULT
  0
POLYLINE
  5
C7
330
1F
100
AcDbEntity
  8
DEFAULT
100
AcDb2dPolyline
 66
     1
 10
0.0
 20
0.0
 30
0.0
 70
     1
  0
VERTEX
  5
C8
330
C7
100
AcDbEntity
  8
DEFAULT
100
AcDbVertex
100
AcDb2dVertex
 10
-708.6754661060947
 20
-393.4999999999995
 30
0.0
  0
VERTEX
  5
C9
330
C7
100
AcDbEntity
  8
DEFAULT
100
AcDbVertex
100
AcDb2dVertex
 10
-702.6754661060947
 20
-393.4999999999995
 30
0.0
  0
VERTEX
  5
CA
330
C7
100
AcDbEntity
  8
DEFAULT
100
AcDbVertex
100
AcDb2dVertex
 10
-702.6754661060947
 20
-403.4999999999995
 30
0.0
  0
VERTEX
  5
CB
330
C7
100
AcDbEntity
  8
DEFAULT
100
AcDbVertex
100
AcDb2dVertex
 10
-708.6754661060947
 20
-403.4999999999995
 30
0.0
  0
SEQEND
  5
CC
330
C7
100
AcDbEntity
  8
DEFAULT
  0
LINE
  5
CD
330
1F
100
AcDbEntity
  8
DEFAULT
100
AcDbLine
 10
-702.6754661060947
 20
-373.4999999999995
 30
0.0
 11
-588.6754661060947
 21
-373.4999999999995
 31
0.0
  0
LINE
  5
CE
330
1F
100
AcDbEntity
  8
DEFAULT
100
AcDbLine
 10
-702.6754661060947
 20
-418.4999999999995
 30
0.0
 11
-582.6754661060947
 21
-418.4999999999995
 31
0.0
  0
LINE
  5
CF
330
1F
100
AcDbEntity
  8
DEFAULT
100
AcDbLine
 10
-702.6754661060947
 20
-476.4999999977708
 30
0.0
 11
-582.6754661060947
 21
-476.4999999977708
 31
0.0
  0
LINE
  5
D0
330
1F
100
AcDbEntity
  8
DEFAULT
100
AcDbLine
 10
-702.6754661060947
 20
-431.4999999977708
 30
0.0
 11
-588.6754661060947
 21
-431.4999999977708
 31
0.0
  0
POLYLINE
  5
D1
330
1F
100
AcDbEntity
  8
DEFAULT
100
AcDb2dPolyline
 66
     1
 10
0.0
 20
0.0
 30
0.0
 70
     1
  0
VERTEX
  5
D2
330
D1
100
AcDbEntity
  8
DEFAULT
100
AcDbVertex
100
AcDb2dVertex
 10
-708.6754661060947
 20
-451.4999999977708
 30
0.0
  0
VERTEX
  5
D3
330
D1
100
AcDbEntity
  8
DEFAULT
100
AcDbVertex
100
AcDb2dVertex
 10
-702.6754661060947
 20
-451.4999999977708
 30
0.0
  0
VERTEX
  5
D4
330
D1
100
AcDbEntity
  8
DEFAULT
100
AcDbVertex
100
AcDb2dVertex
 10
-702.6754661060947
 20
-461.4999999977708
 30
0.0
  0
VERTEX
  5
D5
330
D1
100
AcDbEntity
  8
DEFAULT
100
AcDbVertex
100
AcDb2dVertex
 10
-708.6754661060947
 20
-461.4999999977708
 30
0.0
  0
SEQEND
  5
D6
330
D1
100
AcDbEntity
  8
DEFAULT
  0
POLYLINE
  5
D7
330
1F
100
AcDbEntity
  8
DEFAULT
100
AcDb2dPolyline
 66
     1
 10
0.0
 20
0.0
 30
0.0
  0
VERTEX
  5
D8
330
D7
100
AcDbEntity
  8
DEFAULT
100
AcDbVertex
100
AcDb2dVertex
 10
-708.6754661060947
 20
-431.4999999977708
 30
0.0
  0
VERTEX
  5
D9
330
D7
100
AcDbEntity
  8
DEFAULT
100
AcDbVertex
100
AcDb2dVertex
 10
-708.6754661060947
 20
-441.4999999977708
 30
0.0
  0
VERTEX
  5
DA
330
D7
100
AcDbEntity
  8
DEFAULT
100
AcDbVertex
100
AcDb2dVertex
 10
-702.6754661060947
 20
-441.4999999977708
 30
0.0
  0
VERTEX
  5
DB
330
D7
100
AcDbEntity
  8
DEFAULT
100
AcDbVertex
100
AcDb2dVertex
 10
-702.6754661060947
 20
-431.4999999977708
 30
0.0
  0
SEQEND
  5
DC
330
D7
100
AcDbEntity
  8
DEFAULT
  0
ARC
  5
DD
330
1F
100
AcDbEntity
  8
DEFAULT
100
AcDbCircle
 10
-555.6754661060947
 20
-435.5277885005607
 30
0.0
 40
3.000000000000057
100
AcDbArc
 50
294.8117324670212
 51
0.0
  0
LINE
  5
DE
330
1F
100
AcDbEntity
  8
DEFAULT
100
AcDbLine
 10
-552.6754661060947
 20
-435.5277885005607
 30
0.0
 11
-552.6754661060947
 21
-431.4999999977708
 31
0.0
  0
LINE
  5
DF
330
1F
100
AcDbEntity
  8
DEFAULT
100
AcDbLine
 10
-552.6754661060947
 20
-431.4999999977708
 30
0.0
 11
-552.6754661060947
 21
-425.4999999977708
 31
0.0
  0
LINE
  5
E0
330
1F
100
AcDbEntity
  8
DEFAULT
100
AcDbLine
 10
-552.6754661060947
 20
-425.4999999977708
 30
0.0
 11
-555.6754661060947
 21
-425.4999999977708
 31
0.0
  0
LINE
  5
E1
330
1F
100
AcDbEntity
  8
DEFAULT
100
AcDbLine
 10
-555.6754661060947
 20
-425.4999999977708
 30
0.0
 11
-558.6754661060947
 21
-428.4999999977708
 31
0.0
  0
LINE
  5
E2
330
1F
100
AcDbEntity
  8
DEFAULT
100
AcDbLine
 10
-558.6754661060947
 20
-428.4999999977708
 30
0.0
 11
-558.6754661060947
 21
-431.4999999977708
 31
0.0
  0
LINE
  5
E3
330
1F
100
AcDbEntity
  8
DEFAULT
100
AcDbLine
 10
-558.6754661060947
 20
-431.4999999977708
 30
0.0
 11
-582.6754661060947
 21
-431.4999999977708
 31
0.0
  0
LINE
  5
E4
330
1F
100
AcDbEntity
  8
DEFAULT
100
AcDbLine
 10
-582.6754661060947
 20
-431.4999999977708
 30
0.0
 11
-582.6754661060947
 21
-428.4999999977708
 31
0.0
  0
LINE
  5
E5
330
1F
100
AcDbEntity
  8
DEFAULT
100
AcDbLine
 10
-582.6754661060947
 20
-428.4999999977708
 30
0.0
 11
-585.6754661060947
 21
-421.2723931226619
 31
0.0
  0
LINE
  5
E6
330
1F
100
AcDbEntity
  8
DEFAULT
100
AcDbLine
 10
-585.6754661060947
 20
-421.2723931226619
 30
0.0
 11
-591.5858936065308
 21
-421.2723931226619
 31
0.0
  0
LINE
  5
E7
330
1F
100
AcDbEntity
  8
DEFAULT
100
AcDbLine
 10
-591.5858936065308
 20
-421.2723931226619
 30
0.0
 11
-591.5858936065308
 21
-424.9999999977708
 31
0.0
  0
LINE
  5
E8
330
1F
100
AcDbEntity
  8
DEFAULT
100
AcDbLine
 10
-591.5858936065308
 20
-424.9999999977708
 30
0.0
 11
-588.6754661060947
 21
-425.4999999977708
 31
0.0
  0
LINE
  5
E9
330
1F
100
AcDbEntity
  8
DEFAULT
100
AcDbLine
 10
-588.6754661060947
 20
-425.4999999977708
 30
0.0
 11
-588.6754661060947
 21
-431.4999999977708
 31
0.0
  0
LINE
  5
EA
330
1F
100
AcDbEntity
  8
DEFAULT
100
AcDbLine
 10
-588.6754661060947
 20
-431.4999999977708
 30
0.0
 11
-588.6754661060947
 21
-437.4999999977708
 31
0.0
  0
LINE
  5
EB
330
1F
100
AcDbEntity
  8
DEFAULT
100
AcDbLine
 10
-588.6754661060947
 20
-437.4999999977708
 30
0.0
 11
-588.6754661060947
 21
-441.4999999977708
 31
0.0
  0
LINE
  5
EC
330
1F
100
AcDbEntity
  8
DEFAULT
100
AcDbLine
 10
-588.6754661060947
 20
-441.4999999977708
 30
0.0
 11
-582.6754661060947
 21
-441.4999999977708
 31
0.0
  0
LINE
  5
ED
330
1F
100
AcDbEntity
  8
DEFAULT
100
AcDbLine
 10
-582.6754661060947
 20
-441.4999999977708
 30
0.0
 11
-582.6754661060947
 21
-451.4999999977708
 31
0.0
  0
LINE
  5
EE
330
1F
100
AcDbEntity
  8
DEFAULT
100
AcDbLine
 10
-582.6754661060947
 20
-451.4999999977708
 30
0.0
 11
-588.6754661060947
 21
-451.4999999977708
 31
0.0
  0
LINE
  5
EF
330
1F
100
AcDbEntity
  8
DEFAULT
100
AcDbLine
 10
-588.6754661060947
 20
-451.4999999977708
 30
0.0
 11
-588.6754661060947
 21
-461.4999999977708
 31
0.0
  0
LINE
  5
F0
330
1F
100
AcDbEntity
  8
DEFAULT
100
AcDbLine
 10
-588.6754661060947
 20
-461.4999999977708
 30
0.0
 11
-582.6754661060947
 21
-461.4999999977708
 31
0.0
  0
LINE
  5
F1
330
1F
100
AcDbEntity
  8
DEFAULT
100
AcDbLine
 10
-582.6754661060947
 20
-461.4999999977708
 30
0.0
 11
-582.6754661060947
 21
-471.4999999977708
 31
0.0
  0
LINE
  5
F2
330
1F
100
AcDbEntity
  8
DEFAULT
100
AcDbLine
 10
-582.6754661060947
 20
-471.4999999977708
 30
0.0
 11
-582.6754661060947
 21
-476.4999999977708
 31
0.0
  0
LINE
  5
F3
330
1F
100
AcDbEntity
  8
DEFAULT
100
AcDbLine
 10
-582.6754661060947
 20
-476.4999999977708
 30
0.0
 11
-578.6754661060947
 21
-476.4999999977708
 31
0.0
  0
ARC
  5
F4
330
1F
100
AcDbEntity
  8
DEFAULT
100
AcDbCircle
 10
-578.6754661060947
 20
-473.4999999977708
 30
0.0
 40
3.0
100
AcDbArc
 50
270.0
 51
0.0
  0
LINE
  5
F5
330
1F
100
AcDbEntity
  8
DEFAULT
100
AcDbLine
 10
-575.6754661060947
 20
-473.4999999977708
 30
0.0
 11
-575.6754661060947
 21
-471.4999999977708
 31
0.0
  0
ARC
  5
F6
330
1F
100
AcDbEntity
  8
DEFAULT
100
AcDbCircle
 10
-539.0450313234858
 20
-471.4999999977708
 30
0.0
 40
36.6304347826088
100
AcDbArc
 50
114.8117324670211
 51
180.0
  0
ARC
  5
F7
330
1F
100
AcDbEntity
  8
DEFAULT
100
AcDbCircle
 10
-855.6754661060949
 20
-435.5277885005607
 30
0.0
 40
3.000000000000057
100
AcDbArc
 50
180.0
 51
245.1882675329788
  0
LINE
  5
F8
330
1F
100
AcDbEntity
  8
DEFAULT
100
AcDbLine
 10
-858.6754661060949
 20
-435.5277885005607
 30
0.0
 11
-858.6754661060949
 21
-431.4999999977708
 31
0.0
  0
LINE
  5
F9
330
1F
100
AcDbEntity
  8
DEFAULT
100
AcDbLine
 10
-858.6754661060949
 20
-431.4999999977708
 30
0.0
 11
-858.6754661060949
 21
-425.4999999977708
 31
0.0
  0
LINE
  5
FA
330
1F
100
AcDbEntity
  8
DEFAULT
100
AcDbLine
 10
-858.6754661060949
 20
-425.4999999977708
 30
0.0
 11
-855.6754661060949
 21
-425.4999999977708
 31
0.0
  0
LINE
  5
FB
330
1F
100
AcDbEntity
  8
DEFAULT
100
AcDbLine
 10
-855.6754661060949
 20
-425.4999999977708
 30
0.0
 11
-852.6754661060949
 21
-428.4999999977708
 31
0.0
  0
LINE
  5
FC
330
1F
100
AcDbEntity
  8
DEFAULT
100
AcDbLine
 10
-852.6754661060949
 20
-428.4999999977708
 30
0.0
 11
-852.6754661060949
 21
-431.4999999977708
 31
0.0
  0
LINE
  5
FD
330
1F
100
AcDbEntity
  8
DEFAULT
100
AcDbLine
 10
-852.6754661060949
 20
-431.4999999977708
 30
0.0
 11
-828.6754661060949
 21
-431.4999999977708
 31
0.0
  0
LINE
  5
FE
330
1F
100
AcDbEntity
  8
DEFAULT
100
AcDbLine
 10
-828.6754661060949
 20
-431.4999999977708
 30
0.0
 11
-828.6754661060949
 21
-428.4999999977708
 31
0.0
  0
LINE
  5
FF
330
1F
100
AcDbEntity
  8
DEFAULT
100
AcDbLine
 10
-828.6754661060949
 20
-428.4999999977708
 30
0.0
 11
-825.6754661060949
 21
-421.2723931226619
 31
0.0
  0
LINE
  5
100
330
1F
100
AcDbEntity
  8
DEFAULT
100
AcDbLine
 10
-825.6754661060949
 20
-421.2723931226619
 30
0.0
 11
-819.7650386056588
 21
-421.2723931226619
 31
0.0
  0
LINE
  5
101
330
1F
100
AcDbEntity
  8
DEFAULT
100
AcDbLine
 10
-819.7650386056588
 20
-421.2723931226619
 30
0.0
 11
-819.7650386056588
 21
-424.9999999977708
 31
0.0
  0
LINE
  5
102
330
1F
100
AcDbEntity
  8
DEFAULT
100
AcDbLine
 10
-819.7650386056588
 20
-424.9999999977708
 30
0.0
 11
-822.6754661060949
 21
-425.4999999977708
 31
0.0
  0
LINE
  5
103
330
1F
100
AcDbEntity
  8
DEFAULT
100
AcDbLine
 10
-822.6754661060949
 20
-425.4999999977708
 30
0.0
 11
-822.6754661060949
 21
-431.4999999977708
 31
0.0
  0
LINE
  5
104
330
1F
100
AcDbEntity
  8
DEFAULT
100
AcDbLine
 10
-822.6754661060949
 20
-431.4999999977708
 30
0.0
 11
-822.6754661060949
 21
-437.4999999977708
 31
0.0
  0
LINE
  5
105
330
1F
100
AcDbEntity
  8
DEFAULT
100
AcDbLine
 10
-822.6754661060949
 20
-437.4999999977708
 30
0.0
 11
-822.6754661060949
 21
-441.4999999977708
 31
0.0
  0
LINE
  5
106
330
1F
100
AcDbEntity
  8
DEFAULT
100
AcDbLine
 10
-822.6754661060949
 20
-441.4999999977708
 30
0.0
 11
-828.6754661060949
 21
-441.4999999977708
 31
0.0
  0
LINE
  5
107
330
1F
100
AcDbEntity
  8
DEFAULT
100
AcDbLine
 10
-828.6754661060949
 20
-441.4999999977708
 30
0.0
 11
-828.6754661060949
 21
-451.4999999977708
 31
0.0
  0
LINE
  5
108
330
1F
100
AcDbEntity
  8
DEFAULT
100
AcDbLine
 10
-828.6754661060949
 20
-451.4999999977708
 30
0.0
 11
-822.6754661060949
 21
-451.4999999977708
 31
0.0
  0
LINE
  5
109
330
1F
100
AcDbEntity
  8
DEFAULT
100
AcDbLine
 10
-822.6754661060949
 20
-451.4999999977708
 30
0.0
 11
-822.6754661060949
 21
-461.4999999977708
 31
0.0
  0
LINE
  5
10A
330
1F
100
AcDbEntity
  8
DEFAULT
100
AcDbLine
 10
-822.6754661060949
 20
-461.4999999977708
 30
0.0
 11
-828.6754661060949
 21
-461.4999999977708
 31
0.0
  0
LINE
  5
10B
330
1F
100
AcDbEntity
  8
DEFAULT
100
AcDbLine
 10
-828.6754661060949
 20
-461.4999999977708
 30
0.0
 11
-828.6754661060949
 21
-471.4999999977708
 31
0.0
  0
LINE
  5
10C
330
1F
100
AcDbEntity
  8
DEFAULT
100
AcDbLine
 10
-828.6754661060949
 20
-471.4999999977708
 30
0.0
 11
-828.6754661060949
 21
-476.4999999977708
 31
0.0
  0
LINE
  5
10D
330
1F
100
AcDbEntity
  8
DEFAULT
100
AcDbLine
 10
-828.6754661060949
 20
-476.4999999977708
 30
0.0
 11
-832.6754661060949
 21
-476.4999999977708
 31
0.0
  0
ARC
  5
10E
330
1F
100
AcDbEntity
  8
DEFAULT
100
AcDbCircle
 10
-832.6754661060949
 20
-473.4999999977708
 30
0.0
 40
3.0
100
AcDbArc
 50
180.0
 51
270.0
  0
LINE
  5
10F
330
1F
100
AcDbEntity
  8
DEFAULT
100
AcDbLine
 10
-835.6754661060949
 20
-473.4999999977708
 30
0.0
 11
-835.6754661060949
 21
-471.4999999977708
 31
0.0
  0
ARC
  5
110
330
1F
100
AcDbEntity
  8
DEFAULT
100
AcDbCircle
 10
-872.3059008887034
 20
-471.4999999977708
 30
0.0
 40
36.6304347826088
100
AcDbArc
 50
0.0
 51
65.18826753297893
  0
LINE
  5
111
330
1F
100
AcDbEntity
  8
DEFAULT
100
AcDbLine
 10
-828.6754661060949
 20
-476.4999999977708
 30
0.0
 11
-702.6754661060947
 21
-476.4999999977708
 31
0.0
  0
LINE
  5
112
330
1F
100
AcDbEntity
  8
DEFAULT
100
AcDbLine
 10
-708.6754661060947
 20
-431.4999999977708
 30
0.0
 11
-822.6754661060949
 21
-431.4999999977708
 31
0.0
  0
ARC
  5
113
330
1F
100
AcDbEntity
  8
DEFAULT
100
AcDbCircle
 10
-729.9722114972096
 20
-589.0136687275303
 30
0.0
 40
3.000000000000057
100
AcDbArc
 50
270.0
 51
335.1882675329788
  0
LINE
  5
114
330
1F
100
AcDbEntity
  8
DEFAULT
100
AcDbLine
 10
-729.9722114972096
 20
-592.0136687275303
 30
0.0
 11
-733.9999999999995
 21
-592.0136687275303
 31
0.0
  0
LINE
  5
115
330
1F
100
AcDbEntity
  8
DEFAULT
100
AcDbLine
 10
-733.9999999999995
 20
-592.0136687275303
 30
0.0
 11
-739.9999999999995
 21
-592.0136687275303
 31
0.0
  0
LINE
  5
116
330
1F
100
AcDbEntity
  8
DEFAULT
100
AcDbLine
 10
-739.9999999999995
 20
-592.0136687275303
 30
0.0
 11
-739.9999999999995
 21
-589.0136687275303
 31
0.0
  0
LINE
  5
117
330
1F
100
AcDbEntity
  8
DEFAULT
100
AcDbLine
 10
-739.9999999999995
 20
-589.0136687275303
 30
0.0
 11
-736.9999999999995
 21
-586.0136687275303
 31
0.0
  0
LINE
  5
118
330
1F
100
AcDbEntity
  8
DEFAULT
100
AcDbLine
 10
-736.9999999999995
 20
-586.0136687275303
 30
0.0
 11
-733.9999999999995
 21
-586.0136687275303
 31
0.0
  0
LINE
  5
119
330
1F
100
AcDbEntity
  8
DEFAULT
100
AcDbLine
 10
-733.9999999999995
 20
-586.0136687275303
 30
0.0
 11
-733.9999999999995
 21
-562.0136687275303
 31
0.0
  0
LINE
  5
11A
330
1F
100
AcDbEntity
  8
DEFAULT
100
AcDbLine
 10
-733.9999999999995
 20
-562.0136687275303
 30
0.0
 11
-736.9999999999995
 21
-562.0136687275303
 31
0.0
  0
LINE
  5
11B
330
1F
100
AcDbEntity
  8
DEFAULT
100
AcDbLine
 10
-736.9999999999995
 20
-562.0136687275303
 30
0.0
 11
-744.2276068751086
 21
-559.0136687275303
 31
0.0
  0
LINE
  5
11C
330
1F
100
AcDbEntity
  8
DEFAULT
100
AcDbLine
 10
-744.2276068751086
 20
-559.0136687275303
 30
0.0
 11
-744.2276068751086
 21
-553.1032412270943
 31
0.0
  0
LINE
  5
11D
330
1F
100
AcDbEntity
  8
DEFAULT
100
AcDbLine
 10
-744.2276068751086
 20
-553.1032412270943
 30
0.0
 11
-740.4999999999995
 21
-553.1032412270943
 31
0.0
  0
LINE
  5
11E
330
1F
100
AcDbEntity
  8
DEFAULT
100
AcDbLine
 10
-740.4999999999995
 20
-553.1032412270943
 30
0.0
 11
-739.9999999999995
 21
-556.0136687275303
 31
0.0
  0
LINE
  5
11F
330
1F
100
AcDbEntity
  8
DEFAULT
100
AcDbLine
 10
-739.9999999999995
 20
-556.0136687275303
 30
0.0
 11
-733.9999999999995
 21
-556.0136687275303
 31
0.0
  0
LINE
  5
120
330
1F
100
AcDbEntity
  8
DEFAULT
100
AcDbLine
 10
-733.9999999999995
 20
-556.0136687275303
 30
0.0
 11
-727.9999999999995
 21
-556.0136687275303
 31
0.0
  0
LINE
  5
121
330
1F
100
AcDbEntity
  8
DEFAULT
100
AcDbLine
 10
-727.9999999999995
 20
-556.0136687275303
 30
0.0
 11
-723.9999999999995
 21
-556.0136687275303
 31
0.0
  0
LINE
  5
122
330
1F
100
AcDbEntity
  8
DEFAULT
100
AcDbLine
 10
-723.9999999999995
 20
-556.0136687275303
 30
0.0
 11
-723.9999999999995
 21
-562.0136687275303
 31
0.0
  0
LINE
  5
123
330
1F
100
AcDbEntity
  8
DEFAULT
100
AcDbLine
 10
-723.9999999999995
 20
-562.0136687275303
 30
0.0
 11
-713.9999999999995
 21
-562.0136687275303
 31
0.0
  0
LINE
  5
124
330
1F
100
AcDbEntity
  8
DEFAULT
100
AcDbLine
 10
-713.9999999999995
 20
-562.0136687275303
 30
0.0
 11
-713.9999999999995
 21
-556.0136687275303
 31
0.0
  0
LINE
  5
125
330
1F
100
AcDbEntity
  8
DEFAULT
100
AcDbLine
 10
-713.9999999999995
 20
-556.0136687275303
 30
0.0
 11
-703.9999999999995
 21
-556.0136687275303
 31
0.0
  0
LINE
  5
126
330
1F
100
AcDbEntity
  8
DEFAULT
100
AcDbLine
 10
-703.9999999999995
 20
-556.0136687275303
 30
0.0
 11
-703.9999999999995
 21
-562.0136687275303
 31
0.0
  0
LINE
  5
127
330
1F
100
AcDbEntity
  8
DEFAULT
100
AcDbLine
 10
-703.9999999999995
 20
-562.0136687275303
 30
0.0
 11
-693.9999999999995
 21
-562.0136687275303
 31
0.0
  0
LINE
  5
128
330
1F
100
AcDbEntity
  8
DEFAULT
100
AcDbLine
 10
-693.9999999999995
 20
-562.0136687275303
 30
0.0
 11
-688.9999999999995
 21
-562.0136687275303
 31
0.0
  0
LINE
  5
129
330
1F
100
AcDbEntity
  8
DEFAULT
100
AcDbLine
 10
-688.9999999999995
 20
-562.0136687275303
 30
0.0
 11
-688.9999999999995
 21
-566.0136687275303
 31
0.0
  0
ARC
  5
12A
330
1F
100
AcDbEntity
  8
DEFAULT
100
AcDbCircle
 10
-691.9999999999995
 20
-566.0136687275303
 30
0.0
 40
3.0
100
AcDbArc
 50
270.0
 51
0.0
  0
LINE
  5
12B
330
1F
100
AcDbEntity
  8
DEFAULT
100
AcDbLine
 10
-691.9999999999995
 20
-569.0136687275303
 30
0.0
 11
-693.9999999999995
 21
-569.0136687275303
 31
0.0
  0
ARC
  5
12C
330
1F
100
AcDbEntity
  8
DEFAULT
100
AcDbCircle
 10
-693.9999999999995
 20
-605.6441035101391
 30
0.0
 40
36.6304347826088
100
AcDbArc
 50
90.0
 51
155.188267532979
  0
ARC
  5
12D
330
1F
100
AcDbEntity
  8
DEFAULT
100
AcDbCircle
 10
-678.2955400454375
 20
-559.0136687275303
 30
0.0
 40
3.000000000000057
100
AcDbArc
 50
90.0
 51
155.1882675329788
  0
LINE
  5
12E
330
1F
100
AcDbEntity
  8
DEFAULT
100
AcDbLine
 10
-678.2955400454375
 20
-556.0136687275303
 30
0.0
 11
-674.2677515426476
 21
-556.0136687275303
 31
0.0
  0
LINE
  5
12F
330
1F
100
AcDbEntity
  8
DEFAULT
100
AcDbLine
 10
-674.2677515426476
 20
-556.0136687275303
 30
0.0
 11
-668.2677515426476
 21
-556.0136687275303
 31
0.0
  0
LINE
  5
130
330
1F
100
AcDbEntity
  8
DEFAULT
100
AcDbLine
 10
-668.2677515426476
 20
-556.0136687275303
 30
0.0
 11
-668.2677515426476
 21
-559.0136687275303
 31
0.0
  0
LINE
  5
131
330
1F
100
AcDbEntity
  8
DEFAULT
100
AcDbLine
 10
-668.2677515426476
 20
-559.0136687275303
 30
0.0
 11
-671.2677515426476
 21
-562.0136687275303
 31
0.0
  0
LINE
  5
132
330
1F
100
AcDbEntity
  8
DEFAULT
100
AcDbLine
 10
-671.2677515426476
 20
-562.0136687275303
 30
0.0
 11
-674.2677515426476
 21
-562.0136687275303
 31
0.0
  0
LINE
  5
133
330
1F
100
AcDbEntity
  8
DEFAULT
100
AcDbLine
 10
-674.2677515426476
 20
-562.0136687275303
 30
0.0
 11
-674.2677515426476
 21
-586.0136687275303
 31
0.0
  0
LINE
  5
134
330
1F
100
AcDbEntity
  8
DEFAULT
100
AcDbLine
 10
-674.2677515426476
 20
-586.0136687275303
 30
0.0
 11
-671.2677515426476
 21
-586.0136687275303
 31
0.0
  0
LINE
  5
135
330
1F
100
AcDbEntity
  8
DEFAULT
100
AcDbLine
 10
-671.2677515426476
 20
-586.0136687275303
 30
0.0
 11
-664.0401446675387
 21
-589.0136687275303
 31
0.0
  0
LINE
  5
136
330
1F
100
AcDbEntity
  8
DEFAULT
100
AcDbLine
 10
-664.0401446675387
 20
-589.0136687275303
 30
0.0
 11
-664.0401446675387
 21
-594.9240962279664
 31
0.0
  0
LINE
  5
137
330
1F
100
AcDbEntity
  8
DEFAULT
100
AcDbLine
 10
-664.0401446675387
 20
-594.9240962279664
 30
0.0
 11
-667.7677515426476
 21
-594.9240962279664
 31
0.0
  0
LINE
  5
138
330
1F
100
AcDbEntity
  8
DEFAULT
100
AcDbLine
 10
-667.7677515426476
 20
-594.9240962279664
 30
0.0
 11
-668.2677515426476
 21
-592.0136687275303
 31
0.0
  0
LINE
  5
139
330
1F
100
AcDbEntity
  8
DEFAULT
100
AcDbLine
 10
-668.2677515426476
 20
-592.0136687275303
 30
0.0
 11
-674.2677515426476
 21
-592.0136687275303
 31
0.0
  0
LINE
  5
13A
330
1F
100
AcDbEntity
  8
DEFAULT
100
AcDbLine
 10
-674.2677515426476
 20
-592.0136687275303
 30
0.0
 11
-680.2677515426476
 21
-592.0136687275303
 31
0.0
  0
LINE
  5
13B
330
1F
100
AcDbEntity
  8
DEFAULT
100
AcDbLine
 10
-680.2677515426476
 20
-592.0136687275303
 30
0.0
 11
-684.2677515426476
 21
-592.0136687275303
 31
0.0
  0
LINE
  5
13C
330
1F
100
AcDbEntity
  8
DEFAULT
100
AcDbLine
 10
-684.2677515426476
 20
-592.0136687275303
 30
0.0
 11
-684.2677515426476
 21
-586.0136687275303
 31
0.0
  0
LINE
  5
13D
330
1F
100
AcDbEntity
  8
DEFAULT
100
AcDbLine
 10
-684.2677515426476
 20
-586.0136687275303
 30
0.0
 11
-694.2677515426476
 21
-586.0136687275303
 31
0.0
  0
LINE
  5
13E
330
1F
100
AcDbEntity
  8
DEFAULT
100
AcDbLine
 10
-694.2677515426476
 20
-586.0136687275303
 30
0.0
 11
-694.2677515426476
 21
-592.0136687275303
 31
0.0
  0
LINE
  5
13F
330
1F
100
AcDbEntity
  8
DEFAULT
100
AcDbLine
 10
-694.2677515426476
 20
-592.0136687275303
 30
0.0
 11
-704.2677515426476
 21
-592.0136687275303
 31
0.0
  0
LINE
  5
140
330
1F
100
AcDbEntity
  8
DEFAULT
100
AcDbLine
 10
-704.2677515426476
 20
-592.0136687275303
 30
0.0
 11
-704.2677515426476
 21
-586.0136687275303
 31
0.0
  0
LINE
  5
141
330
1F
100
AcDbEntity
  8
DEFAULT
100
AcDbLine
 10
-704.2677515426476
 20
-586.0136687275303
 30
0.0
 11
-714.2677515426476
 21
-586.0136687275303
 31
0.0
  0
LINE
  5
142
330
1F
100
AcDbEntity
  8
DEFAULT
100
AcDbLine
 10
-714.2677515426476
 20
-586.0136687275303
 30
0.0
 11
-719.2677515426476
 21
-586.0136687275303
 31
0.0
  0
LINE
  5
143
330
1F
100
AcDbEntity
  8
DEFAULT
100
AcDbLine
 10
-719.2677515426476
 20
-586.0136687275303
 30
0.0
 11
-719.2677515426476
 21
-582.0136687275303
 31
0.0
  0
ARC
  5
144
330
1F
100
AcDbEntity
  8
DEFAULT
100
AcDbCircle
 10
-716.2677515426476
 20
-582.0136687275303
 30
0.0
 40
3.0
100
AcDbArc
 50
90.0
 51
180.0
  0
LINE
  5
145
330
1F
100
AcDbEntity
  8
DEFAULT
100
AcDbLine
 10
-716.2677515426476
 20
-579.0136687275303
 30
0.0
 11
-714.2677515426476
 21
-579.0136687275303
 31
0.0
  0
ARC
  5
146
330
1F
100
AcDbEntity
  8
DEFAULT
100
AcDbCircle
 10
-714.2677515426476
 20
-542.3832339449216
 30
0.0
 40
36.6304347826088
100
AcDbArc
 50
270.0
 51
335.188267532979
  0
ARC
  5
147
330
1F
100
AcDbEntity
  8
DEFAULT
100
AcDbCircle
 10
-682.5910800908756
 20
-518.5136687275303
 30
0.0
 40
3.000000000000057
100
AcDbArc
 50
90.0
 51
155.1882675329788
  0
LINE
  5
148
330
1F
100
AcDbEntity
  8
DEFAULT
100
AcDbLine
 10
-682.5910800908756
 20
-515.5136687275303
 30
0.0
 11
-678.5632915880857
 21
-515.5136687275303
 31
0.0
  0
LINE
  5
149
330
1F
100
AcDbEntity
  8
DEFAULT
100
AcDbLine
 10
-678.5632915880857
 20
-515.5136687275303
 30
0.0
 11
-672.5632915880857
 21
-515.5136687275303
 31
0.0
  0
LINE
  5
14A
330
1F
100
AcDbEntity
  8
DEFAULT
100
AcDbLine
 10
-672.5632915880857
 20
-515.5136687275303
 30
0.0
 11
-672.5632915880857
 21
-518.5136687275303
 31
0.0
  0
LINE
  5
14B
330
1F
100
AcDbEntity
  8
DEFAULT
100
AcDbLine
 10
-672.5632915880857
 20
-518.5136687275303
 30
0.0
 11
-675.5632915880857
 21
-521.5136687275303
 31
0.0
  0
LINE
  5
14C
330
1F
100
AcDbEntity
  8
DEFAULT
100
AcDbLine
 10
-675.5632915880857
 20
-521.5136687275303
 30
0.0
 11
-678.5632915880857
 21
-521.5136687275303
 31
0.0
  0
LINE
  5
14D
330
1F
100
AcDbEntity
  8
DEFAULT
100
AcDbLine
 10
-678.5632915880857
 20
-521.5136687275303
 30
0.0
 11
-678.5632915880857
 21
-545.5136687275303
 31
0.0
  0
LINE
  5
14E
330
1F
100
AcDbEntity
  8
DEFAULT
100
AcDbLine
 10
-678.5632915880857
 20
-545.5136687275303
 30
0.0
 11
-675.5632915880857
 21
-545.5136687275303
 31
0.0
  0
LINE
  5
14F
330
1F
100
AcDbEntity
  8
DEFAULT
100
AcDbLine
 10
-675.5632915880857
 20
-545.5136687275303
 30
0.0
 11
-668.3356847129767
 21
-548.5136687275303
 31
0.0
  0
LINE
  5
150
330
1F
100
AcDbEntity
  8
DEFAULT
100
AcDbLine
 10
-668.3356847129767
 20
-548.5136687275303
 30
0.0
 11
-668.3356847129767
 21
-554.4240962279664
 31
0.0
  0
LINE
  5
151
330
1F
100
AcDbEntity
  8
DEFAULT
100
AcDbLine
 10
-668.3356847129767
 20
-554.4240962279664
 30
0.0
 11
-672.0632915880857
 21
-554.4240962279664
 31
0.0
  0
LINE
  5
152
330
1F
100
AcDbEntity
  8
DEFAULT
100
AcDbLine
 10
-672.0632915880857
 20
-554.4240962279664
 30
0.0
 11
-672.5632915880857
 21
-551.5136687275303
 31
0.0
  0
LINE
  5
153
330
1F
100
AcDbEntity
  8
DEFAULT
100
AcDbLine
 10
-672.5632915880857
 20
-551.5136687275303
 30
0.0
 11
-678.5632915880857
 21
-551.5136687275303
 31
0.0
  0
LINE
  5
154
330
1F
100
AcDbEntity
  8
DEFAULT
100
AcDbLine
 10
-678.5632915880857
 20
-551.5136687275303
 30
0.0
 11
-684.5632915880857
 21
-551.5136687275303
 31
0.0
  0
LINE
  5
155
330
1F
100
AcDbEntity
  8
DEFAULT
100
AcDbLine
 10
-684.5632915880857
 20
-551.5136687275303
 30
0.0
 11
-688.5632915880857
 21
-551.5136687275303
 31
0.0
  0
LINE
  5
156
330
1F
100
AcDbEntity
  8
DEFAULT
100
AcDbLine
 10
-688.5632915880857
 20
-551.5136687275303
 30
0.0
 11
-688.5632915880857
 21
-545.5136687275303
 31
0.0
  0
LINE
  5
157
330
1F
100
AcDbEntity
  8
DEFAULT
100
AcDbLine
 10
-688.5632915880857
 20
-545.5136687275303
 30
0.0
 11
-698.5632915880857
 21
-545.5136687275303
 31
0.0
  0
LINE
  5
158
330
1F
100
AcDbEntity
  8
DEFAULT
100
AcDbLine
 10
-698.5632915880857
 20
-545.5136687275303
 30
0.0
 11
-698.5632915880857
 21
-551.5136687275303
 31
0.0
  0
LINE
  5
159
330
1F
100
AcDbEntity
  8
DEFAULT
100
AcDbLine
 10
-698.5632915880857
 20
-551.5136687275303
 30
0.0
 11
-708.5632915880857
 21
-551.5136687275303
 31
0.0
  0
LINE
  5
15A
330
1F
100
AcDbEntity
  8
DEFAULT
100
AcDbLine
 10
-708.5632915880857
 20
-551.5136687275303
 30
0.0
 11
-708.5632915880857
 21
-545.5136687275303
 31
0.0
  0
LINE
  5
15B
330
1F
100
AcDbEntity
  8
DEFAULT
100
AcDbLine
 10
-708.5632915880857
 20
-545.5136687275303
 30
0.0
 11
-718.5632915880857
 21
-545.5136687275303
 31
0.0
  0
LINE
  5
15C
330
1F
100
AcDbEntity
  8
DEFAULT
100
AcDbLine
 10
-718.5632915880857
 20
-545.5136687275303
 30
0.0
 11
-723.5632915880857
 21
-545.5136687275303
 31
0.0
  0
LINE
  5
15D
330
1F
100
AcDbEntity
  8
DEFAULT
100
AcDbLine
 10
-723.5632915880857
 20
-545.5136687275303
 30
0.0
 11
-723.5632915880857
 21
-541.5136687275303
 31
0.0
  0
ARC
  5
15E
330
1F
100
AcDbEntity
  8
DEFAULT
100
AcDbCircle
 10
-720.5632915880857
 20
-541.5136687275303
 30
0.0
 40
3.0
100
AcDbArc
 50
90.0
 51
180.0
  0
LINE
  5
15F
330
1F
100
AcDbEntity
  8
DEFAULT
100
AcDbLine
 10
-720.5632915880857
 20
-538.5136687275303
 30
0.0
 11
-718.5632915880857
 21
-538.5136687275303
 31
0.0
  0
ARC
  5
160
330
1F
100
AcDbEntity
  8
DEFAULT
100
AcDbCircle
 10
-718.5632915880857
 20
-501.8832339449216
 30
0.0
 40
36.6304347826088
100
AcDbArc
 50
270.0
 51
335.188267532979
  0
ARC
  5
161
330
1F
100
AcDbEntity
  8
DEFAULT
100
AcDbCircle
 10
-734.2677515426476
 20
-548.5136687275303
 30
0.0
 40
3.000000000000057
100
AcDbArc
 50
270.0
 51
335.1882675329788
  0
LINE
  5
162
330
1F
100
AcDbEntity
  8
DEFAULT
100
AcDbLine
 10
-734.2677515426476
 20
-551.5136687275303
 30
0.0
 11
-738.2955400454375
 21
-551.5136687275303
 31
0.0
  0
LINE
  5
163
330
1F
100
AcDbEntity
  8
DEFAULT
100
AcDbLine
 10
-738.2955400454375
 20
-551.5136687275303
 30
0.0
 11
-744.2955400454375
 21
-551.5136687275303
 31
0.0
  0
LINE
  5
164
330
1F
100
AcDbEntity
  8
DEFAULT
100
AcDbLine
 10
-744.2955400454375
 20
-551.5136687275303
 30
0.0
 11
-744.2955400454375
 21
-548.5136687275303
 31
0.0
  0
LINE
  5
165
330
1F
100
AcDbEntity
  8
DEFAULT
100
AcDbLine
 10
-744.2955400454375
 20
-548.5136687275303
 30
0.0
 11
-741.2955400454375
 21
-545.5136687275303
 31
0.0
  0
LINE
  5
166
330
1F
100
AcDbEntity
  8
DEFAULT
100
AcDbLine
 10
-741.2955400454375
 20
-545.5136687275303
 30
0.0
 11
-738.2955400454375
 21
-545.5136687275303
 31
0.0
  0
LINE
  5
167
330
1F
100
AcDbEntity
  8
DEFAULT
100
AcDbLine
 10
-738.2955400454375
 20
-545.5136687275303
 30
0.0
 11
-738.2955400454375
 21
-521.5136687275303
 31
0.0
  0
LINE
  5
168
330
1F
100
AcDbEntity
  8
DEFAULT
100
AcDbLine
 10
-738.2955400454375
 20
-521.5136687275303
 30
0.0
 11
-741.2955400454375
 21
-521.5136687275303
 31
0.0
  0
LINE
  5
169
330
1F
100
AcDbEntity
  8
DEFAULT
100
AcDbLine
 10
-741.2955400454375
 20
-521.5136687275303
 30
0.0
 11
-748.5231469205467
 21
-518.5136687275303
 31
0.0
  0
LINE
  5
16A
330
1F
100
AcDbEntity
  8
DEFAULT
100
AcDbLine
 10
-748.5231469205467
 20
-518.5136687275303
 30
0.0
 11
-748.5231469205467
 21
-512.6032412270943
 31
0.0
  0
LINE
  5
16B
330
1F
100
AcDbEntity
  8
DEFAULT
100
AcDbLine
 10
-748.5231469205467
 20
-512.6032412270943
 30
0.0
 11
-744.7955400454375
 21
-512.6032412270943
 31
0.0
  0
LINE
  5
16C
330
1F
100
AcDbEntity
  8
DEFAULT
100
AcDbLine
 10
-744.7955400454375
 20
-512.6032412270943
 30
0.0
 11
-744.2955400454375
 21
-515.5136687275303
 31
0.0
  0
LINE
  5
16D
330
1F
100
AcDbEntity
  8
DEFAULT
100
AcDbLine
 10
-744.2955400454375
 20
-515.5136687275303
 30
0.0
 11
-738.2955400454375
 21
-515.5136687275303
 31
0.0
  0
LINE
  5
16E
330
1F
100
AcDbEntity
  8
DEFAULT
100
AcDbLine
 10
-738.2955400454375
 20
-515.5136687275303
 30
0.0
 11
-732.2955400454375
 21
-515.5136687275303
 31
0.0
  0
LINE
  5
16F
330
1F
100
AcDbEntity
  8
DEFAULT
100
AcDbLine
 10
-732.2955400454375
 20
-515.5136687275303
 30
0.0
 11
-728.2955400454375
 21
-515.5136687275303
 31
0.0
  0
LINE
  5
170
330
1F
100
AcDbEntity
  8
DEFAULT
100
AcDbLine
 10
-728.2955400454375
 20
-515.5136687275303
 30
0.0
 11
-728.2955400454375
 21
-521.5136687275303
 31
0.0
  0
LINE
  5
171
330
1F
100
AcDbEntity
  8
DEFAULT
100
AcDbLine
 10
-728.2955400454375
 20
-521.5136687275303
 30
0.0
 11
-718.2955400454375
 21
-521.5136687275303
 31
0.0
  0
LINE
  5
172
330
1F
100
AcDbEntity
  8
DEFAULT
100
AcDbLine
 10
-718.2955400454375
 20
-521.5136687275303
 30
0.0
 11
-718.2955400454375
 21
-515.5136687275303
 31
0.0
  0
LINE
  5
173
330
1F
100
AcDbEntity
  8
DEFAULT
100
AcDbLine
 10
-718.2955400454375
 20
-515.5136687275303
 30
0.0
 11
-708.2955400454375
 21
-515.5136687275303
 31
0.0
  0
LINE
  5
174
330
1F
100
AcDbEntity
  8
DEFAULT
100
AcDbLine
 10
-708.2955400454375
 20
-515.5136687275303
 30
0.0
 11
-708.2955400454375
 21
-521.5136687275303
 31
0.0
  0
LINE
  5
175
330
1F
100
AcDbEntity
  8
DEFAULT
100
AcDbLine
 10
-708.2955400454375
 20
-521.5136687275303
 30
0.0
 11
-698.2955400454375
 21
-521.5136687275303
 31
0.0
  0
LINE
  5
176
330
1F
100
AcDbEntity
  8
DEFAULT
100
AcDbLine
 10
-698.2955400454375
 20
-521.5136687275303
 30
0.0
 11
-693.2955400454375
 21
-521.5136687275303
 31
0.0
  0
LINE
  5
177
330
1F
100
AcDbEntity
  8
DEFAULT
100
AcDbLine
 10
-693.2955400454375
 20
-521.5136687275303
 30
0.0
 11
-693.2955400454375
 21
-525.5136687275303
 31
0.0
  0
ARC
  5
178
330
1F
100
AcDbEntity
  8
DEFAULT
100
AcDbCircle
 10
-696.2955400454375
 20
-525.5136687275303
 30
0.0
 40
3.0
100
AcDbArc
 50
270.0
 51
0.0
  0
LINE
  5
179
330
1F
100
AcDbEntity
  8
DEFAULT
100
AcDbLine
 10
-696.2955400454375
 20
-528.5136687275303
 30
0.0
 11
-698.2955400454375
 21
-528.5136687275303
 31
0.0
  0
ARC
  5
17A
330
1F
100
AcDbEntity
  8
DEFAULT
100
AcDbCircle
 10
-698.2955400454375
 20
-565.1441035101391
 30
0.0
 40
36.6304347826088
100
AcDbArc
 50
90.0
 51
155.188267532979
  0
CIRCLE
  5
17B
330
1F
100
AcDbEntity
  8
DEFAULT
100
AcDbCircle
 10
-430.3749999993992
 20
-445.9999999988099
 30
0.0
 40
6.0
  0
CIRCLE
  5
17C
330
1F
100
AcDbEntity
  8
DEFAULT
100
AcDbCircle
 10
-465.6249999993988
 20
-445.9999999981164
 30
0.0
 40
6.0
  0
CIRCLE
  5
17D
330
1F
100
AcDbEntity
  8
DEFAULT
100
AcDbCircle
 10
-447.9999999999995
 20
-462.9999999981164
 30
0.0
 40
6.0
  0
CIRCLE
  5
17E
330
1F
100
AcDbEntity
  8
DEFAULT
100
AcDbCircle
 10
-412.7499999999995
 20
-462.9999999984632
 30
0.0
 40
6.0
  0
CIRCLE
  5
17F
330
1F
100
AcDbEntity
  8
DEFAULT
100
AcDbCircle
 10
-483.2499999999991
 20
-462.9999999974229
 30
0.0
 40
6.0
  0
LINE
  5
180
330
1F
100
AcDbEntity
  8
DEFAULT
100
AcDbLine
 10
-390.9999999999995
 20
-373.4999999999995
 30
0.0
 11
-504.9999999999995
 21
-373.4999999999995
 31
0.0
  0
LINE
  5
181
330
1F
100
AcDbEntity
  8
DEFAULT
100
AcDbLine
 10
-510.9999999999995
 20
-418.4999999999995
 30
0.0
 11
-384.9999999999995
 21
-418.4999999999995
 31
0.0
  0
CIRCLE
  5
182
330
1F
100
AcDbEntity
  8
DEFAULT
100
AcDbCircle
 10
-483.2499999999991
 20
-395.9999999996517
 30
0.0
 40
11.75000000000007
  0
CIRCLE
  5
183
330
1F
100
AcDbEntity
  8
DEFAULT
100
AcDbCircle
 10
-447.9999999999995
 20
-396.0000000003452
 30
0.0
 40
11.75000000000007
  0
CIRCLE
  5
184
330
1F
100
AcDbEntity
  8
DEFAULT
100
AcDbCircle
 10
-412.7499999999995
 20
-396.0000000006921
 30
0.0
 40
11.75000000000007
  0
ARC
  5
185
330
1F
100
AcDbEntity
  8
DEFAULT
100
AcDbCircle
 10
-357.9999999999995
 20
-377.5277885027895
 30
0.0
 40
3.000000000000057
100
AcDbArc
 50
294.8117324670202
 51
0.0
  0
LINE
  5
186
330
1F
100
AcDbEntity
  8
DEFAULT
100
AcDbLine
 10
-354.9999999999995
 20
-377.5277885027895
 30
0.0
 11
-354.9999999999995
 21
-373.4999999999995
 31
0.0
  0
LINE
  5
187
330
1F
100
AcDbEntity
  8
DEFAULT
100
AcDbLine
 10
-354.9999999999995
 20
-373.4999999999995
 30
0.0
 11
-354.9999999999995
 21
-367.4999999999995
 31
0.0
  0
LINE
  5
188
330
1F
100
AcDbEntity
  8
DEFAULT
100
AcDbLine
 10
-354.9999999999995
 20
-367.4999999999995
 30
0.0
 11
-357.9999999999995
 21
-367.4999999999995
 31
0.0
  0
LINE
  5
189
330
1F
100
AcDbEntity
  8
DEFAULT
100
AcDbLine
 10
-357.9999999999995
 20
-367.4999999999995
 30
0.0
 11
-360.9999999999995
 21
-370.4999999999995
 31
0.0
  0
LINE
  5
18A
330
1F
100
AcDbEntity
  8
DEFAULT
100
AcDbLine
 10
-360.9999999999995
 20
-370.4999999999995
 30
0.0
 11
-360.9999999999995
 21
-373.4999999999995
 31
0.0
  0
LINE
  5
18B
330
1F
100
AcDbEntity
  8
DEFAULT
100
AcDbLine
 10
-360.9999999999995
 20
-373.4999999999995
 30
0.0
 11
-384.9999999999995
 21
-373.4999999999995
 31
0.0
  0
LINE
  5
18C
330
1F
100
AcDbEntity
  8
DEFAULT
100
AcDbLine
 10
-384.9999999999995
 20
-373.4999999999995
 30
0.0
 11
-384.9999999999995
 21
-370.4999999999995
 31
0.0
  0
LINE
  5
18D
330
1F
100
AcDbEntity
  8
DEFAULT
100
AcDbLine
 10
-384.9999999999995
 20
-370.4999999999995
 30
0.0
 11
-387.9999999999995
 21
-363.2723931248906
 31
0.0
  0
LINE
  5
18E
330
1F
100
AcDbEntity
  8
DEFAULT
100
AcDbLine
 10
-387.9999999999995
 20
-363.2723931248906
 30
0.0
 11
-393.9104275004356
 21
-363.2723931248906
 31
0.0
  0
LINE
  5
18F
330
1F
100
AcDbEntity
  8
DEFAULT
100
AcDbLine
 10
-393.9104275004356
 20
-363.2723931248906
 30
0.0
 11
-393.9104275004356
 21
-366.9999999999995
 31
0.0
  0
LINE
  5
190
330
1F
100
AcDbEntity
  8
DEFAULT
100
AcDbLine
 10
-393.9104275004356
 20
-366.9999999999995
 30
0.0
 11
-390.9999999999995
 21
-367.4999999999995
 31
0.0
  0
LINE
  5
191
330
1F
100
AcDbEntity
  8
DEFAULT
100
AcDbLine
 10
-390.9999999999995
 20
-367.4999999999995
 30
0.0
 11
-390.9999999999995
 21
-373.4999999999995
 31
0.0
  0
LINE
  5
192
330
1F
100
AcDbEntity
  8
DEFAULT
100
AcDbLine
 10
-390.9999999999995
 20
-373.4999999999995
 30
0.0
 11
-390.9999999999995
 21
-379.4999999999995
 31
0.0
  0
LINE
  5
193
330
1F
100
AcDbEntity
  8
DEFAULT
100
AcDbLine
 10
-390.9999999999995
 20
-379.4999999999995
 30
0.0
 11
-390.9999999999995
 21
-383.4999999999995
 31
0.0
  0
LINE
  5
194
330
1F
100
AcDbEntity
  8
DEFAULT
100
AcDbLine
 10
-390.9999999999995
 20
-383.4999999999995
 30
0.0
 11
-384.9999999999995
 21
-383.4999999999995
 31
0.0
  0
LINE
  5
195
330
1F
100
AcDbEntity
  8
DEFAULT
100
AcDbLine
 10
-384.9999999999995
 20
-383.4999999999995
 30
0.0
 11
-384.9999999999995
 21
-393.4999999999995
 31
0.0
  0
LINE
  5
196
330
1F
100
AcDbEntity
  8
DEFAULT
100
AcDbLine
 10
-384.9999999999995
 20
-393.4999999999995
 30
0.0
 11
-390.9999999999995
 21
-393.4999999999995
 31
0.0
  0
LINE
  5
197
330
1F
100
AcDbEntity
  8
DEFAULT
100
AcDbLine
 10
-390.9999999999995
 20
-393.4999999999995
 30
0.0
 11
-390.9999999999995
 21
-403.4999999999995
 31
0.0
  0
LINE
  5
198
330
1F
100
AcDbEntity
  8
DEFAULT
100
AcDbLine
 10
-390.9999999999995
 20
-403.4999999999995
 30
0.0
 11
-384.9999999999995
 21
-403.4999999999995
 31
0.0
  0
LINE
  5
199
330
1F
100
AcDbEntity
  8
DEFAULT
100
AcDbLine
 10
-384.9999999999995
 20
-403.4999999999995
 30
0.0
 11
-384.9999999999995
 21
-413.4999999999995
 31
0.0
  0
LINE
  5
19A
330
1F
100
AcDbEntity
  8
DEFAULT
100
AcDbLine
 10
-384.9999999999995
 20
-413.4999999999995
 30
0.0
 11
-384.9999999999995
 21
-418.4999999999995
 31
0.0
  0
LINE
  5
19B
330
1F
100
AcDbEntity
  8
DEFAULT
100
AcDbLine
 10
-384.9999999999995
 20
-418.4999999999995
 30
0.0
 11
-380.9999999999995
 21
-418.4999999999995
 31
0.0
  0
ARC
  5
19C
330
1F
100
AcDbEntity
  8
DEFAULT
100
AcDbCircle
 10
-380.9999999999995
 20
-415.4999999999995
 30
0.0
 40
3.0
100
AcDbArc
 50
270.0
 51
0.0
  0
LINE
  5
19D
330
1F
100
AcDbEntity
  8
DEFAULT
100
AcDbLine
 10
-377.9999999999995
 20
-415.4999999999995
 30
0.0
 11
-377.9999999999995
 21
-413.4999999999995
 31
0.0
  0
ARC
  5
19E
330
1F
100
AcDbEntity
  8
DEFAULT
100
AcDbCircle
 10
-341.3695652173906
 20
-413.4999999999995
 30
0.0
 40
36.6304347826088
100
AcDbArc
 50
114.8117324670211
 51
180.0
  0
ARC
  5
19F
330
1F
100
AcDbEntity
  8
DEFAULT
100
AcDbCircle
 10
-537.9999999999995
 20
-377.5277885027895
 30
0.0
 40
3.000000000000057
100
AcDbArc
 50
180.0
 51
245.1882675329788
  0
LINE
  5
1A0
330
1F
100
AcDbEntity
  8
DEFAULT
100
AcDbLine
 10
-540.9999999999995
 20
-377.5277885027895
 30
0.0
 11
-540.9999999999995
 21
-373.4999999999995
 31
0.0
  0
LINE
  5
1A1
330
1F
100
AcDbEntity
  8
DEFAULT
100
AcDbLine
 10
-540.9999999999995
 20
-373.4999999999995
 30
0.0
 11
-540.9999999999995
 21
-367.4999999999995
 31
0.0
  0
LINE
  5
1A2
330
1F
100
AcDbEntity
  8
DEFAULT
100
AcDbLine
 10
-540.9999999999995
 20
-367.4999999999995
 30
0.0
 11
-537.9999999999995
 21
-367.4999999999995
 31
0.0
  0
LINE
  5
1A3
330
1F
100
AcDbEntity
  8
DEFAULT
100
AcDbLine
 10
-537.9999999999995
 20
-367.4999999999995
 30
0.0
 11
-534.9999999999995
 21
-370.4999999999995
 31
0.0
  0
LINE
  5
1A4
330
1F
100
AcDbEntity
  8
DEFAULT
100
AcDbLine
 10
-534.9999999999995
 20
-370.4999999999995
 30
0.0
 11
-534.9999999999995
 21
-373.4999999999995
 31
0.0
  0
LINE
  5
1A5
330
1F
100
AcDbEntity
  8
DEFAULT
100
AcDbLine
 10
-534.9999999999995
 20
-373.4999999999995
 30
0.0
 11
-510.9999999999995
 21
-373.4999999999995
 31
0.0
  0
LINE
  5
1A6
330
1F
100
AcDbEntity
  8
DEFAULT
100
AcDbLine
 10
-510.9999999999995
 20
-373.4999999999995
 30
0.0
 11
-510.9999999999995
 21
-370.4999999999995
 31
0.0
  0
LINE
  5
1A7
330
1F
100
AcDbEntity
  8
DEFAULT
100
AcDbLine
 10
-510.9999999999995
 20
-370.4999999999995
 30
0.0
 11
-507.9999999999995
 21
-363.2723931248906
 31
0.0
  0
LINE
  5
1A8
330
1F
100
AcDbEntity
  8
DEFAULT
100
AcDbLine
 10
-507.9999999999995
 20
-363.2723931248906
 30
0.0
 11
-502.0895724995635
 21
-363.2723931248906
 31
0.0
  0
LINE
  5
1A9
330
1F
100
AcDbEntity
  8
DEFAULT
100
AcDbLine
 10
-502.0895724995635
 20
-363.2723931248906
 30
0.0
 11
-502.0895724995635
 21
-366.9999999999995
 31
0.0
  0
LINE
  5
1AA
330
1F
100
AcDbEntity
  8
DEFAULT
100
AcDbLine
 10
-502.0895724995635
 20
-366.9999999999995
 30
0.0
 11
-504.9999999999995
 21
-367.4999999999995
 31
0.0
  0
LINE
  5
1AB
330
1F
100
AcDbEntity
  8
DEFAULT
100
AcDbLine
 10
-504.9999999999995
 20
-367.4999999999995
 30
0.0
 11
-504.9999999999995
 21
-373.4999999999995
 31
0.0
  0
LINE
  5
1AC
330
1F
100
AcDbEntity
  8
DEFAULT
100
AcDbLine
 10
-504.9999999999995
 20
-373.4999999999995
 30
0.0
 11
-504.9999999999995
 21
-379.4999999999995
 31
0.0
  0
LINE
  5
1AD
330
1F
100
AcDbEntity
  8
DEFAULT
100
AcDbLine
 10
-504.9999999999995
 20
-379.4999999999995
 30
0.0
 11
-504.9999999999995
 21
-383.4999999999995
 31
0.0
  0
LINE
  5
1AE
330
1F
100
AcDbEntity
  8
DEFAULT
100
AcDbLine
 10
-504.9999999999995
 20
-383.4999999999995
 30
0.0
 11
-510.9999999999995
 21
-383.4999999999995
 31
0.0
  0
LINE
  5
1AF
330
1F
100
AcDbEntity
  8
DEFAULT
100
AcDbLine
 10
-510.9999999999995
 20
-383.4999999999995
 30
0.0
 11
-510.9999999999995
 21
-393.4999999999995
 31
0.0
  0
LINE
  5
1B0
330
1F
100
AcDbEntity
  8
DEFAULT
100
AcDbLine
 10
-510.9999999999995
 20
-393.4999999999995
 30
0.0
 11
-504.9999999999995
 21
-393.4999999999995
 31
0.0
  0
LINE
  5
1B1
330
1F
100
AcDbEntity
  8
DEFAULT
100
AcDbLine
 10
-504.9999999999995
 20
-393.4999999999995
 30
0.0
 11
-504.9999999999995
 21
-403.4999999999995
 31
0.0
  0
LINE
  5
1B2
330
1F
100
AcDbEntity
  8
DEFAULT
100
AcDbLine
 10
-504.9999999999995
 20
-403.4999999999995
 30
0.0
 11
-510.9999999999995
 21
-403.4999999999995
 31
0.0
  0
LINE
  5
1B3
330
1F
100
AcDbEntity
  8
DEFAULT
100
AcDbLine
 10
-510.9999999999995
 20
-403.4999999999995
 30
0.0
 11
-510.9999999999995
 21
-413.4999999999995
 31
0.0
  0
LINE
  5
1B4
330
1F
100
AcDbEntity
  8
DEFAULT
100
AcDbLine
 10
-510.9999999999995
 20
-413.4999999999995
 30
0.0
 11
-510.9999999999995
 21
-418.4999999999995
 31
0.0
  0
LINE
  5
1B5
330
1F
100
AcDbEntity
  8
DEFAULT
100
AcDbLine
 10
-510.9999999999995
 20
-418.4999999999995
 30
0.0
 11
-514.9999999999995
 21
-418.4999999999995
 31
0.0
  0
ARC
  5
1B6
330
1F
100
AcDbEntity
  8
DEFAULT
100
AcDbCircle
 10
-514.9999999999995
 20
-415.4999999999995
 30
0.0
 40
3.0
100
AcDbArc
 50
180.0
 51
270.0
  0
LINE
  5
1B7
330
1F
100
AcDbEntity
  8
DEFAULT
100
AcDbLine
 10
-517.9999999999995
 20
-415.4999999999995
 30
0.0
 11
-517.9999999999995
 21
-413.4999999999995
 31
0.0
  0
ARC
  5
1B8
330
1F
100
AcDbEntity
  8
DEFAULT
100
AcDbCircle
 10
-554.6304347826081
 20
-413.4999999999995
 30
0.0
 40
36.6304347826088
100
AcDbArc
 50
0.0
 51
65.18826753297893
  0
ARC
  5
1B9
330
1F
100
AcDbEntity
  8
DEFAULT
100
AcDbCircle
 10
-537.9999999999995
 20
-435.5277885005607
 30
0.0
 40
3.000000000000057
100
AcDbArc
 50
180.0
 51
245.1882675329788
  0
LINE
  5
1BA
330
1F
100
AcDbEntity
  8
DEFAULT
100
AcDbLine
 10
-540.9999999999995
 20
-435.5277885005607
 30
0.0
 11
-540.9999999999995
 21
-431.4999999977708
 31
0.0
  0
LINE
  5
1BB
330
1F
100
AcDbEntity
  8
DEFAULT
100
AcDbLine
 10
-540.9999999999995
 20
-431.4999999977708
 30
0.0
 11
-540.9999999999995
 21
-425.4999999977708
 31
0.0
  0
LINE
  5
1BC
330
1F
100
AcDbEntity
  8
DEFAULT
100
AcDbLine
 10
-540.9999999999995
 20
-425.4999999977708
 30
0.0
 11
-537.9999999999995
 21
-425.4999999977708
 31
0.0
  0
LINE
  5
1BD
330
1F
100
AcDbEntity
  8
DEFAULT
100
AcDbLine
 10
-537.9999999999995
 20
-425.4999999977708
 30
0.0
 11
-534.9999999999995
 21
-428.4999999977708
 31
0.0
  0
LINE
  5
1BE
330
1F
100
AcDbEntity
  8
DEFAULT
100
AcDbLine
 10
-534.9999999999995
 20
-428.4999999977708
 30
0.0
 11
-534.9999999999995
 21
-431.4999999977708
 31
0.0
  0
LINE
  5
1BF
330
1F
100
AcDbEntity
  8
DEFAULT
100
AcDbLine
 10
-534.9999999999995
 20
-431.4999999977708
 30
0.0
 11
-510.9999999999995
 21
-431.4999999977708
 31
0.0
  0
LINE
  5
1C0
330
1F
100
AcDbEntity
  8
DEFAULT
100
AcDbLine
 10
-510.9999999999995
 20
-431.4999999977708
 30
0.0
 11
-510.9999999999995
 21
-428.4999999977708
 31
0.0
  0
LINE
  5
1C1
330
1F
100
AcDbEntity
  8
DEFAULT
100
AcDbLine
 10
-510.9999999999995
 20
-428.4999999977708
 30
0.0
 11
-507.9999999999995
 21
-421.2723931226619
 31
0.0
  0
LINE
  5
1C2
330
1F
100
AcDbEntity
  8
DEFAULT
100
AcDbLine
 10
-507.9999999999995
 20
-421.2723931226619
 30
0.0
 11
-502.0895724995635
 21
-421.2723931226619
 31
0.0
  0
LINE
  5
1C3
330
1F
100
AcDbEntity
  8
DEFAULT
100
AcDbLine
 10
-502.0895724995635
 20
-421.2723931226619
 30
0.0
 11
-502.0895724995635
 21
-424.9999999977708
 31
0.0
  0
LINE
  5
1C4
330
1F
100
AcDbEntity
  8
DEFAULT
100
AcDbLine
 10
-502.0895724995635
 20
-424.9999999977708
 30
0.0
 11
-504.9999999999995
 21
-425.4999999977708
 31
0.0
  0
LINE
  5
1C5
330
1F
100
AcDbEntity
  8
DEFAULT
100
AcDbLine
 10
-504.9999999999995
 20
-425.4999999977708
 30
0.0
 11
-504.9999999999995
 21
-431.4999999977708
 31
0.0
  0
LINE
  5
1C6
330
1F
100
AcDbEntity
  8
DEFAULT
100
AcDbLine
 10
-504.9999999999995
 20
-431.4999999977708
 30
0.0
 11
-504.9999999999995
 21
-437.4999999977708
 31
0.0
  0
LINE
  5
1C7
330
1F
100
AcDbEntity
  8
DEFAULT
100
AcDbLine
 10
-504.9999999999995
 20
-437.4999999977708
 30
0.0
 11
-504.9999999999995
 21
-441.4999999977708
 31
0.0
  0
LINE
  5
1C8
330
1F
100
AcDbEntity
  8
DEFAULT
100
AcDbLine
 10
-504.9999999999995
 20
-441.4999999977708
 30
0.0
 11
-510.9999999999995
 21
-441.4999999977708
 31
0.0
  0
LINE
  5
1C9
330
1F
100
AcDbEntity
  8
DEFAULT
100
AcDbLine
 10
-510.9999999999995
 20
-441.4999999977708
 30
0.0
 11
-510.9999999999995
 21
-451.4999999977708
 31
0.0
  0
LINE
  5
1CA
330
1F
100
AcDbEntity
  8
DEFAULT
100
AcDbLine
 10
-510.9999999999995
 20
-451.4999999977708
 30
0.0
 11
-504.9999999999995
 21
-451.4999999977708
 31
0.0
  0
LINE
  5
1CB
330
1F
100
AcDbEntity
  8
DEFAULT
100
AcDbLine
 10
-504.9999999999995
 20
-451.4999999977708
 30
0.0
 11
-504.9999999999995
 21
-461.4999999977708
 31
0.0
  0
LINE
  5
1CC
330
1F
100
AcDbEntity
  8
DEFAULT
100
AcDbLine
 10
-504.9999999999995
 20
-461.4999999977708
 30
0.0
 11
-510.9999999999995
 21
-461.4999999977708
 31
0.0
  0
LINE
  5
1CD
330
1F
100
AcDbEntity
  8
DEFAULT
100
AcDbLine
 10
-510.9999999999995
 20
-461.4999999977708
 30
0.0
 11
-510.9999999999995
 21
-471.4999999977708
 31
0.0
  0
LINE
  5
1CE
330
1F
100
AcDbEntity
  8
DEFAULT
100
AcDbLine
 10
-510.9999999999995
 20
-471.4999999977708
 30
0.0
 11
-510.9999999999995
 21
-476.4999999977708
 31
0.0
  0
LINE
  5
1CF
330
1F
100
AcDbEntity
  8
DEFAULT
100
AcDbLine
 10
-510.9999999999995
 20
-476.4999999977708
 30
0.0
 11
-514.9999999999995
 21
-476.4999999977708
 31
0.0
  0
ARC
  5
1D0
330
1F
100
AcDbEntity
  8
DEFAULT
100
AcDbCircle
 10
-514.9999999999995
 20
-473.4999999977708
 30
0.0
 40
3.0
100
AcDbArc
 50
180.0
 51
270.0
  0
LINE
  5
1D1
330
1F
100
AcDbEntity
  8
DEFAULT
100
AcDbLine
 10
-517.9999999999995
 20
-473.4999999977708
 30
0.0
 11
-517.9999999999995
 21
-471.4999999977708
 31
0.0
  0
ARC
  5
1D2
330
1F
100
AcDbEntity
  8
DEFAULT
100
AcDbCircle
 10
-554.6304347826081
 20
-471.4999999977708
 30
0.0
 40
36.6304347826088
100
AcDbArc
 50
0.0
 51
65.18826753297893
  0
ARC
  5
1D3
330
1F
100
AcDbEntity
  8
DEFAULT
100
AcDbCircle
 10
-357.9999999999995
 20
-435.5277885005607
 30
0.0
 40
3.000000000000057
100
AcDbArc
 50
294.8117324670202
 51
0.0
  0
LINE
  5
1D4
330
1F
100
AcDbEntity
  8
DEFAULT
100
AcDbLine
 10
-354.9999999999995
 20
-435.5277885005607
 30
0.0
 11
-354.9999999999995
 21
-431.4999999977708
 31
0.0
  0
LINE
  5
1D5
330
1F
100
AcDbEntity
  8
DEFAULT
100
AcDbLine
 10
-354.9999999999995
 20
-431.4999999977708
 30
0.0
 11
-354.9999999999995
 21
-425.4999999977708
 31
0.0
  0
LINE
  5
1D6
330
1F
100
AcDbEntity
  8
DEFAULT
100
AcDbLine
 10
-354.9999999999995
 20
-425.4999999977708
 30
0.0
 11
-357.9999999999995
 21
-425.4999999977708
 31
0.0
  0
LINE
  5
1D7
330
1F
100
AcDbEntity
  8
DEFAULT
100
AcDbLine
 10
-357.9999999999995
 20
-425.4999999977708
 30
0.0
 11
-360.9999999999995
 21
-428.4999999977708
 31
0.0
  0
LINE
  5
1D8
330
1F
100
AcDbEntity
  8
DEFAULT
100
AcDbLine
 10
-360.9999999999995
 20
-428.4999999977708
 30
0.0
 11
-360.9999999999995
 21
-431.4999999977708
 31
0.0
  0
LINE
  5
1D9
330
1F
100
AcDbEntity
  8
DEFAULT
100
AcDbLine
 10
-360.9999999999995
 20
-431.4999999977708
 30
0.0
 11
-384.9999999999995
 21
-431.4999999977708
 31
0.0
  0
LINE
  5
1DA
330
1F
100
AcDbEntity
  8
DEFAULT
100
AcDbLine
 10
-384.9999999999995
 20
-431.4999999977708
 30
0.0
 11
-384.9999999999995
 21
-428.4999999977708
 31
0.0
  0
LINE
  5
1DB
330
1F
100
AcDbEntity
  8
DEFAULT
100
AcDbLine
 10
-384.9999999999995
 20
-428.4999999977708
 30
0.0
 11
-387.9999999999995
 21
-421.2723931226619
 31
0.0
  0
LINE
  5
1DC
330
1F
100
AcDbEntity
  8
DEFAULT
100
AcDbLine
 10
-387.9999999999995
 20
-421.2723931226619
 30
0.0
 11
-393.9104275004356
 21
-421.2723931226619
 31
0.0
  0
LINE
  5
1DD
330
1F
100
AcDbEntity
  8
DEFAULT
100
AcDbLine
 10
-393.9104275004356
 20
-421.2723931226619
 30
0.0
 11
-393.9104275004356
 21
-424.9999999977708
 31
0.0
  0
LINE
  5
1DE
330
1F
100
AcDbEntity
  8
DEFAULT
100
AcDbLine
 10
-393.9104275004356
 20
-424.9999999977708
 30
0.0
 11
-390.9999999999995
 21
-425.4999999977708
 31
0.0
  0
LINE
  5
1DF
330
1F
100
AcDbEntity
  8
DEFAULT
100
AcDbLine
 10
-390.9999999999995
 20
-425.4999999977708
 30
0.0
 11
-390.9999999999995
 21
-431.4999999977708
 31
0.0
  0
LINE
  5
1E0
330
1F
100
AcDbEntity
  8
DEFAULT
100
AcDbLine
 10
-390.9999999999995
 20
-431.4999999977708
 30
0.0
 11
-390.9999999999995
 21
-437.4999999977708
 31
0.0
  0
LINE
  5
1E1
330
1F
100
AcDbEntity
  8
DEFAULT
100
AcDbLine
 10
-390.9999999999995
 20
-437.4999999977708
 30
0.0
 11
-390.9999999999995
 21
-441.4999999977708
 31
0.0
  0
LINE
  5
1E2
330
1F
100
AcDbEntity
  8
DEFAULT
100
AcDbLine
 10
-390.9999999999995
 20
-441.4999999977708
 30
0.0
 11
-384.9999999999995
 21
-441.4999999977708
 31
0.0
  0
LINE
  5
1E3
330
1F
100
AcDbEntity
  8
DEFAULT
100
AcDbLine
 10
-384.9999999999995
 20
-441.4999999977708
 30
0.0
 11
-384.9999999999995
 21
-451.4999999977708
 31
0.0
  0
LINE
  5
1E4
330
1F
100
AcDbEntity
  8
DEFAULT
100
AcDbLine
 10
-384.9999999999995
 20
-451.4999999977708
 30
0.0
 11
-390.9999999999995
 21
-451.4999999977708
 31
0.0
  0
LINE
  5
1E5
330
1F
100
AcDbEntity
  8
DEFAULT
100
AcDbLine
 10
-390.9999999999995
 20
-451.4999999977708
 30
0.0
 11
-390.9999999999995
 21
-461.4999999977708
 31
0.0
  0
LINE
  5
1E6
330
1F
100
AcDbEntity
  8
DEFAULT
100
AcDbLine
 10
-390.9999999999995
 20
-461.4999999977708
 30
0.0
 11
-384.9999999999995
 21
-461.4999999977708
 31
0.0
  0
LINE
  5
1E7
330
1F
100
AcDbEntity
  8
DEFAULT
100
AcDbLine
 10
-384.9999999999995
 20
-461.4999999977708
 30
0.0
 11
-384.9999999999995
 21
-471.4999999977708
 31
0.0
  0
LINE
  5
1E8
330
1F
100
AcDbEntity
  8
DEFAULT
100
AcDbLine
 10
-384.9999999999995
 20
-471.4999999977708
 30
0.0
 11
-384.9999999999995
 21
-476.4999999977708
 31
0.0
  0
LINE
  5
1E9
330
1F
100
AcDbEntity
  8
DEFAULT
100
AcDbLine
 10
-384.9999999999995
 20
-476.4999999977708
 30
0.0
 11
-380.9999999999995
 21
-476.4999999977708
 31
0.0
  0
ARC
  5
1EA
330
1F
100
AcDbEntity
  8
DEFAULT
100
AcDbCircle
 10
-380.9999999999995
 20
-473.4999999977708
 30
0.0
 40
3.0
100
AcDbArc
 50
270.0
 51
0.0
  0
LINE
  5
1EB
330
1F
100
AcDbEntity
  8
DEFAULT
100
AcDbLine
 10
-377.9999999999995
 20
-473.4999999977708
 30
0.0
 11
-377.9999999999995
 21
-471.4999999977708
 31
0.0
  0
ARC
  5
1EC
330
1F
100
AcDbEntity
  8
DEFAULT
100
AcDbCircle
 10
-341.3695652173906
 20
-471.4999999977708
 30
0.0
 40
36.6304347826088
100
AcDbArc
 50
114.8117324670211
 51
180.0
  0
LINE
  5
1ED
330
1F
100
AcDbEntity
  8
DEFAULT
100
AcDbLine
 10
-510.9999999999995
 20
-476.4999999977708
 30
0.0
 11
-384.9999999999995
 21
-476.4999999977708
 31
0.0
  0
LINE
  5
1EE
330
1F
100
AcDbEntity
  8
DEFAULT
100
AcDbLine
 10
-390.9999999999995
 20
-431.4999999977708
 30
0.0
 11
-504.9999999999995
 21
-431.4999999977708
 31
0.0
  0
LINE
  5
1EF
330
1F
100
AcDbEntity
  8
DEFAULT
100
AcDbLine
 10
-521.9999999999995
 20
-499.9999999999995
 30
0.0
 11
-605.9999999999995
 21
-499.9999999999995
 31
0.0
  0
LINE
  5
1F0
330
1F
100
AcDbEntity
  8
DEFAULT
100
AcDbLine
 10
-611.9999999999995
 20
-544.9999999999995
 30
0.0
 11
-515.9999999999995
 21
-544.9999999999995
 31
0.0
  0
LINE
  5
1F1
330
1F
100
AcDbEntity
  8
DEFAULT
100
AcDbLine
 10
-592.9999999999995
 20
-509.9999999999995
 30
0.0
 11
-534.9999999999995
 21
-509.9999999999995
 31
0.0
  0
ARC
  5
1F2
330
1F
100
AcDbEntity
  8
DEFAULT
100
AcDbCircle
 10
-534.9999999999995
 20
-512.9999999999994
 30
0.0
 40
2.999999999999886
100
AcDbArc
 50
359.9999999999978
 51
90.0
  0
LINE
  5
1F3
330
1F
100
AcDbEntity
  8
DEFAULT
100
AcDbLine
 10
-592.9999999999995
 20
-534.9999999999995
 30
0.0
 11
-534.9999999999995
 21
-534.9999999999995
 31
0.0
  0
LINE
  5
1F4
330
1F
100
AcDbEntity
  8
DEFAULT
100
AcDbLine
 10
-531.9999999999995
 20
-512.9999999999995
 30
0.0
 11
-531.9999999999995
 21
-531.9999999999995
 31
0.0
  0
ARC
  5
1F5
330
1F
100
AcDbEntity
  8
DEFAULT
100
AcDbCircle
 10
-534.9999999999997
 20
-531.9999999999994
 30
0.0
 40
3.000000000000114
100
AcDbArc
 50
270.0000000000021
 51
359.9999999999978
  0
ARC
  5
1F6
330
1F
100
AcDbEntity
  8
DEFAULT
100
AcDbCircle
 10
-488.9999999999995
 20
-504.0277885027895
 30
0.0
 40
3.000000000000057
100
AcDbArc
 50
294.8117324670202
 51
0.0
  0
LINE
  5
1F7
330
1F
100
AcDbEntity
  8
DEFAULT
100
AcDbLine
 10
-485.9999999999995
 20
-504.0277885027895
 30
0.0
 11
-485.9999999999995
 21
-499.9999999999995
 31
0.0
  0
LINE
  5
1F8
330
1F
100
AcDbEntity
  8
DEFAULT
100
AcDbLine
 10
-485.9999999999995
 20
-499.9999999999995
 30
0.0
 11
-485.9999999999995
 21
-493.9999999999995
 31
0.0
  0
LINE
  5
1F9
330
1F
100
AcDbEntity
  8
DEFAULT
100
AcDbLine
 10
-485.9999999999995
 20
-493.9999999999995
 30
0.0
 11
-488.9999999999995
 21
-493.9999999999995
 31
0.0
  0
LINE
  5
1FA
330
1F
100
AcDbEntity
  8
DEFAULT
100
AcDbLine
 10
-488.9999999999995
 20
-493.9999999999995
 30
0.0
 11
-491.9999999999995
 21
-496.9999999999995
 31
0.0
  0
LINE
  5
1FB
330
1F
100
AcDbEntity
  8
DEFAULT
100
AcDbLine
 10
-491.9999999999995
 20
-496.9999999999995
 30
0.0
 11
-491.9999999999995
 21
-499.9999999999995
 31
0.0
  0
LINE
  5
1FC
330
1F
100
AcDbEntity
  8
DEFAULT
100
AcDbLine
 10
-491.9999999999995
 20
-499.9999999999995
 30
0.0
 11
-515.9999999999995
 21
-499.9999999999995
 31
0.0
  0
LINE
  5
1FD
330
1F
100
AcDbEntity
  8
DEFAULT
100
AcDbLine
 10
-515.9999999999995
 20
-499.9999999999995
 30
0.0
 11
-515.9999999999995
 21
-496.9999999999995
 31
0.0
  0
LINE
  5
1FE
330
1F
100
AcDbEntity
  8
DEFAULT
100
AcDbLine
 10
-515.9999999999995
 20
-496.9999999999995
 30
0.0
 11
-518.9999999999995
 21
-489.7723931248906
 31
0.0
  0
LINE
  5
1FF
330
1F
100
AcDbEntity
  8
DEFAULT
100
AcDbLine
 10
-518.9999999999995
 20
-489.7723931248906
 30
0.0
 11
-524.9104275004356
 21
-489.7723931248906
 31
0.0
  0
LINE
  5
200
330
1F
100
AcDbEntity
  8
DEFAULT
100
AcDbLine
 10
-524.9104275004356
 20
-489.7723931248906
 30
0.0
 11
-524.9104275004356
 21
-493.4999999999995
 31
0.0
  0
LINE
  5
201
330
1F
100
AcDbEntity
  8
DEFAULT
100
AcDbLine
 10
-524.9104275004356
 20
-493.4999999999995
 30
0.0
 11
-521.9999999999995
 21
-493.9999999999995
 31
0.0
  0
LINE
  5
202
330
1F
100
AcDbEntity
  8
DEFAULT
100
AcDbLine
 10
-521.9999999999995
 20
-493.9999999999995
 30
0.0
 11
-521.9999999999995
 21
-499.9999999999995
 31
0.0
  0
LINE
  5
203
330
1F
100
AcDbEntity
  8
DEFAULT
100
AcDbLine
 10
-521.9999999999995
 20
-499.9999999999995
 30
0.0
 11
-521.9999999999995
 21
-505.9999999999995
 31
0.0
  0
LINE
  5
204
330
1F
100
AcDbEntity
  8
DEFAULT
100
AcDbLine
 10
-521.9999999999995
 20
-505.9999999999995
 30
0.0
 11
-521.9999999999995
 21
-509.9999999999995
 31
0.0
  0
LINE
  5
205
330
1F
100
AcDbEntity
  8
DEFAULT
100
AcDbLine
 10
-521.9999999999995
 20
-509.9999999999995
 30
0.0
 11
-515.9999999999995
 21
-509.9999999999995
 31
0.0
  0
LINE
  5
206
330
1F
100
AcDbEntity
  8
DEFAULT
100
AcDbLine
 10
-515.9999999999995
 20
-509.9999999999995
 30
0.0
 11
-515.9999999999995
 21
-519.9999999999995
 31
0.0
  0
LINE
  5
207
330
1F
100
AcDbEntity
  8
DEFAULT
100
AcDbLine
 10
-515.9999999999995
 20
-519.9999999999995
 30
0.0
 11
-521.9999999999995
 21
-519.9999999999995
 31
0.0
  0
LINE
  5
208
330
1F
100
AcDbEntity
  8
DEFAULT
100
AcDbLine
 10
-521.9999999999995
 20
-519.9999999999995
 30
0.0
 11
-521.9999999999995
 21
-529.9999999999995
 31
0.0
  0
LINE
  5
209
330
1F
100
AcDbEntity
  8
DEFAULT
100
AcDbLine
 10
-521.9999999999995
 20
-529.9999999999995
 30
0.0
 11
-515.9999999999995
 21
-529.9999999999995
 31
0.0
  0
LINE
  5
20A
330
1F
100
AcDbEntity
  8
DEFAULT
100
AcDbLine
 10
-515.9999999999995
 20
-529.9999999999995
 30
0.0
 11
-515.9999999999995
 21
-539.9999999999995
 31
0.0
  0
LINE
  5
20B
330
1F
100
AcDbEntity
  8
DEFAULT
100
AcDbLine
 10
-515.9999999999995
 20
-539.9999999999995
 30
0.0
 11
-515.9999999999995
 21
-544.9999999999995
 31
0.0
  0
LINE
  5
20C
330
1F
100
AcDbEntity
  8
DEFAULT
100
AcDbLine
 10
-515.9999999999995
 20
-544.9999999999995
 30
0.0
 11
-511.9999999999995
 21
-544.9999999999995
 31
0.0
  0
ARC
  5
20D
330
1F
100
AcDbEntity
  8
DEFAULT
100
AcDbCircle
 10
-511.9999999999995
 20
-541.9999999999995
 30
0.0
 40
3.0
100
AcDbArc
 50
270.0
 51
0.0
  0
LINE
  5
20E
330
1F
100
AcDbEntity
  8
DEFAULT
100
AcDbLine
 10
-508.9999999999995
 20
-541.9999999999995
 30
0.0
 11
-508.9999999999995
 21
-539.9999999999995
 31
0.0
  0
ARC
  5
20F
330
1F
100
AcDbEntity
  8
DEFAULT
100
AcDbCircle
 10
-472.3695652173908
 20
-539.9999999999995
 30
0.0
 40
36.6304347826088
100
AcDbArc
 50
114.8117324670211
 51
180.0
  0
ARC
  5
210
330
1F
100
AcDbEntity
  8
DEFAULT
100
AcDbCircle
 10
-638.9999999999995
 20
-504.0277885027895
 30
0.0
 40
3.000000000000057
100
AcDbArc
 50
180.0
 51
245.1882675329788
  0
LINE
  5
211
330
1F
100
AcDbEntity
  8
DEFAULT
100
AcDbLine
 10
-641.9999999999995
 20
-504.0277885027895
 30
0.0
 11
-641.9999999999995
 21
-499.9999999999995
 31
0.0
  0
LINE
  5
212
330
1F
100
AcDbEntity
  8
DEFAULT
100
AcDbLine
 10
-641.9999999999995
 20
-499.9999999999995
 30
0.0
 11
-641.9999999999995
 21
-493.9999999999995
 31
0.0
  0
LINE
  5
213
330
1F
100
AcDbEntity
  8
DEFAULT
100
AcDbLine
 10
-641.9999999999995
 20
-493.9999999999995
 30
0.0
 11
-638.9999999999995
 21
-493.9999999999995
 31
0.0
  0
LINE
  5
214
330
1F
100
AcDbEntity
  8
DEFAULT
100
AcDbLine
 10
-638.9999999999995
 20
-493.9999999999995
 30
0.0
 11
-635.9999999999995
 21
-496.9999999999995
 31
0.0
  0
LINE
  5
215
330
1F
100
AcDbEntity
  8
DEFAULT
100
AcDbLine
 10
-635.9999999999995
 20
-496.9999999999995
 30
0.0
 11
-635.9999999999995
 21
-499.9999999999995
 31
0.0
  0
LINE
  5
216
330
1F
100
AcDbEntity
  8
DEFAULT
100
AcDbLine
 10
-635.9999999999995
 20
-499.9999999999995
 30
0.0
 11
-611.9999999999995
 21
-499.9999999999995
 31
0.0
  0
LINE
  5
217
330
1F
100
AcDbEntity
  8
DEFAULT
100
AcDbLine
 10
-611.9999999999995
 20
-499.9999999999995
 30
0.0
 11
-611.9999999999995
 21
-496.9999999999995
 31
0.0
  0
LINE
  5
218
330
1F
100
AcDbEntity
  8
DEFAULT
100
AcDbLine
 10
-611.9999999999995
 20
-496.9999999999995
 30
0.0
 11
-608.9999999999995
 21
-489.7723931248906
 31
0.0
  0
LINE
  5
219
330
1F
100
AcDbEntity
  8
DEFAULT
100
AcDbLine
 10
-608.9999999999995
 20
-489.7723931248906
 30
0.0
 11
-603.0895724995635
 21
-489.7723931248906
 31
0.0
  0
LINE
  5
21A
330
1F
100
AcDbEntity
  8
DEFAULT
100
AcDbLine
 10
-603.0895724995635
 20
-489.7723931248906
 30
0.0
 11
-603.0895724995635
 21
-493.4999999999995
 31
0.0
  0
LINE
  5
21B
330
1F
100
AcDbEntity
  8
DEFAULT
100
AcDbLine
 10
-603.0895724995635
 20
-493.4999999999995
 30
0.0
 11
-605.9999999999995
 21
-493.9999999999995
 31
0.0
  0
LINE
  5
21C
330
1F
100
AcDbEntity
  8
DEFAULT
100
AcDbLine
 10
-605.9999999999995
 20
-493.9999999999995
 30
0.0
 11
-605.9999999999995
 21
-499.9999999999995
 31
0.0
  0
LINE
  5
21D
330
1F
100
AcDbEntity
  8
DEFAULT
100
AcDbLine
 10
-605.9999999999995
 20
-499.9999999999995
 30
0.0
 11
-605.9999999999995
 21
-505.9999999999995
 31
0.0
  0
LINE
  5
21E
330
1F
100
AcDbEntity
  8
DEFAULT
100
AcDbLine
 10
-605.9999999999995
 20
-505.9999999999995
 30
0.0
 11
-605.9999999999995
 21
-509.9999999999995
 31
0.0
  0
LINE
  5
21F
330
1F
100
AcDbEntity
  8
DEFAULT
100
AcDbLine
 10
-605.9999999999995
 20
-509.9999999999995
 30
0.0
 11
-611.9999999999995
 21
-509.9999999999995
 31
0.0
  0
LINE
  5
220
330
1F
100
AcDbEntity
  8
DEFAULT
100
AcDbLine
 10
-611.9999999999995
 20
-509.9999999999995
 30
0.0
 11
-611.9999999999995
 21
-519.9999999999995
 31
0.0
  0
LINE
  5
221
330
1F
100
AcDbEntity
  8
DEFAULT
100
AcDbLine
 10
-611.9999999999995
 20
-519.9999999999995
 30
0.0
 11
-605.9999999999995
 21
-519.9999999999995
 31
0.0
  0
LINE
  5
222
330
1F
100
AcDbEntity
  8
DEFAULT
100
AcDbLine
 10
-605.9999999999995
 20
-519.9999999999995
 30
0.0
 11
-605.9999999999995
 21
-529.9999999999995
 31
0.0
  0
LINE
  5
223
330
1F
100
AcDbEntity
  8
DEFAULT
100
AcDbLine
 10
-605.9999999999995
 20
-529.9999999999995
 30
0.0
 11
-611.9999999999995
 21
-529.9999999999995
 31
0.0
  0
LINE
  5
224
330
1F
100
AcDbEntity
  8
DEFAULT
100
AcDbLine
 10
-611.9999999999995
 20
-529.9999999999995
 30
0.0
 11
-611.9999999999995
 21
-539.9999999999995
 31
0.0
  0
LINE
  5
225
330
1F
100
AcDbEntity
  8
DEFAULT
100
AcDbLine
 10
-611.9999999999995
 20
-539.9999999999995
 30
0.0
 11
-611.9999999999995
 21
-544.9999999999995
 31
0.0
  0
LINE
  5
226
330
1F
100
AcDbEntity
  8
DEFAULT
100
AcDbLine
 10
-611.9999999999995
 20
-544.9999999999995
 30
0.0
 11
-615.9999999999995
 21
-544.9999999999995
 31
0.0
  0
ARC
  5
227
330
1F
100
AcDbEntity
  8
DEFAULT
100
AcDbCircle
 10
-615.9999999999995
 20
-541.9999999999995
 30
0.0
 40
3.0
100
AcDbArc
 50
180.0
 51
270.0
  0
LINE
  5
228
330
1F
100
AcDbEntity
  8
DEFAULT
100
AcDbLine
 10
-618.9999999999995
 20
-541.9999999999995
 30
0.0
 11
-618.9999999999995
 21
-539.9999999999995
 31
0.0
  0
ARC
  5
229
330
1F
100
AcDbEntity
  8
DEFAULT
100
AcDbCircle
 10
-655.6304347826083
 20
-539.9999999999995
 30
0.0
 40
36.6304347826088
100
AcDbArc
 50
0.0
 51
65.18826753297893
  0
ARC
  5
22A
330
1F
100
AcDbEntity
  8
DEFAULT
100
AcDbCircle
 10
-592.9999999999995
 20
-512.9999999999995
 30
0.0
 40
3.0
100
AcDbArc
 50
90.0
 51
180.0
  0
LINE
  5
22B
330
1F
100
AcDbEntity
  8
DEFAULT
100
AcDbLine
 10
-595.9999999999995
 20
-512.9999999999995
 30
0.0
 11
-595.9999999999995
 21
-531.9999999999995
 31
0.0
  0
ARC
  5
22C
330
1F
100
AcDbEntity
  8
DEFAULT
100
AcDbCircle
 10
-592.9999999999995
 20
-531.9999999999995
 30
0.0
 40
3.0
100
AcDbArc
 50
180.0
 51
270.0
  0
ARC
  5
22D
330
1F
100
AcDbEntity
  8
DEFAULT
100
AcDbCircle
 10
-638.9999999999995
 20
-563.5277885027895
 30
0.0
 40
3.000000000000057
100
AcDbArc
 50
180.0
 51
245.1882675329788
  0
LINE
  5
22E
330
1F
100
AcDbEntity
  8
DEFAULT
100
AcDbLine
 10
-641.9999999999995
 20
-563.5277885027895
 30
0.0
 11
-641.9999999999995
 21
-559.4999999999995
 31
0.0
  0
LINE
  5
22F
330
1F
100
AcDbEntity
  8
DEFAULT
100
AcDbLine
 10
-641.9999999999995
 20
-559.4999999999995
 30
0.0
 11
-641.9999999999995
 21
-553.4999999999995
 31
0.0
  0
LINE
  5
230
330
1F
100
AcDbEntity
  8
DEFAULT
100
AcDbLine
 10
-641.9999999999995
 20
-553.4999999999995
 30
0.0
 11
-638.9999999999995
 21
-553.4999999999995
 31
0.0
  0
LINE
  5
231
330
1F
100
AcDbEntity
  8
DEFAULT
100
AcDbLine
 10
-638.9999999999995
 20
-553.4999999999995
 30
0.0
 11
-635.9999999999995
 21
-556.4999999999995
 31
0.0
  0
LINE
  5
232
330
1F
100
AcDbEntity
  8
DEFAULT
100
AcDbLine
 10
-635.9999999999995
 20
-556.4999999999995
 30
0.0
 11
-635.9999999999995
 21
-559.4999999999995
 31
0.0
  0
LINE
  5
233
330
1F
100
AcDbEntity
  8
DEFAULT
100
AcDbLine
 10
-635.9999999999995
 20
-559.4999999999995
 30
0.0
 11
-611.9999999999995
 21
-559.4999999999995
 31
0.0
  0
LINE
  5
234
330
1F
100
AcDbEntity
  8
DEFAULT
100
AcDbLine
 10
-611.9999999999995
 20
-559.4999999999995
 30
0.0
 11
-611.9999999999995
 21
-556.4999999999995
 31
0.0
  0
LINE
  5
235
330
1F
100
AcDbEntity
  8
DEFAULT
100
AcDbLine
 10
-611.9999999999995
 20
-556.4999999999995
 30
0.0
 11
-608.9999999999995
 21
-549.2723931248906
 31
0.0
  0
LINE
  5
236
330
1F
100
AcDbEntity
  8
DEFAULT
100
AcDbLine
 10
-608.9999999999995
 20
-549.2723931248906
 30
0.0
 11
-603.0895724995635
 21
-549.2723931248906
 31
0.0
  0
LINE
  5
237
330
1F
100
AcDbEntity
  8
DEFAULT
100
AcDbLine
 10
-603.0895724995635
 20
-549.2723931248906
 30
0.0
 11
-603.0895724995635
 21
-552.9999999999995
 31
0.0
  0
LINE
  5
238
330
1F
100
AcDbEntity
  8
DEFAULT
100
AcDbLine
 10
-603.0895724995635
 20
-552.9999999999995
 30
0.0
 11
-605.9999999999995
 21
-553.4999999999995
 31
0.0
  0
LINE
  5
239
330
1F
100
AcDbEntity
  8
DEFAULT
100
AcDbLine
 10
-605.9999999999995
 20
-553.4999999999995
 30
0.0
 11
-605.9999999999995
 21
-559.4999999999995
 31
0.0
  0
LINE
  5
23A
330
1F
100
AcDbEntity
  8
DEFAULT
100
AcDbLine
 10
-605.9999999999995
 20
-559.4999999999995
 30
0.0
 11
-605.9999999999995
 21
-565.4999999999995
 31
0.0
  0
LINE
  5
23B
330
1F
100
AcDbEntity
  8
DEFAULT
100
AcDbLine
 10
-605.9999999999995
 20
-565.4999999999995
 30
0.0
 11
-605.9999999999995
 21
-569.4999999999995
 31
0.0
  0
LINE
  5
23C
330
1F
100
AcDbEntity
  8
DEFAULT
100
AcDbLine
 10
-605.9999999999995
 20
-569.4999999999995
 30
0.0
 11
-611.9999999999995
 21
-569.4999999999995
 31
0.0
  0
LINE
  5
23D
330
1F
100
AcDbEntity
  8
DEFAULT
100
AcDbLine
 10
-611.9999999999995
 20
-569.4999999999995
 30
0.0
 11
-611.9999999999995
 21
-579.4999999999995
 31
0.0
  0
LINE
  5
23E
330
1F
100
AcDbEntity
  8
DEFAULT
100
AcDbLine
 10
-611.9999999999995
 20
-579.4999999999995
 30
0.0
 11
-605.9999999999995
 21
-579.4999999999995
 31
0.0
  0
LINE
  5
23F
330
1F
100
AcDbEntity
  8
DEFAULT
100
AcDbLine
 10
-605.9999999999995
 20
-579.4999999999995
 30
0.0
 11
-605.9999999999995
 21
-589.4999999999995
 31
0.0
  0
LINE
  5
240
330
1F
100
AcDbEntity
  8
DEFAULT
100
AcDbLine
 10
-605.9999999999995
 20
-589.4999999999995
 30
0.0
 11
-611.9999999999995
 21
-589.4999999999995
 31
0.0
  0
LINE
  5
241
330
1F
100
AcDbEntity
  8
DEFAULT
100
AcDbLine
 10
-611.9999999999995
 20
-589.4999999999995
 30
0.0
 11
-611.9999999999995
 21
-599.4999999999995
 31
0.0
  0
LINE
  5
242
330
1F
100
AcDbEntity
  8
DEFAULT
100
AcDbLine
 10
-611.9999999999995
 20
-599.4999999999995
 30
0.0
 11
-611.9999999999995
 21
-604.4999999999995
 31
0.0
  0
LINE
  5
243
330
1F
100
AcDbEntity
  8
DEFAULT
100
AcDbLine
 10
-611.9999999999995
 20
-604.4999999999995
 30
0.0
 11
-615.9999999999995
 21
-604.4999999999995
 31
0.0
  0
ARC
  5
244
330
1F
100
AcDbEntity
  8
DEFAULT
100
AcDbCircle
 10
-615.9999999999995
 20
-601.4999999999995
 30
0.0
 40
3.0
100
AcDbArc
 50
180.0
 51
270.0
  0
LINE
  5
245
330
1F
100
AcDbEntity
  8
DEFAULT
100
AcDbLine
 10
-618.9999999999995
 20
-601.4999999999995
 30
0.0
 11
-618.9999999999995
 21
-599.4999999999995
 31
0.0
  0
ARC
  5
246
330
1F
100
AcDbEntity
  8
DEFAULT
100
AcDbCircle
 10
-655.6304347826083
 20
-599.4999999999995
 30
0.0
 40
36.6304347826088
100
AcDbArc
 50
0.0
 51
65.18826753297895
  0
ARC
  5
247
330
1F
100
AcDbEntity
  8
DEFAULT
100
AcDbCircle
 10
-488.9999999999995
 20
-563.5277885027895
 30
0.0
 40
3.000000000000057
100
AcDbArc
 50
294.8117324670202
 51
0.0
  0
LINE
  5
248
330
1F
100
AcDbEntity
  8
DEFAULT
100
AcDbLine
 10
-485.9999999999995
 20
-563.5277885027895
 30
0.0
 11
-485.9999999999995
 21
-559.4999999999995
 31
0.0
  0
LINE
  5
249
330
1F
100
AcDbEntity
  8
DEFAULT
100
AcDbLine
 10
-485.9999999999995
 20
-559.4999999999995
 30
0.0
 11
-485.9999999999995
 21
-553.4999999999995
 31
0.0
  0
LINE
  5
24A
330
1F
100
AcDbEntity
  8
DEFAULT
100
AcDbLine
 10
-485.9999999999995
 20
-553.4999999999995
 30
0.0
 11
-488.9999999999995
 21
-553.4999999999995
 31
0.0
  0
LINE
  5
24B
330
1F
100
AcDbEntity
  8
DEFAULT
100
AcDbLine
 10
-488.9999999999995
 20
-553.4999999999995
 30
0.0
 11
-491.9999999999995
 21
-556.4999999999995
 31
0.0
  0
LINE
  5
24C
330
1F
100
AcDbEntity
  8
DEFAULT
100
AcDbLine
 10
-491.9999999999995
 20
-556.4999999999995
 30
0.0
 11
-491.9999999999995
 21
-559.4999999999995
 31
0.0
  0
LINE
  5
24D
330
1F
100
AcDbEntity
  8
DEFAULT
100
AcDbLine
 10
-491.9999999999995
 20
-559.4999999999995
 30
0.0
 11
-515.9999999999995
 21
-559.4999999999995
 31
0.0
  0
LINE
  5
24E
330
1F
100
AcDbEntity
  8
DEFAULT
100
AcDbLine
 10
-515.9999999999995
 20
-559.4999999999995
 30
0.0
 11
-515.9999999999995
 21
-556.4999999999995
 31
0.0
  0
LINE
  5
24F
330
1F
100
AcDbEntity
  8
DEFAULT
100
AcDbLine
 10
-515.9999999999995
 20
-556.4999999999995
 30
0.0
 11
-518.9999999999995
 21
-549.2723931248906
 31
0.0
  0
LINE
  5
250
330
1F
100
AcDbEntity
  8
DEFAULT
100
AcDbLine
 10
-518.9999999999995
 20
-549.2723931248906
 30
0.0
 11
-524.9104275004356
 21
-549.2723931248906
 31
0.0
  0
LINE
  5
251
330
1F
100
AcDbEntity
  8
DEFAULT
100
AcDbLine
 10
-524.9104275004356
 20
-549.2723931248906
 30
0.0
 11
-524.9104275004356
 21
-552.9999999999995
 31
0.0
  0
LINE
  5
252
330
1F
100
AcDbEntity
  8
DEFAULT
100
AcDbLine
 10
-524.9104275004356
 20
-552.9999999999995
 30
0.0
 11
-521.9999999999995
 21
-553.4999999999995
 31
0.0
  0
LINE
  5
253
330
1F
100
AcDbEntity
  8
DEFAULT
100
AcDbLine
 10
-521.9999999999995
 20
-553.4999999999995
 30
0.0
 11
-521.9999999999995
 21
-559.4999999999995
 31
0.0
  0
LINE
  5
254
330
1F
100
AcDbEntity
  8
DEFAULT
100
AcDbLine
 10
-521.9999999999995
 20
-559.4999999999995
 30
0.0
 11
-521.9999999999995
 21
-565.4999999999995
 31
0.0
  0
LINE
  5
255
330
1F
100
AcDbEntity
  8
DEFAULT
100
AcDbLine
 10
-521.9999999999995
 20
-565.4999999999995
 30
0.0
 11
-521.9999999999995
 21
-569.4999999999995
 31
0.0
  0
LINE
  5
256
330
1F
100
AcDbEntity
  8
DEFAULT
100
AcDbLine
 10
-521.9999999999995
 20
-569.4999999999995
 30
0.0
 11
-515.9999999999995
 21
-569.4999999999995
 31
0.0
  0
LINE
  5
257
330
1F
100
AcDbEntity
  8
DEFAULT
100
AcDbLine
 10
-515.9999999999995
 20
-569.4999999999995
 30
0.0
 11
-515.9999999999995
 21
-579.4999999999995
 31
0.0
  0
LINE
  5
258
330
1F
100
AcDbEntity
  8
DEFAULT
100
AcDbLine
 10
-515.9999999999995
 20
-579.4999999999995
 30
0.0
 11
-521.9999999999995
 21
-579.4999999999995
 31
0.0
  0
LINE
  5
259
330
1F
100
AcDbEntity
  8
DEFAULT
100
AcDbLine
 10
-521.9999999999995
 20
-579.4999999999995
 30
0.0
 11
-521.9999999999995
 21
-589.4999999999995
 31
0.0
  0
LINE
  5
25A
330
1F
100
AcDbEntity
  8
DEFAULT
100
AcDbLine
 10
-521.9999999999995
 20
-589.4999999999995
 30
0.0
 11
-515.9999999999995
 21
-589.4999999999995
 31
0.0
  0
LINE
  5
25B
330
1F
100
AcDbEntity
  8
DEFAULT
100
AcDbLine
 10
-515.9999999999995
 20
-589.4999999999995
 30
0.0
 11
-515.9999999999995
 21
-599.4999999999995
 31
0.0
  0
LINE
  5
25C
330
1F
100
AcDbEntity
  8
DEFAULT
100
AcDbLine
 10
-515.9999999999995
 20
-599.4999999999995
 30
0.0
 11
-515.9999999999995
 21
-604.4999999999995
 31
0.0
  0
LINE
  5
25D
330
1F
100
AcDbEntity
  8
DEFAULT
100
AcDbLine
 10
-515.9999999999995
 20
-604.4999999999995
 30
0.0
 11
-511.9999999999995
 21
-604.4999999999995
 31
0.0
  0
ARC
  5
25E
330
1F
100
AcDbEntity
  8
DEFAULT
100
AcDbCircle
 10
-511.9999999999995
 20
-601.4999999999995
 30
0.0
 40
3.0
100
AcDbArc
 50
270.0
 51
0.0
  0
LINE
  5
25F
330
1F
100
AcDbEntity
  8
DEFAULT
100
AcDbLine
 10
-508.9999999999995
 20
-601.4999999999995
 30
0.0
 11
-508.9999999999995
 21
-599.4999999999995
 31
0.0
  0
ARC
  5
260
330
1F
100
AcDbEntity
  8
DEFAULT
100
AcDbCircle
 10
-472.3695652173908
 20
-599.4999999999995
 30
0.0
 40
36.6304347826088
100
AcDbArc
 50
114.811732467021
 51
180.0
  0
LINE
  5
261
330
1F
100
AcDbEntity
  8
DEFAULT
100
AcDbLine
 10
-611.9999999999995
 20
-604.4999999999995
 30
0.0
 11
-515.9999999999995
 21
-604.4999999999995
 31
0.0
  0
LINE
  5
262
330
1F
100
AcDbEntity
  8
DEFAULT
100
AcDbLine
 10
-521.9999999999995
 20
-559.4999999999995
 30
0.0
 11
-605.9999999999995
 21
-559.4999999999995
 31
0.0
  0
ARC
  5
263
330
1F
100
AcDbEntity
  8
DEFAULT
100
AcDbCircle
 10
-340.9999999999995
 20
-562.5277885027895
 30
0.0
 40
3.000000000000057
100
AcDbArc
 50
294.8117324670202
 51
0.0
  0
LINE
  5
264
330
1F
100
AcDbEntity
  8
DEFAULT
100
AcDbLine
 10
-337.9999999999995
 20
-562.5277885027895
 30
0.0
 11
-337.9999999999995
 21
-558.4999999999995
 31
0.0
  0
LINE
  5
265
330
1F
100
AcDbEntity
  8
DEFAULT
100
AcDbLine
 10
-337.9999999999995
 20
-558.4999999999995
 30
0.0
 11
-337.9999999999995
 21
-552.4999999999995
 31
0.0
  0
LINE
  5
266
330
1F
100
AcDbEntity
  8
DEFAULT
100
AcDbLine
 10
-337.9999999999995
 20
-552.4999999999995
 30
0.0
 11
-340.9999999999995
 21
-552.4999999999995
 31
0.0
  0
LINE
  5
267
330
1F
100
AcDbEntity
  8
DEFAULT
100
AcDbLine
 10
-340.9999999999995
 20
-552.4999999999995
 30
0.0
 11
-343.9999999999995
 21
-555.4999999999995
 31
0.0
  0
LINE
  5
268
330
1F
100
AcDbEntity
  8
DEFAULT
100
AcDbLine
 10
-343.9999999999995
 20
-555.4999999999995
 30
0.0
 11
-343.9999999999995
 21
-558.4999999999995
 31
0.0
  0
LINE
  5
269
330
1F
100
AcDbEntity
  8
DEFAULT
100
AcDbLine
 10
-343.9999999999995
 20
-558.4999999999995
 30
0.0
 11
-367.9999999999995
 21
-558.4999999999995
 31
0.0
  0
LINE
  5
26A
330
1F
100
AcDbEntity
  8
DEFAULT
100
AcDbLine
 10
-367.9999999999995
 20
-558.4999999999995
 30
0.0
 11
-367.9999999999995
 21
-555.4999999999995
 31
0.0
  0
LINE
  5
26B
330
1F
100
AcDbEntity
  8
DEFAULT
100
AcDbLine
 10
-367.9999999999995
 20
-555.4999999999995
 30
0.0
 11
-370.9999999999995
 21
-548.2723931248906
 31
0.0
  0
LINE
  5
26C
330
1F
100
AcDbEntity
  8
DEFAULT
100
AcDbLine
 10
-370.9999999999995
 20
-548.2723931248906
 30
0.0
 11
-376.9104275004356
 21
-548.2723931248906
 31
0.0
  0
LINE
  5
26D
330
1F
100
AcDbEntity
  8
DEFAULT
100
AcDbLine
 10
-376.9104275004356
 20
-548.2723931248906
 30
0.0
 11
-376.9104275004356
 21
-551.9999999999995
 31
0.0
  0
LINE
  5
26E
330
1F
100
AcDbEntity
  8
DEFAULT
100
AcDbLine
 10
-376.9104275004356
 20
-551.9999999999995
 30
0.0
 11
-373.9999999999995
 21
-552.4999999999995
 31
0.0
  0
LINE
  5
26F
330
1F
100
AcDbEntity
  8
DEFAULT
100
AcDbLine
 10
-373.9999999999995
 20
-552.4999999999995
 30
0.0
 11
-373.9999999999995
 21
-558.4999999999995
 31
0.0
  0
LINE
  5
270
330
1F
100
AcDbEntity
  8
DEFAULT
100
AcDbLine
 10
-373.9999999999995
 20
-558.4999999999995
 30
0.0
 11
-373.9999999999995
 21
-564.4999999999995
 31
0.0
  0
LINE
  5
271
330
1F
100
AcDbEntity
  8
DEFAULT
100
AcDbLine
 10
-373.9999999999995
 20
-564.4999999999995
 30
0.0
 11
-373.9999999999995
 21
-568.4999999999995
 31
0.0
  0
LINE
  5
272
330
1F
100
AcDbEntity
  8
DEFAULT
100
AcDbLine
 10
-373.9999999999995
 20
-568.4999999999995
 30
0.0
 11
-367.9999999999995
 21
-568.4999999999995
 31
0.0
  0
LINE
  5
273
330
1F
100
AcDbEntity
  8
DEFAULT
100
AcDbLine
 10
-367.9999999999995
 20
-568.4999999999995
 30
0.0
 11
-367.9999999999995
 21
-578.4999999999995
 31
0.0
  0
LINE
  5
274
330
1F
100
AcDbEntity
  8
DEFAULT
100
AcDbLine
 10
-367.9999999999995
 20
-578.4999999999995
 30
0.0
 11
-373.9999999999995
 21
-578.4999999999995
 31
0.0
  0
LINE
  5
275
330
1F
100
AcDbEntity
  8
DEFAULT
100
AcDbLine
 10
-373.9999999999995
 20
-578.4999999999995
 30
0.0
 11
-373.9999999999995
 21
-588.4999999999995
 31
0.0
  0
LINE
  5
276
330
1F
100
AcDbEntity
  8
DEFAULT
100
AcDbLine
 10
-373.9999999999995
 20
-588.4999999999995
 30
0.0
 11
-367.9999999999995
 21
-588.4999999999995
 31
0.0
  0
LINE
  5
277
330
1F
100
AcDbEntity
  8
DEFAULT
100
AcDbLine
 10
-367.9999999999995
 20
-588.4999999999995
 30
0.0
 11
-367.9999999999995
 21
-598.4999999999995
 31
0.0
  0
LINE
  5
278
330
1F
100
AcDbEntity
  8
DEFAULT
100
AcDbLine
 10
-367.9999999999995
 20
-598.4999999999995
 30
0.0
 11
-367.9999999999995
 21
-603.4999999999995
 31
0.0
  0
LINE
  5
279
330
1F
100
AcDbEntity
  8
DEFAULT
100
AcDbLine
 10
-367.9999999999995
 20
-603.4999999999995
 30
0.0
 11
-363.9999999999995
 21
-603.4999999999995
 31
0.0
  0
ARC
  5
27A
330
1F
100
AcDbEntity
  8
DEFAULT
100
AcDbCircle
 10
-363.9999999999995
 20
-600.4999999999995
 30
0.0
 40
3.0
100
AcDbArc
 50
270.0
 51
0.0
  0
LINE
  5
27B
330
1F
100
AcDbEntity
  8
DEFAULT
100
AcDbLine
 10
-360.9999999999995
 20
-600.4999999999995
 30
0.0
 11
-360.9999999999995
 21
-598.4999999999995
 31
0.0
  0
ARC
  5
27C
330
1F
100
AcDbEntity
  8
DEFAULT
100
AcDbCircle
 10
-324.3695652173908
 20
-598.4999999999995
 30
0.0
 40
36.6304347826088
100
AcDbArc
 50
114.811732467021
 51
180.0
  0
ARC
  5
27D
330
1F
100
AcDbEntity
  8
DEFAULT
100
AcDbCircle
 10
-460.9999999999995
 20
-562.5277885027895
 30
0.0
 40
3.000000000000057
100
AcDbArc
 50
180.0
 51
245.1882675329798
  0
LINE
  5
27E
330
1F
100
AcDbEntity
  8
DEFAULT
100
AcDbLine
 10
-463.9999999999995
 20
-562.5277885027895
 30
0.0
 11
-463.9999999999995
 21
-558.4999999999995
 31
0.0
  0
LINE
  5
27F
330
1F
100
AcDbEntity
  8
DEFAULT
100
AcDbLine
 10
-463.9999999999995
 20
-558.4999999999995
 30
0.0
 11
-463.9999999999995
 21
-552.4999999999995
 31
0.0
  0
LINE
  5
280
330
1F
100
AcDbEntity
  8
DEFAULT
100
AcDbLine
 10
-463.9999999999995
 20
-552.4999999999995
 30
0.0
 11
-460.9999999999995
 21
-552.4999999999995
 31
0.0
  0
LINE
  5
281
330
1F
100
AcDbEntity
  8
DEFAULT
100
AcDbLine
 10
-460.9999999999995
 20
-552.4999999999995
 30
0.0
 11
-457.9999999999995
 21
-555.4999999999995
 31
0.0
  0
LINE
  5
282
330
1F
100
AcDbEntity
  8
DEFAULT
100
AcDbLine
 10
-457.9999999999995
 20
-555.4999999999995
 30
0.0
 11
-457.9999999999995
 21
-558.4999999999995
 31
0.0
  0
LINE
  5
283
330
1F
100
AcDbEntity
  8
DEFAULT
100
AcDbLine
 10
-457.9999999999995
 20
-558.4999999999995
 30
0.0
 11
-433.9999999999995
 21
-558.4999999999995
 31
0.0
  0
LINE
  5
284
330
1F
100
AcDbEntity
  8
DEFAULT
100
AcDbLine
 10
-433.9999999999995
 20
-558.4999999999995
 30
0.0
 11
-433.9999999999995
 21
-555.4999999999995
 31
0.0
  0
LINE
  5
285
330
1F
100
AcDbEntity
  8
DEFAULT
100
AcDbLine
 10
-433.9999999999995
 20
-555.4999999999995
 30
0.0
 11
-430.9999999999995
 21
-548.2723931248906
 31
0.0
  0
LINE
  5
286
330
1F
100
AcDbEntity
  8
DEFAULT
100
AcDbLine
 10
-430.9999999999995
 20
-548.2723931248906
 30
0.0
 11
-425.0895724995635
 21
-548.2723931248906
 31
0.0
  0
LINE
  5
287
330
1F
100
AcDbEntity
  8
DEFAULT
100
AcDbLine
 10
-425.0895724995635
 20
-548.2723931248906
 30
0.0
 11
-425.0895724995635
 21
-551.9999999999995
 31
0.0
  0
LINE
  5
288
330
1F
100
AcDbEntity
  8
DEFAULT
100
AcDbLine
 10
-425.0895724995635
 20
-551.9999999999995
 30
0.0
 11
-427.9999999999995
 21
-552.4999999999995
 31
0.0
  0
LINE
  5
289
330
1F
100
AcDbEntity
  8
DEFAULT
100
AcDbLine
 10
-427.9999999999995
 20
-552.4999999999995
 30
0.0
 11
-427.9999999999995
 21
-558.4999999999995
 31
0.0
  0
LINE
  5
28A
330
1F
100
AcDbEntity
  8
DEFAULT
100
AcDbLine
 10
-427.9999999999995
 20
-558.4999999999995
 30
0.0
 11
-427.9999999999995
 21
-564.4999999999995
 31
0.0
  0
LINE
  5
28B
330
1F
100
AcDbEntity
  8
DEFAULT
100
AcDbLine
 10
-427.9999999999995
 20
-564.4999999999995
 30
0.0
 11
-427.9999999999995
 21
-568.4999999999995
 31
0.0
  0
LINE
  5
28C
330
1F
100
AcDbEntity
  8
DEFAULT
100
AcDbLine
 10
-427.9999999999995
 20
-568.4999999999995
 30
0.0
 11
-433.9999999999995
 21
-568.4999999999995
 31
0.0
  0
LINE
  5
28D
330
1F
100
AcDbEntity
  8
DEFAULT
100
AcDbLine
 10
-433.9999999999995
 20
-568.4999999999995
 30
0.0
 11
-433.9999999999995
 21
-578.4999999999995
 31
0.0
  0
LINE
  5
28E
330
1F
100
AcDbEntity
  8
DEFAULT
100
AcDbLine
 10
-433.9999999999995
 20
-578.4999999999995
 30
0.0
 11
-427.9999999999995
 21
-578.4999999999995
 31
0.0
  0
LINE
  5
28F
330
1F
100
AcDbEntity
  8
DEFAULT
100
AcDbLine
 10
-427.9999999999995
 20
-578.4999999999995
 30
0.0
 11
-427.9999999999995
 21
-588.4999999999995
 31
0.0
  0
LINE
  5
290
330
1F
100
AcDbEntity
  8
DEFAULT
100
AcDbLine
 10
-427.9999999999995
 20
-588.4999999999995
 30
0.0
 11
-433.9999999999995
 21
-588.4999999999995
 31
0.0
  0
LINE
  5
291
330
1F
100
AcDbEntity
  8
DEFAULT
100
AcDbLine
 10
-433.9999999999995
 20
-588.4999999999995
 30
0.0
 11
-433.9999999999995
 21
-598.4999999999995
 31
0.0
  0
LINE
  5
292
330
1F
100
AcDbEntity
  8
DEFAULT
100
AcDbLine
 10
-433.9999999999995
 20
-598.4999999999995
 30
0.0
 11
-433.9999999999995
 21
-603.4999999999995
 31
0.0
  0
LINE
  5
293
330
1F
100
AcDbEntity
  8
DEFAULT
100
AcDbLine
 10
-433.9999999999995
 20
-603.4999999999995
 30
0.0
 11
-437.9999999999995
 21
-603.4999999999995
 31
0.0
  0
ARC
  5
294
330
1F
100
AcDbEntity
  8
DEFAULT
100
AcDbCircle
 10
-437.9999999999995
 20
-600.4999999999995
 30
0.0
 40
3.0
100
AcDbArc
 50
180.0
 51
270.0
  0
LINE
  5
295
330
1F
100
AcDbEntity
  8
DEFAULT
100
AcDbLine
 10
-440.9999999999995
 20
-600.4999999999995
 30
0.0
 11
-440.9999999999995
 21
-598.4999999999995
 31
0.0
  0
ARC
  5
296
330
1F
100
AcDbEntity
  8
DEFAULT
100
AcDbCircle
 10
-477.6304347826083
 20
-598.4999999999995
 30
0.0
 40
36.6304347826088
100
AcDbArc
 50
0.0
 51
65.18826753297895
  0
LINE
  5
297
330
1F
100
AcDbEntity
  8
DEFAULT
100
AcDbLine
 10
-373.9999999999995
 20
-558.4999999999995
 30
0.0
 11
-427.9999999999995
 21
-558.4999999999995
 31
0.0
  0
LINE
  5
298
330
1F
100
AcDbEntity
  8
DEFAULT
100
AcDbLine
 10
-433.9999999999995
 20
-603.4999999999995
 30
0.0
 11
-367.9999999999995
 21
-603.4999999999995
 31
0.0
  0
ARC
  5
299
330
1F
100
AcDbEntity
  8
DEFAULT
100
AcDbCircle
 10
-386.9999999999995
 20
-531.4999999999995
 30
0.0
 40
3.0
100
AcDbArc
 50
270.0
 51
0.0
  0
LINE
  5
29A
330
1F
100
AcDbEntity
  8
DEFAULT
100
AcDbLine
 10
-383.9999999999995
 20
-512.4999999999995
 30
0.0
 11
-383.9999999999995
 21
-531.4999999999995
 31
0.0
  0
LINE
  5
29B
330
1F
100
AcDbEntity
  8
DEFAULT
100
AcDbLine
 10
-414.9999999999995
 20
-534.4999999999995
 30
0.0
 11
-386.9999999999995
 21
-534.4999999999995
 31
0.0
  0
ARC
  5
29C
330
1F
100
AcDbEntity
  8
DEFAULT
100
AcDbCircle
 10
-414.9999999999995
 20
-531.4999999999995
 30
0.0
 40
3.0
100
AcDbArc
 50
180.0
 51
270.0
  0
LINE
  5
29D
330
1F
100
AcDbEntity
  8
DEFAULT
100
AcDbLine
 10
-417.9999999999995
 20
-512.4999999999995
 30
0.0
 11
-417.9999999999995
 21
-531.4999999999995
 31
0.0
  0
ARC
  5
29E
330
1F
100
AcDbEntity
  8
DEFAULT
100
AcDbCircle
 10
-386.9999999999995
 20
-512.4999999999995
 30
0.0
 40
3.0
100
AcDbArc
 50
0.0
 51
90.0
  0
LINE
  5
29F
330
1F
100
AcDbEntity
  8
DEFAULT
100
AcDbLine
 10
-414.9999999999995
 20
-509.4999999999995
 30
0.0
 11
-386.9999999999995
 21
-509.4999999999995
 31
0.0
  0
ARC
  5
2A0
330
1F
100
AcDbEntity
  8
DEFAULT
100
AcDbCircle
 10
-414.9999999999995
 20
-512.4999999999995
 30
0.0
 40
3.0
100
AcDbArc
 50
90.0
 51
180.0
  0
LINE
  5
2A1
330
1F
100
AcDbEntity
  8
DEFAULT
100
AcDbLine
 10
-433.9999999999995
 20
-544.4999999999995
 30
0.0
 11
-367.9999999999995
 21
-544.4999999999995
 31
0.0
  0
LINE
  5
2A2
330
1F
100
AcDbEntity
  8
DEFAULT
100
AcDbLine
 10
-373.9999999999995
 20
-499.4999999999995
 30
0.0
 11
-427.9999999999995
 21
-499.4999999999995
 31
0.0
  0
ARC
  5
2A3
330
1F
100
AcDbEntity
  8
DEFAULT
100
AcDbCircle
 10
-460.9999999999995
 20
-503.5277885027895
 30
0.0
 40
3.000000000000057
100
AcDbArc
 50
180.0
 51
245.1882675329798
  0
LINE
  5
2A4
330
1F
100
AcDbEntity
  8
DEFAULT
100
AcDbLine
 10
-463.9999999999995
 20
-503.5277885027895
 30
0.0
 11
-463.9999999999995
 21
-499.4999999999995
 31
0.0
  0
LINE
  5
2A5
330
1F
100
AcDbEntity
  8
DEFAULT
100
AcDbLine
 10
-463.9999999999995
 20
-499.4999999999995
 30
0.0
 11
-463.9999999999995
 21
-493.4999999999995
 31
0.0
  0
LINE
  5
2A6
330
1F
100
AcDbEntity
  8
DEFAULT
100
AcDbLine
 10
-463.9999999999995
 20
-493.4999999999995
 30
0.0
 11
-460.9999999999995
 21
-493.4999999999995
 31
0.0
  0
LINE
  5
2A7
330
1F
100
AcDbEntity
  8
DEFAULT
100
AcDbLine
 10
-460.9999999999995
 20
-493.4999999999995
 30
0.0
 11
-457.9999999999995
 21
-496.4999999999995
 31
0.0
  0
LINE
  5
2A8
330
1F
100
AcDbEntity
  8
DEFAULT
100
AcDbLine
 10
-457.9999999999995
 20
-496.4999999999995
 30
0.0
 11
-457.9999999999995
 21
-499.4999999999995
 31
0.0
  0
LINE
  5
2A9
330
1F
100
AcDbEntity
  8
DEFAULT
100
AcDbLine
 10
-457.9999999999995
 20
-499.4999999999995
 30
0.0
 11
-433.9999999999995
 21
-499.4999999999995
 31
0.0
  0
LINE
  5
2AA
330
1F
100
AcDbEntity
  8
DEFAULT
100
AcDbLine
 10
-433.9999999999995
 20
-499.4999999999995
 30
0.0
 11
-433.9999999999995
 21
-496.4999999999995
 31
0.0
  0
LINE
  5
2AB
330
1F
100
AcDbEntity
  8
DEFAULT
100
AcDbLine
 10
-433.9999999999995
 20
-496.4999999999995
 30
0.0
 11
-430.9999999999995
 21
-489.2723931248906
 31
0.0
  0
LINE
  5
2AC
330
1F
100
AcDbEntity
  8
DEFAULT
100
AcDbLine
 10
-430.9999999999995
 20
-489.2723931248906
 30
0.0
 11
-425.0895724995635
 21
-489.2723931248906
 31
0.0
  0
LINE
  5
2AD
330
1F
100
AcDbEntity
  8
DEFAULT
100
AcDbLine
 10
-425.0895724995635
 20
-489.2723931248906
 30
0.0
 11
-425.0895724995635
 21
-492.9999999999995
 31
0.0
  0
LINE
  5
2AE
330
1F
100
AcDbEntity
  8
DEFAULT
100
AcDbLine
 10
-425.0895724995635
 20
-492.9999999999995
 30
0.0
 11
-427.9999999999995
 21
-493.4999999999995
 31
0.0
  0
LINE
  5
2AF
330
1F
100
AcDbEntity
  8
DEFAULT
100
AcDbLine
 10
-427.9999999999995
 20
-493.4999999999995
 30
0.0
 11
-427.9999999999995
 21
-499.4999999999995
 31
0.0
  0
LINE
  5
2B0
330
1F
100
AcDbEntity
  8
DEFAULT
100
AcDbLine
 10
-427.9999999999995
 20
-499.4999999999995
 30
0.0
 11
-427.9999999999995
 21
-505.4999999999995
 31
0.0
  0
LINE
  5
2B1
330
1F
100
AcDbEntity
  8
DEFAULT
100
AcDbLine
 10
-427.9999999999995
 20
-505.4999999999995
 30
0.0
 11
-427.9999999999995
 21
-509.4999999999995
 31
0.0
  0
LINE
  5
2B2
330
1F
100
AcDbEntity
  8
DEFAULT
100
AcDbLine
 10
-427.9999999999995
 20
-509.4999999999995
 30
0.0
 11
-433.9999999999995
 21
-509.4999999999995
 31
0.0
  0
LINE
  5
2B3
330
1F
100
AcDbEntity
  8
DEFAULT
100
AcDbLine
 10
-433.9999999999995
 20
-509.4999999999995
 30
0.0
 11
-433.9999999999995
 21
-519.4999999999995
 31
0.0
  0
LINE
  5
2B4
330
1F
100
AcDbEntity
  8
DEFAULT
100
AcDbLine
 10
-433.9999999999995
 20
-519.4999999999995
 30
0.0
 11
-427.9999999999995
 21
-519.4999999999995
 31
0.0
  0
LINE
  5
2B5
330
1F
100
AcDbEntity
  8
DEFAULT
100
AcDbLine
 10
-427.9999999999995
 20
-519.4999999999995
 30
0.0
 11
-427.9999999999995
 21
-529.4999999999995
 31
0.0
  0
LINE
  5
2B6
330
1F
100
AcDbEntity
  8
DEFAULT
100
AcDbLine
 10
-427.9999999999995
 20
-529.4999999999995
 30
0.0
 11
-433.9999999999995
 21
-529.4999999999995
 31
0.0
  0
LINE
  5
2B7
330
1F
100
AcDbEntity
  8
DEFAULT
100
AcDbLine
 10
-433.9999999999995
 20
-529.4999999999995
 30
0.0
 11
-433.9999999999995
 21
-539.4999999999995
 31
0.0
  0
LINE
  5
2B8
330
1F
100
AcDbEntity
  8
DEFAULT
100
AcDbLine
 10
-433.9999999999995
 20
-539.4999999999995
 30
0.0
 11
-433.9999999999995
 21
-544.4999999999995
 31
0.0
  0
LINE
  5
2B9
330
1F
100
AcDbEntity
  8
DEFAULT
100
AcDbLine
 10
-433.9999999999995
 20
-544.4999999999995
 30
0.0
 11
-437.9999999999995
 21
-544.4999999999995
 31
0.0
  0
ARC
  5
2BA
330
1F
100
AcDbEntity
  8
DEFAULT
100
AcDbCircle
 10
-437.9999999999995
 20
-541.4999999999995
 30
0.0
 40
3.0
100
AcDbArc
 50
180.0
 51
270.0
  0
LINE
  5
2BB
330
1F
100
AcDbEntity
  8
DEFAULT
100
AcDbLine
 10
-440.9999999999995
 20
-541.4999999999995
 30
0.0
 11
-440.9999999999995
 21
-539.4999999999995
 31
0.0
  0
ARC
  5
2BC
330
1F
100
AcDbEntity
  8
DEFAULT
100
AcDbCircle
 10
-477.6304347826083
 20
-539.4999999999995
 30
0.0
 40
36.6304347826088
100
AcDbArc
 50
0.0
 51
65.18826753297893
  0
ARC
  5
2BD
330
1F
100
AcDbEntity
  8
DEFAULT
100
AcDbCircle
 10
-340.9999999999995
 20
-503.5277885027895
 30
0.0
 40
3.000000000000057
100
AcDbArc
 50
294.8117324670202
 51
0.0
  0
LINE
  5
2BE
330
1F
100
AcDbEntity
  8
DEFAULT
100
AcDbLine
 10
-337.9999999999995
 20
-503.5277885027895
 30
0.0
 11
-337.9999999999995
 21
-499.4999999999995
 31
0.0
  0
LINE
  5
2BF
330
1F
100
AcDbEntity
  8
DEFAULT
100
AcDbLine
 10
-337.9999999999995
 20
-499.4999999999995
 30
0.0
 11
-337.9999999999995
 21
-493.4999999999995
 31
0.0
  0
LINE
  5
2C0
330
1F
100
AcDbEntity
  8
DEFAULT
100
AcDbLine
 10
-337.9999999999995
 20
-493.4999999999995
 30
0.0
 11
-340.9999999999995
 21
-493.4999999999995
 31
0.0
  0
LINE
  5
2C1
330
1F
100
AcDbEntity
  8
DEFAULT
100
AcDbLine
 10
-340.9999999999995
 20
-493.4999999999995
 30
0.0
 11
-343.9999999999995
 21
-496.4999999999995
 31
0.0
  0
LINE
  5
2C2
330
1F
100
AcDbEntity
  8
DEFAULT
100
AcDbLine
 10
-343.9999999999995
 20
-496.4999999999995
 30
0.0
 11
-343.9999999999995
 21
-499.4999999999995
 31
0.0
  0
LINE
  5
2C3
330
1F
100
AcDbEntity
  8
DEFAULT
100
AcDbLine
 10
-343.9999999999995
 20
-499.4999999999995
 30
0.0
 11
-367.9999999999995
 21
-499.4999999999995
 31
0.0
  0
LINE
  5
2C4
330
1F
100
AcDbEntity
  8
DEFAULT
100
AcDbLine
 10
-367.9999999999995
 20
-499.4999999999995
 30
0.0
 11
-367.9999999999995
 21
-496.4999999999995
 31
0.0
  0
LINE
  5
2C5
330
1F
100
AcDbEntity
  8
DEFAULT
100
AcDbLine
 10
-367.9999999999995
 20
-496.4999999999995
 30
0.0
 11
-370.9999999999995
 21
-489.2723931248906
 31
0.0
  0
LINE
  5
2C6
330
1F
100
AcDbEntity
  8
DEFAULT
100
AcDbLine
 10
-370.9999999999995
 20
-489.2723931248906
 30
0.0
 11
-376.9104275004356
 21
-489.2723931248906
 31
0.0
  0
LINE
  5
2C7
330
1F
100
AcDbEntity
  8
DEFAULT
100
AcDbLine
 10
-376.9104275004356
 20
-489.2723931248906
 30
0.0
 11
-376.9104275004356
 21
-492.9999999999995
 31
0.0
  0
LINE
  5
2C8
330
1F
100
AcDbEntity
  8
DEFAULT
100
AcDbLine
 10
-376.9104275004356
 20
-492.9999999999995
 30
0.0
 11
-373.9999999999995
 21
-493.4999999999995
 31
0.0
  0
LINE
  5
2C9
330
1F
100
AcDbEntity
  8
DEFAULT
100
AcDbLine
 10
-373.9999999999995
 20
-493.4999999999995
 30
0.0
 11
-373.9999999999995
 21
-499.4999999999995
 31
0.0
  0
LINE
  5
2CA
330
1F
100
AcDbEntity
  8
DEFAULT
100
AcDbLine
 10
-373.9999999999995
 20
-499.4999999999995
 30
0.0
 11
-373.9999999999995
 21
-505.4999999999995
 31
0.0
  0
LINE
  5
2CB
330
1F
100
AcDbEntity
  8
DEFAULT
100
AcDbLine
 10
-373.9999999999995
 20
-505.4999999999995
 30
0.0
 11
-373.9999999999995
 21
-509.4999999999995
 31
0.0
  0
LINE
  5
2CC
330
1F
100
AcDbEntity
  8
DEFAULT
100
AcDbLine
 10
-373.9999999999995
 20
-509.4999999999995
 30
0.0
 11
-367.9999999999995
 21
-509.4999999999995
 31
0.0
  0
LINE
  5
2CD
330
1F
100
AcDbEntity
  8
DEFAULT
100
AcDbLine
 10
-367.9999999999995
 20
-509.4999999999995
 30
0.0
 11
-367.9999999999995
 21
-519.4999999999995
 31
0.0
  0
LINE
  5
2CE
330
1F
100
AcDbEntity
  8
DEFAULT
100
AcDbLine
 10
-367.9999999999995
 20
-519.4999999999995
 30
0.0
 11
-373.9999999999995
 21
-519.4999999999995
 31
0.0
  0
LINE
  5
2CF
330
1F
100
AcDbEntity
  8
DEFAULT
100
AcDbLine
 10
-373.9999999999995
 20
-519.4999999999995
 30
0.0
 11
-373.9999999999995
 21
-529.4999999999995
 31
0.0
  0
LINE
  5
2D0
330
1F
100
AcDbEntity
  8
DEFAULT
100
AcDbLine
 10
-373.9999999999995
 20
-529.4999999999995
 30
0.0
 11
-367.9999999999995
 21
-529.4999999999995
 31
0.0
  0
LINE
  5
2D1
330
1F
100
AcDbEntity
  8
DEFAULT
100
AcDbLine
 10
-367.9999999999995
 20
-529.4999999999995
 30
0.0
 11
-367.9999999999995
 21
-539.4999999999995
 31
0.0
  0
LINE
  5
2D2
330
1F
100
AcDbEntity
  8
DEFAULT
100
AcDbLine
 10
-367.9999999999995
 20
-539.4999999999995
 30
0.0
 11
-367.9999999999995
 21
-544.4999999999995
 31
0.0
  0
LINE
  5
2D3
330
1F
100
AcDbEntity
  8
DEFAULT
100
AcDbLine
 10
-367.9999999999995
 20
-544.4999999999995
 30
0.0
 11
-363.9999999999995
 21
-544.4999999999995
 31
0.0
  0
ARC
  5
2D4
330
1F
100
AcDbEntity
  8
DEFAULT
100
AcDbCircle
 10
-363.9999999999995
 20
-541.4999999999995
 30
0.0
 40
3.0
100
AcDbArc
 50
270.0
 51
0.0
  0
LINE
  5
2D5
330
1F
100
AcDbEntity
  8
DEFAULT
100
AcDbLine
 10
-360.9999999999995
 20
-541.4999999999995
 30
0.0
 11
-360.9999999999995
 21
-539.4999999999995
 31
0.0
  0
ARC
  5
2D6
330
1F
100
AcDbEntity
  8
DEFAULT
100
AcDbCircle
 10
-324.3695652173908
 20
-539.4999999999995
 30
0.0
 40
36.6304347826088
100
AcDbArc
 50
114.8117324670211
 51
180.0
  0
ENDSEC
  0
SECTION
  2
OBJECTS
  0
DICTIONARY
  5
C
330
0
100
AcDbDictionary
  3
ACAD_GROUP
350
D
  3
ACAD_LAYOUT
350
1A
  3
ACAD_MATERIAL
350
43
  3
ACAD_MLEADERSTYLE
350
2F9
  3
ACAD_MLINESTYLE
350
17
  3
ACAD_PLOTSETTINGS
350
19
  3
ACAD_SCALELIST
350
47
  3
ACAD_VISUALSTYLE
350
2A
  3
ACDBHEADERROUNDTRIPXREC
350
2D7
  3
ACDBVARIABLEDICTIONARY
350
2F7
  0
DICTIONARY
  5
D
102
{ACAD_REACTORS
330
C
102
}
330
C
100
AcDbDictionary
  0
DICTIONARY
  5
1A
102
{ACAD_REACTORS
330
C
102
}
330
C
100
AcDbDictionary
  0
DICTIONARY
  5
43
102
{ACAD_REACTORS
330
C
102
}
330
C
100
AcDbDictionary
  3
BYBLOCK
350
45
  3
BYLAYER
350
44
  3
GLOBAL
350
46
  0
DICTIONARY
  5
2F9
102
{ACAD_REACTORS
330
C
102
}
330
C
100
AcDbDictionary
  0
DICTIONARY
  5
17
102
{ACAD_REACTORS
330
C
102
}
330
C
100
AcDbDictionary
  3
STANDARD
350
18
  0
DICTIONARY
  5
19
102
{ACAD_REACTORS
330
C
102
}
330
C
100
AcDbDictionary
  0
DICTIONARY
  5
47
102
{ACAD_REACTORS
330
C
102
}
330
C
100
AcDbDictionary
  3
A0
350
48
  3
A1
350
49
  3
A2
350
4A
  3
A3
350
4B
  3
A4
350
4C
  3
A5
350
4D
  3
A6
350
4E
  3
A7
350
4F
  3
A8
350
50
  3
A9
350
51
  3
B0
350
52
  3
B1
350
53
  3
B2
350
54
  3
B3
350
55
  3
B4
350
56
  3
B5
350
57
  3
B6
350
58
  3
B7
350
59
  3
B8
350
5A
  3
B9
350
5B
  3
C0
350
5C
  3
C1
350
5D
  3
C2
350
5E
  3
C3
350
5F
  3
C4
350
60
  3
C5
350
61
  3
C6
350
62
  3
C7
350
63
  3
C8
350
64
  3
C9
350
65
  3
D0
350
66
  3
D1
350
67
  3
D2
350
68
  0
DICTIONARY
  5
2A
102
{ACAD_REACTORS
330
C
102
}
330
C
100
AcDbDictionary
  3
2DWIREFRAME
350
2F
  3
BASIC
350
32
  3
BRIGHTEN
350
36
  3
COLORCHANGE
350
3A
  3
CONCEPTUAL
350
34
  3
DIM
350
35
  3
EDGECOLOROFF
350
3D
  3
FACEPATTERN
350
39
  3
FLAT
350
2B
  3
FLATWITHEDGES
350
2C
  3
GOURAUD
350
2D
  3
GOURAUDWITHEDGES
350
2E
  3
HIDDEN
350
31
  3
JITTEROFF
350
3B
  3
LINEPATTERN
350
38
  3
OVERHANGOFF
350
3C
  3
REALISTIC
350
33
  3
SHADED
350
42
  3
SHADED_WITH_EDGES
350
41
  3
SHADES_OF_GRAY
350
3E
  3
SKETCHY
350
3F
  3
THICKEN
350
37
  3
WIREFRAME
350
30
  3
X-RAY
350
40
  0
DICTIONARY
  5
2D7
102
{ACAD_REACTORS
330
C
102
}
330
C
100
AcDbDictionary
  3
CEPSNTYPE
350
2E0
  3
DIMSTYLEDATA
350
2F6
  3
FINGERPRINTGUID
350
2E1
  3
HYPERLINKBASE
350
2DA
  3
INSUNITS
350
2DF
  3
LAYOUTDICT
350
2DC
  3
LWETCUNION
350
2DE
  3
PLOTSETDICT
350
2DD
  3
PSVPSCALE
350
2E3
  3
PUCSBASE
350
2E6
  3
PUCSORGBACK
350
2EC
  3
PUCSORGBOTTOM
350
2E8
  3
PUCSORGFRONT
350
2EB
  3
PUCSORGLEFT
350
2E9
  3
PUCSORGRIGHT
350
2EA
  3
PUCSORGTOP
350
2E7
  3
PUCSORTHOREF
350
2E4
  3
PUCSORTHOVIEW
350
2E5
  3
STYLESHEET
350
2DB
  3
TSTACKALIGN
350
2D8
  3
TSTACKSIZE
350
2D9
  3
UCSBASE
350
2EF
  3
UCSORGBACK
350
2F5
  3
UCSORGBOTTOM
350
2F1
  3
UCSORGFRONT
350
2F4
  3
UCSORGLEFT
350
2F2
  3
UCSORGRIGHT
350
2F3
  3
UCSORGTOP
350
2F0
  3
UCSORTHOREF
350
2ED
  3
UCSORTHOVIEW
350
2EE
  3
VERSIONGUID
350
2E2
  0
DICTIONARY
  5
2F7
102
{ACAD_REACTORS
330
C
102
}
330
C
100
AcDbDictionary
  3
CANNOSCALE
350
2FE
  3
DIMASSOC
350
2FC
  3
HIDETEXT
350
2FD
  3
MSLTSCALE
350
2FF
  0
MATERIAL
  5
45
102
{ACAD_REACTORS
330
43
102
}
102
{ACAD_XDICTIONARY
360
302
102
}
330
43
100
AcDbMaterial
  1
BYBLOCK
  0
MATERIAL
  5
44
102
{ACAD_REACTORS
330
43
102
}
102
{ACAD_XDICTIONARY
360
300
102
}
330
43
100
AcDbMaterial
  1
BYLAYER
  0
MATERIAL
  5
46
102
{ACAD_REACTORS
330
43
102
}
102
{ACAD_XDICTIONARY
360
304
102
}
330
43
100
AcDbMaterial
  1
GLOBAL
  0
MLINESTYLE
  5
18
102
{ACAD_REACTORS
330
17
102
}
330
17
100
AcDbMlineStyle
  2
Standard
 70
     0
  3

 62
   256
 51
90.0
 52
90.0
 71
     2
 49
0.5
 62
   256
  6
BYLAYER
 49
-0.5
 62
   256
  6
BYLAYER
  0
ACAD_PROXY_OBJECT
  5
48
102
{ACAD_REACTORS
330
47
102
}
330
47
100
AcDbProxyObject
 90
      499
 91
      503
 93
       41
310
903313A31580
  0
ACAD_PROXY_OBJECT
  5
49
102
{ACAD_REACTORS
330
47
102
}
330
47
100
AcDbProxyObject
 90
      499
 91
      503
 93
      105
310
903313A324000000000000004000
  0
ACAD_PROXY_OBJECT
  5
4A
102
{ACAD_REACTORS
330
47
102
}
330
47
100
AcDbProxyObject
 90
      499
 91
      503
 93
      105
310
903313A344000000000000104000
  0
ACAD_PROXY_OBJECT
  5
4B
102
{ACAD_REACTORS
330
47
102
}
330
47
100
AcDbProxyObject
 90
      499
 91
      503
 93
      105
310
903313A354000000000000144000
  0
ACAD_PROXY_OBJECT
  5
4C
102
{ACAD_REACTORS
330
47
102
}
330
47
100
AcDbProxyObject
 90
      499
 91
      503
 93
      105
310
903313A384000000000000204000
  0
ACAD_PROXY_OBJECT
  5
4D
102
{ACAD_REACTORS
330
47
102
}
330
47
100
AcDbProxyObject
 90
      499
 91
      503
 93
      113
310
904313A31304000000000000244000
  0
ACAD_PROXY_OBJECT
  5
4E
102
{ACAD_REACTORS
330
47
102
}
330
47
100
AcDbProxyObject
 90
      499
 91
      503
 93
      113
310
904313A31364000000000000304000
  0
ACAD_PROXY_OBJECT
  5
4F
102
{ACAD_REACTORS
330
47
102
}
330
47
100
AcDbProxyObject
 90
      499
 91
      503
 93
      113
310
904313A32304000000000000344000
  0
ACAD_PROXY_OBJECT
  5
50
102
{ACAD_REACTORS
330
47
102
}
330
47
100
AcDbProxyObject
 90
      499
 91
      503
 93
      113
310
904313A333040000000000003E4000
  0
ACAD_PROXY_OBJECT
  5
51
102
{ACAD_REACTORS
330
47
102
}
330
47
100
AcDbProxyObject
 90
      499
 91
      503
 93
      113
310
904313A34304000000000000444000
  0
ACAD_PROXY_OBJECT
  5
52
102
{ACAD_REACTORS
330
47
102
}
330
47
100
AcDbProxyObject
 90
      499
 91
      503
 93
      113
310
904313A35304000000000000494000
  0
ACAD_PROXY_OBJECT
  5
53
102
{ACAD_REACTORS
330
47
102
}
330
47
100
AcDbProxyObject
 90
      499
 91
      503
 93
      121
310
905313A3130304000000000000594000
  0
ACAD_PROXY_OBJECT
  5
54
102
{ACAD_REACTORS
330
47
102
}
330
47
100
AcDbProxyObject
 90
      499
 91
      503
 93
      105
310
903323A310000000000000010100
  0
ACAD_PROXY_OBJECT
  5
55
102
{ACAD_REACTORS
330
47
102
}
330
47
100
AcDbProxyObject
 90
      499
 91
      503
 93
      105
310
903343A310000000000000410100
  0
ACAD_PROXY_OBJECT
  5
56
102
{ACAD_REACTORS
330
47
102
}
330
47
100
AcDbProxyObject
 90
      499
 91
      503
 93
      105
310
903383A310000000000000810100
  0
ACAD_PROXY_OBJECT
  5
57
102
{ACAD_REACTORS
330
47
102
}
330
47
100
AcDbProxyObject
 90
      499
 91
      503
 93
      113
310
90431303A310000000000000910100
  0
ACAD_PROXY_OBJECT
  5
58
102
{ACAD_REACTORS
330
47
102
}
330
47
100
AcDbProxyObject
 90
      499
 91
      503
 93
      121
310
9053130303A310000000000001650100
  0
ACAD_PROXY_OBJECT
  5
59
102
{ACAD_REACTORS
330
47
102
}
330
47
100
AcDbProxyObject
 90
      499
 91
      503
 93
      257
310
90E312F31323822203D2031272D3022000000000000200FC000000000000284000
  0
ACAD_PROXY_OBJECT
  5
5A
102
{ACAD_REACTORS
330
47
102
}
330
47
100
AcDbProxyObject
 90
      499
 91
      503
 93
      249
310
90D312F363422203D2031272D3022000000000000240FC000000000000284000
  0
ACAD_PROXY_OBJECT
  5
5B
102
{ACAD_REACTORS
330
47
102
}
330
47
100
AcDbProxyObject
 90
      499
 91
      503
 93
      249
310
90D312F333222203D2031272D3022000000000000280FC000000000000284000
  0
ACAD_PROXY_OBJECT
  5
5C
102
{ACAD_REACTORS
330
47
102
}
330
47
100
AcDbProxyObject
 90
      499
 91
      503
 93
      249
310
90D312F313622203D2031272D30220000000000002C0FC000000000000284000
  0
ACAD_PROXY_OBJECT
  5
5D
102
{ACAD_REACTORS
330
47
102
}
330
47
100
AcDbProxyObject
 90
      499
 91
      503
 93
      249
310
90D332F333222203D2031272D30220000000000002E0FC000000000000284000
  0
ACAD_PROXY_OBJECT
  5
5E
102
{ACAD_REACTORS
330
47
102
}
330
47
100
AcDbProxyObject
 90
      499
 91
      503
 93
      241
310
90C312F3822203D2031272D3022000000000000300FC000000000000284000
  0
ACAD_PROXY_OBJECT
  5
5F
102
{ACAD_REACTORS
330
47
102
}
330
47
100
AcDbProxyObject
 90
      499
 91
      503
 93
      249
310
90D332F313622203D2031272D3022000000000000320FC000000000000284000
  0
ACAD_PROXY_OBJECT
  5
60
102
{ACAD_REACTORS
330
47
102
}
330
47
100
AcDbProxyObject
 90
      499
 91
      503
 93
      241
310
90C312F3422203D2031272D3022000000000000340FC000000000000284000
  0
ACAD_PROXY_OBJECT
  5
61
102
{ACAD_REACTORS
330
47
102
}
330
47
100
AcDbProxyObject
 90
      499
 91
      503
 93
      241
310
90C332F3822203D2031272D3022000000000000360FC000000000000284000
  0
ACAD_PROXY_OBJECT
  5
62
102
{ACAD_REACTORS
330
47
102
}
330
47
100
AcDbProxyObject
 90
      499
 91
      503
 93
      241
310
90C312F3222203D2031272D3022000000000000380FC000000000000284000
  0
ACAD_PROXY_OBJECT
  5
63
102
{ACAD_REACTORS
330
47
102
}
330
47
100
AcDbProxyObject
 90
      499
 91
      503
 93
      241
310
90C332F3422203D2031272D30220000000000003A0FC000000000000284000
  0
ACAD_PROXY_OBJECT
  5
64
102
{ACAD_REACTORS
330
47
102
}
330
47
100
AcDbProxyObject
 90
      499
 91
      503
 93
      161
310
90A3122203D2031272D30224000000000000284000
  0
ACAD_PROXY_OBJECT
  5
65
102
{ACAD_REACTORS
330
47
102
}
330
47
100
AcDbProxyObject
 90
      499
 91
      503
 93
      257
310
90E312D312F3222203D2031272D30220000000000003E0FC000000000000284000
  0
ACAD_PROXY_OBJECT
  5
66
102
{ACAD_REACTORS
330
47
102
}
330
47
100
AcDbProxyObject
 90
      499
 91
      503
 93
      225
310
90A3322203D2031272D302200000000000002100000000000000284000
  0
ACAD_PROXY_OBJECT
  5
67
102
{ACAD_REACTORS
330
47
102
}
330
47
100
AcDbProxyObject
 90
      499
 91
      503
 93
      225
310
90A3622203D2031272D302200000000000006100000000000000284000
  0
ACAD_PROXY_OBJECT
  5
68
102
{ACAD_REACTORS
330
47
102
}
330
47
100
AcDbProxyObject
 90
      499
 91
      503
 93
      249
310
90D31272D3022203D2031272D30220000000000000A100000000000000284000
  0
ACAD_PROXY_OBJECT
  5
2F
102
{ACAD_REACTORS
330
2A
102
}
330
2A
100
AcDbProxyObject
 90
      499
 91
      501
 93
      436
310
42CC9915DA5C99599C985B595049028333333333333E33F0000000000000F90107901411070040501600405405064090741402480A0340
1001
ACAD
1000
AcDbSavedByObjectVersion
1070
     0
  0
ACAD_PROXY_OBJECT
  5
32
102
{ACAD_REACTORS
330
2A
102
}
330
2A
100
AcDbProxyObject
 90
      499
 91
      501
 93
      388
310
4150985CDA58D07406404333333333333E33F0000000000000F90107A41107004050150841D405064090741402480A0350
1001
ACAD
1000
AcDbSavedByObjectVersion
1070
     0
  0
ACAD_PROXY_OBJECT
  5
36
102
{ACAD_REACTORS
330
2A
102
}
330
2A
100
AcDbProxyObject
 90
      499
 91
      501
 93
      428
310
42109C9A59DA1D195B90C409028333333333333E33F0000000000000F9010790141107004050150841D405064090741402480A029950
1001
ACAD
1000
AcDbSavedByObjectVersion
1070
     0
  0
ACAD_PROXY_OBJECT
  5
3A
102
{ACAD_REACTORS
330
2A
102
}
330
2A
100
AcDbProxyObject
 90
      499
 91
      501
 93
      452
310
42D0DBDB1BDC90DA185B99D95104090240C333333333333E33F0000000000000F90108901411070040501508421405064090741402480A0350
1001
ACAD
1000
AcDbSavedByObjectVersion
1070
     0
  0
ACAD_PROXY_OBJECT
  5
34
102
{ACAD_REACTORS
330
2A
102
}
330
2A
100
AcDbProxyObject
 90
      499
 91
      501
 93
      500
310
4290DBDB98D95C1D1D585B10940D028333333333333E33F0000000000000F90107902409070040501000000000018199010841D405064090740C02480A0340
1001
ACAD
1000
AcDbSavedByObjectVersion
1070
     0
  0
ACAD_PROXY_OBJECT
  5
35
102
{ACAD_REACTORS
330
2A
102
}
330
2A
100
AcDbProxyObject
 90
      499
 91
      501
 93
      412
310
40D11A5B50B409028333333333333E33F0000000000000F9010790141107004050150841D405064090741402480A02677FFFFFD0
1001
ACAD
1000
AcDbSavedByObjectVersion
1070
     0
  0
ACAD_PROXY_OBJECT
  5
3D
102
{ACAD_REACTORS
330
2A
102
}
330
2A
100
AcDbProxyObject
 90
      499
 91
      501
 93
      452
310
43115919D950DBDB1BDC93D999916409028333333333333E33F0000000000000F9010790141107004050150841D405064090741402480A0350
1001
ACAD
1000
AcDbSavedByObjectVersion
1070
     0
  0
ACAD_PROXY_OBJECT
  5
39
102
{ACAD_REACTORS
330
2A
102
}
330
2A
100
AcDbProxyObject
 90
      499
 91
      501
 93
      444
310
42D19858D95C185D1D195C9B90F409028333333333333E33F0000000000000F9010790141107004050150841D405064090741402480A0350
1001
ACAD
1000
AcDbSavedByObjectVersion
1070
     0
  0
ACAD_PROXY_OBJECT
  5
2B
102
{ACAD_REACTORS
330
2A
102
}
330
2A
100
AcDbProxyObject
 90
      499
 91
      501
 93
      380
310
41119B185D240901404333333333333E33F0000000000000F9010740A907004050150841D405064090741402480A1B50
1001
ACAD
1000
AcDbSavedByObjectVersion
1070
     0
  0
ACAD_PROXY_OBJECT
  5
2C
102
{ACAD_REACTORS
330
2A
102
}
330
2A
100
AcDbProxyObject
 90
      499
 91
      501
 93
      468
310
43519B185D15DA5D1A115919D95CD0140901404333333333333E33F0000000000000F90107409019070040501600405405064090741402480A1B50
1001
ACAD
1000
AcDbSavedByObjectVersion
1070
     0
  0
ACAD_PROXY_OBJECT
  5
2D
102
{ACAD_REACTORS
330
2A
102
}
330
2A
100
AcDbProxyObject
 90
      499
 91
      501
 93
      404
310
41D1DBDD5C985D5910240902404333333333333E33F0000000000000F9010740A9070040501641D405064090741402480A1B50
1001
ACAD
1000
AcDbSavedByObjectVersion
1070
     0
  0
ACAD_PROXY_OBJECT
  5
2E
102
{ACAD_REACTORS
330
2A
102
}
330
2A
100
AcDbProxyObject
 90
      499
 91
      501
 93
      492
310
4411DBDD5C985D5915DA5D1A115919D95CD0340902404333333333333E33F0000000000000F90107409019070040501600405405064090741402480A1B50
1001
ACAD
1000
AcDbSavedByObjectVersion
1070
     0
  0
ACAD_PROXY_OBJECT
  5
31
102
{ACAD_REACTORS
330
2A
102
}
330
2A
100
AcDbProxyObject
 90
      499
 91
      501
 93
      476
310
41921A5919195B90640502408333333333333E33F0000000000000F901079024090700405020000000000001110200405405064090740C02480A0340
1001
ACAD
1000
AcDbSavedByObjectVersion
1070
     0
  0
ACAD_PROXY_OBJECT
  5
3B
102
{ACAD_REACTORS
330
2A
102
}
330
2A
100
AcDbProxyObject
 90
      499
 91
      501
 93
      428
310
42529A5D1D195C93D999914409028333333333333E33F0000000000000F9010790141107004050150A41D405064090741402480A0350
1001
ACAD
1000
AcDbSavedByObjectVersion
1070
     0
  0
ACAD_PROXY_OBJECT
  5
38
102
{ACAD_REACTORS
330
2A
102
}
330
2A
100
AcDbProxyObject
 90
      499
 91
      501
 93
      444
310
42D31A5B995C185D1D195C9B90E409028333333333333E33F0000000000000F9010790141107004050750841D405064090741402483A0350
1001
ACAD
1000
AcDbSavedByObjectVersion
1070
     0
  0
ACAD_PROXY_OBJECT
  5
3C
102
{ACAD_REACTORS
330
2A
102
}
330
2A
100
AcDbProxyObject
 90
      499
 91
      501
 93
      444
310
42D3DD995C9A185B99D3D999915409028333333333333E33F0000000000000F9010790141107004050150941D405064090741402480A0350
1001
ACAD
1000
AcDbSavedByObjectVersion
1070
     0
  0
ACAD_PROXY_OBJECT
  5
33
102
{ACAD_REACTORS
330
2A
102
}
330
2A
100
AcDbProxyObject
 90
      499
 91
      501
 93
      428
310
425499585B1A5CDD1A58D08409038333333333333E33F0000000000000F9010740A907004050150800405405064090740C02480A1B40
1001
ACAD
1000
AcDbSavedByObjectVersion
1070
     0
  0
ACAD_PROXY_OBJECT
  5
42
102
{ACAD_REACTORS
330
2A
102
}
330
2A
100
AcDbProxyObject
 90
      499
 91
      501
 93
      420
310
4194DA1859195911B40902404333333333333E33F0000000000000F9010740A41107004050150800405405064090840C02480A0B40
1001
ACAD
1000
AcDbSavedByObjectVersion
1070
     0
  0
ACAD_PROXY_OBJECT
  5
41
102
{ACAD_REACTORS
330
2A
102
}
330
2A
100
AcDbProxyObject
 90
      499
 91
      501
 93
      516
310
4454DA18591959081DDA5D1A08195919D95CD1A40902404333333333333E33F0000000000000F901074090142907004050250800405405064090740C02480A0B40
1001
ACAD
1000
AcDbSavedByObjectVersion
1070
     0
  0
ACAD_PROXY_OBJECT
  5
3E
102
{ACAD_REACTORS
330
2A
102
}
330
2A
100
AcDbProxyObject
 90
      499
 91
      501
 93
      532
310
4394DA1859195CC81BD98811DC985E5174090240C333333333333E33F0000000000000F901079024090741D01000000000000111010841D405064090740C02480A0340
1001
ACAD
1000
AcDbSavedByObjectVersion
1070
     0
  0
ACAD_PROXY_OBJECT
  5
3F
102
{ACAD_REACTORS
330
2A
102
}
330
2A
100
AcDbProxyObject
 90
      499
 91
      501
 93
      476
310
41D4DAD95D18DA1E51840502408333333333333E33F0000000000000F901079024090741D01000000000000111010B41D405064090741802480A0340
1001
ACAD
1000
AcDbSavedByObjectVersion
1070
     0
  0
ACAD_PROXY_OBJECT
  5
37
102
{ACAD_REACTORS
330
2A
102
}
330
2A
100
AcDbProxyObject
 90
      499
 91
      501
 93
      412
310
41D51A1A58DAD95B90D409028333333333333E33F0000000000000F9010790141107004050150C41D405064090741402480A0350
1001
ACAD
1000
AcDbSavedByObjectVersion
1070
     0
  0
ACAD_PROXY_OBJECT
  5
30
102
{ACAD_REACTORS
330
2A
102
}
330
2A
100
AcDbProxyObject
 90
      499
 91
      501
 93
      420
310
4255DA5C99599C985B595059028333333333333E33F0000000000000F90107901411070040501600405405064090740C02480A0340
1001
ACAD
1000
AcDbSavedByObjectVersion
1070
     0
  0
ACAD_PROXY_OBJECT
  5
40
102
{ACAD_REACTORS
330
2A
102
}
330
2A
100
AcDbProxyObject
 90
      499
 91
      501
 93
      404
310
41560B54985E51940902404000000000000E03F0000000000000F9010740501907004050150841D405064090740C02480A1B40
1001
ACAD
1000
AcDbSavedByObjectVersion
1070
     0
  0
XRECORD
  5
2E0
102
{ACAD_REACTORS
330
2D7
102
}
330
2D7
100
AcDbXrecord
 90
        0
  0
XRECORD
  5
2F6
102
{ACAD_REACTORS
330
2D7
102
}
330
2D7
100
AcDbXrecord
1000
DSTYLE
1002
{
1070
   279
 70
     2
1070
   340
340
11
1002
}
  0
XRECORD
  5
2E1
102
{ACAD_REACTORS
330
2D7
102
}
330
2D7
100
AcDbXrecord
  1
{109BCE6A-29FA-4D67-BE43-39DC19F099C3}
  0
XRECORD
  5
2DA
102
{ACAD_REACTORS
330
2D7
102
}
330
2D7
100
AcDbXrecord
  1

  0
XRECORD
  5
2DF
102
{ACAD_REACTORS
330
2D7
102
}
330
2D7
100
AcDbXrecord
 90
        4
  0
XRECORD
  5
2DC
102
{ACAD_REACTORS
330
2D7
102
}
330
2D7
100
AcDbXrecord
340
1A
  0
XRECORD
  5
2DE
102
{ACAD_REACTORS
330
2D7
102
}
330
2D7
100
AcDbXrecord
 90
    10781
  0
XRECORD
  5
2DD
102
{ACAD_REACTORS
330
2D7
102
}
330
2D7
100
AcDbXrecord
340
19
  0
XRECORD
  5
2E3
102
{ACAD_REACTORS
330
2D7
102
}
330
2D7
100
AcDbXrecord
 40
0.0
  0
XRECORD
  5
2E6
102
{ACAD_REACTORS
330
2D7
102
}
330
2D7
100
AcDbXrecord
340
0
  0
XRECORD
  5
2EC
102
{ACAD_REACTORS
330
2D7
102
}
330
2D7
100
AcDbXrecord
 10
0.0
 20
0.0
 30
0.0
  0
XRECORD
  5
2E8
102
{ACAD_REACTORS
330
2D7
102
}
330
2D7
100
AcDbXrecord
 10
0.0
 20
0.0
 30
0.0
  0
XRECORD
  5
2EB
102
{ACAD_REACTORS
330
2D7
102
}
330
2D7
100
AcDbXrecord
 10
0.0
 20
0.0
 30
0.0
  0
XRECORD
  5
2E9
102
{ACAD_REACTORS
330
2D7
102
}
330
2D7
100
AcDbXrecord
 10
0.0
 20
0.0
 30
0.0
  0
XRECORD
  5
2EA
102
{ACAD_REACTORS
330
2D7
102
}
330
2D7
100
AcDbXrecord
 10
0.0
 20
0.0
 30
0.0
  0
XRECORD
  5
2E7
102
{ACAD_REACTORS
330
2D7
102
}
330
2D7
100
AcDbXrecord
 10
0.0
 20
0.0
 30
0.0
  0
XRECORD
  5
2E4
102
{ACAD_REACTORS
330
2D7
102
}
330
2D7
100
AcDbXrecord
340
0
  0
XRECORD
  5
2E5
102
{ACAD_REACTORS
330
2D7
102
}
330
2D7
100
AcDbXrecord
 70
     0
  0
XRECORD
  5
2DB
102
{ACAD_REACTORS
330
2D7
102
}
330
2D7
100
AcDbXrecord
  1

  0
XRECORD
  5
2D8
102
{ACAD_REACTORS
330
2D7
102
}
330
2D7
100
AcDbXrecord
 90
        1
  0
XRECORD
  5
2D9
102
{ACAD_REACTORS
330
2D7
102
}
330
2D7
100
AcDbXrecord
 90
       70
  0
XRECORD
  5
2EF
102
{ACAD_REACTORS
330
2D7
102
}
330
2D7
100
AcDbXrecord
340
0
  0
XRECORD
  5
2F5
102
{ACAD_REACTORS
330
2D7
102
}
330
2D7
100
AcDbXrecord
 10
0.0
 20
0.0
 30
0.0
  0
XRECORD
  5
2F1
102
{ACAD_REACTORS
330
2D7
102
}
330
2D7
100
AcDbXrecord
 10
0.0
 20
0.0
 30
0.0
  0
XRECORD
  5
2F4
102
{ACAD_REACTORS
330
2D7
102
}
330
2D7
100
AcDbXrecord
 10
0.0
 20
0.0
 30
0.0
  0
XRECORD
  5
2F2
102
{ACAD_REACTORS
330
2D7
102
}
330
2D7
100
AcDbXrecord
 10
0.0
 20
0.0
 30
0.0
  0
XRECORD
  5
2F3
102
{ACAD_REACTORS
330
2D7
102
}
330
2D7
100
AcDbXrecord
 10
0.0
 20
0.0
 30
0.0
  0
XRECORD
  5
2F0
102
{ACAD_REACTORS
330
2D7
102
}
330
2D7
100
AcDbXrecord
 10
0.0
 20
0.0
 30
0.0
  0
XRECORD
  5
2ED
102
{ACAD_REACTORS
330
2D7
102
}
330
2D7
100
AcDbXrecord
340
0
  0
XRECORD
  5
2EE
102
{ACAD_REACTORS
330
2D7
102
}
330
2D7
100
AcDbXrecord
 70
     0
  0
XRECORD
  5
2E2
102
{ACAD_REACTORS
330
2D7
102
}
330
2D7
100
AcDbXrecord
  1
{FAEB1C32-E019-11D5-929B-00C0DF256EC4}
  0
DICTIONARYVAR
  5
2FE
102
{ACAD_REACTORS
330
2F7
102
}
330
2F7
100
DictionaryVariables
280
     0
  1
1:1
  0
DICTIONARYVAR
  5
2FC
102
{ACAD_REACTORS
330
2F7
102
}
330
2F7
100
DictionaryVariables
280
     0
  1
2
  0
DICTIONARYVAR
  5
2FD
102
{ACAD_REACTORS
330
2F7
102
}
330
2F7
100
DictionaryVariables
280
     0
  1
1
  0
DICTIONARYVAR
  5
2FF
102
{ACAD_REACTORS
330
2F7
102
}
330
2F7
100
DictionaryVariables
280
     0
  1
1
  0
DICTIONARY
  5
302
330
45
100
AcDbDictionary
280
     1
  3
ACAD_XREC_ROUNDTRIP
360
303
  0
DICTIONARY
  5
300
330
44
100
AcDbDictionary
280
     1
  3
ACAD_XREC_ROUNDTRIP
360
301
  0
DICTIONARY
  5
304
330
46
100
AcDbDictionary
280
     1
  3
ACAD_XREC_ROUNDTRIP
360
305
  0
XRECORD
  5
303
102
{ACAD_REACTORS
330
302
102
}
330
302
100
AcDbXrecord
102
MATERIAL
148
0.0
149
0.0
149
0.0
 93
        0
 94
      127
282
     0
 72
     1
 77
     1
171
     1
175
     1
179
     1
273
     0
  0
XRECORD
  5
301
102
{ACAD_REACTORS
330
300
102
}
330
300
100
AcDbXrecord
102
MATERIAL
148
0.0
149
0.0
149
0.0
 93
        0
 94
      127
282
     0
 72
     1
 77
     1
171
     1
175
     1
179
     1
273
     0
  0
XRECORD
  5
305
102
{ACAD_REACTORS
330
304
102
}
330
304
100
AcDbXrecord
102
MATERIAL
148
0.0
149
0.0
149
0.0
 93
        0
 94
      127
282
     0
 72
     1
 77
     1
171
     1
175
     1
179
     1
273
     0
  0
ENDSEC
  0
EOF
