  0
SECTION
  2
HEADER
  9
$ACADVER
  1
AC1014
  9
$ACADMAINTVER
 70
     9
  9
$DWGCODEPAGE
  3
ANSI_1251
  9
$INSBASE
 10
0.0
 20
0.0
 30
0.0
  9
$EXTMIN
 10
-516.0000000000894
 20
-38.72760687510845
 30
0.0
  9
$EXTMAX
 10
-242.9999999999999
 20
171.7276068751094
 30
0.0
  9
$LIMMIN
 10
0.0
 20
0.0
  9
$LIMMAX
 10
12.0
 20
9.0
  9
$ORTHOMODE
 70
     0
  9
$REGENMODE
 70
     1
  9
$FILLMODE
 70
     1
  9
$QTEXTMODE
 70
     0
  9
$MIRRTEXT
 70
     1
  9
$DRAGMODE
 70
     2
  9
$LTSCALE
 40
1.0
  9
$OSMODE
 70
    37
  9
$ATTMODE
 70
     1
  9
$TEXTSIZE
 40
0.2
  9
$TRACEWID
 40
0.05
  9
$TEXTSTYLE
  7
STANDARD
  9
$CLAYER
  8
DEFAULT
  9
$CELTYPE
  6
BYLAYER
  9
$CECOLOR
 62
   256
  9
$CELTSCALE
 40
1.0
  9
$DELOBJ
 70
     1
  9
$DISPSILH
 70
     0
  9
$DIMSCALE
 40
1.0
  9
$DIMASZ
 40
0.18
  9
$DIMEXO
 40
0.0625
  9
$DIMDLI
 40
0.38
  9
$DIMRND
 40
0.0
  9
$DIMDLE
 40
0.0
  9
$DIMEXE
 40
0.18
  9
$DIMTP
 40
0.0
  9
$DIMTM
 40
0.0
  9
$DIMTXT
 40
0.18
  9
$DIMCEN
 40
0.09
  9
$DIMTSZ
 40
0.0
  9
$DIMTOL
 70
     0
  9
$DIMLIM
 70
     0
  9
$DIMTIH
 70
     1
  9
$DIMTOH
 70
     1
  9
$DIMSE1
 70
     0
  9
$DIMSE2
 70
     0
  9
$DIMTAD
 70
     0
  9
$DIMZIN
 70
     0
  9
$DIMBLK
  1

  9
$DIMASO
 70
     1
  9
$DIMSHO
 70
     1
  9
$DIMPOST
  1

  9
$DIMAPOST
  1

  9
$DIMALT
 70
     0
  9
$DIMALTD
 70
     2
  9
$DIMALTF
 40
25.4
  9
$DIMLFAC
 40
1.0
  9
$DIMTOFL
 70
     0
  9
$DIMTVP
 40
0.0
  9
$DIMTIX
 70
     0
  9
$DIMSOXD
 70
     0
  9
$DIMSAH
 70
     0
  9
$DIMBLK1
  1

  9
$DIMBLK2
  1

  9
$DIMSTYLE
  2
STANDARD
  9
$DIMCLRD
 70
     0
  9
$DIMCLRE
 70
     0
  9
$DIMCLRT
 70
     0
  9
$DIMTFAC
 40
1.0
  9
$DIMGAP
 40
0.09
  9
$DIMJUST
 70
     0
  9
$DIMSD1
 70
     0
  9
$DIMSD2
 70
     0
  9
$DIMTOLJ
 70
     1
  9
$DIMTZIN
 70
     0
  9
$DIMALTZ
 70
     0
  9
$DIMALTTZ
 70
     0
  9
$DIMFIT
 70
     5
  9
$DIMUPT
 70
     0
  9
$DIMUNIT
 70
     2
  9
$DIMDEC
 70
     4
  9
$DIMTDEC
 70
     4
  9
$DIMALTU
 70
     2
  9
$DIMALTTD
 70
     2
  9
$DIMTXSTY
  7
STANDARD
  9
$DIMAUNIT
 70
     0
  9
$LUNITS
 70
     2
  9
$LUPREC
 70
     2
  9
$SKETCHINC
 40
0.1
  9
$FILLETRAD
 40
0.5
  9
$AUNITS
 70
     0
  9
$AUPREC
 70
     0
  9
$MENU
  1
.
  9
$ELEVATION
 40
0.0
  9
$PELEVATION
 40
0.0
  9
$THICKNESS
 40
0.0
  9
$LIMCHECK
 70
     0
  9
$CHAMFERA
 40
0.0
  9
$CHAMFERB
 40
0.0
  9
$CHAMFERC
 40
0.0
  9
$CHAMFERD
 40
0.0
  9
$SKPOLY
 70
     0
  9
$TDCREATE
 40
2458893.550124248
  9
$TDUPDATE
 40
2458893.550136447
  9
$TDINDWG
 40
0.0000000116
  9
$TDUSRTIMER
 40
0.0000000116
  9
$USRTIMER
 70
     1
  9
$ANGBASE
 50
0.0
  9
$ANGDIR
 70
     0
  9
$PDMODE
 70
     0
  9
$PDSIZE
 40
0.0
  9
$PLINEWID
 40
0.0
  9
$COORDS
 70
     1
  9
$SPLFRAME
 70
     0
  9
$SPLINETYPE
 70
     6
  9
$SPLINESEGS
 70
     8
  9
$ATTDIA
 70
     0
  9
$ATTREQ
 70
     1
  9
$HANDLING
 70
     1
  9
$HANDSEED
  5
1CC
  9
$SURFTAB1
 70
     6
  9
$SURFTAB2
 70
     6
  9
$SURFTYPE
 70
     6
  9
$SURFU
 70
     6
  9
$SURFV
 70
     6
  9
$UCSNAME
  2

  9
$UCSORG
 10
0.0
 20
0.0
 30
0.0
  9
$UCSXDIR
 10
1.0
 20
0.0
 30
0.0
  9
$UCSYDIR
 10
0.0
 20
1.0
 30
0.0
  9
$PUCSNAME
  2

  9
$PUCSORG
 10
0.0
 20
0.0
 30
0.0
  9
$PUCSXDIR
 10
1.0
 20
0.0
 30
0.0
  9
$PUCSYDIR
 10
0.0
 20
1.0
 30
0.0
  9
$USERI1
 70
     0
  9
$USERI2
 70
     0
  9
$USERI3
 70
     0
  9
$USERI4
 70
     0
  9
$USERI5
 70
     0
  9
$USERR1
 40
0.0
  9
$USERR2
 40
0.0
  9
$USERR3
 40
0.0
  9
$USERR4
 40
0.0
  9
$USERR5
 40
0.0
  9
$WORLDVIEW
 70
     1
  9
$SHADEDGE
 70
     3
  9
$SHADEDIF
 70
    70
  9
$TILEMODE
 70
     1
  9
$MAXACTVP
 70
    64
  9
$PINSBASE
 10
0.0
 20
0.0
 30
0.0
  9
$PLIMCHECK
 70
     0
  9
$PEXTMIN
 10
1.000000000000000E+20
 20
1.000000000000000E+20
 30
1.000000000000000E+20
  9
$PEXTMAX
 10
-1.000000000000000E+20
 20
-1.000000000000000E+20
 30
-1.000000000000000E+20
  9
$PLIMMIN
 10
0.0
 20
0.0
  9
$PLIMMAX
 10
12.0
 20
9.0
  9
$UNITMODE
 70
     0
  9
$VISRETAIN
 70
     1
  9
$PLINEGEN
 70
     0
  9
$PSLTSCALE
 70
     1
  9
$TREEDEPTH
 70
  3020
  9
$PICKSTYLE
 70
     1
  9
$CMLSTYLE
  2
STANDARD
  9
$CMLJUST
 70
     0
  9
$CMLSCALE
 40
1.0
  9
$PROXYGRAPHICS
 70
     1
  9
$MEASUREMENT
 70
     0
  0
ENDSEC
  0
SECTION
  2
CLASSES
  0
CLASS
  1
ACDBDICTIONARYWDFLT
  2
AcDbDictionaryWithDefault
  3
ObjectDBX Classes
 90
        0
280
     0
281
     0
  0
CLASS
  1
VISUALSTYLE
  2
AcDbVisualStyle
  3
ObjectDBX Classes
 90
     4095
280
     0
281
     0
  0
CLASS
  1
MATERIAL
  2
AcDbMaterial
  3
ObjectDBX Classes
 90
     1153
280
     0
281
     0
  0
CLASS
  1
SCALE
  2
AcDbScale
  3
ObjectDBX Classes
 90
     1153
280
     0
281
     0
  0
CLASS
  1
SUN
  2
AcDbSun
  3
SCENEOE
 90
     1153
280
     0
281
     0
  0
CLASS
  1
DICTIONARYVAR
  2
AcDbDictionaryVar
  3
ObjectDBX Classes
 90
        0
280
     0
281
     0
  0
CLASS
  1
XRECORD
  2
AcDbXrecord
  3
ObjectDBX Classes
 90
        0
280
     0
281
     0
  0
CLASS
  1
LWPOLYLINE
  2
AcDbPolyline
  3
ObjectDBX Classes
 90
        0
280
     0
281
     1
  0
CLASS
  1
HATCH
  2
AcDbHatch
  3
ObjectDBX Classes
 90
        0
280
     0
281
     1
  0
CLASS
  1
ACDBPLACEHOLDER
  2
AcDbPlaceHolder
  3
ObjectDBX Classes
 90
        0
280
     0
281
     0
  0
CLASS
  1
LAYOUT
  2
AcDbLayout
  3
ObjectDBX Classes
 90
        0
280
     0
281
     0
  0
ENDSEC
  0
SECTION
  2
TABLES
  0
TABLE
  2
VPORT
  5
8
330
0
100
AcDbSymbolTable
 70
     1
  0
VPORT
  5
29
330
8
100
AcDbSymbolTableRecord
100
AcDbViewportTableRecord
  2
*ACTIVE
 70
     0
 10
0.0
 20
0.0
 11
1.0
 21
1.0
 12
-379.5000000000446
 22
66.50000000000045
 13
0.0
 23
0.0
 14
0.5
 24
0.5
 15
0.5
 25
0.5
 16
0.0
 26
0.0
 36
1.0
 17
0.0
 27
0.0
 37
0.0
 40
214.6643180252222
 41
1.297188105418495
 42
50.0
 43
0.0
 44
0.0
 50
0.0
 51
0.0
 71
     0
 72
   100
 73
     1
 74
     3
 75
     0
 76
     0
 77
     0
 78
     0
  0
ENDTAB
  0
TABLE
  2
LTYPE
  5
5
330
0
100
AcDbSymbolTable
 70
     1
  0
LTYPE
  5
14
330
5
100
AcDbSymbolTableRecord
100
AcDbLinetypeTableRecord
  2
BYBLOCK
 70
     0
  3

 72
    65
 73
     0
 40
0.0
  0
LTYPE
  5
15
330
5
100
AcDbSymbolTableRecord
100
AcDbLinetypeTableRecord
  2
BYLAYER
 70
     0
  3

 72
    65
 73
     0
 40
0.0
  0
LTYPE
  5
16
330
5
100
AcDbSymbolTableRecord
100
AcDbLinetypeTableRecord
  2
CONTINUOUS
 70
     0
  3
Solid line
 72
    65
 73
     0
 40
0.0
  0
ENDTAB
  0
TABLE
  2
LAYER
  5
2
330
0
100
AcDbSymbolTable
 70
     2
  0
LAYER
  5
10
330
2
100
AcDbSymbolTableRecord
100
AcDbLayerTableRecord
  2
0
 70
     0
 62
     7
  6
CONTINUOUS
  0
LAYER
  5
6A
330
2
100
AcDbSymbolTableRecord
100
AcDbLayerTableRecord
  2
DEFAULT
 70
     0
 62
    18
  6
CONTINUOUS
  0
ENDTAB
  0
TABLE
  2
STYLE
  5
3
330
0
100
AcDbSymbolTable
 70
     1
  0
STYLE
  5
11
330
3
100
AcDbSymbolTableRecord
100
AcDbTextStyleTableRecord
  2
STANDARD
 70
     0
 40
0.0
 41
1.0
 50
0.0
 71
     0
 42
0.2
  3
txt
  4

  0
ENDTAB
  0
TABLE
  2
VIEW
  5
6
330
0
100
AcDbSymbolTable
 70
     0
  0
ENDTAB
  0
TABLE
  2
UCS
  5
7
330
0
100
AcDbSymbolTable
 70
     0
  0
ENDTAB
  0
TABLE
  2
APPID
  5
9
330
0
100
AcDbSymbolTable
 70
     1
  0
APPID
  5
12
330
9
100
AcDbSymbolTableRecord
100
AcDbRegAppTableRecord
  2
ACAD
 70
     0
  0
ENDTAB
  0
TABLE
  2
DIMSTYLE
  5
A
330
0
100
AcDbSymbolTable
 70
     1
  0
DIMSTYLE
105
27
330
A
100
AcDbSymbolTableRecord
100
AcDbDimStyleTableRecord
  2
STANDARD
 70
     0
  3

  4

  5

  6

  7

 40
1.0
 41
0.18
 42
0.0625
 43
0.38
 44
0.18
 45
0.0
 46
0.0
 47
0.0
 48
0.0
140
0.18
141
0.09
142
0.0
143
25.4
144
1.0
145
0.0
146
1.0
147
0.09
 71
     0
 72
     0
 73
     1
 74
     1
 75
     0
 76
     0
 77
     0
 78
     0
170
     0
171
     2
172
     0
173
     0
174
     0
175
     0
176
     0
177
     0
178
     0
270
     2
271
     4
272
     4
273
     2
274
     2
340
11
275
     0
280
     0
281
     0
282
     0
283
     1
284
     0
285
     0
286
     0
287
     3
288
     0
  0
ENDTAB
  0
TABLE
  2
BLOCK_RECORD
  5
1
330
0
100
AcDbSymbolTable
 70
     1
  0
BLOCK_RECORD
  5
1F
330
1
100
AcDbSymbolTableRecord
100
AcDbBlockTableRecord
  2
*MODEL_SPACE
  0
BLOCK_RECORD
  5
1B
330
1
100
AcDbSymbolTableRecord
100
AcDbBlockTableRecord
  2
*PAPER_SPACE
  0
ENDTAB
  0
ENDSEC
  0
SECTION
  2
BLOCKS
  0
BLOCK
  5
20
330
1F
100
AcDbEntity
  8
0
100
AcDbBlockBegin
  2
*MODEL_SPACE
 70
     0
 10
0.0
 20
0.0
 30
0.0
  3
*MODEL_SPACE
  1

  0
ENDBLK
  5
21
330
1F
100
AcDbEntity
  8
0
100
AcDbBlockEnd
  0
BLOCK
  5
1C
330
1B
100
AcDbEntity
 67
     1
  8
0
100
AcDbBlockBegin
  2
*PAPER_SPACE
 70
     0
 10
0.0
 20
0.0
 30
0.0
  3
*PAPER_SPACE
  1

  0
ENDBLK
  5
1D
330
1B
100
AcDbEntity
 67
     1
  8
0
100
AcDbBlockEnd
  0
ENDSEC
  0
SECTION
  2
ENTITIES
  0
POLYLINE
  5
6B
330
1F
100
AcDbEntity
  8
DEFAULT
100
AcDb2dPolyline
 66
     1
 10
0.0
 20
0.0
 30
0.0
 70
     1
  0
VERTEX
  5
6C
330
6B
100
AcDbEntity
  8
DEFAULT
100
AcDbVertex
100
AcDb2dVertex
 10
-269.2499999999999
 20
117.7500000000005
 30
0.0
  0
VERTEX
  5
6D
330
6B
100
AcDbEntity
  8
DEFAULT
100
AcDbVertex
100
AcDb2dVertex
 10
-269.2499999999999
 20
97.25000000000045
 30
0.0
  0
VERTEX
  5
6E
330
6B
100
AcDbEntity
  8
DEFAULT
100
AcDbVertex
100
AcDb2dVertex
 10
-262.7499999999999
 20
97.25000000000045
 30
0.0
  0
VERTEX
  5
6F
330
6B
100
AcDbEntity
  8
DEFAULT
100
AcDbVertex
100
AcDb2dVertex
 10
-262.7499999999999
 20
117.7500000000005
 30
0.0
  0
SEQEND
  5
70
330
6B
100
AcDbEntity
  8
DEFAULT
  0
POLYLINE
  5
71
330
1F
100
AcDbEntity
  8
DEFAULT
100
AcDb2dPolyline
 66
     1
 10
0.0
 20
0.0
 30
0.0
 70
     1
  0
VERTEX
  5
72
330
71
100
AcDbEntity
  8
DEFAULT
100
AcDbVertex
100
AcDb2dVertex
 10
-269.2499999999999
 20
157.7500000000005
 30
0.0
  0
VERTEX
  5
73
330
71
100
AcDbEntity
  8
DEFAULT
100
AcDbVertex
100
AcDb2dVertex
 10
-269.2499999999999
 20
137.2500000000005
 30
0.0
  0
VERTEX
  5
74
330
71
100
AcDbEntity
  8
DEFAULT
100
AcDbVertex
100
AcDb2dVertex
 10
-262.7499999999999
 20
137.2500000000005
 30
0.0
  0
VERTEX
  5
75
330
71
100
AcDbEntity
  8
DEFAULT
100
AcDbVertex
100
AcDb2dVertex
 10
-262.7499999999999
 20
157.7500000000005
 30
0.0
  0
SEQEND
  5
76
330
71
100
AcDbEntity
  8
DEFAULT
  0
POLYLINE
  5
77
330
1F
100
AcDbEntity
  8
DEFAULT
100
AcDb2dPolyline
 66
     1
 10
0.0
 20
0.0
 30
0.0
 70
     1
  0
VERTEX
  5
78
330
77
100
AcDbEntity
  8
DEFAULT
100
AcDbVertex
100
AcDb2dVertex
 10
-356.7500000001787
 20
117.7500000000005
 30
0.0
  0
VERTEX
  5
79
330
77
100
AcDbEntity
  8
DEFAULT
100
AcDbVertex
100
AcDb2dVertex
 10
-356.7500000001787
 20
97.25000000000045
 30
0.0
  0
VERTEX
  5
7A
330
77
100
AcDbEntity
  8
DEFAULT
100
AcDbVertex
100
AcDb2dVertex
 10
-363.2500000001787
 20
97.25000000000045
 30
0.0
  0
VERTEX
  5
7B
330
77
100
AcDbEntity
  8
DEFAULT
100
AcDbVertex
100
AcDb2dVertex
 10
-363.2500000001787
 20
117.7500000000005
 30
0.0
  0
SEQEND
  5
7C
330
77
100
AcDbEntity
  8
DEFAULT
  0
POLYLINE
  5
7D
330
1F
100
AcDbEntity
  8
DEFAULT
100
AcDb2dPolyline
 66
     1
 10
0.0
 20
0.0
 30
0.0
 70
     1
  0
VERTEX
  5
7E
330
7D
100
AcDbEntity
  8
DEFAULT
100
AcDbVertex
100
AcDb2dVertex
 10
-356.7500000001787
 20
157.7500000000005
 30
0.0
  0
VERTEX
  5
7F
330
7D
100
AcDbEntity
  8
DEFAULT
100
AcDbVertex
100
AcDb2dVertex
 10
-356.7500000001787
 20
137.2500000000005
 30
0.0
  0
VERTEX
  5
80
330
7D
100
AcDbEntity
  8
DEFAULT
100
AcDbVertex
100
AcDb2dVertex
 10
-363.2500000001787
 20
137.2500000000005
 30
0.0
  0
VERTEX
  5
81
330
7D
100
AcDbEntity
  8
DEFAULT
100
AcDbVertex
100
AcDb2dVertex
 10
-363.2500000001787
 20
157.7500000000005
 30
0.0
  0
SEQEND
  5
82
330
7D
100
AcDbEntity
  8
DEFAULT
  0
POLYLINE
  5
83
330
1F
100
AcDbEntity
  8
DEFAULT
100
AcDb2dPolyline
 66
     1
 10
0.0
 20
0.0
 30
0.0
 70
     1
  0
VERTEX
  5
84
330
83
100
AcDbEntity
  8
DEFAULT
100
AcDbVertex
100
AcDb2dVertex
 10
-400.2499999999995
 20
91.25000000000045
 30
0.0
  0
VERTEX
  5
85
330
83
100
AcDbEntity
  8
DEFAULT
100
AcDbVertex
100
AcDb2dVertex
 10
-400.2499999999995
 20
111.7500000000005
 30
0.0
  0
VERTEX
  5
86
330
83
100
AcDbEntity
  8
DEFAULT
100
AcDbVertex
100
AcDb2dVertex
 10
-393.7499999999995
 20
111.7500000000005
 30
0.0
  0
VERTEX
  5
87
330
83
100
AcDbEntity
  8
DEFAULT
100
AcDbVertex
100
AcDb2dVertex
 10
-393.7499999999995
 20
91.25000000000045
 30
0.0
  0
SEQEND
  5
88
330
83
100
AcDbEntity
  8
DEFAULT
  0
POLYLINE
  5
89
330
1F
100
AcDbEntity
  8
DEFAULT
100
AcDb2dPolyline
 66
     1
 10
0.0
 20
0.0
 30
0.0
 70
     1
  0
VERTEX
  5
8A
330
89
100
AcDbEntity
  8
DEFAULT
100
AcDbVertex
100
AcDb2dVertex
 10
-400.2499999999995
 20
131.2500000000005
 30
0.0
  0
VERTEX
  5
8B
330
89
100
AcDbEntity
  8
DEFAULT
100
AcDbVertex
100
AcDb2dVertex
 10
-400.2499999999995
 20
151.7500000000005
 30
0.0
  0
VERTEX
  5
8C
330
89
100
AcDbEntity
  8
DEFAULT
100
AcDbVertex
100
AcDb2dVertex
 10
-393.7499999999995
 20
151.7500000000005
 30
0.0
  0
VERTEX
  5
8D
330
89
100
AcDbEntity
  8
DEFAULT
100
AcDbVertex
100
AcDb2dVertex
 10
-393.7499999999995
 20
131.2500000000005
 30
0.0
  0
SEQEND
  5
8E
330
89
100
AcDbEntity
  8
DEFAULT
  0
POLYLINE
  5
8F
330
1F
100
AcDbEntity
  8
DEFAULT
100
AcDb2dPolyline
 66
     1
 10
0.0
 20
0.0
 30
0.0
 70
     1
  0
VERTEX
  5
90
330
8F
100
AcDbEntity
  8
DEFAULT
100
AcDbVertex
100
AcDb2dVertex
 10
-487.7500000001784
 20
91.25000000000045
 30
0.0
  0
VERTEX
  5
91
330
8F
100
AcDbEntity
  8
DEFAULT
100
AcDbVertex
100
AcDb2dVertex
 10
-487.7500000001784
 20
111.7500000000005
 30
0.0
  0
VERTEX
  5
92
330
8F
100
AcDbEntity
  8
DEFAULT
100
AcDbVertex
100
AcDb2dVertex
 10
-494.2500000001784
 20
111.7500000000005
 30
0.0
  0
VERTEX
  5
93
330
8F
100
AcDbEntity
  8
DEFAULT
100
AcDbVertex
100
AcDb2dVertex
 10
-494.2500000001784
 20
91.25000000000045
 30
0.0
  0
SEQEND
  5
94
330
8F
100
AcDbEntity
  8
DEFAULT
  0
POLYLINE
  5
95
330
1F
100
AcDbEntity
  8
DEFAULT
100
AcDb2dPolyline
 66
     1
 10
0.0
 20
0.0
 30
0.0
 70
     1
  0
VERTEX
  5
96
330
95
100
AcDbEntity
  8
DEFAULT
100
AcDbVertex
100
AcDb2dVertex
 10
-487.7500000001784
 20
131.2500000000005
 30
0.0
  0
VERTEX
  5
97
330
95
100
AcDbEntity
  8
DEFAULT
100
AcDbVertex
100
AcDb2dVertex
 10
-487.7500000001784
 20
151.7500000000005
 30
0.0
  0
VERTEX
  5
98
330
95
100
AcDbEntity
  8
DEFAULT
100
AcDbVertex
100
AcDb2dVertex
 10
-494.2500000001784
 20
151.7500000000005
 30
0.0
  0
VERTEX
  5
99
330
95
100
AcDbEntity
  8
DEFAULT
100
AcDbVertex
100
AcDb2dVertex
 10
-494.2500000001784
 20
131.2500000000005
 30
0.0
  0
SEQEND
  5
9A
330
95
100
AcDbEntity
  8
DEFAULT
  0
LINE
  5
9B
330
1F
100
AcDbEntity
  8
DEFAULT
100
AcDbLine
 10
-471.0000000001784
 20
91.50000000000045
 30
0.0
 11
-471.0000000001784
 21
81.50000000000045
 31
0.0
  0
LINE
  5
9C
330
1F
100
AcDbEntity
  8
DEFAULT
100
AcDbLine
 10
-471.0000000001784
 20
81.50000000000045
 30
0.0
 11
-462.0000000000891
 21
81.50000000000045
 31
0.0
  0
LINE
  5
9D
330
1F
100
AcDbEntity
  8
DEFAULT
100
AcDbLine
 10
-462.0000000000894
 20
81.50000000000045
 30
0.0
 11
-462.0000000000894
 21
121.5000000000005
 31
0.0
  0
ARC
  5
9E
330
1F
100
AcDbEntity
  8
DEFAULT
100
AcDbCircle
 10
-444.0000000000894
 20
121.5000000000005
 30
0.0
 40
18.0
100
AcDbArc
 50
0.0
 51
179.9999999999972
  0
LINE
  5
9F
330
1F
100
AcDbEntity
  8
DEFAULT
100
AcDbLine
 10
-426.0000000000894
 20
121.5000000000005
 30
0.0
 11
-426.0000000000894
 21
81.50000000000045
 31
0.0
  0
LINE
  5
A0
330
1F
100
AcDbEntity
  8
DEFAULT
100
AcDbLine
 10
-426.0000000000894
 20
81.50000000000045
 30
0.0
 11
-417.0000000001784
 21
81.50000000000045
 31
0.0
  0
LINE
  5
A1
330
1F
100
AcDbEntity
  8
DEFAULT
100
AcDbLine
 10
-417.0000000001784
 20
81.50000000000045
 30
0.0
 11
-417.0000000001784
 21
91.50000000000045
 31
0.0
  0
LINE
  5
A2
330
1F
100
AcDbEntity
  8
DEFAULT
100
AcDbLine
 10
-417.0000000001784
 20
91.50000000000045
 30
0.0
 11
-411.0000000001784
 21
91.50000000000045
 31
0.0
  0
LINE
  5
A3
330
1F
100
AcDbEntity
  8
DEFAULT
100
AcDbLine
 10
-411.0000000001784
 20
91.50000000000045
 30
0.0
 11
-411.0000000001784
 21
111.5000000000005
 31
0.0
  0
LINE
  5
A4
330
1F
100
AcDbEntity
  8
DEFAULT
100
AcDbLine
 10
-411.0000000001784
 20
111.5000000000005
 30
0.0
 11
-417.0000000001784
 21
111.5000000000005
 31
0.0
  0
LINE
  5
A5
330
1F
100
AcDbEntity
  8
DEFAULT
100
AcDbLine
 10
-417.0000000001784
 20
111.5000000000005
 30
0.0
 11
-417.0000000001784
 21
131.5000000000005
 31
0.0
  0
LINE
  5
A6
330
1F
100
AcDbEntity
  8
DEFAULT
100
AcDbLine
 10
-417.0000000001784
 20
131.5000000000005
 30
0.0
 11
-411.0000000001784
 21
131.5000000000005
 31
0.0
  0
LINE
  5
A7
330
1F
100
AcDbEntity
  8
DEFAULT
100
AcDbLine
 10
-411.0000000001784
 20
131.5000000000005
 30
0.0
 11
-411.0000000001784
 21
151.5000000000005
 31
0.0
  0
LINE
  5
A8
330
1F
100
AcDbEntity
  8
DEFAULT
100
AcDbLine
 10
-411.0000000001784
 20
151.5000000000005
 30
0.0
 11
-417.0000000001784
 21
151.5000000000005
 31
0.0
  0
LINE
  5
A9
330
1F
100
AcDbEntity
  8
DEFAULT
100
AcDbLine
 10
-417.0000000001784
 20
151.5000000000005
 30
0.0
 11
-417.0000000001784
 21
161.5000000000005
 31
0.0
  0
LINE
  5
AA
330
1F
100
AcDbEntity
  8
DEFAULT
100
AcDbLine
 10
-417.0000000001784
 20
161.5000000000005
 30
0.0
 11
-471.0000000001784
 21
161.5000000000005
 31
0.0
  0
LINE
  5
AB
330
1F
100
AcDbEntity
  8
DEFAULT
100
AcDbLine
 10
-471.0000000001784
 20
161.5000000000005
 30
0.0
 11
-471.0000000001784
 21
151.5000000000005
 31
0.0
  0
LINE
  5
AC
330
1F
100
AcDbEntity
  8
DEFAULT
100
AcDbLine
 10
-471.0000000001784
 20
151.5000000000005
 30
0.0
 11
-477.0000000001784
 21
151.5000000000005
 31
0.0
  0
LINE
  5
AD
330
1F
100
AcDbEntity
  8
DEFAULT
100
AcDbLine
 10
-477.0000000001784
 20
151.5000000000005
 30
0.0
 11
-477.0000000001784
 21
131.5000000000005
 31
0.0
  0
LINE
  5
AE
330
1F
100
AcDbEntity
  8
DEFAULT
100
AcDbLine
 10
-477.0000000001784
 20
131.5000000000005
 30
0.0
 11
-471.0000000001784
 21
131.5000000000005
 31
0.0
  0
LINE
  5
AF
330
1F
100
AcDbEntity
  8
DEFAULT
100
AcDbLine
 10
-471.0000000001784
 20
131.5000000000005
 30
0.0
 11
-471.0000000001784
 21
111.5000000000005
 31
0.0
  0
LINE
  5
B0
330
1F
100
AcDbEntity
  8
DEFAULT
100
AcDbLine
 10
-471.0000000001784
 20
111.5000000000005
 30
0.0
 11
-477.0000000001784
 21
111.5000000000005
 31
0.0
  0
LINE
  5
B1
330
1F
100
AcDbEntity
  8
DEFAULT
100
AcDbLine
 10
-477.0000000001784
 20
111.5000000000005
 30
0.0
 11
-477.0000000001784
 21
91.50000000000045
 31
0.0
  0
LINE
  5
B2
330
1F
100
AcDbEntity
  8
DEFAULT
100
AcDbLine
 10
-477.0000000001784
 20
91.50000000000045
 30
0.0
 11
-471.0000000001784
 21
91.50000000000045
 31
0.0
  0
LINE
  5
B3
330
1F
100
AcDbEntity
  8
DEFAULT
100
AcDbLine
 10
-500.0000000001784
 20
84.50000000000045
 30
0.0
 11
-500.0000000001784
 21
104.2916634491635
 31
0.0
  0
ARC
  5
B4
330
1F
100
AcDbEntity
  8
DEFAULT
100
AcDbCircle
 10
-608.0060960962726
 20
104.2916634491635
 30
0.0
 40
108.0060960960942
100
AcDbArc
 50
0.0
 51
29.08720580852632
  0
ARC
  5
B5
330
1F
100
AcDbEntity
  8
DEFAULT
100
AcDbCircle
 10
-511.0000000001777
 20
158.2561952333888
 30
0.0
 40
3.000000000000682
100
AcDbArc
 50
180.0000000000043
 51
209.0872058085253
  0
LINE
  5
B6
330
1F
100
AcDbEntity
  8
DEFAULT
100
AcDbLine
 10
-514.0000000001783
 20
158.2561952333886
 30
0.0
 11
-514.0000000001783
 21
161.5000000000005
 31
0.0
  0
LINE
  5
B7
330
1F
100
AcDbEntity
  8
DEFAULT
100
AcDbLine
 10
-514.0000000001783
 20
161.5000000000005
 30
0.0
 11
-514.0000000001783
 21
167.5000000000005
 31
0.0
  0
LINE
  5
B8
330
1F
100
AcDbEntity
  8
DEFAULT
100
AcDbLine
 10
-514.0000000001783
 20
167.5000000000005
 30
0.0
 11
-511.0000000001784
 21
167.5000000000005
 31
0.0
  0
LINE
  5
B9
330
1F
100
AcDbEntity
  8
DEFAULT
100
AcDbLine
 10
-511.0000000001784
 20
167.5000000000005
 30
0.0
 11
-508.0000000001784
 21
164.5000000000005
 31
0.0
  0
LINE
  5
BA
330
1F
100
AcDbEntity
  8
DEFAULT
100
AcDbLine
 10
-508.0000000001784
 20
164.5000000000005
 30
0.0
 11
-508.0000000001784
 21
161.5000000000005
 31
0.0
  0
LINE
  5
BB
330
1F
100
AcDbEntity
  8
DEFAULT
100
AcDbLine
 10
-508.0000000001784
 20
161.5000000000005
 30
0.0
 11
-484.0000000001784
 21
161.5000000000005
 31
0.0
  0
LINE
  5
BC
330
1F
100
AcDbEntity
  8
DEFAULT
100
AcDbLine
 10
-484.0000000001784
 20
161.5000000000005
 30
0.0
 11
-484.0000000001784
 21
164.5000000000005
 31
0.0
  0
LINE
  5
BD
330
1F
100
AcDbEntity
  8
DEFAULT
100
AcDbLine
 10
-484.0000000001784
 20
164.5000000000005
 30
0.0
 11
-481.0000000001784
 21
171.7276068751094
 31
0.0
  0
LINE
  5
BE
330
1F
100
AcDbEntity
  8
DEFAULT
100
AcDbLine
 10
-481.0000000001784
 20
171.7276068751094
 30
0.0
 11
-475.0895724997423
 21
171.7276068751094
 31
0.0
  0
LINE
  5
BF
330
1F
100
AcDbEntity
  8
DEFAULT
100
AcDbLine
 10
-475.0895724997423
 20
171.7276068751094
 30
0.0
 11
-475.0895724997423
 21
168.0000000000005
 31
0.0
  0
LINE
  5
C0
330
1F
100
AcDbEntity
  8
DEFAULT
100
AcDbLine
 10
-475.0895724997423
 20
168.0000000000005
 30
0.0
 11
-478.0000000001784
 21
167.5000000000005
 31
0.0
  0
LINE
  5
C1
330
1F
100
AcDbEntity
  8
DEFAULT
100
AcDbLine
 10
-478.0000000001784
 20
167.5000000000005
 30
0.0
 11
-478.0000000001784
 21
161.5000000000005
 31
0.0
  0
LINE
  5
C2
330
1F
100
AcDbEntity
  8
DEFAULT
100
AcDbLine
 10
-478.0000000001784
 20
161.5000000000005
 30
0.0
 11
-478.0000000001784
 21
155.5000000000005
 31
0.0
  0
LINE
  5
C3
330
1F
100
AcDbEntity
  8
DEFAULT
100
AcDbLine
 10
-478.0000000001784
 20
155.5000000000005
 30
0.0
 11
-478.0000000001784
 21
152.096641659376
 31
0.0
  0
ARC
  5
C4
330
1F
100
AcDbEntity
  8
DEFAULT
100
AcDbCircle
 10
-481.0000000001784
 20
152.096641659376
 30
0.0
 40
3.0
100
AcDbArc
 50
337.7173368799374
 51
0.0
  0
ARC
  5
C5
330
1F
100
AcDbEntity
  8
DEFAULT
100
AcDbCircle
 10
-406.3333333335121
 20
121.5000000000005
 30
0.0
 40
77.69241347204402
100
AcDbArc
 50
157.7173368799305
 51
202.2826631200696
  0
ARC
  5
C6
330
1F
100
AcDbEntity
  8
DEFAULT
100
AcDbCircle
 10
-481.0000000001783
 20
90.90335834062444
 30
0.0
 40
2.999999999999943
100
AcDbArc
 50
0.0000000000065138
 51
22.28266312006887
  0
LINE
  5
C7
330
1F
100
AcDbEntity
  8
DEFAULT
100
AcDbLine
 10
-478.0000000001783
 20
90.90335834062489
 30
0.0
 11
-478.0000000001784
 21
87.50000000000045
 31
0.0
  0
ARC
  5
C8
330
1F
100
AcDbEntity
  8
DEFAULT
100
AcDbCircle
 10
-484.0000000001784
 20
87.50000000000045
 30
0.0
 40
6.0
100
AcDbArc
 50
269.9999999999994
 51
359.9999999999994
  0
LINE
  5
C9
330
1F
100
AcDbEntity
  8
DEFAULT
100
AcDbLine
 10
-484.0000000001785
 20
81.50000000000045
 30
0.0
 11
-494.0000000001784
 21
81.50000000000045
 31
0.0
  0
LINE
  5
CA
330
1F
100
AcDbEntity
  8
DEFAULT
100
AcDbLine
 10
-494.0000000001784
 20
81.50000000000045
 30
0.0
 11
-497.0000000001784
 21
81.50000000000045
 31
0.0
  0
ARC
  5
CB
330
1F
100
AcDbEntity
  8
DEFAULT
100
AcDbCircle
 10
-497.0000000001784
 20
84.50000000000045
 30
0.0
 40
3.0
100
AcDbArc
 50
180.0
 51
270.0
  0
LINE
  5
CC
330
1F
100
AcDbEntity
  8
DEFAULT
100
AcDbLine
 10
-387.9999999999995
 20
84.50000000000045
 30
0.0
 11
-387.9999999999995
 21
104.2916634491635
 31
0.0
  0
ARC
  5
CD
330
1F
100
AcDbEntity
  8
DEFAULT
100
AcDbCircle
 10
-279.9939039039053
 20
104.2916634491635
 30
0.0
 40
108.0060960960942
100
AcDbArc
 50
150.9127941914737
 51
180.0
  0
ARC
  5
CE
330
1F
100
AcDbEntity
  8
DEFAULT
100
AcDbCircle
 10
-377.0000000000002
 20
158.2561952333888
 30
0.0
 40
3.000000000000682
100
AcDbArc
 50
330.9127941914747
 51
359.9999999999957
  0
LINE
  5
CF
330
1F
100
AcDbEntity
  8
DEFAULT
100
AcDbLine
 10
-373.9999999999995
 20
158.2561952333886
 30
0.0
 11
-373.9999999999995
 21
161.5000000000005
 31
0.0
  0
LINE
  5
D0
330
1F
100
AcDbEntity
  8
DEFAULT
100
AcDbLine
 10
-373.9999999999995
 20
161.5000000000005
 30
0.0
 11
-373.9999999999995
 21
167.5000000000005
 31
0.0
  0
LINE
  5
D1
330
1F
100
AcDbEntity
  8
DEFAULT
100
AcDbLine
 10
-373.9999999999995
 20
167.5000000000005
 30
0.0
 11
-376.9999999999995
 21
167.5000000000005
 31
0.0
  0
LINE
  5
D2
330
1F
100
AcDbEntity
  8
DEFAULT
100
AcDbLine
 10
-376.9999999999995
 20
167.5000000000005
 30
0.0
 11
-379.9999999999995
 21
164.5000000000005
 31
0.0
  0
LINE
  5
D3
330
1F
100
AcDbEntity
  8
DEFAULT
100
AcDbLine
 10
-379.9999999999995
 20
164.5000000000005
 30
0.0
 11
-379.9999999999995
 21
161.5000000000005
 31
0.0
  0
LINE
  5
D4
330
1F
100
AcDbEntity
  8
DEFAULT
100
AcDbLine
 10
-379.9999999999995
 20
161.5000000000005
 30
0.0
 11
-403.9999999999995
 21
161.5000000000005
 31
0.0
  0
LINE
  5
D5
330
1F
100
AcDbEntity
  8
DEFAULT
100
AcDbLine
 10
-403.9999999999995
 20
161.5000000000005
 30
0.0
 11
-403.9999999999995
 21
164.5000000000005
 31
0.0
  0
LINE
  5
D6
330
1F
100
AcDbEntity
  8
DEFAULT
100
AcDbLine
 10
-403.9999999999995
 20
164.5000000000005
 30
0.0
 11
-406.9999999999995
 21
171.7276068751094
 31
0.0
  0
LINE
  5
D7
330
1F
100
AcDbEntity
  8
DEFAULT
100
AcDbLine
 10
-406.9999999999995
 20
171.7276068751094
 30
0.0
 11
-412.9104275004356
 21
171.7276068751094
 31
0.0
  0
LINE
  5
D8
330
1F
100
AcDbEntity
  8
DEFAULT
100
AcDbLine
 10
-412.9104275004356
 20
171.7276068751094
 30
0.0
 11
-412.9104275004356
 21
168.0000000000005
 31
0.0
  0
LINE
  5
D9
330
1F
100
AcDbEntity
  8
DEFAULT
100
AcDbLine
 10
-412.9104275004356
 20
168.0000000000005
 30
0.0
 11
-409.9999999999995
 21
167.5000000000005
 31
0.0
  0
LINE
  5
DA
330
1F
100
AcDbEntity
  8
DEFAULT
100
AcDbLine
 10
-409.9999999999995
 20
167.5000000000005
 30
0.0
 11
-409.9999999999995
 21
161.5000000000005
 31
0.0
  0
LINE
  5
DB
330
1F
100
AcDbEntity
  8
DEFAULT
100
AcDbLine
 10
-409.9999999999995
 20
161.5000000000005
 30
0.0
 11
-409.9999999999995
 21
155.5000000000005
 31
0.0
  0
LINE
  5
DC
330
1F
100
AcDbEntity
  8
DEFAULT
100
AcDbLine
 10
-409.9999999999995
 20
155.5000000000005
 30
0.0
 11
-409.9999999999995
 21
152.096641659376
 31
0.0
  0
ARC
  5
DD
330
1F
100
AcDbEntity
  8
DEFAULT
100
AcDbCircle
 10
-406.9999999999995
 20
152.096641659376
 30
0.0
 40
3.0
100
AcDbArc
 50
180.0
 51
202.2826631200626
  0
ARC
  5
DE
330
1F
100
AcDbEntity
  8
DEFAULT
100
AcDbCircle
 10
-481.6666666666658
 20
121.5000000000005
 30
0.0
 40
77.69241347204402
100
AcDbArc
 50
337.7173368799304
 51
22.28266312006947
  0
ARC
  5
DF
330
1F
100
AcDbEntity
  8
DEFAULT
100
AcDbCircle
 10
-406.9999999999997
 20
90.90335834062444
 30
0.0
 40
2.999999999999943
100
AcDbArc
 50
157.7173368799311
 51
179.9999999999935
  0
LINE
  5
E0
330
1F
100
AcDbEntity
  8
DEFAULT
100
AcDbLine
 10
-409.9999999999995
 20
90.90335834062489
 30
0.0
 11
-409.9999999999995
 21
87.50000000000045
 31
0.0
  0
ARC
  5
E1
330
1F
100
AcDbEntity
  8
DEFAULT
100
AcDbCircle
 10
-403.9999999999995
 20
87.50000000000045
 30
0.0
 40
6.0
100
AcDbArc
 50
180.0000000000005
 51
270.0000000000005
  0
LINE
  5
E2
330
1F
100
AcDbEntity
  8
DEFAULT
100
AcDbLine
 10
-403.9999999999995
 20
81.50000000000045
 30
0.0
 11
-393.9999999999995
 21
81.50000000000045
 31
0.0
  0
LINE
  5
E3
330
1F
100
AcDbEntity
  8
DEFAULT
100
AcDbLine
 10
-393.9999999999995
 20
81.50000000000045
 30
0.0
 11
-390.9999999999995
 21
81.50000000000045
 31
0.0
  0
ARC
  5
E4
330
1F
100
AcDbEntity
  8
DEFAULT
100
AcDbCircle
 10
-390.9999999999995
 20
84.50000000000045
 30
0.0
 40
3.0
100
AcDbArc
 50
270.0
 51
0.0
  0
LINE
  5
E5
330
1F
100
AcDbEntity
  8
DEFAULT
100
AcDbLine
 10
-285.9999999999999
 20
157.5000000000005
 30
0.0
 11
-285.9999999999999
 21
167.5000000000005
 31
0.0
  0
LINE
  5
E6
330
1F
100
AcDbEntity
  8
DEFAULT
100
AcDbLine
 10
-285.9999999999999
 20
167.5000000000005
 30
0.0
 11
-295.0000000000891
 21
167.5000000000005
 31
0.0
  0
LINE
  5
E7
330
1F
100
AcDbEntity
  8
DEFAULT
100
AcDbLine
 10
-295.0000000000889
 20
167.5000000000005
 30
0.0
 11
-295.0000000000889
 21
127.5000000000005
 31
0.0
  0
ARC
  5
E8
330
1F
100
AcDbEntity
  8
DEFAULT
100
AcDbCircle
 10
-313.0000000000889
 20
127.5000000000005
 30
0.0
 40
18.0
100
AcDbArc
 50
180.0
 51
359.9999999999972
  0
LINE
  5
E9
330
1F
100
AcDbEntity
  8
DEFAULT
100
AcDbLine
 10
-331.0000000000889
 20
127.5000000000005
 30
0.0
 11
-331.0000000000889
 21
167.5000000000005
 31
0.0
  0
LINE
  5
EA
330
1F
100
AcDbEntity
  8
DEFAULT
100
AcDbLine
 10
-331.0000000000889
 20
167.5000000000005
 30
0.0
 11
-339.9999999999999
 21
167.5000000000005
 31
0.0
  0
LINE
  5
EB
330
1F
100
AcDbEntity
  8
DEFAULT
100
AcDbLine
 10
-339.9999999999999
 20
167.5000000000005
 30
0.0
 11
-339.9999999999999
 21
157.5000000000005
 31
0.0
  0
LINE
  5
EC
330
1F
100
AcDbEntity
  8
DEFAULT
100
AcDbLine
 10
-339.9999999999999
 20
157.5000000000005
 30
0.0
 11
-345.9999999999999
 21
157.5000000000005
 31
0.0
  0
LINE
  5
ED
330
1F
100
AcDbEntity
  8
DEFAULT
100
AcDbLine
 10
-345.9999999999999
 20
157.5000000000005
 30
0.0
 11
-345.9999999999999
 21
137.5000000000005
 31
0.0
  0
LINE
  5
EE
330
1F
100
AcDbEntity
  8
DEFAULT
100
AcDbLine
 10
-345.9999999999999
 20
137.5000000000005
 30
0.0
 11
-339.9999999999999
 21
137.5000000000005
 31
0.0
  0
LINE
  5
EF
330
1F
100
AcDbEntity
  8
DEFAULT
100
AcDbLine
 10
-339.9999999999999
 20
137.5000000000005
 30
0.0
 11
-339.9999999999999
 21
117.5000000000005
 31
0.0
  0
LINE
  5
F0
330
1F
100
AcDbEntity
  8
DEFAULT
100
AcDbLine
 10
-339.9999999999999
 20
117.5000000000005
 30
0.0
 11
-345.9999999999999
 21
117.5000000000005
 31
0.0
  0
LINE
  5
F1
330
1F
100
AcDbEntity
  8
DEFAULT
100
AcDbLine
 10
-345.9999999999999
 20
117.5000000000005
 30
0.0
 11
-345.9999999999999
 21
97.50000000000045
 31
0.0
  0
LINE
  5
F2
330
1F
100
AcDbEntity
  8
DEFAULT
100
AcDbLine
 10
-345.9999999999999
 20
97.50000000000045
 30
0.0
 11
-339.9999999999999
 21
97.50000000000045
 31
0.0
  0
LINE
  5
F3
330
1F
100
AcDbEntity
  8
DEFAULT
100
AcDbLine
 10
-339.9999999999999
 20
97.50000000000045
 30
0.0
 11
-339.9999999999999
 21
87.50000000000045
 31
0.0
  0
LINE
  5
F4
330
1F
100
AcDbEntity
  8
DEFAULT
100
AcDbLine
 10
-339.9999999999999
 20
87.50000000000045
 30
0.0
 11
-285.9999999999999
 21
87.50000000000045
 31
0.0
  0
LINE
  5
F5
330
1F
100
AcDbEntity
  8
DEFAULT
100
AcDbLine
 10
-285.9999999999999
 20
87.50000000000045
 30
0.0
 11
-285.9999999999999
 21
97.50000000000045
 31
0.0
  0
LINE
  5
F6
330
1F
100
AcDbEntity
  8
DEFAULT
100
AcDbLine
 10
-285.9999999999999
 20
97.50000000000045
 30
0.0
 11
-279.9999999999999
 21
97.50000000000045
 31
0.0
  0
LINE
  5
F7
330
1F
100
AcDbEntity
  8
DEFAULT
100
AcDbLine
 10
-279.9999999999999
 20
97.50000000000045
 30
0.0
 11
-279.9999999999999
 21
117.5000000000005
 31
0.0
  0
LINE
  5
F8
330
1F
100
AcDbEntity
  8
DEFAULT
100
AcDbLine
 10
-279.9999999999999
 20
117.5000000000005
 30
0.0
 11
-285.9999999999999
 21
117.5000000000005
 31
0.0
  0
LINE
  5
F9
330
1F
100
AcDbEntity
  8
DEFAULT
100
AcDbLine
 10
-285.9999999999999
 20
117.5000000000005
 30
0.0
 11
-285.9999999999999
 21
137.5000000000005
 31
0.0
  0
LINE
  5
FA
330
1F
100
AcDbEntity
  8
DEFAULT
100
AcDbLine
 10
-285.9999999999999
 20
137.5000000000005
 30
0.0
 11
-279.9999999999999
 21
137.5000000000005
 31
0.0
  0
LINE
  5
FB
330
1F
100
AcDbEntity
  8
DEFAULT
100
AcDbLine
 10
-279.9999999999999
 20
137.5000000000005
 30
0.0
 11
-279.9999999999999
 21
157.5000000000005
 31
0.0
  0
LINE
  5
FC
330
1F
100
AcDbEntity
  8
DEFAULT
100
AcDbLine
 10
-279.9999999999999
 20
157.5000000000005
 30
0.0
 11
-285.9999999999999
 21
157.5000000000005
 31
0.0
  0
LINE
  5
FD
330
1F
100
AcDbEntity
  8
DEFAULT
100
AcDbLine
 10
-256.9999999999999
 20
164.5000000000005
 30
0.0
 11
-256.9999999999999
 21
144.7083365508374
 31
0.0
  0
ARC
  5
FE
330
1F
100
AcDbEntity
  8
DEFAULT
100
AcDbCircle
 10
-148.9939039039057
 20
144.7083365508374
 30
0.0
 40
108.0060960960942
100
AcDbArc
 50
180.0
 51
209.0872058085263
  0
ARC
  5
FF
330
1F
100
AcDbEntity
  8
DEFAULT
100
AcDbCircle
 10
-246.0000000000006
 20
90.74380476661213
 30
0.0
 40
3.000000000000682
100
AcDbArc
 50
0.0000000000043425
 51
29.08720580852528
  0
LINE
  5
100
330
1F
100
AcDbEntity
  8
DEFAULT
100
AcDbLine
 10
-243.0
 20
90.74380476661236
 30
0.0
 11
-243.0
 21
87.50000000000045
 31
0.0
  0
LINE
  5
101
330
1F
100
AcDbEntity
  8
DEFAULT
100
AcDbLine
 10
-243.0
 20
87.50000000000045
 30
0.0
 11
-243.0
 21
81.50000000000045
 31
0.0
  0
LINE
  5
102
330
1F
100
AcDbEntity
  8
DEFAULT
100
AcDbLine
 10
-243.0
 20
81.50000000000045
 30
0.0
 11
-245.9999999999999
 21
81.50000000000045
 31
0.0
  0
LINE
  5
103
330
1F
100
AcDbEntity
  8
DEFAULT
100
AcDbLine
 10
-245.9999999999999
 20
81.50000000000045
 30
0.0
 11
-248.9999999999999
 21
84.50000000000045
 31
0.0
  0
LINE
  5
104
330
1F
100
AcDbEntity
  8
DEFAULT
100
AcDbLine
 10
-248.9999999999999
 20
84.50000000000045
 30
0.0
 11
-248.9999999999999
 21
87.50000000000045
 31
0.0
  0
LINE
  5
105
330
1F
100
AcDbEntity
  8
DEFAULT
100
AcDbLine
 10
-248.9999999999999
 20
87.50000000000045
 30
0.0
 11
-272.9999999999999
 21
87.50000000000045
 31
0.0
  0
LINE
  5
106
330
1F
100
AcDbEntity
  8
DEFAULT
100
AcDbLine
 10
-272.9999999999999
 20
87.50000000000045
 30
0.0
 11
-272.9999999999999
 21
84.50000000000045
 31
0.0
  0
LINE
  5
107
330
1F
100
AcDbEntity
  8
DEFAULT
100
AcDbLine
 10
-272.9999999999999
 20
84.50000000000045
 30
0.0
 11
-275.9999999999999
 21
77.27239312489155
 31
0.0
  0
LINE
  5
108
330
1F
100
AcDbEntity
  8
DEFAULT
100
AcDbLine
 10
-275.9999999999999
 20
77.27239312489155
 30
0.0
 11
-281.910427500436
 21
77.27239312489155
 31
0.0
  0
LINE
  5
109
330
1F
100
AcDbEntity
  8
DEFAULT
100
AcDbLine
 10
-281.910427500436
 20
77.27239312489155
 30
0.0
 11
-281.910427500436
 21
81.00000000000045
 31
0.0
  0
LINE
  5
10A
330
1F
100
AcDbEntity
  8
DEFAULT
100
AcDbLine
 10
-281.910427500436
 20
81.00000000000045
 30
0.0
 11
-278.9999999999999
 21
81.50000000000045
 31
0.0
  0
LINE
  5
10B
330
1F
100
AcDbEntity
  8
DEFAULT
100
AcDbLine
 10
-278.9999999999999
 20
81.50000000000045
 30
0.0
 11
-278.9999999999999
 21
87.50000000000045
 31
0.0
  0
LINE
  5
10C
330
1F
100
AcDbEntity
  8
DEFAULT
100
AcDbLine
 10
-278.9999999999999
 20
87.50000000000045
 30
0.0
 11
-278.9999999999999
 21
93.50000000000045
 31
0.0
  0
LINE
  5
10D
330
1F
100
AcDbEntity
  8
DEFAULT
100
AcDbLine
 10
-278.9999999999999
 20
93.50000000000045
 30
0.0
 11
-278.9999999999999
 21
96.90335834062489
 31
0.0
  0
ARC
  5
10E
330
1F
100
AcDbEntity
  8
DEFAULT
100
AcDbCircle
 10
-275.9999999999999
 20
96.90335834062489
 30
0.0
 40
3.0
100
AcDbArc
 50
157.7173368799374
 51
180.0
  0
ARC
  5
10F
330
1F
100
AcDbEntity
  8
DEFAULT
100
AcDbCircle
 10
-350.6666666666662
 20
127.5000000000005
 30
0.0
 40
77.69241347204402
100
AcDbArc
 50
337.7173368799305
 51
22.2826631200696
  0
ARC
  5
110
330
1F
100
AcDbEntity
  8
DEFAULT
100
AcDbCircle
 10
-276.0
 20
158.0966416593765
 30
0.0
 40
2.999999999999943
100
AcDbArc
 50
180.0000000000065
 51
202.2826631200689
  0
LINE
  5
111
330
1F
100
AcDbEntity
  8
DEFAULT
100
AcDbLine
 10
-279.0
 20
158.096641659376
 30
0.0
 11
-278.9999999999999
 21
161.5000000000005
 31
0.0
  0
ARC
  5
112
330
1F
100
AcDbEntity
  8
DEFAULT
100
AcDbCircle
 10
-272.9999999999999
 20
161.5000000000005
 30
0.0
 40
6.0
100
AcDbArc
 50
89.99999999999947
 51
179.9999999999995
  0
LINE
  5
113
330
1F
100
AcDbEntity
  8
DEFAULT
100
AcDbLine
 10
-272.9999999999998
 20
167.5000000000005
 30
0.0
 11
-262.9999999999999
 21
167.5000000000005
 31
0.0
  0
LINE
  5
114
330
1F
100
AcDbEntity
  8
DEFAULT
100
AcDbLine
 10
-262.9999999999999
 20
167.5000000000005
 30
0.0
 11
-259.9999999999999
 21
167.5000000000005
 31
0.0
  0
ARC
  5
115
330
1F
100
AcDbEntity
  8
DEFAULT
100
AcDbCircle
 10
-259.9999999999999
 20
164.5000000000005
 30
0.0
 40
3.0
100
AcDbArc
 50
0.0
 51
90.0
  0
LINE
  5
116
330
1F
100
AcDbEntity
  8
DEFAULT
100
AcDbLine
 10
-369.0000000001787
 20
164.5000000000005
 30
0.0
 11
-369.0000000001787
 21
144.7083365508374
 31
0.0
  0
ARC
  5
117
330
1F
100
AcDbEntity
  8
DEFAULT
100
AcDbCircle
 10
-477.0060960962729
 20
144.7083365508374
 30
0.0
 40
108.0060960960942
100
AcDbArc
 50
330.9127941914737
 51
0.0
  0
ARC
  5
118
330
1F
100
AcDbEntity
  8
DEFAULT
100
AcDbCircle
 10
-380.000000000178
 20
90.74380476661213
 30
0.0
 40
3.000000000000682
100
AcDbArc
 50
150.912794191475
 51
179.9999999999957
  0
LINE
  5
119
330
1F
100
AcDbEntity
  8
DEFAULT
100
AcDbLine
 10
-383.0000000001787
 20
90.74380476661236
 30
0.0
 11
-383.0000000001787
 21
87.50000000000045
 31
0.0
  0
LINE
  5
11A
330
1F
100
AcDbEntity
  8
DEFAULT
100
AcDbLine
 10
-383.0000000001787
 20
87.50000000000045
 30
0.0
 11
-383.0000000001787
 21
81.50000000000045
 31
0.0
  0
LINE
  5
11B
330
1F
100
AcDbEntity
  8
DEFAULT
100
AcDbLine
 10
-383.0000000001787
 20
81.50000000000045
 30
0.0
 11
-380.0000000001787
 21
81.50000000000045
 31
0.0
  0
LINE
  5
11C
330
1F
100
AcDbEntity
  8
DEFAULT
100
AcDbLine
 10
-380.0000000001787
 20
81.50000000000045
 30
0.0
 11
-377.0000000001787
 21
84.50000000000045
 31
0.0
  0
LINE
  5
11D
330
1F
100
AcDbEntity
  8
DEFAULT
100
AcDbLine
 10
-377.0000000001787
 20
84.50000000000045
 30
0.0
 11
-377.0000000001787
 21
87.50000000000045
 31
0.0
  0
LINE
  5
11E
330
1F
100
AcDbEntity
  8
DEFAULT
100
AcDbLine
 10
-377.0000000001787
 20
87.50000000000045
 30
0.0
 11
-353.0000000001787
 21
87.50000000000045
 31
0.0
  0
LINE
  5
11F
330
1F
100
AcDbEntity
  8
DEFAULT
100
AcDbLine
 10
-353.0000000001787
 20
87.50000000000045
 30
0.0
 11
-353.0000000001787
 21
84.50000000000045
 31
0.0
  0
LINE
  5
120
330
1F
100
AcDbEntity
  8
DEFAULT
100
AcDbLine
 10
-353.0000000001787
 20
84.50000000000045
 30
0.0
 11
-350.0000000001787
 21
77.27239312489155
 31
0.0
  0
LINE
  5
121
330
1F
100
AcDbEntity
  8
DEFAULT
100
AcDbLine
 10
-350.0000000001787
 20
77.27239312489155
 30
0.0
 11
-344.0895724997426
 21
77.27239312489155
 31
0.0
  0
LINE
  5
122
330
1F
100
AcDbEntity
  8
DEFAULT
100
AcDbLine
 10
-344.0895724997426
 20
77.27239312489155
 30
0.0
 11
-344.0895724997426
 21
81.00000000000045
 31
0.0
  0
LINE
  5
123
330
1F
100
AcDbEntity
  8
DEFAULT
100
AcDbLine
 10
-344.0895724997426
 20
81.00000000000045
 30
0.0
 11
-347.0000000001787
 21
81.50000000000045
 31
0.0
  0
LINE
  5
124
330
1F
100
AcDbEntity
  8
DEFAULT
100
AcDbLine
 10
-347.0000000001787
 20
81.50000000000045
 30
0.0
 11
-347.0000000001787
 21
87.50000000000045
 31
0.0
  0
LINE
  5
125
330
1F
100
AcDbEntity
  8
DEFAULT
100
AcDbLine
 10
-347.0000000001787
 20
87.50000000000045
 30
0.0
 11
-347.0000000001787
 21
93.50000000000045
 31
0.0
  0
LINE
  5
126
330
1F
100
AcDbEntity
  8
DEFAULT
100
AcDbLine
 10
-347.0000000001787
 20
93.50000000000045
 30
0.0
 11
-347.0000000001787
 21
96.90335834062489
 31
0.0
  0
ARC
  5
127
330
1F
100
AcDbEntity
  8
DEFAULT
100
AcDbCircle
 10
-350.0000000001787
 20
96.90335834062489
 30
0.0
 40
3.0
100
AcDbArc
 50
0.0
 51
22.28266312006262
  0
ARC
  5
128
330
1F
100
AcDbEntity
  8
DEFAULT
100
AcDbCircle
 10
-275.3333333335124
 20
127.5000000000005
 30
0.0
 40
77.69241347204402
100
AcDbArc
 50
157.7173368799304
 51
202.2826631200695
  0
ARC
  5
129
330
1F
100
AcDbEntity
  8
DEFAULT
100
AcDbCircle
 10
-350.0000000001786
 20
158.0966416593765
 30
0.0
 40
2.999999999999943
100
AcDbArc
 50
337.7173368799311
 51
359.9999999999935
  0
LINE
  5
12A
330
1F
100
AcDbEntity
  8
DEFAULT
100
AcDbLine
 10
-347.0000000001787
 20
158.096641659376
 30
0.0
 11
-347.0000000001787
 21
161.5000000000005
 31
0.0
  0
ARC
  5
12B
330
1F
100
AcDbEntity
  8
DEFAULT
100
AcDbCircle
 10
-353.0000000001787
 20
161.5000000000005
 30
0.0
 40
6.0
100
AcDbArc
 50
0.0000000000005428
 51
90.00000000000054
  0
LINE
  5
12C
330
1F
100
AcDbEntity
  8
DEFAULT
100
AcDbLine
 10
-353.0000000001787
 20
167.5000000000005
 30
0.0
 11
-363.0000000001787
 21
167.5000000000005
 31
0.0
  0
LINE
  5
12D
330
1F
100
AcDbEntity
  8
DEFAULT
100
AcDbLine
 10
-363.0000000001787
 20
167.5000000000005
 30
0.0
 11
-366.0000000001787
 21
167.5000000000005
 31
0.0
  0
ARC
  5
12E
330
1F
100
AcDbEntity
  8
DEFAULT
100
AcDbCircle
 10
-366.0000000001787
 20
164.5000000000005
 30
0.0
 40
3.0
100
AcDbArc
 50
90.0
 51
180.0
  0
CIRCLE
  5
12F
330
1F
100
AcDbEntity
  8
DEFAULT
100
AcDbCircle
 10
-366.9104275006546
 20
8.000000000000227
 30
0.0
 40
23.00000000012915
  0
ARC
  5
130
330
1F
100
AcDbEntity
  8
DEFAULT
100
AcDbCircle
 10
-366.9104275006546
 20
8.000000000000227
 30
0.0
 40
32.99999999987085
100
AcDbArc
 50
180.0
 51
0.0000000000000432
  0
LINE
  5
131
330
1F
100
AcDbEntity
  8
DEFAULT
100
AcDbLine
 10
-339.9104275005254
 20
53.00000000000045
 30
0.0
 11
-393.9104275005254
 21
53.00000000000045
 31
0.0
  0
ARC
  5
132
330
1F
100
AcDbEntity
  8
DEFAULT
100
AcDbCircle
 10
-426.9104275005254
 20
48.97221149721054
 30
0.0
 40
3.000000000000057
100
AcDbArc
 50
180.0
 51
245.1882675329798
  0
LINE
  5
133
330
1F
100
AcDbEntity
  8
DEFAULT
100
AcDbLine
 10
-429.9104275005254
 20
48.97221149721054
 30
0.0
 11
-429.9104275005254
 21
53.00000000000045
 31
0.0
  0
LINE
  5
134
330
1F
100
AcDbEntity
  8
DEFAULT
100
AcDbLine
 10
-429.9104275005254
 20
53.00000000000045
 30
0.0
 11
-429.9104275005254
 21
59.00000000000045
 31
0.0
  0
LINE
  5
135
330
1F
100
AcDbEntity
  8
DEFAULT
100
AcDbLine
 10
-429.9104275005254
 20
59.00000000000045
 30
0.0
 11
-426.9104275005254
 21
59.00000000000045
 31
0.0
  0
LINE
  5
136
330
1F
100
AcDbEntity
  8
DEFAULT
100
AcDbLine
 10
-426.9104275005254
 20
59.00000000000045
 30
0.0
 11
-423.9104275005254
 21
56.00000000000045
 31
0.0
  0
LINE
  5
137
330
1F
100
AcDbEntity
  8
DEFAULT
100
AcDbLine
 10
-423.9104275005254
 20
56.00000000000045
 30
0.0
 11
-423.9104275005254
 21
53.00000000000045
 31
0.0
  0
LINE
  5
138
330
1F
100
AcDbEntity
  8
DEFAULT
100
AcDbLine
 10
-423.9104275005254
 20
53.00000000000045
 30
0.0
 11
-399.9104275005254
 21
53.00000000000045
 31
0.0
  0
LINE
  5
139
330
1F
100
AcDbEntity
  8
DEFAULT
100
AcDbLine
 10
-399.9104275005254
 20
53.00000000000045
 30
0.0
 11
-399.9104275005254
 21
56.00000000000045
 31
0.0
  0
LINE
  5
13A
330
1F
100
AcDbEntity
  8
DEFAULT
100
AcDbLine
 10
-399.9104275005254
 20
56.00000000000045
 30
0.0
 11
-396.9104275005254
 21
63.22760687510936
 31
0.0
  0
LINE
  5
13B
330
1F
100
AcDbEntity
  8
DEFAULT
100
AcDbLine
 10
-396.9104275005254
 20
63.22760687510936
 30
0.0
 11
-391.0000000000894
 21
63.22760687510936
 31
0.0
  0
LINE
  5
13C
330
1F
100
AcDbEntity
  8
DEFAULT
100
AcDbLine
 10
-391.0000000000894
 20
63.22760687510936
 30
0.0
 11
-391.0000000000894
 21
59.50000000000045
 31
0.0
  0
LINE
  5
13D
330
1F
100
AcDbEntity
  8
DEFAULT
100
AcDbLine
 10
-391.0000000000894
 20
59.50000000000045
 30
0.0
 11
-393.9104275005254
 21
59.00000000000045
 31
0.0
  0
LINE
  5
13E
330
1F
100
AcDbEntity
  8
DEFAULT
100
AcDbLine
 10
-393.9104275005254
 20
59.00000000000045
 30
0.0
 11
-393.9104275005254
 21
53.00000000000045
 31
0.0
  0
LINE
  5
13F
330
1F
100
AcDbEntity
  8
DEFAULT
100
AcDbLine
 10
-393.9104275005254
 20
53.00000000000045
 30
0.0
 11
-393.9104275005254
 21
47.00000000000045
 31
0.0
  0
LINE
  5
140
330
1F
100
AcDbEntity
  8
DEFAULT
100
AcDbLine
 10
-393.9104275005254
 20
47.00000000000045
 30
0.0
 11
-393.9104275005254
 21
43.00000000000045
 31
0.0
  0
LINE
  5
141
330
1F
100
AcDbEntity
  8
DEFAULT
100
AcDbLine
 10
-393.9104275005254
 20
43.00000000000045
 30
0.0
 11
-399.9104275005254
 21
43.00000000000045
 31
0.0
  0
LINE
  5
142
330
1F
100
AcDbEntity
  8
DEFAULT
100
AcDbLine
 10
-399.9104275005254
 20
43.00000000000045
 30
0.0
 11
-399.9104275005254
 21
33.00000000000045
 31
0.0
  0
LINE
  5
143
330
1F
100
AcDbEntity
  8
DEFAULT
100
AcDbLine
 10
-399.9104275005254
 20
33.00000000000045
 30
0.0
 11
-393.9104275005254
 21
33.00000000000045
 31
0.0
  0
LINE
  5
144
330
1F
100
AcDbEntity
  8
DEFAULT
100
AcDbLine
 10
-393.9104275005254
 20
33.00000000000045
 30
0.0
 11
-393.9104275005254
 21
23.00000000000045
 31
0.0
  0
LINE
  5
145
330
1F
100
AcDbEntity
  8
DEFAULT
100
AcDbLine
 10
-393.9104275005254
 20
23.00000000000045
 30
0.0
 11
-399.9104275005254
 21
23.00000000000045
 31
0.0
  0
LINE
  5
146
330
1F
100
AcDbEntity
  8
DEFAULT
100
AcDbLine
 10
-399.9104275005254
 20
23.00000000000045
 30
0.0
 11
-399.9104275005254
 21
13.00000000000045
 31
0.0
  0
LINE
  5
147
330
1F
100
AcDbEntity
  8
DEFAULT
100
AcDbLine
 10
-399.9104275005254
 20
13.00000000000045
 30
0.0
 11
-399.9104275005254
 21
8.000000000000455
 31
0.0
  0
LINE
  5
148
330
1F
100
AcDbEntity
  8
DEFAULT
100
AcDbLine
 10
-399.9104275005254
 20
8.000000000000455
 30
0.0
 11
-403.9104275005254
 21
8.000000000000455
 31
0.0
  0
ARC
  5
149
330
1F
100
AcDbEntity
  8
DEFAULT
100
AcDbCircle
 10
-403.9104275005254
 20
11.00000000000045
 30
0.0
 40
3.0
100
AcDbArc
 50
180.0
 51
270.0
  0
LINE
  5
14A
330
1F
100
AcDbEntity
  8
DEFAULT
100
AcDbLine
 10
-406.9104275005254
 20
11.00000000000045
 30
0.0
 11
-406.9104275005254
 21
13.00000000000045
 31
0.0
  0
ARC
  5
14B
330
1F
100
AcDbEntity
  8
DEFAULT
100
AcDbCircle
 10
-443.5408622831342
 20
13.00000000000045
 30
0.0
 40
36.6304347826088
100
AcDbArc
 50
0.0
 51
65.18826753297893
  0
ARC
  5
14C
330
1F
100
AcDbEntity
  8
DEFAULT
100
AcDbCircle
 10
-306.9104275005254
 20
48.97221149721054
 30
0.0
 40
3.000000000000057
100
AcDbArc
 50
294.8117324670202
 51
0.0
  0
LINE
  5
14D
330
1F
100
AcDbEntity
  8
DEFAULT
100
AcDbLine
 10
-303.9104275005254
 20
48.97221149721054
 30
0.0
 11
-303.9104275005254
 21
53.00000000000045
 31
0.0
  0
LINE
  5
14E
330
1F
100
AcDbEntity
  8
DEFAULT
100
AcDbLine
 10
-303.9104275005254
 20
53.00000000000045
 30
0.0
 11
-303.9104275005254
 21
59.00000000000045
 31
0.0
  0
LINE
  5
14F
330
1F
100
AcDbEntity
  8
DEFAULT
100
AcDbLine
 10
-303.9104275005254
 20
59.00000000000045
 30
0.0
 11
-306.9104275005254
 21
59.00000000000045
 31
0.0
  0
LINE
  5
150
330
1F
100
AcDbEntity
  8
DEFAULT
100
AcDbLine
 10
-306.9104275005254
 20
59.00000000000045
 30
0.0
 11
-309.9104275005254
 21
56.00000000000045
 31
0.0
  0
LINE
  5
151
330
1F
100
AcDbEntity
  8
DEFAULT
100
AcDbLine
 10
-309.9104275005254
 20
56.00000000000045
 30
0.0
 11
-309.9104275005254
 21
53.00000000000045
 31
0.0
  0
LINE
  5
152
330
1F
100
AcDbEntity
  8
DEFAULT
100
AcDbLine
 10
-309.9104275005254
 20
53.00000000000045
 30
0.0
 11
-333.9104275005254
 21
53.00000000000045
 31
0.0
  0
LINE
  5
153
330
1F
100
AcDbEntity
  8
DEFAULT
100
AcDbLine
 10
-333.9104275005254
 20
53.00000000000045
 30
0.0
 11
-333.9104275005254
 21
56.00000000000045
 31
0.0
  0
LINE
  5
154
330
1F
100
AcDbEntity
  8
DEFAULT
100
AcDbLine
 10
-333.9104275005254
 20
56.00000000000045
 30
0.0
 11
-336.9104275005254
 21
63.22760687510936
 31
0.0
  0
LINE
  5
155
330
1F
100
AcDbEntity
  8
DEFAULT
100
AcDbLine
 10
-336.9104275005254
 20
63.22760687510936
 30
0.0
 11
-342.8208550009615
 21
63.22760687510936
 31
0.0
  0
LINE
  5
156
330
1F
100
AcDbEntity
  8
DEFAULT
100
AcDbLine
 10
-342.8208550009615
 20
63.22760687510936
 30
0.0
 11
-342.8208550009615
 21
59.50000000000045
 31
0.0
  0
LINE
  5
157
330
1F
100
AcDbEntity
  8
DEFAULT
100
AcDbLine
 10
-342.8208550009615
 20
59.50000000000045
 30
0.0
 11
-339.9104275005254
 21
59.00000000000045
 31
0.0
  0
LINE
  5
158
330
1F
100
AcDbEntity
  8
DEFAULT
100
AcDbLine
 10
-339.9104275005254
 20
59.00000000000045
 30
0.0
 11
-339.9104275005254
 21
53.00000000000045
 31
0.0
  0
LINE
  5
159
330
1F
100
AcDbEntity
  8
DEFAULT
100
AcDbLine
 10
-339.9104275005254
 20
53.00000000000045
 30
0.0
 11
-339.9104275005254
 21
47.00000000000045
 31
0.0
  0
LINE
  5
15A
330
1F
100
AcDbEntity
  8
DEFAULT
100
AcDbLine
 10
-339.9104275005254
 20
47.00000000000045
 30
0.0
 11
-339.9104275005254
 21
43.00000000000045
 31
0.0
  0
LINE
  5
15B
330
1F
100
AcDbEntity
  8
DEFAULT
100
AcDbLine
 10
-339.9104275005254
 20
43.00000000000045
 30
0.0
 11
-333.9104275005254
 21
43.00000000000045
 31
0.0
  0
LINE
  5
15C
330
1F
100
AcDbEntity
  8
DEFAULT
100
AcDbLine
 10
-333.9104275005254
 20
43.00000000000045
 30
0.0
 11
-333.9104275005254
 21
33.00000000000045
 31
0.0
  0
LINE
  5
15D
330
1F
100
AcDbEntity
  8
DEFAULT
100
AcDbLine
 10
-333.9104275005254
 20
33.00000000000045
 30
0.0
 11
-339.9104275005254
 21
33.00000000000045
 31
0.0
  0
LINE
  5
15E
330
1F
100
AcDbEntity
  8
DEFAULT
100
AcDbLine
 10
-339.9104275005254
 20
33.00000000000045
 30
0.0
 11
-339.9104275005254
 21
23.00000000000045
 31
0.0
  0
LINE
  5
15F
330
1F
100
AcDbEntity
  8
DEFAULT
100
AcDbLine
 10
-339.9104275005254
 20
23.00000000000045
 30
0.0
 11
-333.9104275005254
 21
23.00000000000045
 31
0.0
  0
LINE
  5
160
330
1F
100
AcDbEntity
  8
DEFAULT
100
AcDbLine
 10
-333.9104275005254
 20
23.00000000000045
 30
0.0
 11
-333.9104275005254
 21
13.00000000000045
 31
0.0
  0
LINE
  5
161
330
1F
100
AcDbEntity
  8
DEFAULT
100
AcDbLine
 10
-333.9104275005254
 20
13.00000000000045
 30
0.0
 11
-333.9104275005254
 21
8.000000000000455
 31
0.0
  0
LINE
  5
162
330
1F
100
AcDbEntity
  8
DEFAULT
100
AcDbLine
 10
-333.9104275005254
 20
8.000000000000455
 30
0.0
 11
-329.9104275005254
 21
8.000000000000455
 31
0.0
  0
ARC
  5
163
330
1F
100
AcDbEntity
  8
DEFAULT
100
AcDbCircle
 10
-329.9104275005254
 20
11.00000000000045
 30
0.0
 40
3.0
100
AcDbArc
 50
270.0
 51
0.0
  0
LINE
  5
164
330
1F
100
AcDbEntity
  8
DEFAULT
100
AcDbLine
 10
-326.9104275005254
 20
11.00000000000045
 30
0.0
 11
-326.9104275005254
 21
13.00000000000045
 31
0.0
  0
ARC
  5
165
330
1F
100
AcDbEntity
  8
DEFAULT
100
AcDbCircle
 10
-290.2799927179167
 20
13.00000000000045
 30
0.0
 40
36.6304347826088
100
AcDbArc
 50
114.8117324670211
 51
180.0
  0
ARC
  5
166
330
1F
100
AcDbEntity
  8
DEFAULT
100
AcDbCircle
 10
-513.0000000000894
 20
-24.47221149720963
 30
0.0
 40
3.000000000000057
100
AcDbArc
 50
114.8117324670212
 51
180.0
  0
LINE
  5
167
330
1F
100
AcDbEntity
  8
DEFAULT
100
AcDbLine
 10
-516.0000000000894
 20
-24.47221149720963
 30
0.0
 11
-516.0000000000894
 21
-28.49999999999955
 31
0.0
  0
LINE
  5
168
330
1F
100
AcDbEntity
  8
DEFAULT
100
AcDbLine
 10
-516.0000000000894
 20
-28.49999999999955
 30
0.0
 11
-516.0000000000894
 21
-34.49999999999955
 31
0.0
  0
LINE
  5
169
330
1F
100
AcDbEntity
  8
DEFAULT
100
AcDbLine
 10
-516.0000000000894
 20
-34.49999999999955
 30
0.0
 11
-513.0000000000894
 21
-34.49999999999955
 31
0.0
  0
LINE
  5
16A
330
1F
100
AcDbEntity
  8
DEFAULT
100
AcDbLine
 10
-513.0000000000894
 20
-34.49999999999955
 30
0.0
 11
-510.0000000000894
 21
-31.49999999999955
 31
0.0
  0
LINE
  5
16B
330
1F
100
AcDbEntity
  8
DEFAULT
100
AcDbLine
 10
-510.0000000000894
 20
-31.49999999999955
 30
0.0
 11
-510.0000000000894
 21
-28.49999999999955
 31
0.0
  0
LINE
  5
16C
330
1F
100
AcDbEntity
  8
DEFAULT
100
AcDbLine
 10
-510.0000000000894
 20
-28.49999999999955
 30
0.0
 11
-486.0000000000894
 21
-28.49999999999955
 31
0.0
  0
LINE
  5
16D
330
1F
100
AcDbEntity
  8
DEFAULT
100
AcDbLine
 10
-486.0000000000894
 20
-28.49999999999955
 30
0.0
 11
-486.0000000000894
 21
-31.49999999999955
 31
0.0
  0
LINE
  5
16E
330
1F
100
AcDbEntity
  8
DEFAULT
100
AcDbLine
 10
-486.0000000000894
 20
-31.49999999999955
 30
0.0
 11
-483.0000000000894
 21
-38.72760687510845
 31
0.0
  0
LINE
  5
16F
330
1F
100
AcDbEntity
  8
DEFAULT
100
AcDbLine
 10
-483.0000000000894
 20
-38.72760687510845
 30
0.0
 11
-477.0895724996533
 21
-38.72760687510845
 31
0.0
  0
LINE
  5
170
330
1F
100
AcDbEntity
  8
DEFAULT
100
AcDbLine
 10
-477.0895724996533
 20
-38.72760687510845
 30
0.0
 11
-477.0895724996533
 21
-34.99999999999955
 31
0.0
  0
LINE
  5
171
330
1F
100
AcDbEntity
  8
DEFAULT
100
AcDbLine
 10
-477.0895724996533
 20
-34.99999999999955
 30
0.0
 11
-480.0000000000894
 21
-34.49999999999955
 31
0.0
  0
LINE
  5
172
330
1F
100
AcDbEntity
  8
DEFAULT
100
AcDbLine
 10
-480.0000000000894
 20
-34.49999999999955
 30
0.0
 11
-480.0000000000894
 21
-28.49999999999955
 31
0.0
  0
LINE
  5
173
330
1F
100
AcDbEntity
  8
DEFAULT
100
AcDbLine
 10
-480.0000000000894
 20
-28.49999999999955
 30
0.0
 11
-480.0000000000894
 21
-22.49999999999955
 31
0.0
  0
LINE
  5
174
330
1F
100
AcDbEntity
  8
DEFAULT
100
AcDbLine
 10
-480.0000000000894
 20
-22.49999999999955
 30
0.0
 11
-480.0000000000894
 21
-18.49999999999955
 31
0.0
  0
LINE
  5
175
330
1F
100
AcDbEntity
  8
DEFAULT
100
AcDbLine
 10
-480.0000000000894
 20
-18.49999999999955
 30
0.0
 11
-486.0000000000894
 21
-18.49999999999955
 31
0.0
  0
LINE
  5
176
330
1F
100
AcDbEntity
  8
DEFAULT
100
AcDbLine
 10
-486.0000000000894
 20
-18.49999999999955
 30
0.0
 11
-486.0000000000894
 21
-8.499999999999545
 31
0.0
  0
LINE
  5
177
330
1F
100
AcDbEntity
  8
DEFAULT
100
AcDbLine
 10
-486.0000000000894
 20
-8.499999999999545
 30
0.0
 11
-480.0000000000894
 21
-8.499999999999545
 31
0.0
  0
LINE
  5
178
330
1F
100
AcDbEntity
  8
DEFAULT
100
AcDbLine
 10
-480.0000000000894
 20
-8.499999999999545
 30
0.0
 11
-480.0000000000894
 21
1.500000000000455
 31
0.0
  0
LINE
  5
179
330
1F
100
AcDbEntity
  8
DEFAULT
100
AcDbLine
 10
-480.0000000000894
 20
1.500000000000455
 30
0.0
 11
-486.0000000000894
 21
1.500000000000455
 31
0.0
  0
LINE
  5
17A
330
1F
100
AcDbEntity
  8
DEFAULT
100
AcDbLine
 10
-486.0000000000894
 20
1.500000000000455
 30
0.0
 11
-486.0000000000894
 21
11.50000000000045
 31
0.0
  0
LINE
  5
17B
330
1F
100
AcDbEntity
  8
DEFAULT
100
AcDbLine
 10
-486.0000000000894
 20
11.50000000000045
 30
0.0
 11
-486.0000000000894
 21
16.50000000000045
 31
0.0
  0
LINE
  5
17C
330
1F
100
AcDbEntity
  8
DEFAULT
100
AcDbLine
 10
-486.0000000000894
 20
16.50000000000045
 30
0.0
 11
-490.0000000000894
 21
16.50000000000045
 31
0.0
  0
ARC
  5
17D
330
1F
100
AcDbEntity
  8
DEFAULT
100
AcDbCircle
 10
-490.0000000000894
 20
13.50000000000045
 30
0.0
 40
3.0
100
AcDbArc
 50
90.0
 51
180.0
  0
LINE
  5
17E
330
1F
100
AcDbEntity
  8
DEFAULT
100
AcDbLine
 10
-493.0000000000894
 20
13.50000000000045
 30
0.0
 11
-493.0000000000894
 21
11.50000000000045
 31
0.0
  0
ARC
  5
17F
330
1F
100
AcDbEntity
  8
DEFAULT
100
AcDbCircle
 10
-529.6304347826981
 20
11.50000000000045
 30
0.0
 40
36.6304347826088
100
AcDbArc
 50
294.811732467021
 51
0.0
  0
ARC
  5
180
330
1F
100
AcDbEntity
  8
DEFAULT
100
AcDbCircle
 10
-393.0000000000894
 20
-24.47221149720963
 30
0.0
 40
3.000000000000057
100
AcDbArc
 50
0.0
 51
65.18826753297976
  0
LINE
  5
181
330
1F
100
AcDbEntity
  8
DEFAULT
100
AcDbLine
 10
-390.0000000000894
 20
-24.47221149720963
 30
0.0
 11
-390.0000000000894
 21
-28.49999999999955
 31
0.0
  0
LINE
  5
182
330
1F
100
AcDbEntity
  8
DEFAULT
100
AcDbLine
 10
-390.0000000000894
 20
-28.49999999999955
 30
0.0
 11
-390.0000000000894
 21
-34.49999999999955
 31
0.0
  0
LINE
  5
183
330
1F
100
AcDbEntity
  8
DEFAULT
100
AcDbLine
 10
-390.0000000000894
 20
-34.49999999999955
 30
0.0
 11
-393.0000000000894
 21
-34.49999999999955
 31
0.0
  0
LINE
  5
184
330
1F
100
AcDbEntity
  8
DEFAULT
100
AcDbLine
 10
-393.0000000000894
 20
-34.49999999999955
 30
0.0
 11
-396.0000000000894
 21
-31.49999999999955
 31
0.0
  0
LINE
  5
185
330
1F
100
AcDbEntity
  8
DEFAULT
100
AcDbLine
 10
-396.0000000000894
 20
-31.49999999999955
 30
0.0
 11
-396.0000000000894
 21
-28.49999999999955
 31
0.0
  0
LINE
  5
186
330
1F
100
AcDbEntity
  8
DEFAULT
100
AcDbLine
 10
-396.0000000000894
 20
-28.49999999999955
 30
0.0
 11
-420.0000000000894
 21
-28.49999999999955
 31
0.0
  0
LINE
  5
187
330
1F
100
AcDbEntity
  8
DEFAULT
100
AcDbLine
 10
-420.0000000000894
 20
-28.49999999999955
 30
0.0
 11
-420.0000000000894
 21
-31.49999999999955
 31
0.0
  0
LINE
  5
188
330
1F
100
AcDbEntity
  8
DEFAULT
100
AcDbLine
 10
-420.0000000000894
 20
-31.49999999999955
 30
0.0
 11
-423.0000000000894
 21
-38.72760687510845
 31
0.0
  0
LINE
  5
189
330
1F
100
AcDbEntity
  8
DEFAULT
100
AcDbLine
 10
-423.0000000000894
 20
-38.72760687510845
 30
0.0
 11
-428.9104275005254
 21
-38.72760687510845
 31
0.0
  0
LINE
  5
18A
330
1F
100
AcDbEntity
  8
DEFAULT
100
AcDbLine
 10
-428.9104275005254
 20
-38.72760687510845
 30
0.0
 11
-428.9104275005254
 21
-34.99999999999955
 31
0.0
  0
LINE
  5
18B
330
1F
100
AcDbEntity
  8
DEFAULT
100
AcDbLine
 10
-428.9104275005254
 20
-34.99999999999955
 30
0.0
 11
-426.0000000000894
 21
-34.49999999999955
 31
0.0
  0
LINE
  5
18C
330
1F
100
AcDbEntity
  8
DEFAULT
100
AcDbLine
 10
-426.0000000000894
 20
-34.49999999999955
 30
0.0
 11
-426.0000000000894
 21
-28.49999999999955
 31
0.0
  0
LINE
  5
18D
330
1F
100
AcDbEntity
  8
DEFAULT
100
AcDbLine
 10
-426.0000000000894
 20
-28.49999999999955
 30
0.0
 11
-426.0000000000894
 21
-22.49999999999955
 31
0.0
  0
LINE
  5
18E
330
1F
100
AcDbEntity
  8
DEFAULT
100
AcDbLine
 10
-426.0000000000894
 20
-22.49999999999955
 30
0.0
 11
-426.0000000000894
 21
-18.49999999999955
 31
0.0
  0
LINE
  5
18F
330
1F
100
AcDbEntity
  8
DEFAULT
100
AcDbLine
 10
-426.0000000000894
 20
-18.49999999999955
 30
0.0
 11
-420.0000000000894
 21
-18.49999999999955
 31
0.0
  0
LINE
  5
190
330
1F
100
AcDbEntity
  8
DEFAULT
100
AcDbLine
 10
-420.0000000000894
 20
-18.49999999999955
 30
0.0
 11
-420.0000000000894
 21
-8.499999999999545
 31
0.0
  0
LINE
  5
191
330
1F
100
AcDbEntity
  8
DEFAULT
100
AcDbLine
 10
-420.0000000000894
 20
-8.499999999999545
 30
0.0
 11
-426.0000000000894
 21
-8.499999999999545
 31
0.0
  0
LINE
  5
192
330
1F
100
AcDbEntity
  8
DEFAULT
100
AcDbLine
 10
-426.0000000000894
 20
-8.499999999999545
 30
0.0
 11
-426.0000000000894
 21
1.500000000000455
 31
0.0
  0
LINE
  5
193
330
1F
100
AcDbEntity
  8
DEFAULT
100
AcDbLine
 10
-426.0000000000894
 20
1.500000000000455
 30
0.0
 11
-420.0000000000894
 21
1.500000000000455
 31
0.0
  0
LINE
  5
194
330
1F
100
AcDbEntity
  8
DEFAULT
100
AcDbLine
 10
-420.0000000000894
 20
1.500000000000455
 30
0.0
 11
-420.0000000000894
 21
11.50000000000045
 31
0.0
  0
LINE
  5
195
330
1F
100
AcDbEntity
  8
DEFAULT
100
AcDbLine
 10
-420.0000000000894
 20
11.50000000000045
 30
0.0
 11
-420.0000000000894
 21
16.50000000000045
 31
0.0
  0
LINE
  5
196
330
1F
100
AcDbEntity
  8
DEFAULT
100
AcDbLine
 10
-420.0000000000894
 20
16.50000000000045
 30
0.0
 11
-416.0000000000894
 21
16.50000000000045
 31
0.0
  0
ARC
  5
197
330
1F
100
AcDbEntity
  8
DEFAULT
100
AcDbCircle
 10
-416.0000000000894
 20
13.50000000000045
 30
0.0
 40
3.0
100
AcDbArc
 50
0.0
 51
90.0
  0
LINE
  5
198
330
1F
100
AcDbEntity
  8
DEFAULT
100
AcDbLine
 10
-413.0000000000894
 20
13.50000000000045
 30
0.0
 11
-413.0000000000894
 21
11.50000000000045
 31
0.0
  0
ARC
  5
199
330
1F
100
AcDbEntity
  8
DEFAULT
100
AcDbCircle
 10
-376.3695652174806
 20
11.50000000000045
 30
0.0
 40
36.6304347826088
100
AcDbArc
 50
180.0
 51
245.1882675329789
  0
LINE
  5
19A
330
1F
100
AcDbEntity
  8
DEFAULT
100
AcDbLine
 10
-480.0000000000894
 20
-28.49999999999955
 30
0.0
 11
-426.0000000000894
 21
-28.49999999999955
 31
0.0
  0
ARC
  5
19B
330
1F
100
AcDbEntity
  8
DEFAULT
100
AcDbCircle
 10
-452.9999999999602
 20
16.50000000000068
 30
0.0
 40
32.99999999987085
100
AcDbArc
 50
0.0
 51
180.0
  0
CIRCLE
  5
19C
330
1F
100
AcDbEntity
  8
DEFAULT
100
AcDbCircle
 10
-452.9999999999602
 20
16.50000000000068
 30
0.0
 40
23.00000000012915
  0
ENDSEC
  0
SECTION
  2
OBJECTS
  0
DICTIONARY
  5
C
330
0
100
AcDbDictionary
  3
ACAD_GROUP
350
D
  3
ACAD_LAYOUT
350
1A
  3
ACAD_MATERIAL
350
43
  3
ACAD_MLEADERSTYLE
350
1BF
  3
ACAD_MLINESTYLE
350
17
  3
ACAD_PLOTSETTINGS
350
19
  3
ACAD_SCALELIST
350
47
  3
ACAD_VISUALSTYLE
350
2A
  3
ACDBHEADERROUNDTRIPXREC
350
19D
  3
ACDBVARIABLEDICTIONARY
350
1BD
  0
DICTIONARY
  5
D
102
{ACAD_REACTORS
330
C
102
}
330
C
100
AcDbDictionary
  0
DICTIONARY
  5
1A
102
{ACAD_REACTORS
330
C
102
}
330
C
100
AcDbDictionary
  0
DICTIONARY
  5
43
102
{ACAD_REACTORS
330
C
102
}
330
C
100
AcDbDictionary
  3
BYBLOCK
350
45
  3
BYLAYER
350
44
  3
GLOBAL
350
46
  0
DICTIONARY
  5
1BF
102
{ACAD_REACTORS
330
C
102
}
330
C
100
AcDbDictionary
  0
DICTIONARY
  5
17
102
{ACAD_REACTORS
330
C
102
}
330
C
100
AcDbDictionary
  3
STANDARD
350
18
  0
DICTIONARY
  5
19
102
{ACAD_REACTORS
330
C
102
}
330
C
100
AcDbDictionary
  0
DICTIONARY
  5
47
102
{ACAD_REACTORS
330
C
102
}
330
C
100
AcDbDictionary
  3
A0
350
48
  3
A1
350
49
  3
A2
350
4A
  3
A3
350
4B
  3
A4
350
4C
  3
A5
350
4D
  3
A6
350
4E
  3
A7
350
4F
  3
A8
350
50
  3
A9
350
51
  3
B0
350
52
  3
B1
350
53
  3
B2
350
54
  3
B3
350
55
  3
B4
350
56
  3
B5
350
57
  3
B6
350
58
  3
B7
350
59
  3
B8
350
5A
  3
B9
350
5B
  3
C0
350
5C
  3
C1
350
5D
  3
C2
350
5E
  3
C3
350
5F
  3
C4
350
60
  3
C5
350
61
  3
C6
350
62
  3
C7
350
63
  3
C8
350
64
  3
C9
350
65
  3
D0
350
66
  3
D1
350
67
  3
D2
350
68
  0
DICTIONARY
  5
2A
102
{ACAD_REACTORS
330
C
102
}
330
C
100
AcDbDictionary
  3
2DWIREFRAME
350
2F
  3
BASIC
350
32
  3
BRIGHTEN
350
36
  3
COLORCHANGE
350
3A
  3
CONCEPTUAL
350
34
  3
DIM
350
35
  3
EDGECOLOROFF
350
3D
  3
FACEPATTERN
350
39
  3
FLAT
350
2B
  3
FLATWITHEDGES
350
2C
  3
GOURAUD
350
2D
  3
GOURAUDWITHEDGES
350
2E
  3
HIDDEN
350
31
  3
JITTEROFF
350
3B
  3
LINEPATTERN
350
38
  3
OVERHANGOFF
350
3C
  3
REALISTIC
350
33
  3
SHADED
350
42
  3
SHADED_WITH_EDGES
350
41
  3
SHADES_OF_GRAY
350
3E
  3
SKETCHY
350
3F
  3
THICKEN
350
37
  3
WIREFRAME
350
30
  3
X-RAY
350
40
  0
DICTIONARY
  5
19D
102
{ACAD_REACTORS
330
C
102
}
330
C
100
AcDbDictionary
  3
CEPSNTYPE
350
1A6
  3
DIMSTYLEDATA
350
1BC
  3
FINGERPRINTGUID
350
1A7
  3
HYPERLINKBASE
350
1A0
  3
INSUNITS
350
1A5
  3
LAYOUTDICT
350
1A2
  3
LWETCUNION
350
1A4
  3
PLOTSETDICT
350
1A3
  3
PSVPSCALE
350
1A9
  3
PUCSBASE
350
1AC
  3
PUCSORGBACK
350
1B2
  3
PUCSORGBOTTOM
350
1AE
  3
PUCSORGFRONT
350
1B1
  3
PUCSORGLEFT
350
1AF
  3
PUCSORGRIGHT
350
1B0
  3
PUCSORGTOP
350
1AD
  3
PUCSORTHOREF
350
1AA
  3
PUCSORTHOVIEW
350
1AB
  3
STYLESHEET
350
1A1
  3
TSTACKALIGN
350
19E
  3
TSTACKSIZE
350
19F
  3
UCSBASE
350
1B5
  3
UCSORGBACK
350
1BB
  3
UCSORGBOTTOM
350
1B7
  3
UCSORGFRONT
350
1BA
  3
UCSORGLEFT
350
1B8
  3
UCSORGRIGHT
350
1B9
  3
UCSORGTOP
350
1B6
  3
UCSORTHOREF
350
1B3
  3
UCSORTHOVIEW
350
1B4
  3
VERSIONGUID
350
1A8
  0
DICTIONARY
  5
1BD
102
{ACAD_REACTORS
330
C
102
}
330
C
100
AcDbDictionary
  3
CANNOSCALE
350
1C4
  3
DIMASSOC
350
1C2
  3
HIDETEXT
350
1C3
  3
MSLTSCALE
350
1C5
  0
MATERIAL
  5
45
102
{ACAD_REACTORS
330
43
102
}
102
{ACAD_XDICTIONARY
360
1C8
102
}
330
43
100
AcDbMaterial
  1
BYBLOCK
  0
MATERIAL
  5
44
102
{ACAD_REACTORS
330
43
102
}
102
{ACAD_XDICTIONARY
360
1C6
102
}
330
43
100
AcDbMaterial
  1
BYLAYER
  0
MATERIAL
  5
46
102
{ACAD_REACTORS
330
43
102
}
102
{ACAD_XDICTIONARY
360
1CA
102
}
330
43
100
AcDbMaterial
  1
GLOBAL
  0
MLINESTYLE
  5
18
102
{ACAD_REACTORS
330
17
102
}
330
17
100
AcDbMlineStyle
  2
Standard
 70
     0
  3

 62
   256
 51
90.0
 52
90.0
 71
     2
 49
0.5
 62
   256
  6
BYLAYER
 49
-0.5
 62
   256
  6
BYLAYER
  0
ACAD_PROXY_OBJECT
  5
48
102
{ACAD_REACTORS
330
47
102
}
330
47
100
AcDbProxyObject
 90
      499
 91
      503
 93
       41
310
903313A31580
  0
ACAD_PROXY_OBJECT
  5
49
102
{ACAD_REACTORS
330
47
102
}
330
47
100
AcDbProxyObject
 90
      499
 91
      503
 93
      105
310
903313A324000000000000004000
  0
ACAD_PROXY_OBJECT
  5
4A
102
{ACAD_REACTORS
330
47
102
}
330
47
100
AcDbProxyObject
 90
      499
 91
      503
 93
      105
310
903313A344000000000000104000
  0
ACAD_PROXY_OBJECT
  5
4B
102
{ACAD_REACTORS
330
47
102
}
330
47
100
AcDbProxyObject
 90
      499
 91
      503
 93
      105
310
903313A354000000000000144000
  0
ACAD_PROXY_OBJECT
  5
4C
102
{ACAD_REACTORS
330
47
102
}
330
47
100
AcDbProxyObject
 90
      499
 91
      503
 93
      105
310
903313A384000000000000204000
  0
ACAD_PROXY_OBJECT
  5
4D
102
{ACAD_REACTORS
330
47
102
}
330
47
100
AcDbProxyObject
 90
      499
 91
      503
 93
      113
310
904313A31304000000000000244000
  0
ACAD_PROXY_OBJECT
  5
4E
102
{ACAD_REACTORS
330
47
102
}
330
47
100
AcDbProxyObject
 90
      499
 91
      503
 93
      113
310
904313A31364000000000000304000
  0
ACAD_PROXY_OBJECT
  5
4F
102
{ACAD_REACTORS
330
47
102
}
330
47
100
AcDbProxyObject
 90
      499
 91
      503
 93
      113
310
904313A32304000000000000344000
  0
ACAD_PROXY_OBJECT
  5
50
102
{ACAD_REACTORS
330
47
102
}
330
47
100
AcDbProxyObject
 90
      499
 91
      503
 93
      113
310
904313A333040000000000003E4000
  0
ACAD_PROXY_OBJECT
  5
51
102
{ACAD_REACTORS
330
47
102
}
330
47
100
AcDbProxyObject
 90
      499
 91
      503
 93
      113
310
904313A34304000000000000444000
  0
ACAD_PROXY_OBJECT
  5
52
102
{ACAD_REACTORS
330
47
102
}
330
47
100
AcDbProxyObject
 90
      499
 91
      503
 93
      113
310
904313A35304000000000000494000
  0
ACAD_PROXY_OBJECT
  5
53
102
{ACAD_REACTORS
330
47
102
}
330
47
100
AcDbProxyObject
 90
      499
 91
      503
 93
      121
310
905313A3130304000000000000594000
  0
ACAD_PROXY_OBJECT
  5
54
102
{ACAD_REACTORS
330
47
102
}
330
47
100
AcDbProxyObject
 90
      499
 91
      503
 93
      105
310
903323A310000000000000010100
  0
ACAD_PROXY_OBJECT
  5
55
102
{ACAD_REACTORS
330
47
102
}
330
47
100
AcDbProxyObject
 90
      499
 91
      503
 93
      105
310
903343A310000000000000410100
  0
ACAD_PROXY_OBJECT
  5
56
102
{ACAD_REACTORS
330
47
102
}
330
47
100
AcDbProxyObject
 90
      499
 91
      503
 93
      105
310
903383A310000000000000810100
  0
ACAD_PROXY_OBJECT
  5
57
102
{ACAD_REACTORS
330
47
102
}
330
47
100
AcDbProxyObject
 90
      499
 91
      503
 93
      113
310
90431303A310000000000000910100
  0
ACAD_PROXY_OBJECT
  5
58
102
{ACAD_REACTORS
330
47
102
}
330
47
100
AcDbProxyObject
 90
      499
 91
      503
 93
      121
310
9053130303A310000000000001650100
  0
ACAD_PROXY_OBJECT
  5
59
102
{ACAD_REACTORS
330
47
102
}
330
47
100
AcDbProxyObject
 90
      499
 91
      503
 93
      257
310
90E312F31323822203D2031272D3022000000000000200FC000000000000284000
  0
ACAD_PROXY_OBJECT
  5
5A
102
{ACAD_REACTORS
330
47
102
}
330
47
100
AcDbProxyObject
 90
      499
 91
      503
 93
      249
310
90D312F363422203D2031272D3022000000000000240FC000000000000284000
  0
ACAD_PROXY_OBJECT
  5
5B
102
{ACAD_REACTORS
330
47
102
}
330
47
100
AcDbProxyObject
 90
      499
 91
      503
 93
      249
310
90D312F333222203D2031272D3022000000000000280FC000000000000284000
  0
ACAD_PROXY_OBJECT
  5
5C
102
{ACAD_REACTORS
330
47
102
}
330
47
100
AcDbProxyObject
 90
      499
 91
      503
 93
      249
310
90D312F313622203D2031272D30220000000000002C0FC000000000000284000
  0
ACAD_PROXY_OBJECT
  5
5D
102
{ACAD_REACTORS
330
47
102
}
330
47
100
AcDbProxyObject
 90
      499
 91
      503
 93
      249
310
90D332F333222203D2031272D30220000000000002E0FC000000000000284000
  0
ACAD_PROXY_OBJECT
  5
5E
102
{ACAD_REACTORS
330
47
102
}
330
47
100
AcDbProxyObject
 90
      499
 91
      503
 93
      241
310
90C312F3822203D2031272D3022000000000000300FC000000000000284000
  0
ACAD_PROXY_OBJECT
  5
5F
102
{ACAD_REACTORS
330
47
102
}
330
47
100
AcDbProxyObject
 90
      499
 91
      503
 93
      249
310
90D332F313622203D2031272D3022000000000000320FC000000000000284000
  0
ACAD_PROXY_OBJECT
  5
60
102
{ACAD_REACTORS
330
47
102
}
330
47
100
AcDbProxyObject
 90
      499
 91
      503
 93
      241
310
90C312F3422203D2031272D3022000000000000340FC000000000000284000
  0
ACAD_PROXY_OBJECT
  5
61
102
{ACAD_REACTORS
330
47
102
}
330
47
100
AcDbProxyObject
 90
      499
 91
      503
 93
      241
310
90C332F3822203D2031272D3022000000000000360FC000000000000284000
  0
ACAD_PROXY_OBJECT
  5
62
102
{ACAD_REACTORS
330
47
102
}
330
47
100
AcDbProxyObject
 90
      499
 91
      503
 93
      241
310
90C312F3222203D2031272D3022000000000000380FC000000000000284000
  0
ACAD_PROXY_OBJECT
  5
63
102
{ACAD_REACTORS
330
47
102
}
330
47
100
AcDbProxyObject
 90
      499
 91
      503
 93
      241
310
90C332F3422203D2031272D30220000000000003A0FC000000000000284000
  0
ACAD_PROXY_OBJECT
  5
64
102
{ACAD_REACTORS
330
47
102
}
330
47
100
AcDbProxyObject
 90
      499
 91
      503
 93
      161
310
90A3122203D2031272D30224000000000000284000
  0
ACAD_PROXY_OBJECT
  5
65
102
{ACAD_REACTORS
330
47
102
}
330
47
100
AcDbProxyObject
 90
      499
 91
      503
 93
      257
310
90E312D312F3222203D2031272D30220000000000003E0FC000000000000284000
  0
ACAD_PROXY_OBJECT
  5
66
102
{ACAD_REACTORS
330
47
102
}
330
47
100
AcDbProxyObject
 90
      499
 91
      503
 93
      225
310
90A3322203D2031272D302200000000000002100000000000000284000
  0
ACAD_PROXY_OBJECT
  5
67
102
{ACAD_REACTORS
330
47
102
}
330
47
100
AcDbProxyObject
 90
      499
 91
      503
 93
      225
310
90A3622203D2031272D302200000000000006100000000000000284000
  0
ACAD_PROXY_OBJECT
  5
68
102
{ACAD_REACTORS
330
47
102
}
330
47
100
AcDbProxyObject
 90
      499
 91
      503
 93
      249
310
90D31272D3022203D2031272D30220000000000000A100000000000000284000
  0
ACAD_PROXY_OBJECT
  5
2F
102
{ACAD_REACTORS
330
2A
102
}
330
2A
100
AcDbProxyObject
 90
      499
 91
      501
 93
      436
310
42CC9915DA5C99599C985B595049028333333333333E33F0000000000000F90107901411070040501600405405064090741402480A0340
1001
ACAD
1000
AcDbSavedByObjectVersion
1070
     0
  0
ACAD_PROXY_OBJECT
  5
32
102
{ACAD_REACTORS
330
2A
102
}
330
2A
100
AcDbProxyObject
 90
      499
 91
      501
 93
      388
310
4150985CDA58D07406404333333333333E33F0000000000000F90107A41107004050150841D405064090741402480A0350
1001
ACAD
1000
AcDbSavedByObjectVersion
1070
     0
  0
ACAD_PROXY_OBJECT
  5
36
102
{ACAD_REACTORS
330
2A
102
}
330
2A
100
AcDbProxyObject
 90
      499
 91
      501
 93
      428
310
42109C9A59DA1D195B90C409028333333333333E33F0000000000000F9010790141107004050150841D405064090741402480A029950
1001
ACAD
1000
AcDbSavedByObjectVersion
1070
     0
  0
ACAD_PROXY_OBJECT
  5
3A
102
{ACAD_REACTORS
330
2A
102
}
330
2A
100
AcDbProxyObject
 90
      499
 91
      501
 93
      452
310
42D0DBDB1BDC90DA185B99D95104090240C333333333333E33F0000000000000F90108901411070040501508421405064090741402480A0350
1001
ACAD
1000
AcDbSavedByObjectVersion
1070
     0
  0
ACAD_PROXY_OBJECT
  5
34
102
{ACAD_REACTORS
330
2A
102
}
330
2A
100
AcDbProxyObject
 90
      499
 91
      501
 93
      500
310
4290DBDB98D95C1D1D585B10940D028333333333333E33F0000000000000F90107902409070040501000000000018199010841D405064090740C02480A0340
1001
ACAD
1000
AcDbSavedByObjectVersion
1070
     0
  0
ACAD_PROXY_OBJECT
  5
35
102
{ACAD_REACTORS
330
2A
102
}
330
2A
100
AcDbProxyObject
 90
      499
 91
      501
 93
      412
310
40D11A5B50B409028333333333333E33F0000000000000F9010790141107004050150841D405064090741402480A02677FFFFFD0
1001
ACAD
1000
AcDbSavedByObjectVersion
1070
     0
  0
ACAD_PROXY_OBJECT
  5
3D
102
{ACAD_REACTORS
330
2A
102
}
330
2A
100
AcDbProxyObject
 90
      499
 91
      501
 93
      452
310
43115919D950DBDB1BDC93D999916409028333333333333E33F0000000000000F9010790141107004050150841D405064090741402480A0350
1001
ACAD
1000
AcDbSavedByObjectVersion
1070
     0
  0
ACAD_PROXY_OBJECT
  5
39
102
{ACAD_REACTORS
330
2A
102
}
330
2A
100
AcDbProxyObject
 90
      499
 91
      501
 93
      444
310
42D19858D95C185D1D195C9B90F409028333333333333E33F0000000000000F9010790141107004050150841D405064090741402480A0350
1001
ACAD
1000
AcDbSavedByObjectVersion
1070
     0
  0
ACAD_PROXY_OBJECT
  5
2B
102
{ACAD_REACTORS
330
2A
102
}
330
2A
100
AcDbProxyObject
 90
      499
 91
      501
 93
      380
310
41119B185D240901404333333333333E33F0000000000000F9010740A907004050150841D405064090741402480A1B50
1001
ACAD
1000
AcDbSavedByObjectVersion
1070
     0
  0
ACAD_PROXY_OBJECT
  5
2C
102
{ACAD_REACTORS
330
2A
102
}
330
2A
100
AcDbProxyObject
 90
      499
 91
      501
 93
      468
310
43519B185D15DA5D1A115919D95CD0140901404333333333333E33F0000000000000F90107409019070040501600405405064090741402480A1B50
1001
ACAD
1000
AcDbSavedByObjectVersion
1070
     0
  0
ACAD_PROXY_OBJECT
  5
2D
102
{ACAD_REACTORS
330
2A
102
}
330
2A
100
AcDbProxyObject
 90
      499
 91
      501
 93
      404
310
41D1DBDD5C985D5910240902404333333333333E33F0000000000000F9010740A9070040501641D405064090741402480A1B50
1001
ACAD
1000
AcDbSavedByObjectVersion
1070
     0
  0
ACAD_PROXY_OBJECT
  5
2E
102
{ACAD_REACTORS
330
2A
102
}
330
2A
100
AcDbProxyObject
 90
      499
 91
      501
 93
      492
310
4411DBDD5C985D5915DA5D1A115919D95CD0340902404333333333333E33F0000000000000F90107409019070040501600405405064090741402480A1B50
1001
ACAD
1000
AcDbSavedByObjectVersion
1070
     0
  0
ACAD_PROXY_OBJECT
  5
31
102
{ACAD_REACTORS
330
2A
102
}
330
2A
100
AcDbProxyObject
 90
      499
 91
      501
 93
      476
310
41921A5919195B90640502408333333333333E33F0000000000000F901079024090700405020000000000001110200405405064090740C02480A0340
1001
ACAD
1000
AcDbSavedByObjectVersion
1070
     0
  0
ACAD_PROXY_OBJECT
  5
3B
102
{ACAD_REACTORS
330
2A
102
}
330
2A
100
AcDbProxyObject
 90
      499
 91
      501
 93
      428
310
42529A5D1D195C93D999914409028333333333333E33F0000000000000F9010790141107004050150A41D405064090741402480A0350
1001
ACAD
1000
AcDbSavedByObjectVersion
1070
     0
  0
ACAD_PROXY_OBJECT
  5
38
102
{ACAD_REACTORS
330
2A
102
}
330
2A
100
AcDbProxyObject
 90
      499
 91
      501
 93
      444
310
42D31A5B995C185D1D195C9B90E409028333333333333E33F0000000000000F9010790141107004050750841D405064090741402483A0350
1001
ACAD
1000
AcDbSavedByObjectVersion
1070
     0
  0
ACAD_PROXY_OBJECT
  5
3C
102
{ACAD_REACTORS
330
2A
102
}
330
2A
100
AcDbProxyObject
 90
      499
 91
      501
 93
      444
310
42D3DD995C9A185B99D3D999915409028333333333333E33F0000000000000F9010790141107004050150941D405064090741402480A0350
1001
ACAD
1000
AcDbSavedByObjectVersion
1070
     0
  0
ACAD_PROXY_OBJECT
  5
33
102
{ACAD_REACTORS
330
2A
102
}
330
2A
100
AcDbProxyObject
 90
      499
 91
      501
 93
      428
310
425499585B1A5CDD1A58D08409038333333333333E33F0000000000000F9010740A907004050150800405405064090740C02480A1B40
1001
ACAD
1000
AcDbSavedByObjectVersion
1070
     0
  0
ACAD_PROXY_OBJECT
  5
42
102
{ACAD_REACTORS
330
2A
102
}
330
2A
100
AcDbProxyObject
 90
      499
 91
      501
 93
      420
310
4194DA1859195911B40902404333333333333E33F0000000000000F9010740A41107004050150800405405064090840C02480A0B40
1001
ACAD
1000
AcDbSavedByObjectVersion
1070
     0
  0
ACAD_PROXY_OBJECT
  5
41
102
{ACAD_REACTORS
330
2A
102
}
330
2A
100
AcDbProxyObject
 90
      499
 91
      501
 93
      516
310
4454DA18591959081DDA5D1A08195919D95CD1A40902404333333333333E33F0000000000000F901074090142907004050250800405405064090740C02480A0B40
1001
ACAD
1000
AcDbSavedByObjectVersion
1070
     0
  0
ACAD_PROXY_OBJECT
  5
3E
102
{ACAD_REACTORS
330
2A
102
}
330
2A
100
AcDbProxyObject
 90
      499
 91
      501
 93
      532
310
4394DA1859195CC81BD98811DC985E5174090240C333333333333E33F0000000000000F901079024090741D01000000000000111010841D405064090740C02480A0340
1001
ACAD
1000
AcDbSavedByObjectVersion
1070
     0
  0
ACAD_PROXY_OBJECT
  5
3F
102
{ACAD_REACTORS
330
2A
102
}
330
2A
100
AcDbProxyObject
 90
      499
 91
      501
 93
      476
310
41D4DAD95D18DA1E51840502408333333333333E33F0000000000000F901079024090741D01000000000000111010B41D405064090741802480A0340
1001
ACAD
1000
AcDbSavedByObjectVersion
1070
     0
  0
ACAD_PROXY_OBJECT
  5
37
102
{ACAD_REACTORS
330
2A
102
}
330
2A
100
AcDbProxyObject
 90
      499
 91
      501
 93
      412
310
41D51A1A58DAD95B90D409028333333333333E33F0000000000000F9010790141107004050150C41D405064090741402480A0350
1001
ACAD
1000
AcDbSavedByObjectVersion
1070
     0
  0
ACAD_PROXY_OBJECT
  5
30
102
{ACAD_REACTORS
330
2A
102
}
330
2A
100
AcDbProxyObject
 90
      499
 91
      501
 93
      420
310
4255DA5C99599C985B595059028333333333333E33F0000000000000F90107901411070040501600405405064090740C02480A0340
1001
ACAD
1000
AcDbSavedByObjectVersion
1070
     0
  0
ACAD_PROXY_OBJECT
  5
40
102
{ACAD_REACTORS
330
2A
102
}
330
2A
100
AcDbProxyObject
 90
      499
 91
      501
 93
      404
310
41560B54985E51940902404000000000000E03F0000000000000F9010740501907004050150841D405064090740C02480A1B40
1001
ACAD
1000
AcDbSavedByObjectVersion
1070
     0
  0
XRECORD
  5
1A6
102
{ACAD_REACTORS
330
19D
102
}
330
19D
100
AcDbXrecord
 90
        0
  0
XRECORD
  5
1BC
102
{ACAD_REACTORS
330
19D
102
}
330
19D
100
AcDbXrecord
1000
DSTYLE
1002
{
1070
   279
 70
     2
1070
   340
340
11
1002
}
  0
XRECORD
  5
1A7
102
{ACAD_REACTORS
330
19D
102
}
330
19D
100
AcDbXrecord
  1
{6E432AF4-E873-475D-98E6-FB5105983DF3}
  0
XRECORD
  5
1A0
102
{ACAD_REACTORS
330
19D
102
}
330
19D
100
AcDbXrecord
  1

  0
XRECORD
  5
1A5
102
{ACAD_REACTORS
330
19D
102
}
330
19D
100
AcDbXrecord
 90
        4
  0
XRECORD
  5
1A2
102
{ACAD_REACTORS
330
19D
102
}
330
19D
100
AcDbXrecord
340
1A
  0
XRECORD
  5
1A4
102
{ACAD_REACTORS
330
19D
102
}
330
19D
100
AcDbXrecord
 90
    10781
  0
XRECORD
  5
1A3
102
{ACAD_REACTORS
330
19D
102
}
330
19D
100
AcDbXrecord
340
19
  0
XRECORD
  5
1A9
102
{ACAD_REACTORS
330
19D
102
}
330
19D
100
AcDbXrecord
 40
0.0
  0
XRECORD
  5
1AC
102
{ACAD_REACTORS
330
19D
102
}
330
19D
100
AcDbXrecord
340
0
  0
XRECORD
  5
1B2
102
{ACAD_REACTORS
330
19D
102
}
330
19D
100
AcDbXrecord
 10
0.0
 20
0.0
 30
0.0
  0
XRECORD
  5
1AE
102
{ACAD_REACTORS
330
19D
102
}
330
19D
100
AcDbXrecord
 10
0.0
 20
0.0
 30
0.0
  0
XRECORD
  5
1B1
102
{ACAD_REACTORS
330
19D
102
}
330
19D
100
AcDbXrecord
 10
0.0
 20
0.0
 30
0.0
  0
XRECORD
  5
1AF
102
{ACAD_REACTORS
330
19D
102
}
330
19D
100
AcDbXrecord
 10
0.0
 20
0.0
 30
0.0
  0
XRECORD
  5
1B0
102
{ACAD_REACTORS
330
19D
102
}
330
19D
100
AcDbXrecord
 10
0.0
 20
0.0
 30
0.0
  0
XRECORD
  5
1AD
102
{ACAD_REACTORS
330
19D
102
}
330
19D
100
AcDbXrecord
 10
0.0
 20
0.0
 30
0.0
  0
XRECORD
  5
1AA
102
{ACAD_REACTORS
330
19D
102
}
330
19D
100
AcDbXrecord
340
0
  0
XRECORD
  5
1AB
102
{ACAD_REACTORS
330
19D
102
}
330
19D
100
AcDbXrecord
 70
     0
  0
XRECORD
  5
1A1
102
{ACAD_REACTORS
330
19D
102
}
330
19D
100
AcDbXrecord
  1

  0
XRECORD
  5
19E
102
{ACAD_REACTORS
330
19D
102
}
330
19D
100
AcDbXrecord
 90
        1
  0
XRECORD
  5
19F
102
{ACAD_REACTORS
330
19D
102
}
330
19D
100
AcDbXrecord
 90
       70
  0
XRECORD
  5
1B5
102
{ACAD_REACTORS
330
19D
102
}
330
19D
100
AcDbXrecord
340
0
  0
XRECORD
  5
1BB
102
{ACAD_REACTORS
330
19D
102
}
330
19D
100
AcDbXrecord
 10
0.0
 20
0.0
 30
0.0
  0
XRECORD
  5
1B7
102
{ACAD_REACTORS
330
19D
102
}
330
19D
100
AcDbXrecord
 10
0.0
 20
0.0
 30
0.0
  0
XRECORD
  5
1BA
102
{ACAD_REACTORS
330
19D
102
}
330
19D
100
AcDbXrecord
 10
0.0
 20
0.0
 30
0.0
  0
XRECORD
  5
1B8
102
{ACAD_REACTORS
330
19D
102
}
330
19D
100
AcDbXrecord
 10
0.0
 20
0.0
 30
0.0
  0
XRECORD
  5
1B9
102
{ACAD_REACTORS
330
19D
102
}
330
19D
100
AcDbXrecord
 10
0.0
 20
0.0
 30
0.0
  0
XRECORD
  5
1B6
102
{ACAD_REACTORS
330
19D
102
}
330
19D
100
AcDbXrecord
 10
0.0
 20
0.0
 30
0.0
  0
XRECORD
  5
1B3
102
{ACAD_REACTORS
330
19D
102
}
330
19D
100
AcDbXrecord
340
0
  0
XRECORD
  5
1B4
102
{ACAD_REACTORS
330
19D
102
}
330
19D
100
AcDbXrecord
 70
     0
  0
XRECORD
  5
1A8
102
{ACAD_REACTORS
330
19D
102
}
330
19D
100
AcDbXrecord
  1
{FAEB1C32-E019-11D5-929B-00C0DF256EC4}
  0
DICTIONARYVAR
  5
1C4
102
{ACAD_REACTORS
330
1BD
102
}
330
1BD
100
DictionaryVariables
280
     0
  1
1:1
  0
DICTIONARYVAR
  5
1C2
102
{ACAD_REACTORS
330
1BD
102
}
330
1BD
100
DictionaryVariables
280
     0
  1
2
  0
DICTIONARYVAR
  5
1C3
102
{ACAD_REACTORS
330
1BD
102
}
330
1BD
100
DictionaryVariables
280
     0
  1
1
  0
DICTIONARYVAR
  5
1C5
102
{ACAD_REACTORS
330
1BD
102
}
330
1BD
100
DictionaryVariables
280
     0
  1
1
  0
DICTIONARY
  5
1C8
330
45
100
AcDbDictionary
280
     1
  3
ACAD_XREC_ROUNDTRIP
360
1C9
  0
DICTIONARY
  5
1C6
330
44
100
AcDbDictionary
280
     1
  3
ACAD_XREC_ROUNDTRIP
360
1C7
  0
DICTIONARY
  5
1CA
330
46
100
AcDbDictionary
280
     1
  3
ACAD_XREC_ROUNDTRIP
360
1CB
  0
XRECORD
  5
1C9
102
{ACAD_REACTORS
330
1C8
102
}
330
1C8
100
AcDbXrecord
102
MATERIAL
148
0.0
149
0.0
149
0.0
 93
        0
 94
      127
282
     0
 72
     1
 77
     1
171
     1
175
     1
179
     1
273
     0
  0
XRECORD
  5
1C7
102
{ACAD_REACTORS
330
1C6
102
}
330
1C6
100
AcDbXrecord
102
MATERIAL
148
0.0
149
0.0
149
0.0
 93
        0
 94
      127
282
     0
 72
     1
 77
     1
171
     1
175
     1
179
     1
273
     0
  0
XRECORD
  5
1CB
102
{ACAD_REACTORS
330
1CA
102
}
330
1CA
100
AcDbXrecord
102
MATERIAL
148
0.0
149
0.0
149
0.0
 93
        0
 94
      127
282
     0
 72
     1
 77
     1
171
     1
175
     1
179
     1
273
     0
  0
ENDSEC
  0
EOF
