  0
SECTION
  2
HEADER
  9
$ACADVER
  1
AC1014
  9
$ACADMAINTVER
 70
     9
  9
$DWGCODEPAGE
  3
ANSI_1251
  9
$INSBASE
 10
0.0
 20
0.0
 30
0.0
  9
$EXTMIN
 10
-915.9598553324606
 20
-723.6857298968716
 30
0.0
  9
$EXTMAX
 10
-530.610928113792
 20
-643.2690167468099
 30
0.0
  9
$LIMMIN
 10
0.0
 20
0.0
  9
$LIMMAX
 10
12.0
 20
9.0
  9
$ORTHOMODE
 70
     0
  9
$REGENMODE
 70
     1
  9
$FILLMODE
 70
     1
  9
$QTEXTMODE
 70
     0
  9
$MIRRTEXT
 70
     1
  9
$DRAGMODE
 70
     2
  9
$LTSCALE
 40
1.0
  9
$OSMODE
 70
    37
  9
$ATTMODE
 70
     1
  9
$TEXTSIZE
 40
0.2
  9
$TRACEWID
 40
0.05
  9
$TEXTSTYLE
  7
STANDARD
  9
$CLAYER
  8
DEFAULT
  9
$CELTYPE
  6
BYLAYER
  9
$CECOLOR
 62
   256
  9
$CELTSCALE
 40
1.0
  9
$DELOBJ
 70
     1
  9
$DISPSILH
 70
     0
  9
$DIMSCALE
 40
1.0
  9
$DIMASZ
 40
0.18
  9
$DIMEXO
 40
0.0625
  9
$DIMDLI
 40
0.38
  9
$DIMRND
 40
0.0
  9
$DIMDLE
 40
0.0
  9
$DIMEXE
 40
0.18
  9
$DIMTP
 40
0.0
  9
$DIMTM
 40
0.0
  9
$DIMTXT
 40
0.18
  9
$DIMCEN
 40
0.09
  9
$DIMTSZ
 40
0.0
  9
$DIMTOL
 70
     0
  9
$DIMLIM
 70
     0
  9
$DIMTIH
 70
     1
  9
$DIMTOH
 70
     1
  9
$DIMSE1
 70
     0
  9
$DIMSE2
 70
     0
  9
$DIMTAD
 70
     0
  9
$DIMZIN
 70
     0
  9
$DIMBLK
  1

  9
$DIMASO
 70
     1
  9
$DIMSHO
 70
     1
  9
$DIMPOST
  1

  9
$DIMAPOST
  1

  9
$DIMALT
 70
     0
  9
$DIMALTD
 70
     2
  9
$DIMALTF
 40
25.4
  9
$DIMLFAC
 40
1.0
  9
$DIMTOFL
 70
     0
  9
$DIMTVP
 40
0.0
  9
$DIMTIX
 70
     0
  9
$DIMSOXD
 70
     0
  9
$DIMSAH
 70
     0
  9
$DIMBLK1
  1

  9
$DIMBLK2
  1

  9
$DIMSTYLE
  2
STANDARD
  9
$DIMCLRD
 70
     0
  9
$DIMCLRE
 70
     0
  9
$DIMCLRT
 70
     0
  9
$DIMTFAC
 40
1.0
  9
$DIMGAP
 40
0.09
  9
$DIMJUST
 70
     0
  9
$DIMSD1
 70
     0
  9
$DIMSD2
 70
     0
  9
$DIMTOLJ
 70
     1
  9
$DIMTZIN
 70
     0
  9
$DIMALTZ
 70
     0
  9
$DIMALTTZ
 70
     0
  9
$DIMFIT
 70
     5
  9
$DIMUPT
 70
     0
  9
$DIMUNIT
 70
     2
  9
$DIMDEC
 70
     4
  9
$DIMTDEC
 70
     4
  9
$DIMALTU
 70
     2
  9
$DIMALTTD
 70
     2
  9
$DIMTXSTY
  7
STANDARD
  9
$DIMAUNIT
 70
     0
  9
$LUNITS
 70
     2
  9
$LUPREC
 70
     2
  9
$SKETCHINC
 40
0.1
  9
$FILLETRAD
 40
0.5
  9
$AUNITS
 70
     0
  9
$AUPREC
 70
     0
  9
$MENU
  1
.
  9
$ELEVATION
 40
0.0
  9
$PELEVATION
 40
0.0
  9
$THICKNESS
 40
0.0
  9
$LIMCHECK
 70
     0
  9
$CHAMFERA
 40
0.0
  9
$CHAMFERB
 40
0.0
  9
$CHAMFERC
 40
0.0
  9
$CHAMFERD
 40
0.0
  9
$SKPOLY
 70
     0
  9
$TDCREATE
 40
2458893.552021759
  9
$TDUPDATE
 40
2458893.552032534
  9
$TDINDWG
 40
0.0000000116
  9
$TDUSRTIMER
 40
0.0000000116
  9
$USRTIMER
 70
     1
  9
$ANGBASE
 50
0.0
  9
$ANGDIR
 70
     0
  9
$PDMODE
 70
     0
  9
$PDSIZE
 40
0.0
  9
$PLINEWID
 40
0.0
  9
$COORDS
 70
     1
  9
$SPLFRAME
 70
     0
  9
$SPLINETYPE
 70
     6
  9
$SPLINESEGS
 70
     8
  9
$ATTDIA
 70
     0
  9
$ATTREQ
 70
     1
  9
$HANDLING
 70
     1
  9
$HANDSEED
  5
24A
  9
$SURFTAB1
 70
     6
  9
$SURFTAB2
 70
     6
  9
$SURFTYPE
 70
     6
  9
$SURFU
 70
     6
  9
$SURFV
 70
     6
  9
$UCSNAME
  2

  9
$UCSORG
 10
0.0
 20
0.0
 30
0.0
  9
$UCSXDIR
 10
1.0
 20
0.0
 30
0.0
  9
$UCSYDIR
 10
0.0
 20
1.0
 30
0.0
  9
$PUCSNAME
  2

  9
$PUCSORG
 10
0.0
 20
0.0
 30
0.0
  9
$PUCSXDIR
 10
1.0
 20
0.0
 30
0.0
  9
$PUCSYDIR
 10
0.0
 20
1.0
 30
0.0
  9
$USERI1
 70
     0
  9
$USERI2
 70
     0
  9
$USERI3
 70
     0
  9
$USERI4
 70
     0
  9
$USERI5
 70
     0
  9
$USERR1
 40
0.0
  9
$USERR2
 40
0.0
  9
$USERR3
 40
0.0
  9
$USERR4
 40
0.0
  9
$USERR5
 40
0.0
  9
$WORLDVIEW
 70
     1
  9
$SHADEDGE
 70
     3
  9
$SHADEDIF
 70
    70
  9
$TILEMODE
 70
     1
  9
$MAXACTVP
 70
    64
  9
$PINSBASE
 10
0.0
 20
0.0
 30
0.0
  9
$PLIMCHECK
 70
     0
  9
$PEXTMIN
 10
1.000000000000000E+20
 20
1.000000000000000E+20
 30
1.000000000000000E+20
  9
$PEXTMAX
 10
-1.000000000000000E+20
 20
-1.000000000000000E+20
 30
-1.000000000000000E+20
  9
$PLIMMIN
 10
0.0
 20
0.0
  9
$PLIMMAX
 10
12.0
 20
9.0
  9
$UNITMODE
 70
     0
  9
$VISRETAIN
 70
     1
  9
$PLINEGEN
 70
     0
  9
$PSLTSCALE
 70
     1
  9
$TREEDEPTH
 70
  3020
  9
$PICKSTYLE
 70
     1
  9
$CMLSTYLE
  2
STANDARD
  9
$CMLJUST
 70
     0
  9
$CMLSCALE
 40
1.0
  9
$PROXYGRAPHICS
 70
     1
  9
$MEASUREMENT
 70
     0
  0
ENDSEC
  0
SECTION
  2
CLASSES
  0
CLASS
  1
ACDBDICTIONARYWDFLT
  2
AcDbDictionaryWithDefault
  3
ObjectDBX Classes
 90
        0
280
     0
281
     0
  0
CLASS
  1
VISUALSTYLE
  2
AcDbVisualStyle
  3
ObjectDBX Classes
 90
     4095
280
     0
281
     0
  0
CLASS
  1
MATERIAL
  2
AcDbMaterial
  3
ObjectDBX Classes
 90
     1153
280
     0
281
     0
  0
CLASS
  1
SCALE
  2
AcDbScale
  3
ObjectDBX Classes
 90
     1153
280
     0
281
     0
  0
CLASS
  1
SUN
  2
AcDbSun
  3
SCENEOE
 90
     1153
280
     0
281
     0
  0
CLASS
  1
DICTIONARYVAR
  2
AcDbDictionaryVar
  3
ObjectDBX Classes
 90
        0
280
     0
281
     0
  0
CLASS
  1
XRECORD
  2
AcDbXrecord
  3
ObjectDBX Classes
 90
        0
280
     0
281
     0
  0
CLASS
  1
LWPOLYLINE
  2
AcDbPolyline
  3
ObjectDBX Classes
 90
        0
280
     0
281
     1
  0
CLASS
  1
HATCH
  2
AcDbHatch
  3
ObjectDBX Classes
 90
        0
280
     0
281
     1
  0
CLASS
  1
ACDBPLACEHOLDER
  2
AcDbPlaceHolder
  3
ObjectDBX Classes
 90
        0
280
     0
281
     0
  0
CLASS
  1
LAYOUT
  2
AcDbLayout
  3
ObjectDBX Classes
 90
        0
280
     0
281
     0
  0
ENDSEC
  0
SECTION
  2
TABLES
  0
TABLE
  2
VPORT
  5
8
330
0
100
AcDbSymbolTable
 70
     1
  0
VPORT
  5
29
330
8
100
AcDbSymbolTableRecord
100
AcDbViewportTableRecord
  2
*ACTIVE
 70
     0
 10
0.0
 20
0.0
 11
1.0
 21
1.0
 12
-723.2853917231264
 22
-683.4773733218408
 13
0.0
 23
0.0
 14
0.5
 24
0.5
 15
0.5
 25
0.5
 16
0.0
 26
0.0
 36
1.0
 17
0.0
 27
0.0
 37
0.0
 40
82.02504741306294
 41
4.791900988288189
 42
50.0
 43
0.0
 44
0.0
 50
0.0
 51
0.0
 71
     0
 72
   100
 73
     1
 74
     3
 75
     0
 76
     0
 77
     0
 78
     0
  0
ENDTAB
  0
TABLE
  2
LTYPE
  5
5
330
0
100
AcDbSymbolTable
 70
     1
  0
LTYPE
  5
14
330
5
100
AcDbSymbolTableRecord
100
AcDbLinetypeTableRecord
  2
BYBLOCK
 70
     0
  3

 72
    65
 73
     0
 40
0.0
  0
LTYPE
  5
15
330
5
100
AcDbSymbolTableRecord
100
AcDbLinetypeTableRecord
  2
BYLAYER
 70
     0
  3

 72
    65
 73
     0
 40
0.0
  0
LTYPE
  5
16
330
5
100
AcDbSymbolTableRecord
100
AcDbLinetypeTableRecord
  2
CONTINUOUS
 70
     0
  3
Solid line
 72
    65
 73
     0
 40
0.0
  0
ENDTAB
  0
TABLE
  2
LAYER
  5
2
330
0
100
AcDbSymbolTable
 70
     2
  0
LAYER
  5
10
330
2
100
AcDbSymbolTableRecord
100
AcDbLayerTableRecord
  2
0
 70
     0
 62
     7
  6
CONTINUOUS
  0
LAYER
  5
6A
330
2
100
AcDbSymbolTableRecord
100
AcDbLayerTableRecord
  2
DEFAULT
 70
     0
 62
    18
  6
CONTINUOUS
  0
ENDTAB
  0
TABLE
  2
STYLE
  5
3
330
0
100
AcDbSymbolTable
 70
     1
  0
STYLE
  5
11
330
3
100
AcDbSymbolTableRecord
100
AcDbTextStyleTableRecord
  2
STANDARD
 70
     0
 40
0.0
 41
1.0
 50
0.0
 71
     0
 42
0.2
  3
txt
  4

  0
ENDTAB
  0
TABLE
  2
VIEW
  5
6
330
0
100
AcDbSymbolTable
 70
     0
  0
ENDTAB
  0
TABLE
  2
UCS
  5
7
330
0
100
AcDbSymbolTable
 70
     0
  0
ENDTAB
  0
TABLE
  2
APPID
  5
9
330
0
100
AcDbSymbolTable
 70
     1
  0
APPID
  5
12
330
9
100
AcDbSymbolTableRecord
100
AcDbRegAppTableRecord
  2
ACAD
 70
     0
  0
ENDTAB
  0
TABLE
  2
DIMSTYLE
  5
A
330
0
100
AcDbSymbolTable
 70
     1
  0
DIMSTYLE
105
27
330
A
100
AcDbSymbolTableRecord
100
AcDbDimStyleTableRecord
  2
STANDARD
 70
     0
  3

  4

  5

  6

  7

 40
1.0
 41
0.18
 42
0.0625
 43
0.38
 44
0.18
 45
0.0
 46
0.0
 47
0.0
 48
0.0
140
0.18
141
0.09
142
0.0
143
25.4
144
1.0
145
0.0
146
1.0
147
0.09
 71
     0
 72
     0
 73
     1
 74
     1
 75
     0
 76
     0
 77
     0
 78
     0
170
     0
171
     2
172
     0
173
     0
174
     0
175
     0
176
     0
177
     0
178
     0
270
     2
271
     4
272
     4
273
     2
274
     2
340
11
275
     0
280
     0
281
     0
282
     0
283
     1
284
     0
285
     0
286
     0
287
     3
288
     0
  0
ENDTAB
  0
TABLE
  2
BLOCK_RECORD
  5
1
330
0
100
AcDbSymbolTable
 70
     1
  0
BLOCK_RECORD
  5
1F
330
1
100
AcDbSymbolTableRecord
100
AcDbBlockTableRecord
  2
*MODEL_SPACE
  0
BLOCK_RECORD
  5
1B
330
1
100
AcDbSymbolTableRecord
100
AcDbBlockTableRecord
  2
*PAPER_SPACE
  0
ENDTAB
  0
ENDSEC
  0
SECTION
  2
BLOCKS
  0
BLOCK
  5
20
330
1F
100
AcDbEntity
  8
0
100
AcDbBlockBegin
  2
*MODEL_SPACE
 70
     0
 10
0.0
 20
0.0
 30
0.0
  3
*MODEL_SPACE
  1

  0
ENDBLK
  5
21
330
1F
100
AcDbEntity
  8
0
100
AcDbBlockEnd
  0
BLOCK
  5
1C
330
1B
100
AcDbEntity
 67
     1
  8
0
100
AcDbBlockBegin
  2
*PAPER_SPACE
 70
     0
 10
0.0
 20
0.0
 30
0.0
  3
*PAPER_SPACE
  1

  0
ENDBLK
  5
1D
330
1B
100
AcDbEntity
 67
     1
  8
0
100
AcDbBlockEnd
  0
ENDSEC
  0
SECTION
  2
ENTITIES
  0
LINE
  5
6B
330
1F
100
AcDbEntity
  8
DEFAULT
100
AcDbLine
 10
-825.7322484573516
 20
-687.8994515294189
 30
0.0
 11
-831.7322484573515
 21
-687.8994515294189
 31
0.0
  0
LINE
  5
6C
330
1F
100
AcDbEntity
  8
DEFAULT
100
AcDbLine
 10
-831.7322484573515
 20
-687.8994515294189
 30
0.0
 11
-831.7322484573515
 21
-696.3847329036576
 31
0.0
  0
ARC
  5
6D
330
1F
100
AcDbEntity
  8
DEFAULT
100
AcDbCircle
 10
-828.7322484573515
 20
-687.8994515294189
 30
0.0
 40
9.0
100
AcDbArc
 50
180.0
 51
250.5287793655101
  0
LINE
  5
6E
330
1F
100
AcDbEntity
  8
DEFAULT
100
AcDbLine
 10
-837.7322484573515
 20
-687.8994515294189
 30
0.0
 11
-837.7322484573515
 21
-681.8994515294189
 31
0.0
  0
LINE
  5
6F
330
1F
100
AcDbEntity
  8
DEFAULT
100
AcDbLine
 10
-837.7322484573515
 20
-681.8994515294189
 30
0.0
 11
-819.7322484573516
 21
-681.8994515294189
 31
0.0
  0
LINE
  5
70
330
1F
100
AcDbEntity
  8
DEFAULT
100
AcDbLine
 10
-819.7322484573516
 20
-681.8994515294189
 30
0.0
 11
-819.7322484573516
 21
-687.8994515294189
 31
0.0
  0
ARC
  5
71
330
1F
100
AcDbEntity
  8
DEFAULT
100
AcDbCircle
 10
-828.7322484573515
 20
-687.8994515294189
 30
0.0
 40
9.0
100
AcDbArc
 50
289.4712206344898
 51
0.0
  0
LINE
  5
72
330
1F
100
AcDbEntity
  8
DEFAULT
100
AcDbLine
 10
-825.7322484573516
 20
-696.3847329036573
 30
0.0
 11
-825.7322484573516
 21
-687.8994515294189
 31
0.0
  0
LINE
  5
73
330
1F
100
AcDbEntity
  8
DEFAULT
100
AcDbLine
 10
-811.7322484573516
 20
-705.8994515294189
 30
0.0
 11
-805.7322484573516
 21
-705.8994515294189
 31
0.0
  0
LINE
  5
74
330
1F
100
AcDbEntity
  8
DEFAULT
100
AcDbLine
 10
-805.7322484573516
 20
-705.8994515294189
 30
0.0
 11
-805.7322484573516
 21
-711.8994515294189
 31
0.0
  0
LINE
  5
75
330
1F
100
AcDbEntity
  8
DEFAULT
100
AcDbLine
 10
-805.7322484573516
 20
-711.8994515294189
 30
0.0
 11
-802.7322484573516
 21
-711.8994515294189
 31
0.0
  0
LINE
  5
76
330
1F
100
AcDbEntity
  8
DEFAULT
100
AcDbLine
 10
-802.7322484573516
 20
-711.8994515294189
 30
0.0
 11
-795.5046415822426
 21
-714.8994515294189
 31
0.0
  0
LINE
  5
77
330
1F
100
AcDbEntity
  8
DEFAULT
100
AcDbLine
 10
-795.5046415822426
 20
-714.8994515294189
 30
0.0
 11
-795.5046415822426
 21
-720.809879029855
 31
0.0
  0
LINE
  5
78
330
1F
100
AcDbEntity
  8
DEFAULT
100
AcDbLine
 10
-795.5046415822426
 20
-720.809879029855
 30
0.0
 11
-799.2322484573516
 21
-720.809879029855
 31
0.0
  0
LINE
  5
79
330
1F
100
AcDbEntity
  8
DEFAULT
100
AcDbLine
 10
-799.2322484573516
 20
-720.809879029855
 30
0.0
 11
-799.7322484573516
 21
-717.8994515294189
 31
0.0
  0
LINE
  5
7A
330
1F
100
AcDbEntity
  8
DEFAULT
100
AcDbLine
 10
-799.7322484573516
 20
-717.8994515294189
 30
0.0
 11
-805.7322484573516
 21
-717.8994515294189
 31
0.0
  0
LINE
  5
7B
330
1F
100
AcDbEntity
  8
DEFAULT
100
AcDbLine
 10
-805.7322484573516
 20
-717.8994515294189
 30
0.0
 11
-811.7322484573516
 21
-717.8994515294189
 31
0.0
  0
LINE
  5
7C
330
1F
100
AcDbEntity
  8
DEFAULT
100
AcDbLine
 10
-811.7322484573516
 20
-717.8994515294189
 30
0.0
 11
-815.7322484573516
 21
-717.8994515294189
 31
0.0
  0
LINE
  5
7D
330
1F
100
AcDbEntity
  8
DEFAULT
100
AcDbLine
 10
-815.7322484573516
 20
-717.8994515294189
 30
0.0
 11
-844.7322484573515
 21
-717.8994515294189
 31
0.0
  0
LINE
  5
7E
330
1F
100
AcDbEntity
  8
DEFAULT
100
AcDbLine
 10
-844.7322484573515
 20
-717.8994515294189
 30
0.0
 11
-865.7322484573515
 21
-717.8994515294189
 31
0.0
  0
ARC
  5
7F
330
1F
100
AcDbEntity
  8
DEFAULT
100
AcDbCircle
 10
-868.7322484573515
 20
-717.8994515294189
 30
0.0
 40
3.0
100
AcDbArc
 50
180.0
 51
0.0
  0
LINE
  5
80
330
1F
100
AcDbEntity
  8
DEFAULT
100
AcDbLine
 10
-871.7322484573515
 20
-717.8994515294189
 30
0.0
 11
-871.7322484573515
 21
-711.8994515294189
 31
0.0
  0
LINE
  5
81
330
1F
100
AcDbEntity
  8
DEFAULT
100
AcDbLine
 10
-871.7322484573515
 20
-711.8994515294189
 30
0.0
 11
-871.7322484573515
 21
-707.8994515294189
 31
0.0
  0
ARC
  5
82
330
1F
100
AcDbEntity
  8
DEFAULT
100
AcDbCircle
 10
-868.7322484573515
 20
-707.8994515294189
 30
0.0
 40
3.0
100
AcDbArc
 50
90.0
 51
180.0
  0
LINE
  5
83
330
1F
100
AcDbEntity
  8
DEFAULT
100
AcDbLine
 10
-868.7322484573515
 20
-704.8994515294189
 30
0.0
 11
-866.7322484573515
 21
-704.8994515294189
 31
0.0
  0
LINE
  5
84
330
1F
100
AcDbEntity
  8
DEFAULT
100
AcDbLine
 10
-866.7322484573515
 20
-704.8994515294189
 30
0.0
 11
-845.7322484573515
 21
-704.8994515294189
 31
0.0
  0
ARC
  5
85
330
1F
100
AcDbEntity
  8
DEFAULT
100
AcDbCircle
 10
-845.7322484573515
 20
-668.2690167468099
 30
0.0
 40
36.63043478260886
100
AcDbArc
 50
270.0
 51
335.188267532979
  0
ARC
  5
86
330
1F
100
AcDbEntity
  8
DEFAULT
100
AcDbCircle
 10
-809.7600369601415
 20
-684.8994515294189
 30
0.0
 40
3.0
100
AcDbArc
 50
90.0
 51
155.1882675329827
  0
LINE
  5
87
330
1F
100
AcDbEntity
  8
DEFAULT
100
AcDbLine
 10
-809.7600369601415
 20
-681.8994515294189
 30
0.0
 11
-805.7322484573516
 21
-681.8994515294189
 31
0.0
  0
LINE
  5
88
330
1F
100
AcDbEntity
  8
DEFAULT
100
AcDbLine
 10
-805.7322484573516
 20
-681.8994515294189
 30
0.0
 11
-799.7322484573516
 21
-681.8994515294189
 31
0.0
  0
LINE
  5
89
330
1F
100
AcDbEntity
  8
DEFAULT
100
AcDbLine
 10
-799.7322484573516
 20
-681.8994515294189
 30
0.0
 11
-799.7322484573516
 21
-684.8994515294189
 31
0.0
  0
LINE
  5
8A
330
1F
100
AcDbEntity
  8
DEFAULT
100
AcDbLine
 10
-799.7322484573516
 20
-684.8994515294189
 30
0.0
 11
-802.7322484573516
 21
-687.8994515294189
 31
0.0
  0
LINE
  5
8B
330
1F
100
AcDbEntity
  8
DEFAULT
100
AcDbLine
 10
-802.7322484573516
 20
-687.8994515294189
 30
0.0
 11
-805.7322484573516
 21
-687.8994515294189
 31
0.0
  0
LINE
  5
8C
330
1F
100
AcDbEntity
  8
DEFAULT
100
AcDbLine
 10
-805.7322484573516
 20
-687.8994515294189
 30
0.0
 11
-805.7322484573516
 21
-699.8994515294194
 31
0.0
  0
LINE
  5
8D
330
1F
100
AcDbEntity
  8
DEFAULT
100
AcDbLine
 10
-805.7322484573516
 20
-699.8994515294189
 30
0.0
 11
-811.7322484573516
 21
-699.8994515294189
 31
0.0
  0
LINE
  5
8E
330
1F
100
AcDbEntity
  8
DEFAULT
100
AcDbLine
 10
-811.7322484573516
 20
-699.8994515294189
 30
0.0
 11
-811.7322484573516
 21
-705.8994515294189
 31
0.0
  0
LINE
  5
8F
330
1F
100
AcDbEntity
  8
DEFAULT
100
AcDbLine
 10
-885.7322484573515
 20
-714.2690167468099
 30
0.0
 11
-879.7322484573515
 21
-714.2690167468099
 31
0.0
  0
LINE
  5
90
330
1F
100
AcDbEntity
  8
DEFAULT
100
AcDbLine
 10
-879.7322484573515
 20
-714.2690167468099
 30
0.0
 11
-879.7322484573517
 21
-705.7837353725713
 31
0.0
  0
ARC
  5
91
330
1F
100
AcDbEntity
  8
DEFAULT
100
AcDbCircle
 10
-882.7322484573515
 20
-714.2690167468099
 30
0.0
 40
9.0
100
AcDbArc
 50
0.0
 51
70.52877936551015
  0
LINE
  5
92
330
1F
100
AcDbEntity
  8
DEFAULT
100
AcDbLine
 10
-873.7322484573515
 20
-714.2690167468099
 30
0.0
 11
-873.7322484573515
 21
-720.2690167468099
 31
0.0
  0
LINE
  5
93
330
1F
100
AcDbEntity
  8
DEFAULT
100
AcDbLine
 10
-873.7322484573515
 20
-720.2690167468099
 30
0.0
 11
-891.7322484573515
 21
-720.2690167468099
 31
0.0
  0
LINE
  5
94
330
1F
100
AcDbEntity
  8
DEFAULT
100
AcDbLine
 10
-891.7322484573515
 20
-720.2690167468099
 30
0.0
 11
-891.7322484573515
 21
-714.2690167468099
 31
0.0
  0
ARC
  5
95
330
1F
100
AcDbEntity
  8
DEFAULT
100
AcDbCircle
 10
-882.7322484573515
 20
-714.2690167468099
 30
0.0
 40
9.0
100
AcDbArc
 50
109.4712206344899
 51
180.0
  0
LINE
  5
96
330
1F
100
AcDbEntity
  8
DEFAULT
100
AcDbLine
 10
-885.7322484573515
 20
-705.7837353725715
 30
0.0
 11
-885.7322484573515
 21
-714.2690167468099
 31
0.0
  0
LINE
  5
97
330
1F
100
AcDbEntity
  8
DEFAULT
100
AcDbLine
 10
-899.7322484573515
 20
-696.2690167468099
 30
0.0
 11
-905.7322484573515
 21
-696.2690167468099
 31
0.0
  0
LINE
  5
98
330
1F
100
AcDbEntity
  8
DEFAULT
100
AcDbLine
 10
-905.7322484573515
 20
-696.2690167468099
 30
0.0
 11
-905.7322484573515
 21
-690.2690167468099
 31
0.0
  0
LINE
  5
99
330
1F
100
AcDbEntity
  8
DEFAULT
100
AcDbLine
 10
-905.7322484573515
 20
-690.2690167468099
 30
0.0
 11
-908.7322484573515
 21
-690.2690167468099
 31
0.0
  0
LINE
  5
9A
330
1F
100
AcDbEntity
  8
DEFAULT
100
AcDbLine
 10
-908.7322484573515
 20
-690.2690167468099
 30
0.0
 11
-915.9598553324606
 21
-687.2690167468099
 31
0.0
  0
LINE
  5
9B
330
1F
100
AcDbEntity
  8
DEFAULT
100
AcDbLine
 10
-915.9598553324606
 20
-687.2690167468099
 30
0.0
 11
-915.9598553324606
 21
-681.3585892463739
 31
0.0
  0
LINE
  5
9C
330
1F
100
AcDbEntity
  8
DEFAULT
100
AcDbLine
 10
-915.9598553324606
 20
-681.3585892463739
 30
0.0
 11
-912.2322484573515
 21
-681.3585892463739
 31
0.0
  0
LINE
  5
9D
330
1F
100
AcDbEntity
  8
DEFAULT
100
AcDbLine
 10
-912.2322484573515
 20
-681.3585892463739
 30
0.0
 11
-911.7322484573515
 21
-684.2690167468099
 31
0.0
  0
LINE
  5
9E
330
1F
100
AcDbEntity
  8
DEFAULT
100
AcDbLine
 10
-911.7322484573515
 20
-684.2690167468099
 30
0.0
 11
-905.7322484573515
 21
-684.2690167468099
 31
0.0
  0
LINE
  5
9F
330
1F
100
AcDbEntity
  8
DEFAULT
100
AcDbLine
 10
-905.7322484573515
 20
-684.2690167468099
 30
0.0
 11
-899.7322484573515
 21
-684.2690167468099
 31
0.0
  0
LINE
  5
A0
330
1F
100
AcDbEntity
  8
DEFAULT
100
AcDbLine
 10
-899.7322484573515
 20
-684.2690167468099
 30
0.0
 11
-895.7322484573515
 21
-684.2690167468099
 31
0.0
  0
LINE
  5
A1
330
1F
100
AcDbEntity
  8
DEFAULT
100
AcDbLine
 10
-895.7322484573515
 20
-684.2690167468099
 30
0.0
 11
-866.7322484573515
 21
-684.2690167468099
 31
0.0
  0
LINE
  5
A2
330
1F
100
AcDbEntity
  8
DEFAULT
100
AcDbLine
 10
-866.7322484573515
 20
-684.2690167468099
 30
0.0
 11
-845.7322484573515
 21
-684.2690167468099
 31
0.0
  0
ARC
  5
A3
330
1F
100
AcDbEntity
  8
DEFAULT
100
AcDbCircle
 10
-842.7322484573515
 20
-684.2690167468099
 30
0.0
 40
3.0
100
AcDbArc
 50
0.0
 51
180.0
  0
LINE
  5
A4
330
1F
100
AcDbEntity
  8
DEFAULT
100
AcDbLine
 10
-839.7322484573515
 20
-684.2690167468099
 30
0.0
 11
-839.7322484573515
 21
-690.2690167468099
 31
0.0
  0
LINE
  5
A5
330
1F
100
AcDbEntity
  8
DEFAULT
100
AcDbLine
 10
-839.7322484573515
 20
-690.2690167468099
 30
0.0
 11
-839.7322484573515
 21
-694.2690167468099
 31
0.0
  0
ARC
  5
A6
330
1F
100
AcDbEntity
  8
DEFAULT
100
AcDbCircle
 10
-842.7322484573515
 20
-694.2690167468099
 30
0.0
 40
3.0
100
AcDbArc
 50
270.0
 51
0.0
  0
LINE
  5
A7
330
1F
100
AcDbEntity
  8
DEFAULT
100
AcDbLine
 10
-842.7322484573515
 20
-697.2690167468099
 30
0.0
 11
-844.7322484573515
 21
-697.2690167468099
 31
0.0
  0
LINE
  5
A8
330
1F
100
AcDbEntity
  8
DEFAULT
100
AcDbLine
 10
-844.7322484573515
 20
-697.2690167468099
 30
0.0
 11
-865.7322484573515
 21
-697.2690167468099
 31
0.0
  0
ARC
  5
A9
330
1F
100
AcDbEntity
  8
DEFAULT
100
AcDbCircle
 10
-865.7322484573515
 20
-733.8994515294189
 30
0.0
 40
36.63043478260886
100
AcDbArc
 50
90.0
 51
155.188267532979
  0
ARC
  5
AA
330
1F
100
AcDbEntity
  8
DEFAULT
100
AcDbCircle
 10
-901.7044599545616
 20
-717.2690167468099
 30
0.0
 40
3.0
100
AcDbArc
 50
270.0
 51
335.1882675329827
  0
LINE
  5
AB
330
1F
100
AcDbEntity
  8
DEFAULT
100
AcDbLine
 10
-901.7044599545616
 20
-720.2690167468099
 30
0.0
 11
-905.7322484573515
 21
-720.2690167468099
 31
0.0
  0
LINE
  5
AC
330
1F
100
AcDbEntity
  8
DEFAULT
100
AcDbLine
 10
-905.7322484573515
 20
-720.2690167468099
 30
0.0
 11
-911.7322484573515
 21
-720.2690167468099
 31
0.0
  0
LINE
  5
AD
330
1F
100
AcDbEntity
  8
DEFAULT
100
AcDbLine
 10
-911.7322484573515
 20
-720.2690167468099
 30
0.0
 11
-911.7322484573515
 21
-717.2690167468099
 31
0.0
  0
LINE
  5
AE
330
1F
100
AcDbEntity
  8
DEFAULT
100
AcDbLine
 10
-911.7322484573515
 20
-717.2690167468099
 30
0.0
 11
-908.7322484573515
 21
-714.2690167468099
 31
0.0
  0
LINE
  5
AF
330
1F
100
AcDbEntity
  8
DEFAULT
100
AcDbLine
 10
-908.7322484573515
 20
-714.2690167468099
 30
0.0
 11
-905.7322484573515
 21
-714.2690167468099
 31
0.0
  0
LINE
  5
B0
330
1F
100
AcDbEntity
  8
DEFAULT
100
AcDbLine
 10
-905.7322484573515
 20
-714.2690167468099
 30
0.0
 11
-905.7322484573515
 21
-702.2690167468095
 31
0.0
  0
LINE
  5
B1
330
1F
100
AcDbEntity
  8
DEFAULT
100
AcDbLine
 10
-905.7322484573515
 20
-702.2690167468099
 30
0.0
 11
-899.7322484573515
 21
-702.2690167468099
 31
0.0
  0
LINE
  5
B2
330
1F
100
AcDbEntity
  8
DEFAULT
100
AcDbLine
 10
-899.7322484573515
 20
-702.2690167468099
 30
0.0
 11
-899.7322484573515
 21
-696.2690167468099
 31
0.0
  0
LINE
  5
B3
330
1F
100
AcDbEntity
  8
DEFAULT
100
AcDbLine
 10
-898.7322484573515
 20
-658.2690167468099
 30
0.0
 11
-904.7322484573515
 21
-658.2690167468099
 31
0.0
  0
LINE
  5
B4
330
1F
100
AcDbEntity
  8
DEFAULT
100
AcDbLine
 10
-904.7322484573515
 20
-658.2690167468099
 30
0.0
 11
-904.7322484573515
 21
-652.2690167468099
 31
0.0
  0
LINE
  5
B5
330
1F
100
AcDbEntity
  8
DEFAULT
100
AcDbLine
 10
-904.7322484573515
 20
-652.2690167468099
 30
0.0
 11
-907.7322484573515
 21
-652.2690167468099
 31
0.0
  0
LINE
  5
B6
330
1F
100
AcDbEntity
  8
DEFAULT
100
AcDbLine
 10
-907.7322484573515
 20
-652.2690167468099
 30
0.0
 11
-914.9598553324606
 21
-649.2690167468099
 31
0.0
  0
LINE
  5
B7
330
1F
100
AcDbEntity
  8
DEFAULT
100
AcDbLine
 10
-914.9598553324606
 20
-649.2690167468099
 30
0.0
 11
-914.9598553324606
 21
-643.3585892463739
 31
0.0
  0
LINE
  5
B8
330
1F
100
AcDbEntity
  8
DEFAULT
100
AcDbLine
 10
-914.9598553324606
 20
-643.3585892463739
 30
0.0
 11
-911.2322484573515
 21
-643.3585892463739
 31
0.0
  0
LINE
  5
B9
330
1F
100
AcDbEntity
  8
DEFAULT
100
AcDbLine
 10
-911.2322484573515
 20
-643.3585892463739
 30
0.0
 11
-910.7322484573515
 21
-646.2690167468099
 31
0.0
  0
LINE
  5
BA
330
1F
100
AcDbEntity
  8
DEFAULT
100
AcDbLine
 10
-910.7322484573515
 20
-646.2690167468099
 30
0.0
 11
-904.7322484573515
 21
-646.2690167468099
 31
0.0
  0
LINE
  5
BB
330
1F
100
AcDbEntity
  8
DEFAULT
100
AcDbLine
 10
-904.7322484573515
 20
-646.2690167468099
 30
0.0
 11
-898.7322484573515
 21
-646.2690167468099
 31
0.0
  0
LINE
  5
BC
330
1F
100
AcDbEntity
  8
DEFAULT
100
AcDbLine
 10
-898.7322484573515
 20
-646.2690167468099
 30
0.0
 11
-894.7322484573515
 21
-646.2690167468099
 31
0.0
  0
LINE
  5
BD
330
1F
100
AcDbEntity
  8
DEFAULT
100
AcDbLine
 10
-894.7322484573515
 20
-646.2690167468099
 30
0.0
 11
-865.7322484573515
 21
-646.2690167468099
 31
0.0
  0
LINE
  5
BE
330
1F
100
AcDbEntity
  8
DEFAULT
100
AcDbLine
 10
-865.7322484573515
 20
-646.2690167468099
 30
0.0
 11
-844.7322484573515
 21
-646.2690167468099
 31
0.0
  0
ARC
  5
BF
330
1F
100
AcDbEntity
  8
DEFAULT
100
AcDbCircle
 10
-841.7322484573515
 20
-646.2690167468099
 30
0.0
 40
3.0
100
AcDbArc
 50
0.0
 51
180.0
  0
LINE
  5
C0
330
1F
100
AcDbEntity
  8
DEFAULT
100
AcDbLine
 10
-838.7322484573515
 20
-646.2690167468099
 30
0.0
 11
-838.7322484573515
 21
-652.2690167468099
 31
0.0
  0
LINE
  5
C1
330
1F
100
AcDbEntity
  8
DEFAULT
100
AcDbLine
 10
-838.7322484573515
 20
-652.2690167468099
 30
0.0
 11
-838.7322484573515
 21
-656.2690167468099
 31
0.0
  0
ARC
  5
C2
330
1F
100
AcDbEntity
  8
DEFAULT
100
AcDbCircle
 10
-841.7322484573515
 20
-656.2690167468099
 30
0.0
 40
3.0
100
AcDbArc
 50
270.0
 51
0.0
  0
LINE
  5
C3
330
1F
100
AcDbEntity
  8
DEFAULT
100
AcDbLine
 10
-841.7322484573515
 20
-659.2690167468099
 30
0.0
 11
-843.7322484573515
 21
-659.2690167468099
 31
0.0
  0
LINE
  5
C4
330
1F
100
AcDbEntity
  8
DEFAULT
100
AcDbLine
 10
-843.7322484573515
 20
-659.2690167468099
 30
0.0
 11
-864.7322484573515
 21
-659.2690167468099
 31
0.0
  0
ARC
  5
C5
330
1F
100
AcDbEntity
  8
DEFAULT
100
AcDbCircle
 10
-864.7322484573515
 20
-695.8994515294189
 30
0.0
 40
36.63043478260886
100
AcDbArc
 50
90.0
 51
155.188267532979
  0
ARC
  5
C6
330
1F
100
AcDbEntity
  8
DEFAULT
100
AcDbCircle
 10
-900.7044599545616
 20
-679.2690167468099
 30
0.0
 40
3.0
100
AcDbArc
 50
270.0
 51
335.1882675329827
  0
LINE
  5
C7
330
1F
100
AcDbEntity
  8
DEFAULT
100
AcDbLine
 10
-900.7044599545616
 20
-682.2690167468099
 30
0.0
 11
-904.7322484573515
 21
-682.2690167468099
 31
0.0
  0
LINE
  5
C8
330
1F
100
AcDbEntity
  8
DEFAULT
100
AcDbLine
 10
-904.7322484573515
 20
-682.2690167468099
 30
0.0
 11
-910.7322484573515
 21
-682.2690167468099
 31
0.0
  0
LINE
  5
C9
330
1F
100
AcDbEntity
  8
DEFAULT
100
AcDbLine
 10
-910.7322484573515
 20
-682.2690167468099
 30
0.0
 11
-910.7322484573515
 21
-679.2690167468099
 31
0.0
  0
LINE
  5
CA
330
1F
100
AcDbEntity
  8
DEFAULT
100
AcDbLine
 10
-910.7322484573515
 20
-679.2690167468099
 30
0.0
 11
-907.7322484573515
 21
-676.2690167468099
 31
0.0
  0
LINE
  5
CB
330
1F
100
AcDbEntity
  8
DEFAULT
100
AcDbLine
 10
-907.7322484573515
 20
-676.2690167468099
 30
0.0
 11
-904.7322484573515
 21
-676.2690167468099
 31
0.0
  0
LINE
  5
CC
330
1F
100
AcDbEntity
  8
DEFAULT
100
AcDbLine
 10
-904.7322484573515
 20
-676.2690167468099
 30
0.0
 11
-904.7322484573515
 21
-664.2690167468095
 31
0.0
  0
LINE
  5
CD
330
1F
100
AcDbEntity
  8
DEFAULT
100
AcDbLine
 10
-904.7322484573515
 20
-664.2690167468099
 30
0.0
 11
-898.7322484573515
 21
-664.2690167468099
 31
0.0
  0
LINE
  5
CE
330
1F
100
AcDbEntity
  8
DEFAULT
100
AcDbLine
 10
-898.7322484573515
 20
-664.2690167468099
 30
0.0
 11
-898.7322484573515
 21
-658.2690167468099
 31
0.0
  0
LINE
  5
CF
330
1F
100
AcDbEntity
  8
DEFAULT
100
AcDbLine
 10
-884.7322484573515
 20
-676.2690167468099
 30
0.0
 11
-878.7322484573515
 21
-676.2690167468099
 31
0.0
  0
LINE
  5
D0
330
1F
100
AcDbEntity
  8
DEFAULT
100
AcDbLine
 10
-878.7322484573515
 20
-676.2690167468099
 30
0.0
 11
-878.7322484573517
 21
-667.7837353725713
 31
0.0
  0
ARC
  5
D1
330
1F
100
AcDbEntity
  8
DEFAULT
100
AcDbCircle
 10
-881.7322484573515
 20
-676.2690167468099
 30
0.0
 40
9.0
100
AcDbArc
 50
0.0
 51
70.52877936551015
  0
LINE
  5
D2
330
1F
100
AcDbEntity
  8
DEFAULT
100
AcDbLine
 10
-872.7322484573515
 20
-676.2690167468099
 30
0.0
 11
-872.7322484573515
 21
-682.2690167468099
 31
0.0
  0
LINE
  5
D3
330
1F
100
AcDbEntity
  8
DEFAULT
100
AcDbLine
 10
-872.7322484573515
 20
-682.2690167468099
 30
0.0
 11
-890.7322484573515
 21
-682.2690167468099
 31
0.0
  0
LINE
  5
D4
330
1F
100
AcDbEntity
  8
DEFAULT
100
AcDbLine
 10
-890.7322484573515
 20
-682.2690167468099
 30
0.0
 11
-890.7322484573515
 21
-676.2690167468099
 31
0.0
  0
ARC
  5
D5
330
1F
100
AcDbEntity
  8
DEFAULT
100
AcDbCircle
 10
-881.7322484573515
 20
-676.2690167468099
 30
0.0
 40
9.0
100
AcDbArc
 50
109.4712206344899
 51
180.0
  0
LINE
  5
D6
330
1F
100
AcDbEntity
  8
DEFAULT
100
AcDbLine
 10
-884.7322484573515
 20
-667.7837353725715
 30
0.0
 11
-884.7322484573515
 21
-676.2690167468099
 31
0.0
  0
LINE
  5
D7
330
1F
100
AcDbEntity
  8
DEFAULT
100
AcDbLine
 10
-810.7322484573516
 20
-667.8994515294189
 30
0.0
 11
-804.7322484573516
 21
-667.8994515294189
 31
0.0
  0
LINE
  5
D8
330
1F
100
AcDbEntity
  8
DEFAULT
100
AcDbLine
 10
-804.7322484573516
 20
-667.8994515294189
 30
0.0
 11
-804.7322484573516
 21
-673.8994515294189
 31
0.0
  0
LINE
  5
D9
330
1F
100
AcDbEntity
  8
DEFAULT
100
AcDbLine
 10
-804.7322484573516
 20
-673.8994515294189
 30
0.0
 11
-801.7322484573516
 21
-673.8994515294189
 31
0.0
  0
LINE
  5
DA
330
1F
100
AcDbEntity
  8
DEFAULT
100
AcDbLine
 10
-801.7322484573516
 20
-673.8994515294189
 30
0.0
 11
-794.5046415822426
 21
-676.8994515294189
 31
0.0
  0
LINE
  5
DB
330
1F
100
AcDbEntity
  8
DEFAULT
100
AcDbLine
 10
-794.5046415822426
 20
-676.8994515294189
 30
0.0
 11
-794.5046415822426
 21
-682.809879029855
 31
0.0
  0
LINE
  5
DC
330
1F
100
AcDbEntity
  8
DEFAULT
100
AcDbLine
 10
-794.5046415822426
 20
-682.809879029855
 30
0.0
 11
-798.2322484573516
 21
-682.809879029855
 31
0.0
  0
LINE
  5
DD
330
1F
100
AcDbEntity
  8
DEFAULT
100
AcDbLine
 10
-798.2322484573516
 20
-682.809879029855
 30
0.0
 11
-798.7322484573516
 21
-679.8994515294189
 31
0.0
  0
LINE
  5
DE
330
1F
100
AcDbEntity
  8
DEFAULT
100
AcDbLine
 10
-798.7322484573516
 20
-679.8994515294189
 30
0.0
 11
-804.7322484573516
 21
-679.8994515294189
 31
0.0
  0
LINE
  5
DF
330
1F
100
AcDbEntity
  8
DEFAULT
100
AcDbLine
 10
-804.7322484573516
 20
-679.8994515294189
 30
0.0
 11
-810.7322484573516
 21
-679.8994515294189
 31
0.0
  0
LINE
  5
E0
330
1F
100
AcDbEntity
  8
DEFAULT
100
AcDbLine
 10
-810.7322484573516
 20
-679.8994515294189
 30
0.0
 11
-814.7322484573516
 21
-679.8994515294189
 31
0.0
  0
LINE
  5
E1
330
1F
100
AcDbEntity
  8
DEFAULT
100
AcDbLine
 10
-814.7322484573516
 20
-679.8994515294189
 30
0.0
 11
-843.7322484573515
 21
-679.8994515294189
 31
0.0
  0
LINE
  5
E2
330
1F
100
AcDbEntity
  8
DEFAULT
100
AcDbLine
 10
-843.7322484573515
 20
-679.8994515294189
 30
0.0
 11
-864.7322484573515
 21
-679.8994515294189
 31
0.0
  0
ARC
  5
E3
330
1F
100
AcDbEntity
  8
DEFAULT
100
AcDbCircle
 10
-867.7322484573515
 20
-679.8994515294189
 30
0.0
 40
3.0
100
AcDbArc
 50
180.0
 51
0.0
  0
LINE
  5
E4
330
1F
100
AcDbEntity
  8
DEFAULT
100
AcDbLine
 10
-870.7322484573515
 20
-679.8994515294189
 30
0.0
 11
-870.7322484573515
 21
-673.8994515294189
 31
0.0
  0
LINE
  5
E5
330
1F
100
AcDbEntity
  8
DEFAULT
100
AcDbLine
 10
-870.7322484573515
 20
-673.8994515294189
 30
0.0
 11
-870.7322484573515
 21
-669.8994515294189
 31
0.0
  0
ARC
  5
E6
330
1F
100
AcDbEntity
  8
DEFAULT
100
AcDbCircle
 10
-867.7322484573515
 20
-669.8994515294189
 30
0.0
 40
3.0
100
AcDbArc
 50
90.0
 51
180.0
  0
LINE
  5
E7
330
1F
100
AcDbEntity
  8
DEFAULT
100
AcDbLine
 10
-867.7322484573515
 20
-666.8994515294189
 30
0.0
 11
-865.7322484573515
 21
-666.8994515294189
 31
0.0
  0
LINE
  5
E8
330
1F
100
AcDbEntity
  8
DEFAULT
100
AcDbLine
 10
-865.7322484573515
 20
-666.8994515294189
 30
0.0
 11
-844.7322484573515
 21
-666.8994515294189
 31
0.0
  0
ARC
  5
E9
330
1F
100
AcDbEntity
  8
DEFAULT
100
AcDbCircle
 10
-844.7322484573515
 20
-630.2690167468099
 30
0.0
 40
36.63043478260886
100
AcDbArc
 50
270.0
 51
335.188267532979
  0
ARC
  5
EA
330
1F
100
AcDbEntity
  8
DEFAULT
100
AcDbCircle
 10
-808.7600369601415
 20
-646.8994515294189
 30
0.0
 40
3.0
100
AcDbArc
 50
90.0
 51
155.1882675329827
  0
LINE
  5
EB
330
1F
100
AcDbEntity
  8
DEFAULT
100
AcDbLine
 10
-808.7600369601415
 20
-643.8994515294189
 30
0.0
 11
-804.7322484573516
 21
-643.8994515294189
 31
0.0
  0
LINE
  5
EC
330
1F
100
AcDbEntity
  8
DEFAULT
100
AcDbLine
 10
-804.7322484573516
 20
-643.8994515294189
 30
0.0
 11
-798.7322484573516
 21
-643.8994515294189
 31
0.0
  0
LINE
  5
ED
330
1F
100
AcDbEntity
  8
DEFAULT
100
AcDbLine
 10
-798.7322484573516
 20
-643.8994515294189
 30
0.0
 11
-798.7322484573516
 21
-646.8994515294189
 31
0.0
  0
LINE
  5
EE
330
1F
100
AcDbEntity
  8
DEFAULT
100
AcDbLine
 10
-798.7322484573516
 20
-646.8994515294189
 30
0.0
 11
-801.7322484573516
 21
-649.8994515294189
 31
0.0
  0
LINE
  5
EF
330
1F
100
AcDbEntity
  8
DEFAULT
100
AcDbLine
 10
-801.7322484573516
 20
-649.8994515294189
 30
0.0
 11
-804.7322484573516
 21
-649.8994515294189
 31
0.0
  0
LINE
  5
F0
330
1F
100
AcDbEntity
  8
DEFAULT
100
AcDbLine
 10
-804.7322484573516
 20
-649.8994515294189
 30
0.0
 11
-804.7322484573516
 21
-661.8994515294194
 31
0.0
  0
LINE
  5
F1
330
1F
100
AcDbEntity
  8
DEFAULT
100
AcDbLine
 10
-804.7322484573516
 20
-661.8994515294189
 30
0.0
 11
-810.7322484573516
 21
-661.8994515294189
 31
0.0
  0
LINE
  5
F2
330
1F
100
AcDbEntity
  8
DEFAULT
100
AcDbLine
 10
-810.7322484573516
 20
-661.8994515294189
 30
0.0
 11
-810.7322484573516
 21
-667.8994515294189
 31
0.0
  0
LINE
  5
F3
330
1F
100
AcDbEntity
  8
DEFAULT
100
AcDbLine
 10
-824.7322484573516
 20
-649.8994515294189
 30
0.0
 11
-830.7322484573515
 21
-649.8994515294189
 31
0.0
  0
LINE
  5
F4
330
1F
100
AcDbEntity
  8
DEFAULT
100
AcDbLine
 10
-830.7322484573515
 20
-649.8994515294189
 30
0.0
 11
-830.7322484573515
 21
-658.3847329036576
 31
0.0
  0
ARC
  5
F5
330
1F
100
AcDbEntity
  8
DEFAULT
100
AcDbCircle
 10
-827.7322484573515
 20
-649.8994515294189
 30
0.0
 40
9.0
100
AcDbArc
 50
180.0
 51
250.5287793655101
  0
LINE
  5
F6
330
1F
100
AcDbEntity
  8
DEFAULT
100
AcDbLine
 10
-836.7322484573515
 20
-649.8994515294189
 30
0.0
 11
-836.7322484573515
 21
-643.8994515294189
 31
0.0
  0
LINE
  5
F7
330
1F
100
AcDbEntity
  8
DEFAULT
100
AcDbLine
 10
-836.7322484573515
 20
-643.8994515294189
 30
0.0
 11
-818.7322484573516
 21
-643.8994515294189
 31
0.0
  0
LINE
  5
F8
330
1F
100
AcDbEntity
  8
DEFAULT
100
AcDbLine
 10
-818.7322484573516
 20
-643.8994515294189
 30
0.0
 11
-818.7322484573516
 21
-649.8994515294189
 31
0.0
  0
ARC
  5
F9
330
1F
100
AcDbEntity
  8
DEFAULT
100
AcDbCircle
 10
-827.7322484573515
 20
-649.8994515294189
 30
0.0
 40
9.0
100
AcDbArc
 50
289.4712206344898
 51
0.0
  0
LINE
  5
FA
330
1F
100
AcDbEntity
  8
DEFAULT
100
AcDbLine
 10
-824.7322484573516
 20
-658.3847329036573
 30
0.0
 11
-824.7322484573516
 21
-649.8994515294189
 31
0.0
  0
LINE
  5
FB
330
1F
100
AcDbEntity
  8
DEFAULT
100
AcDbLine
 10
-754.7322484573515
 20
-714.2690167468099
 30
0.0
 11
-748.7322484573515
 21
-714.2690167468099
 31
0.0
  0
LINE
  5
FC
330
1F
100
AcDbEntity
  8
DEFAULT
100
AcDbLine
 10
-748.7322484573515
 20
-714.2690167468099
 30
0.0
 11
-748.7322484573516
 21
-705.7837353725713
 31
0.0
  0
ARC
  5
FD
330
1F
100
AcDbEntity
  8
DEFAULT
100
AcDbCircle
 10
-751.7322484573515
 20
-714.2690167468099
 30
0.0
 40
9.0
100
AcDbArc
 50
0.0
 51
70.52877936551015
  0
LINE
  5
FE
330
1F
100
AcDbEntity
  8
DEFAULT
100
AcDbLine
 10
-742.7322484573515
 20
-714.2690167468099
 30
0.0
 11
-742.7322484573515
 21
-720.2690167468099
 31
0.0
  0
LINE
  5
FF
330
1F
100
AcDbEntity
  8
DEFAULT
100
AcDbLine
 10
-742.7322484573515
 20
-720.2690167468099
 30
0.0
 11
-760.7322484573515
 21
-720.2690167468099
 31
0.0
  0
LINE
  5
100
330
1F
100
AcDbEntity
  8
DEFAULT
100
AcDbLine
 10
-760.7322484573515
 20
-720.2690167468099
 30
0.0
 11
-760.7322484573515
 21
-714.2690167468099
 31
0.0
  0
ARC
  5
101
330
1F
100
AcDbEntity
  8
DEFAULT
100
AcDbCircle
 10
-751.7322484573515
 20
-714.2690167468099
 30
0.0
 40
9.0
100
AcDbArc
 50
109.4712206344899
 51
180.0
  0
LINE
  5
102
330
1F
100
AcDbEntity
  8
DEFAULT
100
AcDbLine
 10
-754.7322484573515
 20
-705.7837353725715
 30
0.0
 11
-754.7322484573515
 21
-714.2690167468099
 31
0.0
  0
LINE
  5
103
330
1F
100
AcDbEntity
  8
DEFAULT
100
AcDbLine
 10
-768.7322484573515
 20
-696.2690167468099
 30
0.0
 11
-774.7322484573515
 21
-696.2690167468099
 31
0.0
  0
LINE
  5
104
330
1F
100
AcDbEntity
  8
DEFAULT
100
AcDbLine
 10
-774.7322484573515
 20
-696.2690167468099
 30
0.0
 11
-774.7322484573515
 21
-690.2690167468099
 31
0.0
  0
LINE
  5
105
330
1F
100
AcDbEntity
  8
DEFAULT
100
AcDbLine
 10
-774.7322484573515
 20
-690.2690167468099
 30
0.0
 11
-777.7322484573515
 21
-690.2690167468099
 31
0.0
  0
LINE
  5
106
330
1F
100
AcDbEntity
  8
DEFAULT
100
AcDbLine
 10
-777.7322484573515
 20
-690.2690167468099
 30
0.0
 11
-784.9598553324605
 21
-687.2690167468099
 31
0.0
  0
LINE
  5
107
330
1F
100
AcDbEntity
  8
DEFAULT
100
AcDbLine
 10
-784.9598553324605
 20
-687.2690167468099
 30
0.0
 11
-784.9598553324605
 21
-681.3585892463739
 31
0.0
  0
LINE
  5
108
330
1F
100
AcDbEntity
  8
DEFAULT
100
AcDbLine
 10
-784.9598553324605
 20
-681.3585892463739
 30
0.0
 11
-781.2322484573515
 21
-681.3585892463739
 31
0.0
  0
LINE
  5
109
330
1F
100
AcDbEntity
  8
DEFAULT
100
AcDbLine
 10
-781.2322484573515
 20
-681.3585892463739
 30
0.0
 11
-780.7322484573515
 21
-684.2690167468099
 31
0.0
  0
LINE
  5
10A
330
1F
100
AcDbEntity
  8
DEFAULT
100
AcDbLine
 10
-780.7322484573515
 20
-684.2690167468099
 30
0.0
 11
-774.7322484573515
 21
-684.2690167468099
 31
0.0
  0
LINE
  5
10B
330
1F
100
AcDbEntity
  8
DEFAULT
100
AcDbLine
 10
-774.7322484573515
 20
-684.2690167468099
 30
0.0
 11
-768.7322484573515
 21
-684.2690167468099
 31
0.0
  0
LINE
  5
10C
330
1F
100
AcDbEntity
  8
DEFAULT
100
AcDbLine
 10
-768.7322484573515
 20
-684.2690167468099
 30
0.0
 11
-764.7322484573515
 21
-684.2690167468099
 31
0.0
  0
LINE
  5
10D
330
1F
100
AcDbEntity
  8
DEFAULT
100
AcDbLine
 10
-764.7322484573515
 20
-684.2690167468099
 30
0.0
 11
-735.7322484573515
 21
-684.2690167468099
 31
0.0
  0
LINE
  5
10E
330
1F
100
AcDbEntity
  8
DEFAULT
100
AcDbLine
 10
-735.7322484573515
 20
-684.2690167468099
 30
0.0
 11
-714.7322484573515
 21
-684.2690167468099
 31
0.0
  0
LINE
  5
10F
330
1F
100
AcDbEntity
  8
DEFAULT
100
AcDbLine
 10
-714.7322484573515
 20
-684.2690167468099
 30
0.0
 11
-694.7322484573515
 21
-684.2690167468099
 31
0.0
  0
ARC
  5
110
330
1F
100
AcDbEntity
  8
DEFAULT
100
AcDbCircle
 10
-691.7322484573515
 20
-684.2690167468099
 30
0.0
 40
3.0
100
AcDbArc
 50
0.0
 51
180.0
  0
LINE
  5
111
330
1F
100
AcDbEntity
  8
DEFAULT
100
AcDbLine
 10
-688.7322484573515
 20
-684.2690167468099
 30
0.0
 11
-688.7322484573515
 21
-690.2690167468099
 31
0.0
  0
LINE
  5
112
330
1F
100
AcDbEntity
  8
DEFAULT
100
AcDbLine
 10
-688.7322484573515
 20
-690.2690167468099
 30
0.0
 11
-688.7322484573515
 21
-694.2690167468099
 31
0.0
  0
ARC
  5
113
330
1F
100
AcDbEntity
  8
DEFAULT
100
AcDbCircle
 10
-691.7322484573515
 20
-694.2690167468099
 30
0.0
 40
3.0
100
AcDbArc
 50
270.0
 51
0.0
  0
LINE
  5
114
330
1F
100
AcDbEntity
  8
DEFAULT
100
AcDbLine
 10
-691.7322484573515
 20
-697.2690167468099
 30
0.0
 11
-693.7322484573515
 21
-697.2690167468099
 31
0.0
  0
LINE
  5
115
330
1F
100
AcDbEntity
  8
DEFAULT
100
AcDbLine
 10
-693.7322484573515
 20
-697.2690167468099
 30
0.0
 11
-713.7322484573515
 21
-697.2690167468099
 31
0.0
  0
LINE
  5
116
330
1F
100
AcDbEntity
  8
DEFAULT
100
AcDbLine
 10
-713.7322484573515
 20
-697.2690167468099
 30
0.0
 11
-734.7322484573515
 21
-697.2690167468099
 31
0.0
  0
ARC
  5
117
330
1F
100
AcDbEntity
  8
DEFAULT
100
AcDbCircle
 10
-734.7322484573515
 20
-733.8994515294189
 30
0.0
 40
36.63043478260886
100
AcDbArc
 50
90.0
 51
155.1882675329788
  0
ARC
  5
118
330
1F
100
AcDbEntity
  8
DEFAULT
100
AcDbCircle
 10
-770.7044599545616
 20
-717.2690167468099
 30
0.0
 40
3.0
100
AcDbArc
 50
270.0
 51
335.1882675329827
  0
LINE
  5
119
330
1F
100
AcDbEntity
  8
DEFAULT
100
AcDbLine
 10
-770.7044599545616
 20
-720.2690167468099
 30
0.0
 11
-774.7322484573515
 21
-720.2690167468099
 31
0.0
  0
LINE
  5
11A
330
1F
100
AcDbEntity
  8
DEFAULT
100
AcDbLine
 10
-774.7322484573515
 20
-720.2690167468099
 30
0.0
 11
-780.7322484573515
 21
-720.2690167468099
 31
0.0
  0
LINE
  5
11B
330
1F
100
AcDbEntity
  8
DEFAULT
100
AcDbLine
 10
-780.7322484573515
 20
-720.2690167468099
 30
0.0
 11
-780.7322484573515
 21
-717.2690167468099
 31
0.0
  0
LINE
  5
11C
330
1F
100
AcDbEntity
  8
DEFAULT
100
AcDbLine
 10
-780.7322484573515
 20
-717.2690167468099
 30
0.0
 11
-777.7322484573515
 21
-714.2690167468099
 31
0.0
  0
LINE
  5
11D
330
1F
100
AcDbEntity
  8
DEFAULT
100
AcDbLine
 10
-777.7322484573515
 20
-714.2690167468099
 30
0.0
 11
-774.7322484573515
 21
-714.2690167468099
 31
0.0
  0
LINE
  5
11E
330
1F
100
AcDbEntity
  8
DEFAULT
100
AcDbLine
 10
-774.7322484573515
 20
-714.2690167468099
 30
0.0
 11
-774.7322484573515
 21
-702.2690167468095
 31
0.0
  0
LINE
  5
11F
330
1F
100
AcDbEntity
  8
DEFAULT
100
AcDbLine
 10
-774.7322484573515
 20
-702.2690167468099
 30
0.0
 11
-768.7322484573515
 21
-702.2690167468099
 31
0.0
  0
LINE
  5
120
330
1F
100
AcDbEntity
  8
DEFAULT
100
AcDbLine
 10
-768.7322484573515
 20
-702.2690167468099
 30
0.0
 11
-768.7322484573515
 21
-696.2690167468099
 31
0.0
  0
LINE
  5
121
330
1F
100
AcDbEntity
  8
DEFAULT
100
AcDbLine
 10
-674.7322484573515
 20
-688.2690167468099
 30
0.0
 11
-680.7322484573515
 21
-688.2690167468099
 31
0.0
  0
LINE
  5
122
330
1F
100
AcDbEntity
  8
DEFAULT
100
AcDbLine
 10
-680.7322484573515
 20
-688.2690167468099
 30
0.0
 11
-680.7322484573514
 21
-696.7542981210486
 31
0.0
  0
ARC
  5
123
330
1F
100
AcDbEntity
  8
DEFAULT
100
AcDbCircle
 10
-677.7322484573515
 20
-688.2690167468099
 30
0.0
 40
9.0
100
AcDbArc
 50
180.0
 51
250.5287793655101
  0
LINE
  5
124
330
1F
100
AcDbEntity
  8
DEFAULT
100
AcDbLine
 10
-686.7322484573515
 20
-688.2690167468099
 30
0.0
 11
-686.7322484573515
 21
-682.2690167468099
 31
0.0
  0
LINE
  5
125
330
1F
100
AcDbEntity
  8
DEFAULT
100
AcDbLine
 10
-686.7322484573515
 20
-682.2690167468099
 30
0.0
 11
-668.7322484573515
 21
-682.2690167468099
 31
0.0
  0
LINE
  5
126
330
1F
100
AcDbEntity
  8
DEFAULT
100
AcDbLine
 10
-668.7322484573515
 20
-682.2690167468099
 30
0.0
 11
-668.7322484573515
 21
-688.2690167468099
 31
0.0
  0
ARC
  5
127
330
1F
100
AcDbEntity
  8
DEFAULT
100
AcDbCircle
 10
-677.7322484573515
 20
-688.2690167468099
 30
0.0
 40
9.0
100
AcDbArc
 50
289.4712206344898
 51
0.0
  0
LINE
  5
128
330
1F
100
AcDbEntity
  8
DEFAULT
100
AcDbLine
 10
-674.7322484573515
 20
-696.7542981210486
 30
0.0
 11
-674.7322484573515
 21
-688.2690167468099
 31
0.0
  0
LINE
  5
129
330
1F
100
AcDbEntity
  8
DEFAULT
100
AcDbLine
 10
-660.7322484573515
 20
-706.2690167468099
 30
0.0
 11
-654.7322484573515
 21
-706.2690167468104
 31
0.0
  0
LINE
  5
12A
330
1F
100
AcDbEntity
  8
DEFAULT
100
AcDbLine
 10
-654.7322484573515
 20
-706.2690167468104
 30
0.0
 11
-654.7322484573515
 21
-712.2690167468099
 31
0.0
  0
LINE
  5
12B
330
1F
100
AcDbEntity
  8
DEFAULT
100
AcDbLine
 10
-654.7322484573515
 20
-712.2690167468099
 30
0.0
 11
-651.7322484573515
 21
-712.2690167468099
 31
0.0
  0
LINE
  5
12C
330
1F
100
AcDbEntity
  8
DEFAULT
100
AcDbLine
 10
-651.7322484573515
 20
-712.2690167468099
 30
0.0
 11
-644.5046415822425
 21
-715.2690167468099
 31
0.0
  0
LINE
  5
12D
330
1F
100
AcDbEntity
  8
DEFAULT
100
AcDbLine
 10
-644.5046415822425
 20
-715.2690167468099
 30
0.0
 11
-644.5046415822425
 21
-721.179444247246
 31
0.0
  0
LINE
  5
12E
330
1F
100
AcDbEntity
  8
DEFAULT
100
AcDbLine
 10
-644.5046415822425
 20
-721.179444247246
 30
0.0
 11
-648.2322484573515
 21
-721.179444247246
 31
0.0
  0
LINE
  5
12F
330
1F
100
AcDbEntity
  8
DEFAULT
100
AcDbLine
 10
-648.2322484573515
 20
-721.179444247246
 30
0.0
 11
-648.7322484573515
 21
-718.2690167468099
 31
0.0
  0
LINE
  5
130
330
1F
100
AcDbEntity
  8
DEFAULT
100
AcDbLine
 10
-648.7322484573515
 20
-718.2690167468099
 30
0.0
 11
-654.7322484573515
 21
-718.2690167468099
 31
0.0
  0
LINE
  5
131
330
1F
100
AcDbEntity
  8
DEFAULT
100
AcDbLine
 10
-654.7322484573515
 20
-718.2690167468099
 30
0.0
 11
-660.7322484573515
 21
-718.2690167468099
 31
0.0
  0
LINE
  5
132
330
1F
100
AcDbEntity
  8
DEFAULT
100
AcDbLine
 10
-660.7322484573515
 20
-718.2690167468099
 30
0.0
 11
-664.7322484573515
 21
-718.2690167468099
 31
0.0
  0
LINE
  5
133
330
1F
100
AcDbEntity
  8
DEFAULT
100
AcDbLine
 10
-664.7322484573515
 20
-718.2690167468099
 30
0.0
 11
-693.7322484573515
 21
-718.2690167468099
 31
0.0
  0
LINE
  5
134
330
1F
100
AcDbEntity
  8
DEFAULT
100
AcDbLine
 10
-693.7322484573515
 20
-718.2690167468099
 30
0.0
 11
-714.7322484573515
 21
-718.2690167468099
 31
0.0
  0
LINE
  5
135
330
1F
100
AcDbEntity
  8
DEFAULT
100
AcDbLine
 10
-714.7322484573515
 20
-718.2690167468099
 30
0.0
 11
-734.7322484573515
 21
-718.2690167468099
 31
0.0
  0
ARC
  5
136
330
1F
100
AcDbEntity
  8
DEFAULT
100
AcDbCircle
 10
-737.7322484573515
 20
-718.2690167468099
 30
0.0
 40
3.0
100
AcDbArc
 50
180.0
 51
0.0
  0
LINE
  5
137
330
1F
100
AcDbEntity
  8
DEFAULT
100
AcDbLine
 10
-740.7322484573515
 20
-718.2690167468099
 30
0.0
 11
-740.7322484573515
 21
-712.2690167468099
 31
0.0
  0
LINE
  5
138
330
1F
100
AcDbEntity
  8
DEFAULT
100
AcDbLine
 10
-740.7322484573515
 20
-712.2690167468099
 30
0.0
 11
-740.7322484573515
 21
-708.2690167468099
 31
0.0
  0
ARC
  5
139
330
1F
100
AcDbEntity
  8
DEFAULT
100
AcDbCircle
 10
-737.7322484573515
 20
-708.2690167468099
 30
0.0
 40
3.0
100
AcDbArc
 50
90.0
 51
180.0
  0
LINE
  5
13A
330
1F
100
AcDbEntity
  8
DEFAULT
100
AcDbLine
 10
-737.7322484573515
 20
-705.2690167468099
 30
0.0
 11
-735.7322484573515
 21
-705.2690167468099
 31
0.0
  0
LINE
  5
13B
330
1F
100
AcDbEntity
  8
DEFAULT
100
AcDbLine
 10
-735.7322484573515
 20
-705.2690167468099
 30
0.0
 11
-715.7322484573515
 21
-705.2690167468099
 31
0.0
  0
LINE
  5
13C
330
1F
100
AcDbEntity
  8
DEFAULT
100
AcDbLine
 10
-715.7322484573515
 20
-705.2690167468099
 30
0.0
 11
-694.7322484573515
 21
-705.2690167468099
 31
0.0
  0
ARC
  5
13D
330
1F
100
AcDbEntity
  8
DEFAULT
100
AcDbCircle
 10
-694.7322484573515
 20
-668.6385819642014
 30
0.0
 40
36.63043478260886
100
AcDbArc
 50
270.0
 51
335.1882675329788
  0
ARC
  5
13E
330
1F
100
AcDbEntity
  8
DEFAULT
100
AcDbCircle
 10
-658.7600369601414
 20
-685.2690167468099
 30
0.0
 40
3.0
100
AcDbArc
 50
90.0
 51
155.1882675329827
  0
LINE
  5
13F
330
1F
100
AcDbEntity
  8
DEFAULT
100
AcDbLine
 10
-658.7600369601414
 20
-682.2690167468099
 30
0.0
 11
-654.7322484573515
 21
-682.2690167468099
 31
0.0
  0
LINE
  5
140
330
1F
100
AcDbEntity
  8
DEFAULT
100
AcDbLine
 10
-654.7322484573515
 20
-682.2690167468099
 30
0.0
 11
-648.7322484573515
 21
-682.2690167468099
 31
0.0
  0
LINE
  5
141
330
1F
100
AcDbEntity
  8
DEFAULT
100
AcDbLine
 10
-648.7322484573515
 20
-682.2690167468099
 30
0.0
 11
-648.7322484573515
 21
-685.2690167468099
 31
0.0
  0
LINE
  5
142
330
1F
100
AcDbEntity
  8
DEFAULT
100
AcDbLine
 10
-648.7322484573515
 20
-685.2690167468099
 30
0.0
 11
-651.7322484573515
 21
-688.2690167468099
 31
0.0
  0
LINE
  5
143
330
1F
100
AcDbEntity
  8
DEFAULT
100
AcDbLine
 10
-651.7322484573515
 20
-688.2690167468099
 30
0.0
 11
-654.7322484573515
 21
-688.2690167468099
 31
0.0
  0
LINE
  5
144
330
1F
100
AcDbEntity
  8
DEFAULT
100
AcDbLine
 10
-654.7322484573515
 20
-688.2690167468099
 30
0.0
 11
-654.7322484573515
 21
-700.2690167468108
 31
0.0
  0
LINE
  5
145
330
1F
100
AcDbEntity
  8
DEFAULT
100
AcDbLine
 10
-654.7322484573515
 20
-700.2690167468099
 30
0.0
 11
-660.7322484573515
 21
-700.2690167468099
 31
0.0
  0
LINE
  5
146
330
1F
100
AcDbEntity
  8
DEFAULT
100
AcDbLine
 10
-660.7322484573515
 20
-700.2690167468099
 30
0.0
 11
-660.7322484573515
 21
-706.2690167468099
 31
0.0
  0
LINE
  5
147
330
1F
100
AcDbEntity
  8
DEFAULT
100
AcDbLine
 10
-753.7322484573515
 20
-676.2690167468099
 30
0.0
 11
-747.7322484573515
 21
-676.2690167468099
 31
0.0
  0
LINE
  5
148
330
1F
100
AcDbEntity
  8
DEFAULT
100
AcDbLine
 10
-747.7322484573515
 20
-676.2690167468099
 30
0.0
 11
-747.7322484573516
 21
-667.7837353725713
 31
0.0
  0
ARC
  5
149
330
1F
100
AcDbEntity
  8
DEFAULT
100
AcDbCircle
 10
-750.7322484573515
 20
-676.2690167468099
 30
0.0
 40
9.0
100
AcDbArc
 50
0.0
 51
70.52877936551015
  0
LINE
  5
14A
330
1F
100
AcDbEntity
  8
DEFAULT
100
AcDbLine
 10
-741.7322484573515
 20
-676.2690167468099
 30
0.0
 11
-741.7322484573515
 21
-682.2690167468099
 31
0.0
  0
LINE
  5
14B
330
1F
100
AcDbEntity
  8
DEFAULT
100
AcDbLine
 10
-741.7322484573515
 20
-682.2690167468099
 30
0.0
 11
-759.7322484573515
 21
-682.2690167468099
 31
0.0
  0
LINE
  5
14C
330
1F
100
AcDbEntity
  8
DEFAULT
100
AcDbLine
 10
-759.7322484573515
 20
-682.2690167468099
 30
0.0
 11
-759.7322484573515
 21
-676.2690167468099
 31
0.0
  0
ARC
  5
14D
330
1F
100
AcDbEntity
  8
DEFAULT
100
AcDbCircle
 10
-750.7322484573515
 20
-676.2690167468099
 30
0.0
 40
9.0
100
AcDbArc
 50
109.4712206344899
 51
180.0
  0
LINE
  5
14E
330
1F
100
AcDbEntity
  8
DEFAULT
100
AcDbLine
 10
-753.7322484573515
 20
-667.7837353725715
 30
0.0
 11
-753.7322484573515
 21
-676.2690167468099
 31
0.0
  0
LINE
  5
14F
330
1F
100
AcDbEntity
  8
DEFAULT
100
AcDbLine
 10
-767.7322484573515
 20
-658.2690167468099
 30
0.0
 11
-773.7322484573515
 21
-658.2690167468099
 31
0.0
  0
LINE
  5
150
330
1F
100
AcDbEntity
  8
DEFAULT
100
AcDbLine
 10
-773.7322484573515
 20
-658.2690167468099
 30
0.0
 11
-773.7322484573515
 21
-652.2690167468099
 31
0.0
  0
LINE
  5
151
330
1F
100
AcDbEntity
  8
DEFAULT
100
AcDbLine
 10
-773.7322484573515
 20
-652.2690167468099
 30
0.0
 11
-776.7322484573515
 21
-652.2690167468099
 31
0.0
  0
LINE
  5
152
330
1F
100
AcDbEntity
  8
DEFAULT
100
AcDbLine
 10
-776.7322484573515
 20
-652.2690167468099
 30
0.0
 11
-783.9598553324605
 21
-649.2690167468099
 31
0.0
  0
LINE
  5
153
330
1F
100
AcDbEntity
  8
DEFAULT
100
AcDbLine
 10
-783.9598553324605
 20
-649.2690167468099
 30
0.0
 11
-783.9598553324605
 21
-643.3585892463739
 31
0.0
  0
LINE
  5
154
330
1F
100
AcDbEntity
  8
DEFAULT
100
AcDbLine
 10
-783.9598553324605
 20
-643.3585892463739
 30
0.0
 11
-780.2322484573515
 21
-643.3585892463739
 31
0.0
  0
LINE
  5
155
330
1F
100
AcDbEntity
  8
DEFAULT
100
AcDbLine
 10
-780.2322484573515
 20
-643.3585892463739
 30
0.0
 11
-779.7322484573515
 21
-646.2690167468099
 31
0.0
  0
LINE
  5
156
330
1F
100
AcDbEntity
  8
DEFAULT
100
AcDbLine
 10
-779.7322484573515
 20
-646.2690167468099
 30
0.0
 11
-773.7322484573515
 21
-646.2690167468099
 31
0.0
  0
LINE
  5
157
330
1F
100
AcDbEntity
  8
DEFAULT
100
AcDbLine
 10
-773.7322484573515
 20
-646.2690167468099
 30
0.0
 11
-767.7322484573515
 21
-646.2690167468099
 31
0.0
  0
LINE
  5
158
330
1F
100
AcDbEntity
  8
DEFAULT
100
AcDbLine
 10
-767.7322484573515
 20
-646.2690167468099
 30
0.0
 11
-763.7322484573515
 21
-646.2690167468099
 31
0.0
  0
LINE
  5
159
330
1F
100
AcDbEntity
  8
DEFAULT
100
AcDbLine
 10
-763.7322484573515
 20
-646.2690167468099
 30
0.0
 11
-734.7322484573515
 21
-646.2690167468099
 31
0.0
  0
LINE
  5
15A
330
1F
100
AcDbEntity
  8
DEFAULT
100
AcDbLine
 10
-734.7322484573515
 20
-646.2690167468099
 30
0.0
 11
-713.7322484573515
 21
-646.2690167468099
 31
0.0
  0
LINE
  5
15B
330
1F
100
AcDbEntity
  8
DEFAULT
100
AcDbLine
 10
-713.7322484573515
 20
-646.2690167468099
 30
0.0
 11
-693.7322484573515
 21
-646.2690167468099
 31
0.0
  0
ARC
  5
15C
330
1F
100
AcDbEntity
  8
DEFAULT
100
AcDbCircle
 10
-690.7322484573515
 20
-646.2690167468099
 30
0.0
 40
3.0
100
AcDbArc
 50
0.0
 51
180.0
  0
LINE
  5
15D
330
1F
100
AcDbEntity
  8
DEFAULT
100
AcDbLine
 10
-687.7322484573515
 20
-646.2690167468099
 30
0.0
 11
-687.7322484573515
 21
-652.2690167468099
 31
0.0
  0
LINE
  5
15E
330
1F
100
AcDbEntity
  8
DEFAULT
100
AcDbLine
 10
-687.7322484573515
 20
-652.2690167468099
 30
0.0
 11
-687.7322484573515
 21
-656.2690167468099
 31
0.0
  0
ARC
  5
15F
330
1F
100
AcDbEntity
  8
DEFAULT
100
AcDbCircle
 10
-690.7322484573515
 20
-656.2690167468099
 30
0.0
 40
3.0
100
AcDbArc
 50
270.0
 51
0.0
  0
LINE
  5
160
330
1F
100
AcDbEntity
  8
DEFAULT
100
AcDbLine
 10
-690.7322484573515
 20
-659.2690167468099
 30
0.0
 11
-692.7322484573515
 21
-659.2690167468099
 31
0.0
  0
LINE
  5
161
330
1F
100
AcDbEntity
  8
DEFAULT
100
AcDbLine
 10
-692.7322484573515
 20
-659.2690167468099
 30
0.0
 11
-712.7322484573515
 21
-659.2690167468099
 31
0.0
  0
LINE
  5
162
330
1F
100
AcDbEntity
  8
DEFAULT
100
AcDbLine
 10
-712.7322484573515
 20
-659.2690167468099
 30
0.0
 11
-733.7322484573515
 21
-659.2690167468099
 31
0.0
  0
ARC
  5
163
330
1F
100
AcDbEntity
  8
DEFAULT
100
AcDbCircle
 10
-733.7322484573515
 20
-695.8994515294189
 30
0.0
 40
36.63043478260886
100
AcDbArc
 50
90.0
 51
155.1882675329788
  0
ARC
  5
164
330
1F
100
AcDbEntity
  8
DEFAULT
100
AcDbCircle
 10
-769.7044599545616
 20
-679.2690167468099
 30
0.0
 40
3.0
100
AcDbArc
 50
270.0
 51
335.1882675329827
  0
LINE
  5
165
330
1F
100
AcDbEntity
  8
DEFAULT
100
AcDbLine
 10
-769.7044599545616
 20
-682.2690167468099
 30
0.0
 11
-773.7322484573515
 21
-682.2690167468099
 31
0.0
  0
LINE
  5
166
330
1F
100
AcDbEntity
  8
DEFAULT
100
AcDbLine
 10
-773.7322484573515
 20
-682.2690167468099
 30
0.0
 11
-779.7322484573515
 21
-682.2690167468099
 31
0.0
  0
LINE
  5
167
330
1F
100
AcDbEntity
  8
DEFAULT
100
AcDbLine
 10
-779.7322484573515
 20
-682.2690167468099
 30
0.0
 11
-779.7322484573515
 21
-679.2690167468099
 31
0.0
  0
LINE
  5
168
330
1F
100
AcDbEntity
  8
DEFAULT
100
AcDbLine
 10
-779.7322484573515
 20
-679.2690167468099
 30
0.0
 11
-776.7322484573515
 21
-676.2690167468099
 31
0.0
  0
LINE
  5
169
330
1F
100
AcDbEntity
  8
DEFAULT
100
AcDbLine
 10
-776.7322484573515
 20
-676.2690167468099
 30
0.0
 11
-773.7322484573515
 21
-676.2690167468099
 31
0.0
  0
LINE
  5
16A
330
1F
100
AcDbEntity
  8
DEFAULT
100
AcDbLine
 10
-773.7322484573515
 20
-676.2690167468099
 30
0.0
 11
-773.7322484573515
 21
-664.2690167468095
 31
0.0
  0
LINE
  5
16B
330
1F
100
AcDbEntity
  8
DEFAULT
100
AcDbLine
 10
-773.7322484573515
 20
-664.2690167468099
 30
0.0
 11
-767.7322484573515
 21
-664.2690167468099
 31
0.0
  0
LINE
  5
16C
330
1F
100
AcDbEntity
  8
DEFAULT
100
AcDbLine
 10
-767.7322484573515
 20
-664.2690167468099
 30
0.0
 11
-767.7322484573515
 21
-658.2690167468099
 31
0.0
  0
LINE
  5
16D
330
1F
100
AcDbEntity
  8
DEFAULT
100
AcDbLine
 10
-673.7322484573515
 20
-650.2690167468099
 30
0.0
 11
-679.7322484573515
 21
-650.2690167468099
 31
0.0
  0
LINE
  5
16E
330
1F
100
AcDbEntity
  8
DEFAULT
100
AcDbLine
 10
-679.7322484573515
 20
-650.2690167468099
 30
0.0
 11
-679.7322484573514
 21
-658.7542981210486
 31
0.0
  0
ARC
  5
16F
330
1F
100
AcDbEntity
  8
DEFAULT
100
AcDbCircle
 10
-676.7322484573515
 20
-650.2690167468099
 30
0.0
 40
9.0
100
AcDbArc
 50
180.0
 51
250.5287793655101
  0
LINE
  5
170
330
1F
100
AcDbEntity
  8
DEFAULT
100
AcDbLine
 10
-685.7322484573515
 20
-650.2690167468099
 30
0.0
 11
-685.7322484573515
 21
-644.2690167468099
 31
0.0
  0
LINE
  5
171
330
1F
100
AcDbEntity
  8
DEFAULT
100
AcDbLine
 10
-685.7322484573515
 20
-644.2690167468099
 30
0.0
 11
-667.7322484573515
 21
-644.2690167468099
 31
0.0
  0
LINE
  5
172
330
1F
100
AcDbEntity
  8
DEFAULT
100
AcDbLine
 10
-667.7322484573515
 20
-644.2690167468099
 30
0.0
 11
-667.7322484573515
 21
-650.2690167468099
 31
0.0
  0
ARC
  5
173
330
1F
100
AcDbEntity
  8
DEFAULT
100
AcDbCircle
 10
-676.7322484573515
 20
-650.2690167468099
 30
0.0
 40
9.0
100
AcDbArc
 50
289.4712206344898
 51
0.0
  0
LINE
  5
174
330
1F
100
AcDbEntity
  8
DEFAULT
100
AcDbLine
 10
-673.7322484573515
 20
-658.7542981210486
 30
0.0
 11
-673.7322484573515
 21
-650.2690167468099
 31
0.0
  0
LINE
  5
175
330
1F
100
AcDbEntity
  8
DEFAULT
100
AcDbLine
 10
-659.7322484573515
 20
-668.2690167468099
 30
0.0
 11
-653.7322484573515
 21
-668.2690167468104
 31
0.0
  0
LINE
  5
176
330
1F
100
AcDbEntity
  8
DEFAULT
100
AcDbLine
 10
-653.7322484573515
 20
-668.2690167468104
 30
0.0
 11
-653.7322484573515
 21
-674.2690167468099
 31
0.0
  0
LINE
  5
177
330
1F
100
AcDbEntity
  8
DEFAULT
100
AcDbLine
 10
-653.7322484573515
 20
-674.2690167468099
 30
0.0
 11
-650.7322484573515
 21
-674.2690167468099
 31
0.0
  0
LINE
  5
178
330
1F
100
AcDbEntity
  8
DEFAULT
100
AcDbLine
 10
-650.7322484573515
 20
-674.2690167468099
 30
0.0
 11
-643.5046415822425
 21
-677.2690167468099
 31
0.0
  0
LINE
  5
179
330
1F
100
AcDbEntity
  8
DEFAULT
100
AcDbLine
 10
-643.5046415822425
 20
-677.2690167468099
 30
0.0
 11
-643.5046415822425
 21
-683.179444247246
 31
0.0
  0
LINE
  5
17A
330
1F
100
AcDbEntity
  8
DEFAULT
100
AcDbLine
 10
-643.5046415822425
 20
-683.179444247246
 30
0.0
 11
-647.2322484573515
 21
-683.179444247246
 31
0.0
  0
LINE
  5
17B
330
1F
100
AcDbEntity
  8
DEFAULT
100
AcDbLine
 10
-647.2322484573515
 20
-683.179444247246
 30
0.0
 11
-647.7322484573515
 21
-680.2690167468099
 31
0.0
  0
LINE
  5
17C
330
1F
100
AcDbEntity
  8
DEFAULT
100
AcDbLine
 10
-647.7322484573515
 20
-680.2690167468099
 30
0.0
 11
-653.7322484573515
 21
-680.2690167468099
 31
0.0
  0
LINE
  5
17D
330
1F
100
AcDbEntity
  8
DEFAULT
100
AcDbLine
 10
-653.7322484573515
 20
-680.2690167468099
 30
0.0
 11
-659.7322484573515
 21
-680.2690167468099
 31
0.0
  0
LINE
  5
17E
330
1F
100
AcDbEntity
  8
DEFAULT
100
AcDbLine
 10
-659.7322484573515
 20
-680.2690167468099
 30
0.0
 11
-663.7322484573515
 21
-680.2690167468099
 31
0.0
  0
LINE
  5
17F
330
1F
100
AcDbEntity
  8
DEFAULT
100
AcDbLine
 10
-663.7322484573515
 20
-680.2690167468099
 30
0.0
 11
-692.7322484573515
 21
-680.2690167468099
 31
0.0
  0
LINE
  5
180
330
1F
100
AcDbEntity
  8
DEFAULT
100
AcDbLine
 10
-692.7322484573515
 20
-680.2690167468099
 30
0.0
 11
-713.7322484573515
 21
-680.2690167468099
 31
0.0
  0
LINE
  5
181
330
1F
100
AcDbEntity
  8
DEFAULT
100
AcDbLine
 10
-713.7322484573515
 20
-680.2690167468099
 30
0.0
 11
-733.7322484573515
 21
-680.2690167468099
 31
0.0
  0
ARC
  5
182
330
1F
100
AcDbEntity
  8
DEFAULT
100
AcDbCircle
 10
-736.7322484573515
 20
-680.2690167468099
 30
0.0
 40
3.0
100
AcDbArc
 50
180.0
 51
0.0
  0
LINE
  5
183
330
1F
100
AcDbEntity
  8
DEFAULT
100
AcDbLine
 10
-739.7322484573515
 20
-680.2690167468099
 30
0.0
 11
-739.7322484573515
 21
-674.2690167468099
 31
0.0
  0
LINE
  5
184
330
1F
100
AcDbEntity
  8
DEFAULT
100
AcDbLine
 10
-739.7322484573515
 20
-674.2690167468099
 30
0.0
 11
-739.7322484573515
 21
-670.2690167468099
 31
0.0
  0
ARC
  5
185
330
1F
100
AcDbEntity
  8
DEFAULT
100
AcDbCircle
 10
-736.7322484573515
 20
-670.2690167468099
 30
0.0
 40
3.0
100
AcDbArc
 50
90.0
 51
180.0
  0
LINE
  5
186
330
1F
100
AcDbEntity
  8
DEFAULT
100
AcDbLine
 10
-736.7322484573515
 20
-667.2690167468099
 30
0.0
 11
-734.7322484573515
 21
-667.2690167468099
 31
0.0
  0
LINE
  5
187
330
1F
100
AcDbEntity
  8
DEFAULT
100
AcDbLine
 10
-734.7322484573515
 20
-667.2690167468099
 30
0.0
 11
-714.7322484573515
 21
-667.2690167468099
 31
0.0
  0
LINE
  5
188
330
1F
100
AcDbEntity
  8
DEFAULT
100
AcDbLine
 10
-714.7322484573515
 20
-667.2690167468099
 30
0.0
 11
-693.7322484573515
 21
-667.2690167468099
 31
0.0
  0
ARC
  5
189
330
1F
100
AcDbEntity
  8
DEFAULT
100
AcDbCircle
 10
-693.7322484573515
 20
-630.6385819642014
 30
0.0
 40
36.63043478260886
100
AcDbArc
 50
270.0
 51
335.1882675329788
  0
ARC
  5
18A
330
1F
100
AcDbEntity
  8
DEFAULT
100
AcDbCircle
 10
-657.7600369601414
 20
-647.2690167468099
 30
0.0
 40
3.0
100
AcDbArc
 50
90.0
 51
155.1882675329827
  0
LINE
  5
18B
330
1F
100
AcDbEntity
  8
DEFAULT
100
AcDbLine
 10
-657.7600369601414
 20
-644.2690167468099
 30
0.0
 11
-653.7322484573515
 21
-644.2690167468099
 31
0.0
  0
LINE
  5
18C
330
1F
100
AcDbEntity
  8
DEFAULT
100
AcDbLine
 10
-653.7322484573515
 20
-644.2690167468099
 30
0.0
 11
-647.7322484573515
 21
-644.2690167468099
 31
0.0
  0
LINE
  5
18D
330
1F
100
AcDbEntity
  8
DEFAULT
100
AcDbLine
 10
-647.7322484573515
 20
-644.2690167468099
 30
0.0
 11
-647.7322484573515
 21
-647.2690167468099
 31
0.0
  0
LINE
  5
18E
330
1F
100
AcDbEntity
  8
DEFAULT
100
AcDbLine
 10
-647.7322484573515
 20
-647.2690167468099
 30
0.0
 11
-650.7322484573515
 21
-650.2690167468099
 31
0.0
  0
LINE
  5
18F
330
1F
100
AcDbEntity
  8
DEFAULT
100
AcDbLine
 10
-650.7322484573515
 20
-650.2690167468099
 30
0.0
 11
-653.7322484573515
 21
-650.2690167468099
 31
0.0
  0
LINE
  5
190
330
1F
100
AcDbEntity
  8
DEFAULT
100
AcDbLine
 10
-653.7322484573515
 20
-650.2690167468099
 30
0.0
 11
-653.7322484573515
 21
-662.2690167468108
 31
0.0
  0
LINE
  5
191
330
1F
100
AcDbEntity
  8
DEFAULT
100
AcDbLine
 10
-653.7322484573515
 20
-662.2690167468099
 30
0.0
 11
-659.7322484573515
 21
-662.2690167468099
 31
0.0
  0
LINE
  5
192
330
1F
100
AcDbEntity
  8
DEFAULT
100
AcDbLine
 10
-659.7322484573515
 20
-662.2690167468099
 30
0.0
 11
-659.7322484573515
 21
-668.2690167468099
 31
0.0
  0
LINE
  5
193
330
1F
100
AcDbEntity
  8
DEFAULT
100
AcDbLine
 10
-607.610928113792
 20
-690.6857298968716
 30
0.0
 11
-601.610928113792
 21
-690.6857298968716
 31
0.0
  0
LINE
  5
194
330
1F
100
AcDbEntity
  8
DEFAULT
100
AcDbLine
 10
-601.610928113792
 20
-690.6857298968716
 30
0.0
 11
-601.6109281137922
 21
-699.17101127111
 31
0.0
  0
ARC
  5
195
330
1F
100
AcDbEntity
  8
DEFAULT
100
AcDbCircle
 10
-604.610928113792
 20
-690.6857298968716
 30
0.0
 40
9.0
100
AcDbArc
 50
289.4712206344898
 51
0.0
  0
LINE
  5
196
330
1F
100
AcDbEntity
  8
DEFAULT
100
AcDbLine
 10
-595.610928113792
 20
-690.6857298968716
 30
0.0
 11
-595.610928113792
 21
-684.6857298968716
 31
0.0
  0
LINE
  5
197
330
1F
100
AcDbEntity
  8
DEFAULT
100
AcDbLine
 10
-595.610928113792
 20
-684.6857298968716
 30
0.0
 11
-613.610928113792
 21
-684.6857298968716
 31
0.0
  0
LINE
  5
198
330
1F
100
AcDbEntity
  8
DEFAULT
100
AcDbLine
 10
-613.610928113792
 20
-684.6857298968716
 30
0.0
 11
-613.610928113792
 21
-690.6857298968716
 31
0.0
  0
ARC
  5
199
330
1F
100
AcDbEntity
  8
DEFAULT
100
AcDbCircle
 10
-604.610928113792
 20
-690.6857298968716
 30
0.0
 40
9.0
100
AcDbArc
 50
180.0
 51
250.5287793655101
  0
LINE
  5
19A
330
1F
100
AcDbEntity
  8
DEFAULT
100
AcDbLine
 10
-607.610928113792
 20
-699.17101127111
 30
0.0
 11
-607.610928113792
 21
-690.6857298968716
 31
0.0
  0
LINE
  5
19B
330
1F
100
AcDbEntity
  8
DEFAULT
100
AcDbLine
 10
-621.610928113792
 20
-708.6857298968716
 30
0.0
 11
-627.610928113792
 21
-708.6857298968716
 31
0.0
  0
LINE
  5
19C
330
1F
100
AcDbEntity
  8
DEFAULT
100
AcDbLine
 10
-627.610928113792
 20
-708.6857298968716
 30
0.0
 11
-627.610928113792
 21
-714.6857298968716
 31
0.0
  0
LINE
  5
19D
330
1F
100
AcDbEntity
  8
DEFAULT
100
AcDbLine
 10
-627.610928113792
 20
-714.6857298968716
 30
0.0
 11
-630.610928113792
 21
-714.6857298968716
 31
0.0
  0
LINE
  5
19E
330
1F
100
AcDbEntity
  8
DEFAULT
100
AcDbLine
 10
-630.610928113792
 20
-714.6857298968716
 30
0.0
 11
-637.8385349889011
 21
-717.6857298968716
 31
0.0
  0
LINE
  5
19F
330
1F
100
AcDbEntity
  8
DEFAULT
100
AcDbLine
 10
-637.8385349889011
 20
-717.6857298968716
 30
0.0
 11
-637.8385349889011
 21
-723.5961573973077
 31
0.0
  0
LINE
  5
1A0
330
1F
100
AcDbEntity
  8
DEFAULT
100
AcDbLine
 10
-637.8385349889011
 20
-723.5961573973077
 30
0.0
 11
-634.110928113792
 21
-723.5961573973077
 31
0.0
  0
LINE
  5
1A1
330
1F
100
AcDbEntity
  8
DEFAULT
100
AcDbLine
 10
-634.110928113792
 20
-723.5961573973077
 30
0.0
 11
-633.610928113792
 21
-720.6857298968716
 31
0.0
  0
LINE
  5
1A2
330
1F
100
AcDbEntity
  8
DEFAULT
100
AcDbLine
 10
-633.610928113792
 20
-720.6857298968716
 30
0.0
 11
-627.610928113792
 21
-720.6857298968716
 31
0.0
  0
LINE
  5
1A3
330
1F
100
AcDbEntity
  8
DEFAULT
100
AcDbLine
 10
-627.610928113792
 20
-720.6857298968716
 30
0.0
 11
-621.610928113792
 21
-720.6857298968716
 31
0.0
  0
LINE
  5
1A4
330
1F
100
AcDbEntity
  8
DEFAULT
100
AcDbLine
 10
-621.610928113792
 20
-720.6857298968716
 30
0.0
 11
-617.610928113792
 21
-720.6857298968716
 31
0.0
  0
LINE
  5
1A5
330
1F
100
AcDbEntity
  8
DEFAULT
100
AcDbLine
 10
-617.610928113792
 20
-720.6857298968716
 30
0.0
 11
-588.610928113792
 21
-720.6857298968716
 31
0.0
  0
ARC
  5
1A6
330
1F
100
AcDbEntity
  8
DEFAULT
100
AcDbCircle
 10
-585.610928113792
 20
-720.6857298968716
 30
0.0
 40
3.0
100
AcDbArc
 50
180.0
 51
0.0
  0
LINE
  5
1A7
330
1F
100
AcDbEntity
  8
DEFAULT
100
AcDbLine
 10
-582.610928113792
 20
-720.6857298968716
 30
0.0
 11
-582.610928113792
 21
-714.6857298968716
 31
0.0
  0
LINE
  5
1A8
330
1F
100
AcDbEntity
  8
DEFAULT
100
AcDbLine
 10
-582.610928113792
 20
-714.6857298968716
 30
0.0
 11
-582.610928113792
 21
-710.6857298968716
 31
0.0
  0
ARC
  5
1A9
330
1F
100
AcDbEntity
  8
DEFAULT
100
AcDbCircle
 10
-585.610928113792
 20
-710.6857298968716
 30
0.0
 40
3.0
100
AcDbArc
 50
0.0
 51
90.0
  0
LINE
  5
1AA
330
1F
100
AcDbEntity
  8
DEFAULT
100
AcDbLine
 10
-585.610928113792
 20
-707.6857298968716
 30
0.0
 11
-587.610928113792
 21
-707.6857298968716
 31
0.0
  0
ARC
  5
1AB
330
1F
100
AcDbEntity
  8
DEFAULT
100
AcDbCircle
 10
-587.610928113792
 20
-671.0552951142627
 30
0.0
 40
36.63043478260886
100
AcDbArc
 50
204.811732467021
 51
270.0
  0
ARC
  5
1AC
330
1F
100
AcDbEntity
  8
DEFAULT
100
AcDbCircle
 10
-623.5831396110021
 20
-687.6857298968714
 30
0.0
 40
3.0
100
AcDbArc
 50
24.81173246701728
 51
90.0
  0
LINE
  5
1AD
330
1F
100
AcDbEntity
  8
DEFAULT
100
AcDbLine
 10
-623.5831396110021
 20
-684.6857298968714
 30
0.0
 11
-627.610928113792
 21
-684.6857298968716
 31
0.0
  0
LINE
  5
1AE
330
1F
100
AcDbEntity
  8
DEFAULT
100
AcDbLine
 10
-627.610928113792
 20
-684.6857298968716
 30
0.0
 11
-633.610928113792
 21
-684.6857298968716
 31
0.0
  0
LINE
  5
1AF
330
1F
100
AcDbEntity
  8
DEFAULT
100
AcDbLine
 10
-633.610928113792
 20
-684.6857298968716
 30
0.0
 11
-633.610928113792
 21
-687.6857298968716
 31
0.0
  0
LINE
  5
1B0
330
1F
100
AcDbEntity
  8
DEFAULT
100
AcDbLine
 10
-633.610928113792
 20
-687.6857298968716
 30
0.0
 11
-630.610928113792
 21
-690.6857298968716
 31
0.0
  0
LINE
  5
1B1
330
1F
100
AcDbEntity
  8
DEFAULT
100
AcDbLine
 10
-630.610928113792
 20
-690.6857298968716
 30
0.0
 11
-627.610928113792
 21
-690.6857298968716
 31
0.0
  0
LINE
  5
1B2
330
1F
100
AcDbEntity
  8
DEFAULT
100
AcDbLine
 10
-627.610928113792
 20
-690.6857298968716
 30
0.0
 11
-627.610928113792
 21
-702.6857298968721
 31
0.0
  0
LINE
  5
1B3
330
1F
100
AcDbEntity
  8
DEFAULT
100
AcDbLine
 10
-627.610928113792
 20
-702.6857298968716
 30
0.0
 11
-621.610928113792
 21
-702.6857298968716
 31
0.0
  0
LINE
  5
1B4
330
1F
100
AcDbEntity
  8
DEFAULT
100
AcDbLine
 10
-621.610928113792
 20
-702.6857298968716
 30
0.0
 11
-621.610928113792
 21
-708.6857298968716
 31
0.0
  0
LINE
  5
1B5
330
1F
100
AcDbEntity
  8
DEFAULT
100
AcDbLine
 10
-555.610928113792
 20
-717.1476964032504
 30
0.0
 11
-549.610928113792
 21
-717.1476964032504
 31
0.0
  0
LINE
  5
1B6
330
1F
100
AcDbEntity
  8
DEFAULT
100
AcDbLine
 10
-549.610928113792
 20
-717.1476964032504
 30
0.0
 11
-549.6109281137922
 21
-708.6624150290118
 31
0.0
  0
ARC
  5
1B7
330
1F
100
AcDbEntity
  8
DEFAULT
100
AcDbCircle
 10
-552.610928113792
 20
-717.1476964032504
 30
0.0
 40
9.0
100
AcDbArc
 50
0.0
 51
70.52877936551015
  0
LINE
  5
1B8
330
1F
100
AcDbEntity
  8
DEFAULT
100
AcDbLine
 10
-543.610928113792
 20
-717.1476964032504
 30
0.0
 11
-543.610928113792
 21
-723.1476964032504
 31
0.0
  0
LINE
  5
1B9
330
1F
100
AcDbEntity
  8
DEFAULT
100
AcDbLine
 10
-543.610928113792
 20
-723.1476964032504
 30
0.0
 11
-561.610928113792
 21
-723.1476964032504
 31
0.0
  0
LINE
  5
1BA
330
1F
100
AcDbEntity
  8
DEFAULT
100
AcDbLine
 10
-561.610928113792
 20
-723.1476964032504
 30
0.0
 11
-561.610928113792
 21
-717.1476964032504
 31
0.0
  0
ARC
  5
1BB
330
1F
100
AcDbEntity
  8
DEFAULT
100
AcDbCircle
 10
-552.610928113792
 20
-717.1476964032504
 30
0.0
 40
9.0
100
AcDbArc
 50
109.4712206344899
 51
180.0
  0
LINE
  5
1BC
330
1F
100
AcDbEntity
  8
DEFAULT
100
AcDbLine
 10
-555.610928113792
 20
-708.6624150290118
 30
0.0
 11
-555.610928113792
 21
-717.1476964032504
 31
0.0
  0
LINE
  5
1BD
330
1F
100
AcDbEntity
  8
DEFAULT
100
AcDbLine
 10
-569.610928113792
 20
-699.1476964032504
 30
0.0
 11
-575.610928113792
 21
-699.1476964032502
 31
0.0
  0
LINE
  5
1BE
330
1F
100
AcDbEntity
  8
DEFAULT
100
AcDbLine
 10
-575.610928113792
 20
-699.1476964032502
 30
0.0
 11
-575.610928113792
 21
-693.1476964032504
 31
0.0
  0
LINE
  5
1BF
330
1F
100
AcDbEntity
  8
DEFAULT
100
AcDbLine
 10
-575.610928113792
 20
-693.1476964032504
 30
0.0
 11
-578.610928113792
 21
-693.1476964032504
 31
0.0
  0
LINE
  5
1C0
330
1F
100
AcDbEntity
  8
DEFAULT
100
AcDbLine
 10
-578.610928113792
 20
-693.1476964032504
 30
0.0
 11
-585.8385349889011
 21
-690.1476964032504
 31
0.0
  0
LINE
  5
1C1
330
1F
100
AcDbEntity
  8
DEFAULT
100
AcDbLine
 10
-585.8385349889011
 20
-690.1476964032504
 30
0.0
 11
-585.8385349889011
 21
-684.2372689028143
 31
0.0
  0
LINE
  5
1C2
330
1F
100
AcDbEntity
  8
DEFAULT
100
AcDbLine
 10
-585.8385349889011
 20
-684.2372689028143
 30
0.0
 11
-582.110928113792
 21
-684.2372689028143
 31
0.0
  0
LINE
  5
1C3
330
1F
100
AcDbEntity
  8
DEFAULT
100
AcDbLine
 10
-582.110928113792
 20
-684.2372689028143
 30
0.0
 11
-581.610928113792
 21
-687.1476964032504
 31
0.0
  0
LINE
  5
1C4
330
1F
100
AcDbEntity
  8
DEFAULT
100
AcDbLine
 10
-581.610928113792
 20
-687.1476964032504
 30
0.0
 11
-575.610928113792
 21
-687.1476964032504
 31
0.0
  0
LINE
  5
1C5
330
1F
100
AcDbEntity
  8
DEFAULT
100
AcDbLine
 10
-575.610928113792
 20
-687.1476964032504
 30
0.0
 11
-569.610928113792
 21
-687.1476964032504
 31
0.0
  0
LINE
  5
1C6
330
1F
100
AcDbEntity
  8
DEFAULT
100
AcDbLine
 10
-569.610928113792
 20
-687.1476964032504
 30
0.0
 11
-565.610928113792
 21
-687.1476964032504
 31
0.0
  0
LINE
  5
1C7
330
1F
100
AcDbEntity
  8
DEFAULT
100
AcDbLine
 10
-565.610928113792
 20
-687.1476964032504
 30
0.0
 11
-536.610928113792
 21
-687.1476964032504
 31
0.0
  0
ARC
  5
1C8
330
1F
100
AcDbEntity
  8
DEFAULT
100
AcDbCircle
 10
-533.610928113792
 20
-687.1476964032504
 30
0.0
 40
3.0
100
AcDbArc
 50
0.0
 51
180.0
  0
LINE
  5
1C9
330
1F
100
AcDbEntity
  8
DEFAULT
100
AcDbLine
 10
-530.610928113792
 20
-687.1476964032504
 30
0.0
 11
-530.610928113792
 21
-693.1476964032504
 31
0.0
  0
LINE
  5
1CA
330
1F
100
AcDbEntity
  8
DEFAULT
100
AcDbLine
 10
-530.610928113792
 20
-693.1476964032504
 30
0.0
 11
-530.610928113792
 21
-697.1476964032504
 31
0.0
  0
ARC
  5
1CB
330
1F
100
AcDbEntity
  8
DEFAULT
100
AcDbCircle
 10
-533.610928113792
 20
-697.1476964032504
 30
0.0
 40
3.0
100
AcDbArc
 50
270.0
 51
0.0
  0
LINE
  5
1CC
330
1F
100
AcDbEntity
  8
DEFAULT
100
AcDbLine
 10
-533.610928113792
 20
-700.1476964032504
 30
0.0
 11
-535.610928113792
 21
-700.1476964032504
 31
0.0
  0
ARC
  5
1CD
330
1F
100
AcDbEntity
  8
DEFAULT
100
AcDbCircle
 10
-535.610928113792
 20
-736.7781311858591
 30
0.0
 40
36.63043478260886
100
AcDbArc
 50
90.0
 51
155.188267532979
  0
ARC
  5
1CE
330
1F
100
AcDbEntity
  8
DEFAULT
100
AcDbCircle
 10
-571.5831396110021
 20
-720.1476964032504
 30
0.0
 40
3.0
100
AcDbArc
 50
270.0
 51
335.1882675329827
  0
LINE
  5
1CF
330
1F
100
AcDbEntity
  8
DEFAULT
100
AcDbLine
 10
-571.5831396110021
 20
-723.1476964032504
 30
0.0
 11
-575.610928113792
 21
-723.1476964032504
 31
0.0
  0
LINE
  5
1D0
330
1F
100
AcDbEntity
  8
DEFAULT
100
AcDbLine
 10
-575.610928113792
 20
-723.1476964032504
 30
0.0
 11
-581.610928113792
 21
-723.1476964032504
 31
0.0
  0
LINE
  5
1D1
330
1F
100
AcDbEntity
  8
DEFAULT
100
AcDbLine
 10
-581.610928113792
 20
-723.1476964032504
 30
0.0
 11
-581.610928113792
 21
-720.1476964032504
 31
0.0
  0
LINE
  5
1D2
330
1F
100
AcDbEntity
  8
DEFAULT
100
AcDbLine
 10
-581.610928113792
 20
-720.1476964032504
 30
0.0
 11
-578.610928113792
 21
-717.1476964032504
 31
0.0
  0
LINE
  5
1D3
330
1F
100
AcDbEntity
  8
DEFAULT
100
AcDbLine
 10
-578.610928113792
 20
-717.1476964032504
 30
0.0
 11
-575.610928113792
 21
-717.1476964032504
 31
0.0
  0
LINE
  5
1D4
330
1F
100
AcDbEntity
  8
DEFAULT
100
AcDbLine
 10
-575.610928113792
 20
-717.1476964032504
 30
0.0
 11
-575.610928113792
 21
-705.1476964032497
 31
0.0
  0
LINE
  5
1D5
330
1F
100
AcDbEntity
  8
DEFAULT
100
AcDbLine
 10
-575.610928113792
 20
-705.1476964032504
 30
0.0
 11
-569.610928113792
 21
-705.1476964032504
 31
0.0
  0
LINE
  5
1D6
330
1F
100
AcDbEntity
  8
DEFAULT
100
AcDbLine
 10
-569.610928113792
 20
-705.1476964032504
 30
0.0
 11
-569.610928113792
 21
-699.1476964032504
 31
0.0
  0
LINE
  5
1D7
330
1F
100
AcDbEntity
  8
DEFAULT
100
AcDbLine
 10
-569.7322484573517
 20
-658.7309832531889
 30
0.0
 11
-575.7322484573517
 21
-658.7309832531887
 31
0.0
  0
LINE
  5
1D8
330
1F
100
AcDbEntity
  8
DEFAULT
100
AcDbLine
 10
-575.7322484573517
 20
-658.7309832531887
 30
0.0
 11
-575.7322484573517
 21
-652.7309832531889
 31
0.0
  0
LINE
  5
1D9
330
1F
100
AcDbEntity
  8
DEFAULT
100
AcDbLine
 10
-575.7322484573517
 20
-652.7309832531889
 30
0.0
 11
-578.7322484573517
 21
-652.7309832531889
 31
0.0
  0
LINE
  5
1DA
330
1F
100
AcDbEntity
  8
DEFAULT
100
AcDbLine
 10
-578.7322484573517
 20
-652.7309832531889
 30
0.0
 11
-585.9598553324607
 21
-649.7309832531889
 31
0.0
  0
LINE
  5
1DB
330
1F
100
AcDbEntity
  8
DEFAULT
100
AcDbLine
 10
-585.9598553324607
 20
-649.7309832531889
 30
0.0
 11
-585.9598553324607
 21
-643.8205557527529
 31
0.0
  0
LINE
  5
1DC
330
1F
100
AcDbEntity
  8
DEFAULT
100
AcDbLine
 10
-585.9598553324607
 20
-643.8205557527529
 30
0.0
 11
-582.2322484573517
 21
-643.8205557527529
 31
0.0
  0
LINE
  5
1DD
330
1F
100
AcDbEntity
  8
DEFAULT
100
AcDbLine
 10
-582.2322484573517
 20
-643.8205557527529
 30
0.0
 11
-581.7322484573517
 21
-646.7309832531889
 31
0.0
  0
LINE
  5
1DE
330
1F
100
AcDbEntity
  8
DEFAULT
100
AcDbLine
 10
-581.7322484573517
 20
-646.7309832531889
 30
0.0
 11
-575.7322484573517
 21
-646.7309832531889
 31
0.0
  0
LINE
  5
1DF
330
1F
100
AcDbEntity
  8
DEFAULT
100
AcDbLine
 10
-575.7322484573517
 20
-646.7309832531889
 30
0.0
 11
-569.7322484573517
 21
-646.7309832531889
 31
0.0
  0
LINE
  5
1E0
330
1F
100
AcDbEntity
  8
DEFAULT
100
AcDbLine
 10
-569.7322484573517
 20
-646.7309832531889
 30
0.0
 11
-565.7322484573517
 21
-646.7309832531889
 31
0.0
  0
LINE
  5
1E1
330
1F
100
AcDbEntity
  8
DEFAULT
100
AcDbLine
 10
-565.7322484573517
 20
-646.7309832531889
 30
0.0
 11
-536.7322484573517
 21
-646.7309832531889
 31
0.0
  0
ARC
  5
1E2
330
1F
100
AcDbEntity
  8
DEFAULT
100
AcDbCircle
 10
-533.7322484573517
 20
-646.7309832531889
 30
0.0
 40
3.0
100
AcDbArc
 50
0.0
 51
180.0
  0
LINE
  5
1E3
330
1F
100
AcDbEntity
  8
DEFAULT
100
AcDbLine
 10
-530.7322484573517
 20
-646.7309832531889
 30
0.0
 11
-530.7322484573517
 21
-652.7309832531889
 31
0.0
  0
LINE
  5
1E4
330
1F
100
AcDbEntity
  8
DEFAULT
100
AcDbLine
 10
-530.7322484573517
 20
-652.7309832531889
 30
0.0
 11
-530.7322484573517
 21
-656.7309832531889
 31
0.0
  0
ARC
  5
1E5
330
1F
100
AcDbEntity
  8
DEFAULT
100
AcDbCircle
 10
-533.7322484573517
 20
-656.7309832531889
 30
0.0
 40
3.0
100
AcDbArc
 50
270.0
 51
0.0
  0
LINE
  5
1E6
330
1F
100
AcDbEntity
  8
DEFAULT
100
AcDbLine
 10
-533.7322484573517
 20
-659.7309832531889
 30
0.0
 11
-535.7322484573517
 21
-659.7309832531889
 31
0.0
  0
ARC
  5
1E7
330
1F
100
AcDbEntity
  8
DEFAULT
100
AcDbCircle
 10
-535.7322484573517
 20
-696.3614180357977
 30
0.0
 40
36.63043478260886
100
AcDbArc
 50
90.0
 51
155.188267532979
  0
ARC
  5
1E8
330
1F
100
AcDbEntity
  8
DEFAULT
100
AcDbCircle
 10
-571.7044599545618
 20
-679.7309832531889
 30
0.0
 40
3.0
100
AcDbArc
 50
270.0
 51
335.1882675329827
  0
LINE
  5
1E9
330
1F
100
AcDbEntity
  8
DEFAULT
100
AcDbLine
 10
-571.7044599545618
 20
-682.7309832531889
 30
0.0
 11
-575.7322484573517
 21
-682.7309832531889
 31
0.0
  0
LINE
  5
1EA
330
1F
100
AcDbEntity
  8
DEFAULT
100
AcDbLine
 10
-575.7322484573517
 20
-682.7309832531889
 30
0.0
 11
-581.7322484573517
 21
-682.7309832531889
 31
0.0
  0
LINE
  5
1EB
330
1F
100
AcDbEntity
  8
DEFAULT
100
AcDbLine
 10
-581.7322484573517
 20
-682.7309832531889
 30
0.0
 11
-581.7322484573517
 21
-679.7309832531889
 31
0.0
  0
LINE
  5
1EC
330
1F
100
AcDbEntity
  8
DEFAULT
100
AcDbLine
 10
-581.7322484573517
 20
-679.7309832531889
 30
0.0
 11
-578.7322484573517
 21
-676.7309832531889
 31
0.0
  0
LINE
  5
1ED
330
1F
100
AcDbEntity
  8
DEFAULT
100
AcDbLine
 10
-578.7322484573517
 20
-676.7309832531889
 30
0.0
 11
-575.7322484573517
 21
-676.7309832531889
 31
0.0
  0
LINE
  5
1EE
330
1F
100
AcDbEntity
  8
DEFAULT
100
AcDbLine
 10
-575.7322484573517
 20
-676.7309832531889
 30
0.0
 11
-575.7322484573517
 21
-664.7309832531882
 31
0.0
  0
LINE
  5
1EF
330
1F
100
AcDbEntity
  8
DEFAULT
100
AcDbLine
 10
-575.7322484573517
 20
-664.7309832531889
 30
0.0
 11
-569.7322484573517
 21
-664.7309832531889
 31
0.0
  0
LINE
  5
1F0
330
1F
100
AcDbEntity
  8
DEFAULT
100
AcDbLine
 10
-569.7322484573517
 20
-664.7309832531889
 30
0.0
 11
-569.7322484573517
 21
-658.7309832531889
 31
0.0
  0
LINE
  5
1F1
330
1F
100
AcDbEntity
  8
DEFAULT
100
AcDbLine
 10
-555.7322484573517
 20
-676.7309832531889
 30
0.0
 11
-549.7322484573517
 21
-676.7309832531889
 31
0.0
  0
LINE
  5
1F2
330
1F
100
AcDbEntity
  8
DEFAULT
100
AcDbLine
 10
-549.7322484573517
 20
-676.7309832531889
 30
0.0
 11
-549.7322484573518
 21
-668.2457018789503
 31
0.0
  0
ARC
  5
1F3
330
1F
100
AcDbEntity
  8
DEFAULT
100
AcDbCircle
 10
-552.7322484573517
 20
-676.7309832531889
 30
0.0
 40
9.0
100
AcDbArc
 50
0.0
 51
70.52877936551015
  0
LINE
  5
1F4
330
1F
100
AcDbEntity
  8
DEFAULT
100
AcDbLine
 10
-543.7322484573517
 20
-676.7309832531889
 30
0.0
 11
-543.7322484573517
 21
-682.7309832531889
 31
0.0
  0
LINE
  5
1F5
330
1F
100
AcDbEntity
  8
DEFAULT
100
AcDbLine
 10
-543.7322484573517
 20
-682.7309832531889
 30
0.0
 11
-561.7322484573517
 21
-682.7309832531889
 31
0.0
  0
LINE
  5
1F6
330
1F
100
AcDbEntity
  8
DEFAULT
100
AcDbLine
 10
-561.7322484573517
 20
-682.7309832531889
 30
0.0
 11
-561.7322484573517
 21
-676.7309832531889
 31
0.0
  0
ARC
  5
1F7
330
1F
100
AcDbEntity
  8
DEFAULT
100
AcDbCircle
 10
-552.7322484573517
 20
-676.7309832531889
 30
0.0
 40
9.0
100
AcDbArc
 50
109.4712206344899
 51
180.0
  0
LINE
  5
1F8
330
1F
100
AcDbEntity
  8
DEFAULT
100
AcDbLine
 10
-555.7322484573517
 20
-668.2457018789505
 30
0.0
 11
-555.7322484573517
 21
-676.7309832531889
 31
0.0
  0
LINE
  5
1F9
330
1F
100
AcDbEntity
  8
DEFAULT
100
AcDbLine
 10
-621.7322484573517
 20
-668.2690167468099
 30
0.0
 11
-627.7322484573517
 21
-668.2690167468102
 31
0.0
  0
LINE
  5
1FA
330
1F
100
AcDbEntity
  8
DEFAULT
100
AcDbLine
 10
-627.7322484573517
 20
-668.2690167468102
 30
0.0
 11
-627.7322484573517
 21
-674.2690167468099
 31
0.0
  0
LINE
  5
1FB
330
1F
100
AcDbEntity
  8
DEFAULT
100
AcDbLine
 10
-627.7322484573517
 20
-674.2690167468099
 30
0.0
 11
-630.7322484573517
 21
-674.2690167468099
 31
0.0
  0
LINE
  5
1FC
330
1F
100
AcDbEntity
  8
DEFAULT
100
AcDbLine
 10
-630.7322484573517
 20
-674.2690167468099
 30
0.0
 11
-637.9598553324607
 21
-677.2690167468099
 31
0.0
  0
LINE
  5
1FD
330
1F
100
AcDbEntity
  8
DEFAULT
100
AcDbLine
 10
-637.9598553324607
 20
-677.2690167468099
 30
0.0
 11
-637.9598553324607
 21
-683.179444247246
 31
0.0
  0
LINE
  5
1FE
330
1F
100
AcDbEntity
  8
DEFAULT
100
AcDbLine
 10
-637.9598553324607
 20
-683.179444247246
 30
0.0
 11
-634.2322484573517
 21
-683.179444247246
 31
0.0
  0
LINE
  5
1FF
330
1F
100
AcDbEntity
  8
DEFAULT
100
AcDbLine
 10
-634.2322484573517
 20
-683.179444247246
 30
0.0
 11
-633.7322484573517
 21
-680.2690167468099
 31
0.0
  0
LINE
  5
200
330
1F
100
AcDbEntity
  8
DEFAULT
100
AcDbLine
 10
-633.7322484573517
 20
-680.2690167468099
 30
0.0
 11
-627.7322484573517
 21
-680.2690167468099
 31
0.0
  0
LINE
  5
201
330
1F
100
AcDbEntity
  8
DEFAULT
100
AcDbLine
 10
-627.7322484573517
 20
-680.2690167468099
 30
0.0
 11
-621.7322484573517
 21
-680.2690167468099
 31
0.0
  0
LINE
  5
202
330
1F
100
AcDbEntity
  8
DEFAULT
100
AcDbLine
 10
-621.7322484573517
 20
-680.2690167468099
 30
0.0
 11
-617.7322484573517
 21
-680.2690167468099
 31
0.0
  0
LINE
  5
203
330
1F
100
AcDbEntity
  8
DEFAULT
100
AcDbLine
 10
-617.7322484573517
 20
-680.2690167468099
 30
0.0
 11
-588.7322484573517
 21
-680.2690167468099
 31
0.0
  0
ARC
  5
204
330
1F
100
AcDbEntity
  8
DEFAULT
100
AcDbCircle
 10
-585.7322484573517
 20
-680.2690167468099
 30
0.0
 40
3.0
100
AcDbArc
 50
180.0
 51
0.0
  0
LINE
  5
205
330
1F
100
AcDbEntity
  8
DEFAULT
100
AcDbLine
 10
-582.7322484573517
 20
-680.2690167468099
 30
0.0
 11
-582.7322484573517
 21
-674.2690167468099
 31
0.0
  0
LINE
  5
206
330
1F
100
AcDbEntity
  8
DEFAULT
100
AcDbLine
 10
-582.7322484573517
 20
-674.2690167468099
 30
0.0
 11
-582.7322484573517
 21
-670.2690167468099
 31
0.0
  0
ARC
  5
207
330
1F
100
AcDbEntity
  8
DEFAULT
100
AcDbCircle
 10
-585.7322484573517
 20
-670.2690167468099
 30
0.0
 40
3.0
100
AcDbArc
 50
0.0
 51
90.0
  0
LINE
  5
208
330
1F
100
AcDbEntity
  8
DEFAULT
100
AcDbLine
 10
-585.7322484573517
 20
-667.2690167468099
 30
0.0
 11
-587.7322484573517
 21
-667.2690167468102
 31
0.0
  0
ARC
  5
209
330
1F
100
AcDbEntity
  8
DEFAULT
100
AcDbCircle
 10
-587.7322484573517
 20
-630.6385819642012
 30
0.0
 40
36.63043478260886
100
AcDbArc
 50
204.811732467021
 51
270.0
  0
ARC
  5
20A
330
1F
100
AcDbEntity
  8
DEFAULT
100
AcDbCircle
 10
-623.7044599545618
 20
-647.2690167468099
 30
0.0
 40
3.0
100
AcDbArc
 50
24.81173246701728
 51
90.0
  0
LINE
  5
20B
330
1F
100
AcDbEntity
  8
DEFAULT
100
AcDbLine
 10
-623.7044599545618
 20
-644.2690167468099
 30
0.0
 11
-627.7322484573517
 21
-644.2690167468099
 31
0.0
  0
LINE
  5
20C
330
1F
100
AcDbEntity
  8
DEFAULT
100
AcDbLine
 10
-627.7322484573517
 20
-644.2690167468099
 30
0.0
 11
-633.7322484573517
 21
-644.2690167468099
 31
0.0
  0
LINE
  5
20D
330
1F
100
AcDbEntity
  8
DEFAULT
100
AcDbLine
 10
-633.7322484573517
 20
-644.2690167468099
 30
0.0
 11
-633.7322484573517
 21
-647.2690167468099
 31
0.0
  0
LINE
  5
20E
330
1F
100
AcDbEntity
  8
DEFAULT
100
AcDbLine
 10
-633.7322484573517
 20
-647.2690167468099
 30
0.0
 11
-630.7322484573517
 21
-650.2690167468099
 31
0.0
  0
LINE
  5
20F
330
1F
100
AcDbEntity
  8
DEFAULT
100
AcDbLine
 10
-630.7322484573517
 20
-650.2690167468099
 30
0.0
 11
-627.7322484573517
 21
-650.2690167468099
 31
0.0
  0
LINE
  5
210
330
1F
100
AcDbEntity
  8
DEFAULT
100
AcDbLine
 10
-627.7322484573517
 20
-650.2690167468099
 30
0.0
 11
-627.7322484573517
 21
-662.2690167468108
 31
0.0
  0
LINE
  5
211
330
1F
100
AcDbEntity
  8
DEFAULT
100
AcDbLine
 10
-627.7322484573517
 20
-662.2690167468099
 30
0.0
 11
-621.7322484573517
 21
-662.2690167468099
 31
0.0
  0
LINE
  5
212
330
1F
100
AcDbEntity
  8
DEFAULT
100
AcDbLine
 10
-621.7322484573517
 20
-662.2690167468099
 30
0.0
 11
-621.7322484573517
 21
-668.2690167468099
 31
0.0
  0
LINE
  5
213
330
1F
100
AcDbEntity
  8
DEFAULT
100
AcDbLine
 10
-607.7322484573517
 20
-650.2690167468099
 30
0.0
 11
-601.7322484573517
 21
-650.2690167468099
 31
0.0
  0
LINE
  5
214
330
1F
100
AcDbEntity
  8
DEFAULT
100
AcDbLine
 10
-601.7322484573517
 20
-650.2690167468099
 30
0.0
 11
-601.7322484573518
 21
-658.7542981210486
 31
0.0
  0
ARC
  5
215
330
1F
100
AcDbEntity
  8
DEFAULT
100
AcDbCircle
 10
-604.7322484573517
 20
-650.2690167468099
 30
0.0
 40
9.0
100
AcDbArc
 50
289.4712206344898
 51
0.0
  0
LINE
  5
216
330
1F
100
AcDbEntity
  8
DEFAULT
100
AcDbLine
 10
-595.7322484573517
 20
-650.2690167468099
 30
0.0
 11
-595.7322484573517
 21
-644.2690167468099
 31
0.0
  0
LINE
  5
217
330
1F
100
AcDbEntity
  8
DEFAULT
100
AcDbLine
 10
-595.7322484573517
 20
-644.2690167468099
 30
0.0
 11
-613.7322484573517
 21
-644.2690167468099
 31
0.0
  0
LINE
  5
218
330
1F
100
AcDbEntity
  8
DEFAULT
100
AcDbLine
 10
-613.7322484573517
 20
-644.2690167468099
 30
0.0
 11
-613.7322484573517
 21
-650.2690167468099
 31
0.0
  0
ARC
  5
219
330
1F
100
AcDbEntity
  8
DEFAULT
100
AcDbCircle
 10
-604.7322484573517
 20
-650.2690167468099
 30
0.0
 40
9.0
100
AcDbArc
 50
180.0
 51
250.5287793655101
  0
LINE
  5
21A
330
1F
100
AcDbEntity
  8
DEFAULT
100
AcDbLine
 10
-607.7322484573517
 20
-658.7542981210486
 30
0.0
 11
-607.7322484573517
 21
-650.2690167468099
 31
0.0
  0
ENDSEC
  0
SECTION
  2
OBJECTS
  0
DICTIONARY
  5
C
330
0
100
AcDbDictionary
  3
ACAD_GROUP
350
D
  3
ACAD_LAYOUT
350
1A
  3
ACAD_MATERIAL
350
43
  3
ACAD_MLEADERSTYLE
350
23D
  3
ACAD_MLINESTYLE
350
17
  3
ACAD_PLOTSETTINGS
350
19
  3
ACAD_SCALELIST
350
47
  3
ACAD_VISUALSTYLE
350
2A
  3
ACDBHEADERROUNDTRIPXREC
350
21B
  3
ACDBVARIABLEDICTIONARY
350
23B
  0
DICTIONARY
  5
D
102
{ACAD_REACTORS
330
C
102
}
330
C
100
AcDbDictionary
  0
DICTIONARY
  5
1A
102
{ACAD_REACTORS
330
C
102
}
330
C
100
AcDbDictionary
  0
DICTIONARY
  5
43
102
{ACAD_REACTORS
330
C
102
}
330
C
100
AcDbDictionary
  3
BYBLOCK
350
45
  3
BYLAYER
350
44
  3
GLOBAL
350
46
  0
DICTIONARY
  5
23D
102
{ACAD_REACTORS
330
C
102
}
330
C
100
AcDbDictionary
  0
DICTIONARY
  5
17
102
{ACAD_REACTORS
330
C
102
}
330
C
100
AcDbDictionary
  3
STANDARD
350
18
  0
DICTIONARY
  5
19
102
{ACAD_REACTORS
330
C
102
}
330
C
100
AcDbDictionary
  0
DICTIONARY
  5
47
102
{ACAD_REACTORS
330
C
102
}
330
C
100
AcDbDictionary
  3
A0
350
48
  3
A1
350
49
  3
A2
350
4A
  3
A3
350
4B
  3
A4
350
4C
  3
A5
350
4D
  3
A6
350
4E
  3
A7
350
4F
  3
A8
350
50
  3
A9
350
51
  3
B0
350
52
  3
B1
350
53
  3
B2
350
54
  3
B3
350
55
  3
B4
350
56
  3
B5
350
57
  3
B6
350
58
  3
B7
350
59
  3
B8
350
5A
  3
B9
350
5B
  3
C0
350
5C
  3
C1
350
5D
  3
C2
350
5E
  3
C3
350
5F
  3
C4
350
60
  3
C5
350
61
  3
C6
350
62
  3
C7
350
63
  3
C8
350
64
  3
C9
350
65
  3
D0
350
66
  3
D1
350
67
  3
D2
350
68
  0
DICTIONARY
  5
2A
102
{ACAD_REACTORS
330
C
102
}
330
C
100
AcDbDictionary
  3
2DWIREFRAME
350
2F
  3
BASIC
350
32
  3
BRIGHTEN
350
36
  3
COLORCHANGE
350
3A
  3
CONCEPTUAL
350
34
  3
DIM
350
35
  3
EDGECOLOROFF
350
3D
  3
FACEPATTERN
350
39
  3
FLAT
350
2B
  3
FLATWITHEDGES
350
2C
  3
GOURAUD
350
2D
  3
GOURAUDWITHEDGES
350
2E
  3
HIDDEN
350
31
  3
JITTEROFF
350
3B
  3
LINEPATTERN
350
38
  3
OVERHANGOFF
350
3C
  3
REALISTIC
350
33
  3
SHADED
350
42
  3
SHADED_WITH_EDGES
350
41
  3
SHADES_OF_GRAY
350
3E
  3
SKETCHY
350
3F
  3
THICKEN
350
37
  3
WIREFRAME
350
30
  3
X-RAY
350
40
  0
DICTIONARY
  5
21B
102
{ACAD_REACTORS
330
C
102
}
330
C
100
AcDbDictionary
  3
CEPSNTYPE
350
224
  3
DIMSTYLEDATA
350
23A
  3
FINGERPRINTGUID
350
225
  3
HYPERLINKBASE
350
21E
  3
INSUNITS
350
223
  3
LAYOUTDICT
350
220
  3
LWETCUNION
350
222
  3
PLOTSETDICT
350
221
  3
PSVPSCALE
350
227
  3
PUCSBASE
350
22A
  3
PUCSORGBACK
350
230
  3
PUCSORGBOTTOM
350
22C
  3
PUCSORGFRONT
350
22F
  3
PUCSORGLEFT
350
22D
  3
PUCSORGRIGHT
350
22E
  3
PUCSORGTOP
350
22B
  3
PUCSORTHOREF
350
228
  3
PUCSORTHOVIEW
350
229
  3
STYLESHEET
350
21F
  3
TSTACKALIGN
350
21C
  3
TSTACKSIZE
350
21D
  3
UCSBASE
350
233
  3
UCSORGBACK
350
239
  3
UCSORGBOTTOM
350
235
  3
UCSORGFRONT
350
238
  3
UCSORGLEFT
350
236
  3
UCSORGRIGHT
350
237
  3
UCSORGTOP
350
234
  3
UCSORTHOREF
350
231
  3
UCSORTHOVIEW
350
232
  3
VERSIONGUID
350
226
  0
DICTIONARY
  5
23B
102
{ACAD_REACTORS
330
C
102
}
330
C
100
AcDbDictionary
  3
CANNOSCALE
350
242
  3
DIMASSOC
350
240
  3
HIDETEXT
350
241
  3
MSLTSCALE
350
243
  0
MATERIAL
  5
45
102
{ACAD_REACTORS
330
43
102
}
102
{ACAD_XDICTIONARY
360
246
102
}
330
43
100
AcDbMaterial
  1
BYBLOCK
  0
MATERIAL
  5
44
102
{ACAD_REACTORS
330
43
102
}
102
{ACAD_XDICTIONARY
360
244
102
}
330
43
100
AcDbMaterial
  1
BYLAYER
  0
MATERIAL
  5
46
102
{ACAD_REACTORS
330
43
102
}
102
{ACAD_XDICTIONARY
360
248
102
}
330
43
100
AcDbMaterial
  1
GLOBAL
  0
MLINESTYLE
  5
18
102
{ACAD_REACTORS
330
17
102
}
330
17
100
AcDbMlineStyle
  2
Standard
 70
     0
  3

 62
   256
 51
90.0
 52
90.0
 71
     2
 49
0.5
 62
   256
  6
BYLAYER
 49
-0.5
 62
   256
  6
BYLAYER
  0
ACAD_PROXY_OBJECT
  5
48
102
{ACAD_REACTORS
330
47
102
}
330
47
100
AcDbProxyObject
 90
      499
 91
      503
 93
       41
310
903313A31580
  0
ACAD_PROXY_OBJECT
  5
49
102
{ACAD_REACTORS
330
47
102
}
330
47
100
AcDbProxyObject
 90
      499
 91
      503
 93
      105
310
903313A324000000000000004000
  0
ACAD_PROXY_OBJECT
  5
4A
102
{ACAD_REACTORS
330
47
102
}
330
47
100
AcDbProxyObject
 90
      499
 91
      503
 93
      105
310
903313A344000000000000104000
  0
ACAD_PROXY_OBJECT
  5
4B
102
{ACAD_REACTORS
330
47
102
}
330
47
100
AcDbProxyObject
 90
      499
 91
      503
 93
      105
310
903313A354000000000000144000
  0
ACAD_PROXY_OBJECT
  5
4C
102
{ACAD_REACTORS
330
47
102
}
330
47
100
AcDbProxyObject
 90
      499
 91
      503
 93
      105
310
903313A384000000000000204000
  0
ACAD_PROXY_OBJECT
  5
4D
102
{ACAD_REACTORS
330
47
102
}
330
47
100
AcDbProxyObject
 90
      499
 91
      503
 93
      113
310
904313A31304000000000000244000
  0
ACAD_PROXY_OBJECT
  5
4E
102
{ACAD_REACTORS
330
47
102
}
330
47
100
AcDbProxyObject
 90
      499
 91
      503
 93
      113
310
904313A31364000000000000304000
  0
ACAD_PROXY_OBJECT
  5
4F
102
{ACAD_REACTORS
330
47
102
}
330
47
100
AcDbProxyObject
 90
      499
 91
      503
 93
      113
310
904313A32304000000000000344000
  0
ACAD_PROXY_OBJECT
  5
50
102
{ACAD_REACTORS
330
47
102
}
330
47
100
AcDbProxyObject
 90
      499
 91
      503
 93
      113
310
904313A333040000000000003E4000
  0
ACAD_PROXY_OBJECT
  5
51
102
{ACAD_REACTORS
330
47
102
}
330
47
100
AcDbProxyObject
 90
      499
 91
      503
 93
      113
310
904313A34304000000000000444000
  0
ACAD_PROXY_OBJECT
  5
52
102
{ACAD_REACTORS
330
47
102
}
330
47
100
AcDbProxyObject
 90
      499
 91
      503
 93
      113
310
904313A35304000000000000494000
  0
ACAD_PROXY_OBJECT
  5
53
102
{ACAD_REACTORS
330
47
102
}
330
47
100
AcDbProxyObject
 90
      499
 91
      503
 93
      121
310
905313A3130304000000000000594000
  0
ACAD_PROXY_OBJECT
  5
54
102
{ACAD_REACTORS
330
47
102
}
330
47
100
AcDbProxyObject
 90
      499
 91
      503
 93
      105
310
903323A310000000000000010100
  0
ACAD_PROXY_OBJECT
  5
55
102
{ACAD_REACTORS
330
47
102
}
330
47
100
AcDbProxyObject
 90
      499
 91
      503
 93
      105
310
903343A310000000000000410100
  0
ACAD_PROXY_OBJECT
  5
56
102
{ACAD_REACTORS
330
47
102
}
330
47
100
AcDbProxyObject
 90
      499
 91
      503
 93
      105
310
903383A310000000000000810100
  0
ACAD_PROXY_OBJECT
  5
57
102
{ACAD_REACTORS
330
47
102
}
330
47
100
AcDbProxyObject
 90
      499
 91
      503
 93
      113
310
90431303A310000000000000910100
  0
ACAD_PROXY_OBJECT
  5
58
102
{ACAD_REACTORS
330
47
102
}
330
47
100
AcDbProxyObject
 90
      499
 91
      503
 93
      121
310
9053130303A310000000000001650100
  0
ACAD_PROXY_OBJECT
  5
59
102
{ACAD_REACTORS
330
47
102
}
330
47
100
AcDbProxyObject
 90
      499
 91
      503
 93
      257
310
90E312F31323822203D2031272D3022000000000000200FC000000000000284000
  0
ACAD_PROXY_OBJECT
  5
5A
102
{ACAD_REACTORS
330
47
102
}
330
47
100
AcDbProxyObject
 90
      499
 91
      503
 93
      249
310
90D312F363422203D2031272D3022000000000000240FC000000000000284000
  0
ACAD_PROXY_OBJECT
  5
5B
102
{ACAD_REACTORS
330
47
102
}
330
47
100
AcDbProxyObject
 90
      499
 91
      503
 93
      249
310
90D312F333222203D2031272D3022000000000000280FC000000000000284000
  0
ACAD_PROXY_OBJECT
  5
5C
102
{ACAD_REACTORS
330
47
102
}
330
47
100
AcDbProxyObject
 90
      499
 91
      503
 93
      249
310
90D312F313622203D2031272D30220000000000002C0FC000000000000284000
  0
ACAD_PROXY_OBJECT
  5
5D
102
{ACAD_REACTORS
330
47
102
}
330
47
100
AcDbProxyObject
 90
      499
 91
      503
 93
      249
310
90D332F333222203D2031272D30220000000000002E0FC000000000000284000
  0
ACAD_PROXY_OBJECT
  5
5E
102
{ACAD_REACTORS
330
47
102
}
330
47
100
AcDbProxyObject
 90
      499
 91
      503
 93
      241
310
90C312F3822203D2031272D3022000000000000300FC000000000000284000
  0
ACAD_PROXY_OBJECT
  5
5F
102
{ACAD_REACTORS
330
47
102
}
330
47
100
AcDbProxyObject
 90
      499
 91
      503
 93
      249
310
90D332F313622203D2031272D3022000000000000320FC000000000000284000
  0
ACAD_PROXY_OBJECT
  5
60
102
{ACAD_REACTORS
330
47
102
}
330
47
100
AcDbProxyObject
 90
      499
 91
      503
 93
      241
310
90C312F3422203D2031272D3022000000000000340FC000000000000284000
  0
ACAD_PROXY_OBJECT
  5
61
102
{ACAD_REACTORS
330
47
102
}
330
47
100
AcDbProxyObject
 90
      499
 91
      503
 93
      241
310
90C332F3822203D2031272D3022000000000000360FC000000000000284000
  0
ACAD_PROXY_OBJECT
  5
62
102
{ACAD_REACTORS
330
47
102
}
330
47
100
AcDbProxyObject
 90
      499
 91
      503
 93
      241
310
90C312F3222203D2031272D3022000000000000380FC000000000000284000
  0
ACAD_PROXY_OBJECT
  5
63
102
{ACAD_REACTORS
330
47
102
}
330
47
100
AcDbProxyObject
 90
      499
 91
      503
 93
      241
310
90C332F3422203D2031272D30220000000000003A0FC000000000000284000
  0
ACAD_PROXY_OBJECT
  5
64
102
{ACAD_REACTORS
330
47
102
}
330
47
100
AcDbProxyObject
 90
      499
 91
      503
 93
      161
310
90A3122203D2031272D30224000000000000284000
  0
ACAD_PROXY_OBJECT
  5
65
102
{ACAD_REACTORS
330
47
102
}
330
47
100
AcDbProxyObject
 90
      499
 91
      503
 93
      257
310
90E312D312F3222203D2031272D30220000000000003E0FC000000000000284000
  0
ACAD_PROXY_OBJECT
  5
66
102
{ACAD_REACTORS
330
47
102
}
330
47
100
AcDbProxyObject
 90
      499
 91
      503
 93
      225
310
90A3322203D2031272D302200000000000002100000000000000284000
  0
ACAD_PROXY_OBJECT
  5
67
102
{ACAD_REACTORS
330
47
102
}
330
47
100
AcDbProxyObject
 90
      499
 91
      503
 93
      225
310
90A3622203D2031272D302200000000000006100000000000000284000
  0
ACAD_PROXY_OBJECT
  5
68
102
{ACAD_REACTORS
330
47
102
}
330
47
100
AcDbProxyObject
 90
      499
 91
      503
 93
      249
310
90D31272D3022203D2031272D30220000000000000A100000000000000284000
  0
ACAD_PROXY_OBJECT
  5
2F
102
{ACAD_REACTORS
330
2A
102
}
330
2A
100
AcDbProxyObject
 90
      499
 91
      501
 93
      436
310
42CC9915DA5C99599C985B595049028333333333333E33F0000000000000F90107901411070040501600405405064090741402480A0340
1001
ACAD
1000
AcDbSavedByObjectVersion
1070
     0
  0
ACAD_PROXY_OBJECT
  5
32
102
{ACAD_REACTORS
330
2A
102
}
330
2A
100
AcDbProxyObject
 90
      499
 91
      501
 93
      388
310
4150985CDA58D07406404333333333333E33F0000000000000F90107A41107004050150841D405064090741402480A0350
1001
ACAD
1000
AcDbSavedByObjectVersion
1070
     0
  0
ACAD_PROXY_OBJECT
  5
36
102
{ACAD_REACTORS
330
2A
102
}
330
2A
100
AcDbProxyObject
 90
      499
 91
      501
 93
      428
310
42109C9A59DA1D195B90C409028333333333333E33F0000000000000F9010790141107004050150841D405064090741402480A029950
1001
ACAD
1000
AcDbSavedByObjectVersion
1070
     0
  0
ACAD_PROXY_OBJECT
  5
3A
102
{ACAD_REACTORS
330
2A
102
}
330
2A
100
AcDbProxyObject
 90
      499
 91
      501
 93
      452
310
42D0DBDB1BDC90DA185B99D95104090240C333333333333E33F0000000000000F90108901411070040501508421405064090741402480A0350
1001
ACAD
1000
AcDbSavedByObjectVersion
1070
     0
  0
ACAD_PROXY_OBJECT
  5
34
102
{ACAD_REACTORS
330
2A
102
}
330
2A
100
AcDbProxyObject
 90
      499
 91
      501
 93
      500
310
4290DBDB98D95C1D1D585B10940D028333333333333E33F0000000000000F90107902409070040501000000000018199010841D405064090740C02480A0340
1001
ACAD
1000
AcDbSavedByObjectVersion
1070
     0
  0
ACAD_PROXY_OBJECT
  5
35
102
{ACAD_REACTORS
330
2A
102
}
330
2A
100
AcDbProxyObject
 90
      499
 91
      501
 93
      412
310
40D11A5B50B409028333333333333E33F0000000000000F9010790141107004050150841D405064090741402480A02677FFFFFD0
1001
ACAD
1000
AcDbSavedByObjectVersion
1070
     0
  0
ACAD_PROXY_OBJECT
  5
3D
102
{ACAD_REACTORS
330
2A
102
}
330
2A
100
AcDbProxyObject
 90
      499
 91
      501
 93
      452
310
43115919D950DBDB1BDC93D999916409028333333333333E33F0000000000000F9010790141107004050150841D405064090741402480A0350
1001
ACAD
1000
AcDbSavedByObjectVersion
1070
     0
  0
ACAD_PROXY_OBJECT
  5
39
102
{ACAD_REACTORS
330
2A
102
}
330
2A
100
AcDbProxyObject
 90
      499
 91
      501
 93
      444
310
42D19858D95C185D1D195C9B90F409028333333333333E33F0000000000000F9010790141107004050150841D405064090741402480A0350
1001
ACAD
1000
AcDbSavedByObjectVersion
1070
     0
  0
ACAD_PROXY_OBJECT
  5
2B
102
{ACAD_REACTORS
330
2A
102
}
330
2A
100
AcDbProxyObject
 90
      499
 91
      501
 93
      380
310
41119B185D240901404333333333333E33F0000000000000F9010740A907004050150841D405064090741402480A1B50
1001
ACAD
1000
AcDbSavedByObjectVersion
1070
     0
  0
ACAD_PROXY_OBJECT
  5
2C
102
{ACAD_REACTORS
330
2A
102
}
330
2A
100
AcDbProxyObject
 90
      499
 91
      501
 93
      468
310
43519B185D15DA5D1A115919D95CD0140901404333333333333E33F0000000000000F90107409019070040501600405405064090741402480A1B50
1001
ACAD
1000
AcDbSavedByObjectVersion
1070
     0
  0
ACAD_PROXY_OBJECT
  5
2D
102
{ACAD_REACTORS
330
2A
102
}
330
2A
100
AcDbProxyObject
 90
      499
 91
      501
 93
      404
310
41D1DBDD5C985D5910240902404333333333333E33F0000000000000F9010740A9070040501641D405064090741402480A1B50
1001
ACAD
1000
AcDbSavedByObjectVersion
1070
     0
  0
ACAD_PROXY_OBJECT
  5
2E
102
{ACAD_REACTORS
330
2A
102
}
330
2A
100
AcDbProxyObject
 90
      499
 91
      501
 93
      492
310
4411DBDD5C985D5915DA5D1A115919D95CD0340902404333333333333E33F0000000000000F90107409019070040501600405405064090741402480A1B50
1001
ACAD
1000
AcDbSavedByObjectVersion
1070
     0
  0
ACAD_PROXY_OBJECT
  5
31
102
{ACAD_REACTORS
330
2A
102
}
330
2A
100
AcDbProxyObject
 90
      499
 91
      501
 93
      476
310
41921A5919195B90640502408333333333333E33F0000000000000F901079024090700405020000000000001110200405405064090740C02480A0340
1001
ACAD
1000
AcDbSavedByObjectVersion
1070
     0
  0
ACAD_PROXY_OBJECT
  5
3B
102
{ACAD_REACTORS
330
2A
102
}
330
2A
100
AcDbProxyObject
 90
      499
 91
      501
 93
      428
310
42529A5D1D195C93D999914409028333333333333E33F0000000000000F9010790141107004050150A41D405064090741402480A0350
1001
ACAD
1000
AcDbSavedByObjectVersion
1070
     0
  0
ACAD_PROXY_OBJECT
  5
38
102
{ACAD_REACTORS
330
2A
102
}
330
2A
100
AcDbProxyObject
 90
      499
 91
      501
 93
      444
310
42D31A5B995C185D1D195C9B90E409028333333333333E33F0000000000000F9010790141107004050750841D405064090741402483A0350
1001
ACAD
1000
AcDbSavedByObjectVersion
1070
     0
  0
ACAD_PROXY_OBJECT
  5
3C
102
{ACAD_REACTORS
330
2A
102
}
330
2A
100
AcDbProxyObject
 90
      499
 91
      501
 93
      444
310
42D3DD995C9A185B99D3D999915409028333333333333E33F0000000000000F9010790141107004050150941D405064090741402480A0350
1001
ACAD
1000
AcDbSavedByObjectVersion
1070
     0
  0
ACAD_PROXY_OBJECT
  5
33
102
{ACAD_REACTORS
330
2A
102
}
330
2A
100
AcDbProxyObject
 90
      499
 91
      501
 93
      428
310
425499585B1A5CDD1A58D08409038333333333333E33F0000000000000F9010740A907004050150800405405064090740C02480A1B40
1001
ACAD
1000
AcDbSavedByObjectVersion
1070
     0
  0
ACAD_PROXY_OBJECT
  5
42
102
{ACAD_REACTORS
330
2A
102
}
330
2A
100
AcDbProxyObject
 90
      499
 91
      501
 93
      420
310
4194DA1859195911B40902404333333333333E33F0000000000000F9010740A41107004050150800405405064090840C02480A0B40
1001
ACAD
1000
AcDbSavedByObjectVersion
1070
     0
  0
ACAD_PROXY_OBJECT
  5
41
102
{ACAD_REACTORS
330
2A
102
}
330
2A
100
AcDbProxyObject
 90
      499
 91
      501
 93
      516
310
4454DA18591959081DDA5D1A08195919D95CD1A40902404333333333333E33F0000000000000F901074090142907004050250800405405064090740C02480A0B40
1001
ACAD
1000
AcDbSavedByObjectVersion
1070
     0
  0
ACAD_PROXY_OBJECT
  5
3E
102
{ACAD_REACTORS
330
2A
102
}
330
2A
100
AcDbProxyObject
 90
      499
 91
      501
 93
      532
310
4394DA1859195CC81BD98811DC985E5174090240C333333333333E33F0000000000000F901079024090741D01000000000000111010841D405064090740C02480A0340
1001
ACAD
1000
AcDbSavedByObjectVersion
1070
     0
  0
ACAD_PROXY_OBJECT
  5
3F
102
{ACAD_REACTORS
330
2A
102
}
330
2A
100
AcDbProxyObject
 90
      499
 91
      501
 93
      476
310
41D4DAD95D18DA1E51840502408333333333333E33F0000000000000F901079024090741D01000000000000111010B41D405064090741802480A0340
1001
ACAD
1000
AcDbSavedByObjectVersion
1070
     0
  0
ACAD_PROXY_OBJECT
  5
37
102
{ACAD_REACTORS
330
2A
102
}
330
2A
100
AcDbProxyObject
 90
      499
 91
      501
 93
      412
310
41D51A1A58DAD95B90D409028333333333333E33F0000000000000F9010790141107004050150C41D405064090741402480A0350
1001
ACAD
1000
AcDbSavedByObjectVersion
1070
     0
  0
ACAD_PROXY_OBJECT
  5
30
102
{ACAD_REACTORS
330
2A
102
}
330
2A
100
AcDbProxyObject
 90
      499
 91
      501
 93
      420
310
4255DA5C99599C985B595059028333333333333E33F0000000000000F90107901411070040501600405405064090740C02480A0340
1001
ACAD
1000
AcDbSavedByObjectVersion
1070
     0
  0
ACAD_PROXY_OBJECT
  5
40
102
{ACAD_REACTORS
330
2A
102
}
330
2A
100
AcDbProxyObject
 90
      499
 91
      501
 93
      404
310
41560B54985E51940902404000000000000E03F0000000000000F9010740501907004050150841D405064090740C02480A1B40
1001
ACAD
1000
AcDbSavedByObjectVersion
1070
     0
  0
XRECORD
  5
224
102
{ACAD_REACTORS
330
21B
102
}
330
21B
100
AcDbXrecord
 90
        0
  0
XRECORD
  5
23A
102
{ACAD_REACTORS
330
21B
102
}
330
21B
100
AcDbXrecord
1000
DSTYLE
1002
{
1070
   279
 70
     2
1070
   340
340
11
1002
}
  0
XRECORD
  5
225
102
{ACAD_REACTORS
330
21B
102
}
330
21B
100
AcDbXrecord
  1
{5BAAAAAF-AFF3-4E30-85CC-EB5A4D5E0928}
  0
XRECORD
  5
21E
102
{ACAD_REACTORS
330
21B
102
}
330
21B
100
AcDbXrecord
  1

  0
XRECORD
  5
223
102
{ACAD_REACTORS
330
21B
102
}
330
21B
100
AcDbXrecord
 90
        4
  0
XRECORD
  5
220
102
{ACAD_REACTORS
330
21B
102
}
330
21B
100
AcDbXrecord
340
1A
  0
XRECORD
  5
222
102
{ACAD_REACTORS
330
21B
102
}
330
21B
100
AcDbXrecord
 90
    10781
  0
XRECORD
  5
221
102
{ACAD_REACTORS
330
21B
102
}
330
21B
100
AcDbXrecord
340
19
  0
XRECORD
  5
227
102
{ACAD_REACTORS
330
21B
102
}
330
21B
100
AcDbXrecord
 40
0.0
  0
XRECORD
  5
22A
102
{ACAD_REACTORS
330
21B
102
}
330
21B
100
AcDbXrecord
340
0
  0
XRECORD
  5
230
102
{ACAD_REACTORS
330
21B
102
}
330
21B
100
AcDbXrecord
 10
0.0
 20
0.0
 30
0.0
  0
XRECORD
  5
22C
102
{ACAD_REACTORS
330
21B
102
}
330
21B
100
AcDbXrecord
 10
0.0
 20
0.0
 30
0.0
  0
XRECORD
  5
22F
102
{ACAD_REACTORS
330
21B
102
}
330
21B
100
AcDbXrecord
 10
0.0
 20
0.0
 30
0.0
  0
XRECORD
  5
22D
102
{ACAD_REACTORS
330
21B
102
}
330
21B
100
AcDbXrecord
 10
0.0
 20
0.0
 30
0.0
  0
XRECORD
  5
22E
102
{ACAD_REACTORS
330
21B
102
}
330
21B
100
AcDbXrecord
 10
0.0
 20
0.0
 30
0.0
  0
XRECORD
  5
22B
102
{ACAD_REACTORS
330
21B
102
}
330
21B
100
AcDbXrecord
 10
0.0
 20
0.0
 30
0.0
  0
XRECORD
  5
228
102
{ACAD_REACTORS
330
21B
102
}
330
21B
100
AcDbXrecord
340
0
  0
XRECORD
  5
229
102
{ACAD_REACTORS
330
21B
102
}
330
21B
100
AcDbXrecord
 70
     0
  0
XRECORD
  5
21F
102
{ACAD_REACTORS
330
21B
102
}
330
21B
100
AcDbXrecord
  1

  0
XRECORD
  5
21C
102
{ACAD_REACTORS
330
21B
102
}
330
21B
100
AcDbXrecord
 90
        1
  0
XRECORD
  5
21D
102
{ACAD_REACTORS
330
21B
102
}
330
21B
100
AcDbXrecord
 90
       70
  0
XRECORD
  5
233
102
{ACAD_REACTORS
330
21B
102
}
330
21B
100
AcDbXrecord
340
0
  0
XRECORD
  5
239
102
{ACAD_REACTORS
330
21B
102
}
330
21B
100
AcDbXrecord
 10
0.0
 20
0.0
 30
0.0
  0
XRECORD
  5
235
102
{ACAD_REACTORS
330
21B
102
}
330
21B
100
AcDbXrecord
 10
0.0
 20
0.0
 30
0.0
  0
XRECORD
  5
238
102
{ACAD_REACTORS
330
21B
102
}
330
21B
100
AcDbXrecord
 10
0.0
 20
0.0
 30
0.0
  0
XRECORD
  5
236
102
{ACAD_REACTORS
330
21B
102
}
330
21B
100
AcDbXrecord
 10
0.0
 20
0.0
 30
0.0
  0
XRECORD
  5
237
102
{ACAD_REACTORS
330
21B
102
}
330
21B
100
AcDbXrecord
 10
0.0
 20
0.0
 30
0.0
  0
XRECORD
  5
234
102
{ACAD_REACTORS
330
21B
102
}
330
21B
100
AcDbXrecord
 10
0.0
 20
0.0
 30
0.0
  0
XRECORD
  5
231
102
{ACAD_REACTORS
330
21B
102
}
330
21B
100
AcDbXrecord
340
0
  0
XRECORD
  5
232
102
{ACAD_REACTORS
330
21B
102
}
330
21B
100
AcDbXrecord
 70
     0
  0
XRECORD
  5
226
102
{ACAD_REACTORS
330
21B
102
}
330
21B
100
AcDbXrecord
  1
{FAEB1C32-E019-11D5-929B-00C0DF256EC4}
  0
DICTIONARYVAR
  5
242
102
{ACAD_REACTORS
330
23B
102
}
330
23B
100
DictionaryVariables
280
     0
  1
1:1
  0
DICTIONARYVAR
  5
240
102
{ACAD_REACTORS
330
23B
102
}
330
23B
100
DictionaryVariables
280
     0
  1
2
  0
DICTIONARYVAR
  5
241
102
{ACAD_REACTORS
330
23B
102
}
330
23B
100
DictionaryVariables
280
     0
  1
1
  0
DICTIONARYVAR
  5
243
102
{ACAD_REACTORS
330
23B
102
}
330
23B
100
DictionaryVariables
280
     0
  1
1
  0
DICTIONARY
  5
246
330
45
100
AcDbDictionary
280
     1
  3
ACAD_XREC_ROUNDTRIP
360
247
  0
DICTIONARY
  5
244
330
44
100
AcDbDictionary
280
     1
  3
ACAD_XREC_ROUNDTRIP
360
245
  0
DICTIONARY
  5
248
330
46
100
AcDbDictionary
280
     1
  3
ACAD_XREC_ROUNDTRIP
360
249
  0
XRECORD
  5
247
102
{ACAD_REACTORS
330
246
102
}
330
246
100
AcDbXrecord
102
MATERIAL
148
0.0
149
0.0
149
0.0
 93
        0
 94
      127
282
     0
 72
     1
 77
     1
171
     1
175
     1
179
     1
273
     0
  0
XRECORD
  5
245
102
{ACAD_REACTORS
330
244
102
}
330
244
100
AcDbXrecord
102
MATERIAL
148
0.0
149
0.0
149
0.0
 93
        0
 94
      127
282
     0
 72
     1
 77
     1
171
     1
175
     1
179
     1
273
     0
  0
XRECORD
  5
249
102
{ACAD_REACTORS
330
248
102
}
330
248
100
AcDbXrecord
102
MATERIAL
148
0.0
149
0.0
149
0.0
 93
        0
 94
      127
282
     0
 72
     1
 77
     1
171
     1
175
     1
179
     1
273
     0
  0
ENDSEC
  0
EOF
