  0
SECTION
  2
HEADER
  9
$ACADVER
  1
AC1014
  9
$ACADMAINTVER
 70
     9
  9
$DWGCODEPAGE
  3
ANSI_1251
  9
$INSBASE
 10
0.0
 20
0.0
 30
0.0
  9
$EXTMIN
 10
-514.4793675258315
 20
-271.7276068751087
 30
0.0
  9
$EXTMAX
 10
-309.7723931248905
 20
-99.49999999995589
 30
0.0
  9
$LIMMIN
 10
0.0
 20
0.0
  9
$LIMMAX
 10
12.0
 20
9.0
  9
$ORTHOMODE
 70
     0
  9
$REGENMODE
 70
     1
  9
$FILLMODE
 70
     1
  9
$QTEXTMODE
 70
     0
  9
$MIRRTEXT
 70
     1
  9
$DRAGMODE
 70
     2
  9
$LTSCALE
 40
1.0
  9
$OSMODE
 70
    37
  9
$ATTMODE
 70
     1
  9
$TEXTSIZE
 40
0.2
  9
$TRACEWID
 40
0.05
  9
$TEXTSTYLE
  7
STANDARD
  9
$CLAYER
  8
DEFAULT
  9
$CELTYPE
  6
BYLAYER
  9
$CECOLOR
 62
   256
  9
$CELTSCALE
 40
1.0
  9
$DELOBJ
 70
     1
  9
$DISPSILH
 70
     0
  9
$DIMSCALE
 40
1.0
  9
$DIMASZ
 40
0.18
  9
$DIMEXO
 40
0.0625
  9
$DIMDLI
 40
0.38
  9
$DIMRND
 40
0.0
  9
$DIMDLE
 40
0.0
  9
$DIMEXE
 40
0.18
  9
$DIMTP
 40
0.0
  9
$DIMTM
 40
0.0
  9
$DIMTXT
 40
0.18
  9
$DIMCEN
 40
0.09
  9
$DIMTSZ
 40
0.0
  9
$DIMTOL
 70
     0
  9
$DIMLIM
 70
     0
  9
$DIMTIH
 70
     1
  9
$DIMTOH
 70
     1
  9
$DIMSE1
 70
     0
  9
$DIMSE2
 70
     0
  9
$DIMTAD
 70
     0
  9
$DIMZIN
 70
     0
  9
$DIMBLK
  1

  9
$DIMASO
 70
     1
  9
$DIMSHO
 70
     1
  9
$DIMPOST
  1

  9
$DIMAPOST
  1

  9
$DIMALT
 70
     0
  9
$DIMALTD
 70
     2
  9
$DIMALTF
 40
25.4
  9
$DIMLFAC
 40
1.0
  9
$DIMTOFL
 70
     0
  9
$DIMTVP
 40
0.0
  9
$DIMTIX
 70
     0
  9
$DIMSOXD
 70
     0
  9
$DIMSAH
 70
     0
  9
$DIMBLK1
  1

  9
$DIMBLK2
  1

  9
$DIMSTYLE
  2
STANDARD
  9
$DIMCLRD
 70
     0
  9
$DIMCLRE
 70
     0
  9
$DIMCLRT
 70
     0
  9
$DIMTFAC
 40
1.0
  9
$DIMGAP
 40
0.09
  9
$DIMJUST
 70
     0
  9
$DIMSD1
 70
     0
  9
$DIMSD2
 70
     0
  9
$DIMTOLJ
 70
     1
  9
$DIMTZIN
 70
     0
  9
$DIMALTZ
 70
     0
  9
$DIMALTTZ
 70
     0
  9
$DIMFIT
 70
     5
  9
$DIMUPT
 70
     0
  9
$DIMUNIT
 70
     2
  9
$DIMDEC
 70
     4
  9
$DIMTDEC
 70
     4
  9
$DIMALTU
 70
     2
  9
$DIMALTTD
 70
     2
  9
$DIMTXSTY
  7
STANDARD
  9
$DIMAUNIT
 70
     0
  9
$LUNITS
 70
     2
  9
$LUPREC
 70
     2
  9
$SKETCHINC
 40
0.1
  9
$FILLETRAD
 40
0.5
  9
$AUNITS
 70
     0
  9
$AUPREC
 70
     0
  9
$MENU
  1
.
  9
$ELEVATION
 40
0.0
  9
$PELEVATION
 40
0.0
  9
$THICKNESS
 40
0.0
  9
$LIMCHECK
 70
     0
  9
$CHAMFERA
 40
0.0
  9
$CHAMFERB
 40
0.0
  9
$CHAMFERC
 40
0.0
  9
$CHAMFERD
 40
0.0
  9
$SKPOLY
 70
     0
  9
$TDCREATE
 40
2458893.550888588
  9
$TDUPDATE
 40
2458893.550898993
  9
$TDINDWG
 40
0.0000000116
  9
$TDUSRTIMER
 40
0.0000000116
  9
$USRTIMER
 70
     1
  9
$ANGBASE
 50
0.0
  9
$ANGDIR
 70
     0
  9
$PDMODE
 70
     0
  9
$PDSIZE
 40
0.0
  9
$PLINEWID
 40
0.0
  9
$COORDS
 70
     1
  9
$SPLFRAME
 70
     0
  9
$SPLINETYPE
 70
     6
  9
$SPLINESEGS
 70
     8
  9
$ATTDIA
 70
     0
  9
$ATTREQ
 70
     1
  9
$HANDLING
 70
     1
  9
$HANDSEED
  5
19A
  9
$SURFTAB1
 70
     6
  9
$SURFTAB2
 70
     6
  9
$SURFTYPE
 70
     6
  9
$SURFU
 70
     6
  9
$SURFV
 70
     6
  9
$UCSNAME
  2

  9
$UCSORG
 10
0.0
 20
0.0
 30
0.0
  9
$UCSXDIR
 10
1.0
 20
0.0
 30
0.0
  9
$UCSYDIR
 10
0.0
 20
1.0
 30
0.0
  9
$PUCSNAME
  2

  9
$PUCSORG
 10
0.0
 20
0.0
 30
0.0
  9
$PUCSXDIR
 10
1.0
 20
0.0
 30
0.0
  9
$PUCSYDIR
 10
0.0
 20
1.0
 30
0.0
  9
$USERI1
 70
     0
  9
$USERI2
 70
     0
  9
$USERI3
 70
     0
  9
$USERI4
 70
     0
  9
$USERI5
 70
     0
  9
$USERR1
 40
0.0
  9
$USERR2
 40
0.0
  9
$USERR3
 40
0.0
  9
$USERR4
 40
0.0
  9
$USERR5
 40
0.0
  9
$WORLDVIEW
 70
     1
  9
$SHADEDGE
 70
     3
  9
$SHADEDIF
 70
    70
  9
$TILEMODE
 70
     1
  9
$MAXACTVP
 70
    64
  9
$PINSBASE
 10
0.0
 20
0.0
 30
0.0
  9
$PLIMCHECK
 70
     0
  9
$PEXTMIN
 10
1.000000000000000E+20
 20
1.000000000000000E+20
 30
1.000000000000000E+20
  9
$PEXTMAX
 10
-1.000000000000000E+20
 20
-1.000000000000000E+20
 30
-1.000000000000000E+20
  9
$PLIMMIN
 10
0.0
 20
0.0
  9
$PLIMMAX
 10
12.0
 20
9.0
  9
$UNITMODE
 70
     0
  9
$VISRETAIN
 70
     1
  9
$PLINEGEN
 70
     0
  9
$PSLTSCALE
 70
     1
  9
$TREEDEPTH
 70
  3020
  9
$PICKSTYLE
 70
     1
  9
$CMLSTYLE
  2
STANDARD
  9
$CMLJUST
 70
     0
  9
$CMLSCALE
 40
1.0
  9
$PROXYGRAPHICS
 70
     1
  9
$MEASUREMENT
 70
     0
  0
ENDSEC
  0
SECTION
  2
CLASSES
  0
CLASS
  1
ACDBDICTIONARYWDFLT
  2
AcDbDictionaryWithDefault
  3
ObjectDBX Classes
 90
        0
280
     0
281
     0
  0
CLASS
  1
VISUALSTYLE
  2
AcDbVisualStyle
  3
ObjectDBX Classes
 90
     4095
280
     0
281
     0
  0
CLASS
  1
MATERIAL
  2
AcDbMaterial
  3
ObjectDBX Classes
 90
     1153
280
     0
281
     0
  0
CLASS
  1
SCALE
  2
AcDbScale
  3
ObjectDBX Classes
 90
     1153
280
     0
281
     0
  0
CLASS
  1
SUN
  2
AcDbSun
  3
SCENEOE
 90
     1153
280
     0
281
     0
  0
CLASS
  1
DICTIONARYVAR
  2
AcDbDictionaryVar
  3
ObjectDBX Classes
 90
        0
280
     0
281
     0
  0
CLASS
  1
XRECORD
  2
AcDbXrecord
  3
ObjectDBX Classes
 90
        0
280
     0
281
     0
  0
CLASS
  1
LWPOLYLINE
  2
AcDbPolyline
  3
ObjectDBX Classes
 90
        0
280
     0
281
     1
  0
CLASS
  1
HATCH
  2
AcDbHatch
  3
ObjectDBX Classes
 90
        0
280
     0
281
     1
  0
CLASS
  1
ACDBPLACEHOLDER
  2
AcDbPlaceHolder
  3
ObjectDBX Classes
 90
        0
280
     0
281
     0
  0
CLASS
  1
LAYOUT
  2
AcDbLayout
  3
ObjectDBX Classes
 90
        0
280
     0
281
     0
  0
ENDSEC
  0
SECTION
  2
TABLES
  0
TABLE
  2
VPORT
  5
8
330
0
100
AcDbSymbolTable
 70
     1
  0
VPORT
  5
29
330
8
100
AcDbSymbolTableRecord
100
AcDbViewportTableRecord
  2
*ACTIVE
 70
     0
 10
0.0
 20
0.0
 11
1.0
 21
1.0
 12
-412.125880325361
 22
-185.6138034375323
 13
0.0
 23
0.0
 14
0.5
 24
0.5
 15
0.5
 25
0.5
 16
0.0
 26
0.0
 36
1.0
 17
0.0
 27
0.0
 37
0.0
 40
175.6721590126558
 41
1.18858397974102
 42
50.0
 43
0.0
 44
0.0
 50
0.0
 51
0.0
 71
     0
 72
   100
 73
     1
 74
     3
 75
     0
 76
     0
 77
     0
 78
     0
  0
ENDTAB
  0
TABLE
  2
LTYPE
  5
5
330
0
100
AcDbSymbolTable
 70
     1
  0
LTYPE
  5
14
330
5
100
AcDbSymbolTableRecord
100
AcDbLinetypeTableRecord
  2
BYBLOCK
 70
     0
  3

 72
    65
 73
     0
 40
0.0
  0
LTYPE
  5
15
330
5
100
AcDbSymbolTableRecord
100
AcDbLinetypeTableRecord
  2
BYLAYER
 70
     0
  3

 72
    65
 73
     0
 40
0.0
  0
LTYPE
  5
16
330
5
100
AcDbSymbolTableRecord
100
AcDbLinetypeTableRecord
  2
CONTINUOUS
 70
     0
  3
Solid line
 72
    65
 73
     0
 40
0.0
  0
ENDTAB
  0
TABLE
  2
LAYER
  5
2
330
0
100
AcDbSymbolTable
 70
     2
  0
LAYER
  5
10
330
2
100
AcDbSymbolTableRecord
100
AcDbLayerTableRecord
  2
0
 70
     0
 62
     7
  6
CONTINUOUS
  0
LAYER
  5
6A
330
2
100
AcDbSymbolTableRecord
100
AcDbLayerTableRecord
  2
DEFAULT
 70
     0
 62
    18
  6
CONTINUOUS
  0
ENDTAB
  0
TABLE
  2
STYLE
  5
3
330
0
100
AcDbSymbolTable
 70
     1
  0
STYLE
  5
11
330
3
100
AcDbSymbolTableRecord
100
AcDbTextStyleTableRecord
  2
STANDARD
 70
     0
 40
0.0
 41
1.0
 50
0.0
 71
     0
 42
0.2
  3
txt
  4

  0
ENDTAB
  0
TABLE
  2
VIEW
  5
6
330
0
100
AcDbSymbolTable
 70
     0
  0
ENDTAB
  0
TABLE
  2
UCS
  5
7
330
0
100
AcDbSymbolTable
 70
     0
  0
ENDTAB
  0
TABLE
  2
APPID
  5
9
330
0
100
AcDbSymbolTable
 70
     1
  0
APPID
  5
12
330
9
100
AcDbSymbolTableRecord
100
AcDbRegAppTableRecord
  2
ACAD
 70
     0
  0
ENDTAB
  0
TABLE
  2
DIMSTYLE
  5
A
330
0
100
AcDbSymbolTable
 70
     1
  0
DIMSTYLE
105
27
330
A
100
AcDbSymbolTableRecord
100
AcDbDimStyleTableRecord
  2
STANDARD
 70
     0
  3

  4

  5

  6

  7

 40
1.0
 41
0.18
 42
0.0625
 43
0.38
 44
0.18
 45
0.0
 46
0.0
 47
0.0
 48
0.0
140
0.18
141
0.09
142
0.0
143
25.4
144
1.0
145
0.0
146
1.0
147
0.09
 71
     0
 72
     0
 73
     1
 74
     1
 75
     0
 76
     0
 77
     0
 78
     0
170
     0
171
     2
172
     0
173
     0
174
     0
175
     0
176
     0
177
     0
178
     0
270
     2
271
     4
272
     4
273
     2
274
     2
340
11
275
     0
280
     0
281
     0
282
     0
283
     1
284
     0
285
     0
286
     0
287
     3
288
     0
  0
ENDTAB
  0
TABLE
  2
BLOCK_RECORD
  5
1
330
0
100
AcDbSymbolTable
 70
     1
  0
BLOCK_RECORD
  5
1F
330
1
100
AcDbSymbolTableRecord
100
AcDbBlockTableRecord
  2
*MODEL_SPACE
  0
BLOCK_RECORD
  5
1B
330
1
100
AcDbSymbolTableRecord
100
AcDbBlockTableRecord
  2
*PAPER_SPACE
  0
ENDTAB
  0
ENDSEC
  0
SECTION
  2
BLOCKS
  0
BLOCK
  5
20
330
1F
100
AcDbEntity
  8
0
100
AcDbBlockBegin
  2
*MODEL_SPACE
 70
     0
 10
0.0
 20
0.0
 30
0.0
  3
*MODEL_SPACE
  1

  0
ENDBLK
  5
21
330
1F
100
AcDbEntity
  8
0
100
AcDbBlockEnd
  0
BLOCK
  5
1C
330
1B
100
AcDbEntity
 67
     1
  8
0
100
AcDbBlockBegin
  2
*PAPER_SPACE
 70
     0
 10
0.0
 20
0.0
 30
0.0
  3
*PAPER_SPACE
  1

  0
ENDBLK
  5
1D
330
1B
100
AcDbEntity
 67
     1
  8
0
100
AcDbBlockEnd
  0
ENDSEC
  0
SECTION
  2
ENTITIES
  0
LINE
  5
6B
330
1F
100
AcDbEntity
  8
DEFAULT
100
AcDbLine
 10
-473.2517606507134
 20
-108.4999999999777
 30
0.0
 11
-473.2517606507133
 21
-116.9852813742164
 31
0.0
  0
ARC
  5
6C
330
1F
100
AcDbEntity
  8
DEFAULT
100
AcDbCircle
 10
-470.2517606507134
 20
-108.4999999999777
 30
0.0
 40
9.0
100
AcDbArc
 50
180.0
 51
250.52877936551
  0
LINE
  5
6D
330
1F
100
AcDbEntity
  8
DEFAULT
100
AcDbLine
 10
-479.2517606507134
 20
-108.4999999999777
 30
0.0
 11
-479.2517606507134
 21
-102.4999999999777
 31
0.0
  0
LINE
  5
6E
330
1F
100
AcDbEntity
  8
DEFAULT
100
AcDbLine
 10
-479.2517606507134
 20
-102.4999999999777
 30
0.0
 11
-461.2517606507134
 21
-102.4999999999777
 31
0.0
  0
LINE
  5
6F
330
1F
100
AcDbEntity
  8
DEFAULT
100
AcDbLine
 10
-461.2517606507134
 20
-102.4999999999777
 30
0.0
 11
-461.2517606507134
 21
-108.4999999999777
 31
0.0
  0
ARC
  5
70
330
1F
100
AcDbEntity
  8
DEFAULT
100
AcDbCircle
 10
-470.2517606507134
 20
-108.4999999999777
 30
0.0
 40
9.0
100
AcDbArc
 50
289.47122063449
 51
0.0
  0
LINE
  5
71
330
1F
100
AcDbEntity
  8
DEFAULT
100
AcDbLine
 10
-467.2517606507134
 20
-116.9852813742164
 30
0.0
 11
-467.2517606507134
 21
-108.4999999999777
 31
0.0
  0
LINE
  5
72
330
1F
100
AcDbEntity
  8
DEFAULT
100
AcDbLine
 10
-467.2517606507134
 20
-108.4999999999777
 30
0.0
 11
-473.2517606507134
 21
-108.4999999999777
 31
0.0
  0
LINE
  5
73
330
1F
100
AcDbEntity
  8
DEFAULT
100
AcDbLine
 10
-485.2517606507225
 20
-129.4999999999777
 30
0.0
 11
-491.2517606507225
 21
-129.4999999999777
 31
0.0
  0
LINE
  5
74
330
1F
100
AcDbEntity
  8
DEFAULT
100
AcDbLine
 10
-491.2517606507225
 20
-129.4999999999777
 30
0.0
 11
-491.2517606507225
 21
-132.4999999999777
 31
0.0
  0
LINE
  5
75
330
1F
100
AcDbEntity
  8
DEFAULT
100
AcDbLine
 10
-491.2517606507225
 20
-132.4999999999777
 30
0.0
 11
-494.2517606507225
 21
-132.4999999999777
 31
0.0
  0
LINE
  5
76
330
1F
100
AcDbEntity
  8
DEFAULT
100
AcDbLine
 10
-494.2517606507225
 20
-132.4999999999777
 30
0.0
 11
-497.2517606507225
 21
-135.4999999999777
 31
0.0
  0
LINE
  5
77
330
1F
100
AcDbEntity
  8
DEFAULT
100
AcDbLine
 10
-497.2517606507225
 20
-135.4999999999777
 30
0.0
 11
-497.2517606507225
 21
-138.4999999999777
 31
0.0
  0
LINE
  5
78
330
1F
100
AcDbEntity
  8
DEFAULT
100
AcDbLine
 10
-497.2517606507225
 20
-138.4999999999777
 30
0.0
 11
-491.2517606507225
 21
-138.4999999999777
 31
0.0
  0
LINE
  5
79
330
1F
100
AcDbEntity
  8
DEFAULT
100
AcDbLine
 10
-491.2517606507225
 20
-138.4999999999777
 30
0.0
 11
-485.2517606507225
 21
-138.4999999999777
 31
0.0
  0
ARC
  5
7A
330
1F
100
AcDbEntity
  8
DEFAULT
100
AcDbCircle
 10
-485.2517606507226
 20
-102.4999999999777
 30
0.0
 40
36.00000000000006
100
AcDbArc
 50
270.0000000000002
 51
0.0
  0
ARC
  5
7B
330
1F
100
AcDbEntity
  8
DEFAULT
100
AcDbCircle
 10
-452.2517606507225
 20
-102.4999999999559
 30
0.0
 40
3.0
100
AcDbArc
 50
0.0000000004168817
 51
180.0000000004158
  0
ARC
  5
7C
330
1F
100
AcDbEntity
  8
DEFAULT
100
AcDbCircle
 10
-470.2517606507224
 20
-102.4999999999777
 30
0.0
 40
15.0
100
AcDbArc
 50
189.5940682268607
 51
0.0
  0
ARC
  5
7D
330
1F
100
AcDbEntity
  8
DEFAULT
100
AcDbCircle
 10
-488.0000000000213
 20
-105.4999999999777
 30
0.0
 40
2.999999999999886
100
AcDbArc
 50
9.594068226857493
 51
90.0
  0
LINE
  5
7E
330
1F
100
AcDbEntity
  8
DEFAULT
100
AcDbLine
 10
-488.0000000000213
 20
-102.4999999999777
 30
0.0
 11
-491.2517606507225
 21
-102.4999999999777
 31
0.0
  0
LINE
  5
7F
330
1F
100
AcDbEntity
  8
DEFAULT
100
AcDbLine
 10
-491.2517606507225
 20
-102.4999999999777
 30
0.0
 11
-497.2517606507225
 21
-102.4999999999777
 31
0.0
  0
LINE
  5
80
330
1F
100
AcDbEntity
  8
DEFAULT
100
AcDbLine
 10
-497.2517606507225
 20
-102.4999999999777
 30
0.0
 11
-497.7517606507225
 21
-99.58957249954165
 31
0.0
  0
LINE
  5
81
330
1F
100
AcDbEntity
  8
DEFAULT
100
AcDbLine
 10
-497.7517606507225
 20
-99.58957249954165
 30
0.0
 11
-501.4793675258315
 21
-99.58957249954165
 31
0.0
  0
LINE
  5
82
330
1F
100
AcDbEntity
  8
DEFAULT
100
AcDbLine
 10
-501.4793675258315
 20
-99.58957249954165
 30
0.0
 11
-501.4793675258315
 21
-105.4999999999777
 31
0.0
  0
LINE
  5
83
330
1F
100
AcDbEntity
  8
DEFAULT
100
AcDbLine
 10
-501.4793675258315
 20
-105.4999999999777
 30
0.0
 11
-494.2517606507225
 21
-108.4999999999777
 31
0.0
  0
LINE
  5
84
330
1F
100
AcDbEntity
  8
DEFAULT
100
AcDbLine
 10
-494.2517606507225
 20
-108.4999999999777
 30
0.0
 11
-491.2517606507225
 21
-108.4999999999777
 31
0.0
  0
LINE
  5
85
330
1F
100
AcDbEntity
  8
DEFAULT
100
AcDbLine
 10
-491.2517606507225
 20
-108.4999999999777
 30
0.0
 11
-491.2517606507225
 21
-123.4999999999777
 31
0.0
  0
LINE
  5
86
330
1F
100
AcDbEntity
  8
DEFAULT
100
AcDbLine
 10
-491.2517606507225
 20
-123.4999999999777
 30
0.0
 11
-485.2517606507225
 21
-123.4999999999777
 31
0.0
  0
LINE
  5
87
330
1F
100
AcDbEntity
  8
DEFAULT
100
AcDbLine
 10
-485.2517606507225
 20
-123.4999999999777
 30
0.0
 11
-485.2517606507225
 21
-129.4999999999777
 31
0.0
  0
LINE
  5
88
330
1F
100
AcDbEntity
  8
DEFAULT
100
AcDbLine
 10
-422.0000000000214
 20
-111.4999999999777
 30
0.0
 11
-416.0000000000214
 21
-111.4999999999777
 31
0.0
  0
LINE
  5
89
330
1F
100
AcDbEntity
  8
DEFAULT
100
AcDbLine
 10
-416.0000000000214
 20
-111.4999999999777
 30
0.0
 11
-416.0000000000214
 21
-108.4999999999777
 31
0.0
  0
LINE
  5
8A
330
1F
100
AcDbEntity
  8
DEFAULT
100
AcDbLine
 10
-416.0000000000214
 20
-108.4999999999777
 30
0.0
 11
-413.0000000000214
 21
-108.4999999999777
 31
0.0
  0
LINE
  5
8B
330
1F
100
AcDbEntity
  8
DEFAULT
100
AcDbLine
 10
-413.0000000000214
 20
-108.4999999999777
 30
0.0
 11
-410.0000000000214
 21
-105.4999999999777
 31
0.0
  0
LINE
  5
8C
330
1F
100
AcDbEntity
  8
DEFAULT
100
AcDbLine
 10
-410.0000000000214
 20
-105.4999999999777
 30
0.0
 11
-410.0000000000214
 21
-102.4999999999777
 31
0.0
  0
LINE
  5
8D
330
1F
100
AcDbEntity
  8
DEFAULT
100
AcDbLine
 10
-410.0000000000214
 20
-102.4999999999777
 30
0.0
 11
-416.0000000000214
 21
-102.4999999999777
 31
0.0
  0
LINE
  5
8E
330
1F
100
AcDbEntity
  8
DEFAULT
100
AcDbLine
 10
-416.0000000000214
 20
-102.4999999999777
 30
0.0
 11
-422.0000000000214
 21
-102.4999999999777
 31
0.0
  0
ARC
  5
8F
330
1F
100
AcDbEntity
  8
DEFAULT
100
AcDbCircle
 10
-422.0000000000211
 20
-138.4999999999777
 30
0.0
 40
36.00000000000006
100
AcDbArc
 50
90.00000000000018
 51
180.0
  0
ARC
  5
90
330
1F
100
AcDbEntity
  8
DEFAULT
100
AcDbCircle
 10
-455.0000000000214
 20
-138.4999999999995
 30
0.0
 40
3.0
100
AcDbArc
 50
180.0000000004169
 51
0.000000000415796
  0
ARC
  5
91
330
1F
100
AcDbEntity
  8
DEFAULT
100
AcDbCircle
 10
-437.0000000000214
 20
-138.4999999999777
 30
0.0
 40
15.0
100
AcDbArc
 50
9.594068226860665
 51
180.0
  0
ARC
  5
92
330
1F
100
AcDbEntity
  8
DEFAULT
100
AcDbCircle
 10
-419.2517606507226
 20
-135.4999999999777
 30
0.0
 40
2.999999999999886
100
AcDbArc
 50
189.5940682268575
 51
270.0
  0
LINE
  5
93
330
1F
100
AcDbEntity
  8
DEFAULT
100
AcDbLine
 10
-419.2517606507226
 20
-138.4999999999777
 30
0.0
 11
-416.0000000000214
 21
-138.4999999999777
 31
0.0
  0
LINE
  5
94
330
1F
100
AcDbEntity
  8
DEFAULT
100
AcDbLine
 10
-416.0000000000214
 20
-138.4999999999777
 30
0.0
 11
-410.0000000000214
 21
-138.4999999999777
 31
0.0
  0
LINE
  5
95
330
1F
100
AcDbEntity
  8
DEFAULT
100
AcDbLine
 10
-410.0000000000214
 20
-138.4999999999777
 30
0.0
 11
-409.5000000000214
 21
-141.4104275004138
 31
0.0
  0
LINE
  5
96
330
1F
100
AcDbEntity
  8
DEFAULT
100
AcDbLine
 10
-409.5000000000214
 20
-141.4104275004138
 30
0.0
 11
-405.7723931249122
 21
-141.4104275004138
 31
0.0
  0
LINE
  5
97
330
1F
100
AcDbEntity
  8
DEFAULT
100
AcDbLine
 10
-405.7723931249122
 20
-141.4104275004138
 30
0.0
 11
-405.7723931249122
 21
-135.4999999999777
 31
0.0
  0
LINE
  5
98
330
1F
100
AcDbEntity
  8
DEFAULT
100
AcDbLine
 10
-405.7723931249122
 20
-135.4999999999777
 30
0.0
 11
-413.0000000000214
 21
-132.4999999999777
 31
0.0
  0
LINE
  5
99
330
1F
100
AcDbEntity
  8
DEFAULT
100
AcDbLine
 10
-413.0000000000214
 20
-132.4999999999777
 30
0.0
 11
-416.0000000000214
 21
-132.4999999999777
 31
0.0
  0
LINE
  5
9A
330
1F
100
AcDbEntity
  8
DEFAULT
100
AcDbLine
 10
-416.0000000000214
 20
-132.4999999999777
 30
0.0
 11
-416.0000000000214
 21
-117.4999999999777
 31
0.0
  0
LINE
  5
9B
330
1F
100
AcDbEntity
  8
DEFAULT
100
AcDbLine
 10
-416.0000000000214
 20
-117.4999999999777
 30
0.0
 11
-422.0000000000214
 21
-117.4999999999777
 31
0.0
  0
LINE
  5
9C
330
1F
100
AcDbEntity
  8
DEFAULT
100
AcDbLine
 10
-422.0000000000214
 20
-117.4999999999777
 30
0.0
 11
-422.0000000000214
 21
-111.4999999999777
 31
0.0
  0
LINE
  5
9D
330
1F
100
AcDbEntity
  8
DEFAULT
100
AcDbLine
 10
-434.0000000000305
 20
-132.4999999999777
 30
0.0
 11
-434.0000000000305
 21
-124.0147186257391
 31
0.0
  0
ARC
  5
9E
330
1F
100
AcDbEntity
  8
DEFAULT
100
AcDbCircle
 10
-437.0000000000305
 20
-132.4999999999777
 30
0.0
 40
9.0
100
AcDbArc
 50
0.0
 51
70.52877936551008
  0
LINE
  5
9F
330
1F
100
AcDbEntity
  8
DEFAULT
100
AcDbLine
 10
-428.0000000000305
 20
-132.4999999999777
 30
0.0
 11
-428.0000000000305
 21
-138.4999999999777
 31
0.0
  0
LINE
  5
A0
330
1F
100
AcDbEntity
  8
DEFAULT
100
AcDbLine
 10
-428.0000000000305
 20
-138.4999999999777
 30
0.0
 11
-446.0000000000305
 21
-138.4999999999777
 31
0.0
  0
LINE
  5
A1
330
1F
100
AcDbEntity
  8
DEFAULT
100
AcDbLine
 10
-446.0000000000305
 20
-138.4999999999777
 30
0.0
 11
-446.0000000000305
 21
-132.4999999999777
 31
0.0
  0
ARC
  5
A2
330
1F
100
AcDbEntity
  8
DEFAULT
100
AcDbCircle
 10
-437.0000000000305
 20
-132.4999999999777
 30
0.0
 40
9.0
100
AcDbArc
 50
109.4712206344899
 51
180.0
  0
LINE
  5
A3
330
1F
100
AcDbEntity
  8
DEFAULT
100
AcDbLine
 10
-440.0000000000305
 20
-124.0147186257391
 30
0.0
 11
-440.0000000000305
 21
-132.4999999999777
 31
0.0
  0
LINE
  5
A4
330
1F
100
AcDbEntity
  8
DEFAULT
100
AcDbLine
 10
-440.0000000000305
 20
-132.4999999999777
 30
0.0
 11
-434.0000000000305
 21
-132.4999999999777
 31
0.0
  0
LINE
  5
A5
330
1F
100
AcDbEntity
  8
DEFAULT
100
AcDbLine
 10
-447.0000000000305
 20
-169.4999999999777
 30
0.0
 11
-447.0000000000305
 21
-161.0147186257391
 31
0.0
  0
ARC
  5
A6
330
1F
100
AcDbEntity
  8
DEFAULT
100
AcDbCircle
 10
-450.0000000000305
 20
-169.4999999999777
 30
0.0
 40
9.0
100
AcDbArc
 50
0.0
 51
70.52877936551008
  0
LINE
  5
A7
330
1F
100
AcDbEntity
  8
DEFAULT
100
AcDbLine
 10
-441.0000000000305
 20
-169.4999999999777
 30
0.0
 11
-441.0000000000305
 21
-175.4999999999777
 31
0.0
  0
LINE
  5
A8
330
1F
100
AcDbEntity
  8
DEFAULT
100
AcDbLine
 10
-441.0000000000305
 20
-175.4999999999777
 30
0.0
 11
-459.0000000000305
 21
-175.4999999999777
 31
0.0
  0
LINE
  5
A9
330
1F
100
AcDbEntity
  8
DEFAULT
100
AcDbLine
 10
-459.0000000000305
 20
-175.4999999999777
 30
0.0
 11
-459.0000000000305
 21
-169.4999999999777
 31
0.0
  0
ARC
  5
AA
330
1F
100
AcDbEntity
  8
DEFAULT
100
AcDbCircle
 10
-450.0000000000305
 20
-169.4999999999777
 30
0.0
 40
9.0
100
AcDbArc
 50
109.4712206344899
 51
180.0
  0
LINE
  5
AB
330
1F
100
AcDbEntity
  8
DEFAULT
100
AcDbLine
 10
-453.0000000000305
 20
-161.0147186257391
 30
0.0
 11
-453.0000000000305
 21
-169.4999999999777
 31
0.0
  0
LINE
  5
AC
330
1F
100
AcDbEntity
  8
DEFAULT
100
AcDbLine
 10
-453.0000000000305
 20
-169.4999999999777
 30
0.0
 11
-447.0000000000305
 21
-169.4999999999777
 31
0.0
  0
LINE
  5
AD
330
1F
100
AcDbEntity
  8
DEFAULT
100
AcDbLine
 10
-435.0000000000214
 20
-148.4999999999777
 30
0.0
 11
-429.0000000000214
 21
-148.4999999999777
 31
0.0
  0
LINE
  5
AE
330
1F
100
AcDbEntity
  8
DEFAULT
100
AcDbLine
 10
-429.0000000000214
 20
-148.4999999999777
 30
0.0
 11
-429.0000000000214
 21
-145.4999999999777
 31
0.0
  0
LINE
  5
AF
330
1F
100
AcDbEntity
  8
DEFAULT
100
AcDbLine
 10
-429.0000000000214
 20
-145.4999999999777
 30
0.0
 11
-426.0000000000214
 21
-145.4999999999777
 31
0.0
  0
LINE
  5
B0
330
1F
100
AcDbEntity
  8
DEFAULT
100
AcDbLine
 10
-426.0000000000214
 20
-145.4999999999777
 30
0.0
 11
-423.0000000000214
 21
-142.4999999999777
 31
0.0
  0
LINE
  5
B1
330
1F
100
AcDbEntity
  8
DEFAULT
100
AcDbLine
 10
-423.0000000000214
 20
-142.4999999999777
 30
0.0
 11
-423.0000000000214
 21
-139.4999999999777
 31
0.0
  0
LINE
  5
B2
330
1F
100
AcDbEntity
  8
DEFAULT
100
AcDbLine
 10
-423.0000000000214
 20
-139.4999999999777
 30
0.0
 11
-429.0000000000214
 21
-139.4999999999777
 31
0.0
  0
LINE
  5
B3
330
1F
100
AcDbEntity
  8
DEFAULT
100
AcDbLine
 10
-429.0000000000214
 20
-139.4999999999777
 30
0.0
 11
-435.0000000000214
 21
-139.4999999999777
 31
0.0
  0
ARC
  5
B4
330
1F
100
AcDbEntity
  8
DEFAULT
100
AcDbCircle
 10
-435.0000000000211
 20
-175.4999999999777
 30
0.0
 40
36.00000000000006
100
AcDbArc
 50
90.00000000000018
 51
180.0
  0
ARC
  5
B5
330
1F
100
AcDbEntity
  8
DEFAULT
100
AcDbCircle
 10
-468.0000000000214
 20
-175.4999999999995
 30
0.0
 40
3.0
100
AcDbArc
 50
180.0000000004169
 51
0.000000000415796
  0
ARC
  5
B6
330
1F
100
AcDbEntity
  8
DEFAULT
100
AcDbCircle
 10
-450.0000000000214
 20
-175.4999999999777
 30
0.0
 40
15.0
100
AcDbArc
 50
9.594068226860665
 51
180.0
  0
ARC
  5
B7
330
1F
100
AcDbEntity
  8
DEFAULT
100
AcDbCircle
 10
-432.2517606507226
 20
-172.4999999999777
 30
0.0
 40
2.999999999999886
100
AcDbArc
 50
189.5940682268575
 51
270.0
  0
LINE
  5
B8
330
1F
100
AcDbEntity
  8
DEFAULT
100
AcDbLine
 10
-432.2517606507226
 20
-175.4999999999777
 30
0.0
 11
-429.0000000000214
 21
-175.4999999999777
 31
0.0
  0
LINE
  5
B9
330
1F
100
AcDbEntity
  8
DEFAULT
100
AcDbLine
 10
-429.0000000000214
 20
-175.4999999999777
 30
0.0
 11
-423.0000000000214
 21
-175.4999999999777
 31
0.0
  0
LINE
  5
BA
330
1F
100
AcDbEntity
  8
DEFAULT
100
AcDbLine
 10
-423.0000000000214
 20
-175.4999999999777
 30
0.0
 11
-422.5000000000214
 21
-178.4104275004138
 31
0.0
  0
LINE
  5
BB
330
1F
100
AcDbEntity
  8
DEFAULT
100
AcDbLine
 10
-422.5000000000214
 20
-178.4104275004138
 30
0.0
 11
-418.7723931249122
 21
-178.4104275004138
 31
0.0
  0
LINE
  5
BC
330
1F
100
AcDbEntity
  8
DEFAULT
100
AcDbLine
 10
-418.7723931249122
 20
-178.4104275004138
 30
0.0
 11
-418.7723931249122
 21
-172.4999999999777
 31
0.0
  0
LINE
  5
BD
330
1F
100
AcDbEntity
  8
DEFAULT
100
AcDbLine
 10
-418.7723931249122
 20
-172.4999999999777
 30
0.0
 11
-426.0000000000214
 21
-169.4999999999777
 31
0.0
  0
LINE
  5
BE
330
1F
100
AcDbEntity
  8
DEFAULT
100
AcDbLine
 10
-426.0000000000214
 20
-169.4999999999777
 30
0.0
 11
-429.0000000000214
 21
-169.4999999999777
 31
0.0
  0
LINE
  5
BF
330
1F
100
AcDbEntity
  8
DEFAULT
100
AcDbLine
 10
-429.0000000000214
 20
-169.4999999999777
 30
0.0
 11
-429.0000000000214
 21
-154.4999999999777
 31
0.0
  0
LINE
  5
C0
330
1F
100
AcDbEntity
  8
DEFAULT
100
AcDbLine
 10
-429.0000000000214
 20
-154.4999999999777
 30
0.0
 11
-435.0000000000214
 21
-154.4999999999777
 31
0.0
  0
LINE
  5
C1
330
1F
100
AcDbEntity
  8
DEFAULT
100
AcDbLine
 10
-435.0000000000214
 20
-154.4999999999777
 30
0.0
 11
-435.0000000000214
 21
-148.4999999999777
 31
0.0
  0
LINE
  5
C2
330
1F
100
AcDbEntity
  8
DEFAULT
100
AcDbLine
 10
-498.2517606507225
 20
-166.4999999999777
 30
0.0
 11
-504.2517606507225
 21
-166.4999999999777
 31
0.0
  0
LINE
  5
C3
330
1F
100
AcDbEntity
  8
DEFAULT
100
AcDbLine
 10
-504.2517606507225
 20
-166.4999999999777
 30
0.0
 11
-504.2517606507225
 21
-169.4999999999777
 31
0.0
  0
LINE
  5
C4
330
1F
100
AcDbEntity
  8
DEFAULT
100
AcDbLine
 10
-504.2517606507225
 20
-169.4999999999777
 30
0.0
 11
-507.2517606507225
 21
-169.4999999999777
 31
0.0
  0
LINE
  5
C5
330
1F
100
AcDbEntity
  8
DEFAULT
100
AcDbLine
 10
-507.2517606507225
 20
-169.4999999999777
 30
0.0
 11
-510.2517606507225
 21
-172.4999999999777
 31
0.0
  0
LINE
  5
C6
330
1F
100
AcDbEntity
  8
DEFAULT
100
AcDbLine
 10
-510.2517606507225
 20
-172.4999999999777
 30
0.0
 11
-510.2517606507225
 21
-175.4999999999777
 31
0.0
  0
LINE
  5
C7
330
1F
100
AcDbEntity
  8
DEFAULT
100
AcDbLine
 10
-510.2517606507225
 20
-175.4999999999777
 30
0.0
 11
-504.2517606507225
 21
-175.4999999999777
 31
0.0
  0
LINE
  5
C8
330
1F
100
AcDbEntity
  8
DEFAULT
100
AcDbLine
 10
-504.2517606507225
 20
-175.4999999999777
 30
0.0
 11
-498.2517606507225
 21
-175.4999999999777
 31
0.0
  0
ARC
  5
C9
330
1F
100
AcDbEntity
  8
DEFAULT
100
AcDbCircle
 10
-498.2517606507226
 20
-139.4999999999777
 30
0.0
 40
36.00000000000006
100
AcDbArc
 50
270.0000000000002
 51
0.0
  0
ARC
  5
CA
330
1F
100
AcDbEntity
  8
DEFAULT
100
AcDbCircle
 10
-465.2517606507225
 20
-139.4999999999559
 30
0.0
 40
3.0
100
AcDbArc
 50
0.0000000004168817
 51
180.0000000004158
  0
ARC
  5
CB
330
1F
100
AcDbEntity
  8
DEFAULT
100
AcDbCircle
 10
-483.2517606507224
 20
-139.4999999999777
 30
0.0
 40
15.0
100
AcDbArc
 50
189.5940682268607
 51
0.0
  0
ARC
  5
CC
330
1F
100
AcDbEntity
  8
DEFAULT
100
AcDbCircle
 10
-501.0000000000213
 20
-142.4999999999777
 30
0.0
 40
2.999999999999886
100
AcDbArc
 50
9.594068226857493
 51
90.0
  0
LINE
  5
CD
330
1F
100
AcDbEntity
  8
DEFAULT
100
AcDbLine
 10
-501.0000000000213
 20
-139.4999999999777
 30
0.0
 11
-504.2517606507225
 21
-139.4999999999777
 31
0.0
  0
LINE
  5
CE
330
1F
100
AcDbEntity
  8
DEFAULT
100
AcDbLine
 10
-504.2517606507225
 20
-139.4999999999777
 30
0.0
 11
-510.2517606507225
 21
-139.4999999999777
 31
0.0
  0
LINE
  5
CF
330
1F
100
AcDbEntity
  8
DEFAULT
100
AcDbLine
 10
-510.2517606507225
 20
-139.4999999999777
 30
0.0
 11
-510.7517606507225
 21
-136.5895724995416
 31
0.0
  0
LINE
  5
D0
330
1F
100
AcDbEntity
  8
DEFAULT
100
AcDbLine
 10
-510.7517606507225
 20
-136.5895724995416
 30
0.0
 11
-514.4793675258315
 21
-136.5895724995416
 31
0.0
  0
LINE
  5
D1
330
1F
100
AcDbEntity
  8
DEFAULT
100
AcDbLine
 10
-514.4793675258315
 20
-136.5895724995416
 30
0.0
 11
-514.4793675258315
 21
-142.4999999999777
 31
0.0
  0
LINE
  5
D2
330
1F
100
AcDbEntity
  8
DEFAULT
100
AcDbLine
 10
-514.4793675258315
 20
-142.4999999999777
 30
0.0
 11
-507.2517606507225
 21
-145.4999999999777
 31
0.0
  0
LINE
  5
D3
330
1F
100
AcDbEntity
  8
DEFAULT
100
AcDbLine
 10
-507.2517606507225
 20
-145.4999999999777
 30
0.0
 11
-504.2517606507225
 21
-145.4999999999777
 31
0.0
  0
LINE
  5
D4
330
1F
100
AcDbEntity
  8
DEFAULT
100
AcDbLine
 10
-504.2517606507225
 20
-145.4999999999777
 30
0.0
 11
-504.2517606507225
 21
-160.4999999999777
 31
0.0
  0
LINE
  5
D5
330
1F
100
AcDbEntity
  8
DEFAULT
100
AcDbLine
 10
-504.2517606507225
 20
-160.4999999999777
 30
0.0
 11
-498.2517606507225
 21
-160.4999999999777
 31
0.0
  0
LINE
  5
D6
330
1F
100
AcDbEntity
  8
DEFAULT
100
AcDbLine
 10
-498.2517606507225
 20
-160.4999999999777
 30
0.0
 11
-498.2517606507225
 21
-166.4999999999777
 31
0.0
  0
LINE
  5
D7
330
1F
100
AcDbEntity
  8
DEFAULT
100
AcDbLine
 10
-486.2517606507134
 20
-145.4999999999777
 30
0.0
 11
-486.2517606507133
 21
-153.9852813742164
 31
0.0
  0
ARC
  5
D8
330
1F
100
AcDbEntity
  8
DEFAULT
100
AcDbCircle
 10
-483.2517606507134
 20
-145.4999999999777
 30
0.0
 40
9.0
100
AcDbArc
 50
180.0
 51
250.52877936551
  0
LINE
  5
D9
330
1F
100
AcDbEntity
  8
DEFAULT
100
AcDbLine
 10
-492.2517606507134
 20
-145.4999999999777
 30
0.0
 11
-492.2517606507134
 21
-139.4999999999777
 31
0.0
  0
LINE
  5
DA
330
1F
100
AcDbEntity
  8
DEFAULT
100
AcDbLine
 10
-492.2517606507134
 20
-139.4999999999777
 30
0.0
 11
-474.2517606507134
 21
-139.4999999999777
 31
0.0
  0
LINE
  5
DB
330
1F
100
AcDbEntity
  8
DEFAULT
100
AcDbLine
 10
-474.2517606507134
 20
-139.4999999999777
 30
0.0
 11
-474.2517606507134
 21
-145.4999999999777
 31
0.0
  0
ARC
  5
DC
330
1F
100
AcDbEntity
  8
DEFAULT
100
AcDbCircle
 10
-483.2517606507134
 20
-145.4999999999777
 30
0.0
 40
9.0
100
AcDbArc
 50
289.47122063449
 51
0.0
  0
LINE
  5
DD
330
1F
100
AcDbEntity
  8
DEFAULT
100
AcDbLine
 10
-480.2517606507134
 20
-153.9852813742164
 30
0.0
 11
-480.2517606507134
 21
-145.4999999999777
 31
0.0
  0
LINE
  5
DE
330
1F
100
AcDbEntity
  8
DEFAULT
100
AcDbLine
 10
-480.2517606507134
 20
-145.4999999999777
 30
0.0
 11
-486.2517606507134
 21
-145.4999999999777
 31
0.0
  0
LINE
  5
DF
330
1F
100
AcDbEntity
  8
DEFAULT
100
AcDbLine
 10
-374.4999999999995
 20
-139.4999999999995
 30
0.0
 11
-353.4999999999995
 21
-139.4999999999995
 31
0.0
  0
ARC
  5
E0
330
1F
100
AcDbEntity
  8
DEFAULT
100
AcDbCircle
 10
-353.4999999999995
 20
-118.4999999999995
 30
0.0
 40
21.0
100
AcDbArc
 50
270.0
 51
0.0000000000412539
  0
ARC
  5
E1
330
1F
100
AcDbEntity
  8
DEFAULT
100
AcDbCircle
 10
-336.4999999999995
 20
-118.4999999999843
 30
0.0
 40
3.999999999999943
100
AcDbArc
 50
0.0000000002149546
 51
180.0000000002182
  0
ARC
  5
E2
330
1F
100
AcDbEntity
  8
DEFAULT
100
AcDbCircle
 10
-353.4999999999995
 20
-118.4999999999995
 30
0.0
 40
13.0
100
AcDbArc
 50
180.0
 51
0.0
  0
LINE
  5
E3
330
1F
100
AcDbEntity
  8
DEFAULT
100
AcDbLine
 10
-366.4999999999995
 20
-118.4999999999995
 30
0.0
 11
-366.4999999999995
 21
-106.4999999999995
 31
0.0
  0
ARC
  5
E4
330
1F
100
AcDbEntity
  8
DEFAULT
100
AcDbCircle
 10
-369.4999999999995
 20
-106.4999999999995
 30
0.0
 40
3.0
100
AcDbArc
 50
0.0
 51
90.0
  0
LINE
  5
E5
330
1F
100
AcDbEntity
  8
DEFAULT
100
AcDbLine
 10
-369.4999999999995
 20
-103.4999999999995
 30
0.0
 11
-374.4999999999995
 21
-103.4999999999995
 31
0.0
  0
LINE
  5
E6
330
1F
100
AcDbEntity
  8
DEFAULT
100
AcDbLine
 10
-374.4999999999995
 20
-103.4999999999995
 30
0.0
 11
-380.4999999999995
 21
-103.4999999999995
 31
0.0
  0
LINE
  5
E7
330
1F
100
AcDbEntity
  8
DEFAULT
100
AcDbLine
 10
-380.4999999999995
 20
-103.4999999999995
 30
0.0
 11
-380.9999999999995
 21
-100.5895724995635
 31
0.0
  0
LINE
  5
E8
330
1F
100
AcDbEntity
  8
DEFAULT
100
AcDbLine
 10
-380.9999999999995
 20
-100.5895724995635
 30
0.0
 11
-384.7276068751086
 21
-100.5895724995635
 31
0.0
  0
LINE
  5
E9
330
1F
100
AcDbEntity
  8
DEFAULT
100
AcDbLine
 10
-384.7276068751086
 20
-100.5895724995635
 30
0.0
 11
-384.7276068751086
 21
-106.4999999999995
 31
0.0
  0
LINE
  5
EA
330
1F
100
AcDbEntity
  8
DEFAULT
100
AcDbLine
 10
-384.7276068751086
 20
-106.4999999999995
 30
0.0
 11
-377.4999999999995
 21
-109.4999999999995
 31
0.0
  0
LINE
  5
EB
330
1F
100
AcDbEntity
  8
DEFAULT
100
AcDbLine
 10
-377.4999999999995
 20
-109.4999999999995
 30
0.0
 11
-374.4999999999995
 21
-109.4999999999995
 31
0.0
  0
LINE
  5
EC
330
1F
100
AcDbEntity
  8
DEFAULT
100
AcDbLine
 10
-374.4999999999995
 20
-109.4999999999995
 30
0.0
 11
-374.4999999999995
 21
-133.4999999999995
 31
0.0
  0
LINE
  5
ED
330
1F
100
AcDbEntity
  8
DEFAULT
100
AcDbLine
 10
-374.4999999999995
 20
-133.4999999999995
 30
0.0
 11
-377.4999999999995
 21
-133.4999999999995
 31
0.0
  0
LINE
  5
EE
330
1F
100
AcDbEntity
  8
DEFAULT
100
AcDbLine
 10
-377.4999999999995
 20
-133.4999999999995
 30
0.0
 11
-380.4999999999995
 21
-136.4999999999995
 31
0.0
  0
LINE
  5
EF
330
1F
100
AcDbEntity
  8
DEFAULT
100
AcDbLine
 10
-380.4999999999995
 20
-136.4999999999995
 30
0.0
 11
-380.4999999999995
 21
-139.4999999999995
 31
0.0
  0
LINE
  5
F0
330
1F
100
AcDbEntity
  8
DEFAULT
100
AcDbLine
 10
-380.4999999999995
 20
-139.4999999999995
 30
0.0
 11
-374.4999999999995
 21
-139.4999999999995
 31
0.0
  0
LINE
  5
F1
330
1F
100
AcDbEntity
  8
DEFAULT
100
AcDbLine
 10
-323.4999999999995
 20
-99.49999999999955
 30
0.0
 11
-344.4999999999995
 21
-99.49999999999955
 31
0.0
  0
ARC
  5
F2
330
1F
100
AcDbEntity
  8
DEFAULT
100
AcDbCircle
 10
-344.4999999999995
 20
-120.4999999999995
 30
0.0
 40
21.0
100
AcDbArc
 50
90.0
 51
180.0000000000412
  0
ARC
  5
F3
330
1F
100
AcDbEntity
  8
DEFAULT
100
AcDbCircle
 10
-361.4999999999995
 20
-120.5000000000148
 30
0.0
 40
3.999999999999943
100
AcDbArc
 50
180.000000000215
 51
0.0000000002182115
  0
ARC
  5
F4
330
1F
100
AcDbEntity
  8
DEFAULT
100
AcDbCircle
 10
-344.4999999999995
 20
-120.4999999999995
 30
0.0
 40
13.0
100
AcDbArc
 50
0.0
 51
180.0
  0
LINE
  5
F5
330
1F
100
AcDbEntity
  8
DEFAULT
100
AcDbLine
 10
-331.4999999999995
 20
-120.4999999999995
 30
0.0
 11
-331.4999999999995
 21
-132.4999999999995
 31
0.0
  0
ARC
  5
F6
330
1F
100
AcDbEntity
  8
DEFAULT
100
AcDbCircle
 10
-328.4999999999995
 20
-132.4999999999995
 30
0.0
 40
3.0
100
AcDbArc
 50
180.0
 51
270.0
  0
LINE
  5
F7
330
1F
100
AcDbEntity
  8
DEFAULT
100
AcDbLine
 10
-328.4999999999995
 20
-135.4999999999995
 30
0.0
 11
-323.4999999999995
 21
-135.4999999999995
 31
0.0
  0
LINE
  5
F8
330
1F
100
AcDbEntity
  8
DEFAULT
100
AcDbLine
 10
-323.4999999999995
 20
-135.4999999999995
 30
0.0
 11
-317.4999999999995
 21
-135.4999999999995
 31
0.0
  0
LINE
  5
F9
330
1F
100
AcDbEntity
  8
DEFAULT
100
AcDbLine
 10
-317.4999999999995
 20
-135.4999999999995
 30
0.0
 11
-316.9999999999995
 21
-138.4104275004356
 31
0.0
  0
LINE
  5
FA
330
1F
100
AcDbEntity
  8
DEFAULT
100
AcDbLine
 10
-316.9999999999995
 20
-138.4104275004356
 30
0.0
 11
-313.2723931248905
 21
-138.4104275004356
 31
0.0
  0
LINE
  5
FB
330
1F
100
AcDbEntity
  8
DEFAULT
100
AcDbLine
 10
-313.2723931248905
 20
-138.4104275004356
 30
0.0
 11
-313.2723931248905
 21
-132.4999999999995
 31
0.0
  0
LINE
  5
FC
330
1F
100
AcDbEntity
  8
DEFAULT
100
AcDbLine
 10
-313.2723931248905
 20
-132.4999999999995
 30
0.0
 11
-320.4999999999995
 21
-129.4999999999995
 31
0.0
  0
LINE
  5
FD
330
1F
100
AcDbEntity
  8
DEFAULT
100
AcDbLine
 10
-320.4999999999995
 20
-129.4999999999995
 30
0.0
 11
-323.4999999999995
 21
-129.4999999999995
 31
0.0
  0
LINE
  5
FE
330
1F
100
AcDbEntity
  8
DEFAULT
100
AcDbLine
 10
-323.4999999999995
 20
-129.4999999999995
 30
0.0
 11
-323.4999999999995
 21
-105.4999999999995
 31
0.0
  0
LINE
  5
FF
330
1F
100
AcDbEntity
  8
DEFAULT
100
AcDbLine
 10
-323.4999999999995
 20
-105.4999999999995
 30
0.0
 11
-320.4999999999995
 21
-105.4999999999995
 31
0.0
  0
LINE
  5
100
330
1F
100
AcDbEntity
  8
DEFAULT
100
AcDbLine
 10
-320.4999999999995
 20
-105.4999999999995
 30
0.0
 11
-317.4999999999995
 21
-102.4999999999995
 31
0.0
  0
LINE
  5
101
330
1F
100
AcDbEntity
  8
DEFAULT
100
AcDbLine
 10
-317.4999999999995
 20
-102.4999999999995
 30
0.0
 11
-317.4999999999995
 21
-99.49999999999955
 31
0.0
  0
LINE
  5
102
330
1F
100
AcDbEntity
  8
DEFAULT
100
AcDbLine
 10
-317.4999999999995
 20
-99.49999999999955
 30
0.0
 11
-323.4999999999995
 21
-99.49999999999955
 31
0.0
  0
LINE
  5
103
330
1F
100
AcDbEntity
  8
DEFAULT
100
AcDbLine
 10
-319.9999999999995
 20
-139.4999999999995
 30
0.0
 11
-340.9999999999995
 21
-139.4999999999995
 31
0.0
  0
ARC
  5
104
330
1F
100
AcDbEntity
  8
DEFAULT
100
AcDbCircle
 10
-340.9999999999995
 20
-160.4999999999995
 30
0.0
 40
21.0
100
AcDbArc
 50
90.0
 51
180.0000000000412
  0
ARC
  5
105
330
1F
100
AcDbEntity
  8
DEFAULT
100
AcDbCircle
 10
-357.9999999999995
 20
-160.5000000000148
 30
0.0
 40
3.999999999999943
100
AcDbArc
 50
180.000000000215
 51
0.0000000002182115
  0
ARC
  5
106
330
1F
100
AcDbEntity
  8
DEFAULT
100
AcDbCircle
 10
-340.9999999999995
 20
-160.4999999999995
 30
0.0
 40
13.0
100
AcDbArc
 50
0.0
 51
180.0
  0
LINE
  5
107
330
1F
100
AcDbEntity
  8
DEFAULT
100
AcDbLine
 10
-327.9999999999995
 20
-160.4999999999995
 30
0.0
 11
-327.9999999999995
 21
-172.4999999999995
 31
0.0
  0
ARC
  5
108
330
1F
100
AcDbEntity
  8
DEFAULT
100
AcDbCircle
 10
-324.9999999999995
 20
-172.4999999999995
 30
0.0
 40
3.0
100
AcDbArc
 50
180.0
 51
270.0
  0
LINE
  5
109
330
1F
100
AcDbEntity
  8
DEFAULT
100
AcDbLine
 10
-324.9999999999995
 20
-175.4999999999995
 30
0.0
 11
-319.9999999999995
 21
-175.4999999999995
 31
0.0
  0
LINE
  5
10A
330
1F
100
AcDbEntity
  8
DEFAULT
100
AcDbLine
 10
-319.9999999999995
 20
-175.4999999999995
 30
0.0
 11
-313.9999999999995
 21
-175.4999999999995
 31
0.0
  0
LINE
  5
10B
330
1F
100
AcDbEntity
  8
DEFAULT
100
AcDbLine
 10
-313.9999999999995
 20
-175.4999999999995
 30
0.0
 11
-313.4999999999995
 21
-178.4104275004356
 31
0.0
  0
LINE
  5
10C
330
1F
100
AcDbEntity
  8
DEFAULT
100
AcDbLine
 10
-313.4999999999995
 20
-178.4104275004356
 30
0.0
 11
-309.7723931248905
 21
-178.4104275004356
 31
0.0
  0
LINE
  5
10D
330
1F
100
AcDbEntity
  8
DEFAULT
100
AcDbLine
 10
-309.7723931248905
 20
-178.4104275004356
 30
0.0
 11
-309.7723931248905
 21
-172.4999999999995
 31
0.0
  0
LINE
  5
10E
330
1F
100
AcDbEntity
  8
DEFAULT
100
AcDbLine
 10
-309.7723931248905
 20
-172.4999999999995
 30
0.0
 11
-316.9999999999995
 21
-169.4999999999995
 31
0.0
  0
LINE
  5
10F
330
1F
100
AcDbEntity
  8
DEFAULT
100
AcDbLine
 10
-316.9999999999995
 20
-169.4999999999995
 30
0.0
 11
-319.9999999999995
 21
-169.4999999999995
 31
0.0
  0
LINE
  5
110
330
1F
100
AcDbEntity
  8
DEFAULT
100
AcDbLine
 10
-319.9999999999995
 20
-169.4999999999995
 30
0.0
 11
-319.9999999999995
 21
-145.4999999999995
 31
0.0
  0
LINE
  5
111
330
1F
100
AcDbEntity
  8
DEFAULT
100
AcDbLine
 10
-319.9999999999995
 20
-145.4999999999995
 30
0.0
 11
-316.9999999999995
 21
-145.4999999999995
 31
0.0
  0
LINE
  5
112
330
1F
100
AcDbEntity
  8
DEFAULT
100
AcDbLine
 10
-316.9999999999995
 20
-145.4999999999995
 30
0.0
 11
-313.9999999999995
 21
-142.4999999999995
 31
0.0
  0
LINE
  5
113
330
1F
100
AcDbEntity
  8
DEFAULT
100
AcDbLine
 10
-313.9999999999995
 20
-142.4999999999995
 30
0.0
 11
-313.9999999999995
 21
-139.4999999999995
 31
0.0
  0
LINE
  5
114
330
1F
100
AcDbEntity
  8
DEFAULT
100
AcDbLine
 10
-313.9999999999995
 20
-139.4999999999995
 30
0.0
 11
-319.9999999999995
 21
-139.4999999999995
 31
0.0
  0
LINE
  5
115
330
1F
100
AcDbEntity
  8
DEFAULT
100
AcDbLine
 10
-370.9999999999995
 20
-179.4999999999995
 30
0.0
 11
-349.9999999999995
 21
-179.4999999999995
 31
0.0
  0
ARC
  5
116
330
1F
100
AcDbEntity
  8
DEFAULT
100
AcDbCircle
 10
-349.9999999999995
 20
-158.4999999999995
 30
0.0
 40
21.0
100
AcDbArc
 50
270.0
 51
0.0000000000412539
  0
ARC
  5
117
330
1F
100
AcDbEntity
  8
DEFAULT
100
AcDbCircle
 10
-332.9999999999995
 20
-158.4999999999843
 30
0.0
 40
3.999999999999943
100
AcDbArc
 50
0.0000000002149546
 51
180.0000000002182
  0
ARC
  5
118
330
1F
100
AcDbEntity
  8
DEFAULT
100
AcDbCircle
 10
-349.9999999999995
 20
-158.4999999999995
 30
0.0
 40
13.0
100
AcDbArc
 50
180.0
 51
0.0
  0
LINE
  5
119
330
1F
100
AcDbEntity
  8
DEFAULT
100
AcDbLine
 10
-362.9999999999995
 20
-158.4999999999995
 30
0.0
 11
-362.9999999999995
 21
-146.4999999999995
 31
0.0
  0
ARC
  5
11A
330
1F
100
AcDbEntity
  8
DEFAULT
100
AcDbCircle
 10
-365.9999999999995
 20
-146.4999999999995
 30
0.0
 40
3.0
100
AcDbArc
 50
0.0
 51
90.0
  0
LINE
  5
11B
330
1F
100
AcDbEntity
  8
DEFAULT
100
AcDbLine
 10
-365.9999999999995
 20
-143.4999999999995
 30
0.0
 11
-370.9999999999995
 21
-143.4999999999995
 31
0.0
  0
LINE
  5
11C
330
1F
100
AcDbEntity
  8
DEFAULT
100
AcDbLine
 10
-370.9999999999995
 20
-143.4999999999995
 30
0.0
 11
-376.9999999999995
 21
-143.4999999999995
 31
0.0
  0
LINE
  5
11D
330
1F
100
AcDbEntity
  8
DEFAULT
100
AcDbLine
 10
-376.9999999999995
 20
-143.4999999999995
 30
0.0
 11
-377.4999999999995
 21
-140.5895724995635
 31
0.0
  0
LINE
  5
11E
330
1F
100
AcDbEntity
  8
DEFAULT
100
AcDbLine
 10
-377.4999999999995
 20
-140.5895724995635
 30
0.0
 11
-381.2276068751086
 21
-140.5895724995635
 31
0.0
  0
LINE
  5
11F
330
1F
100
AcDbEntity
  8
DEFAULT
100
AcDbLine
 10
-381.2276068751086
 20
-140.5895724995635
 30
0.0
 11
-381.2276068751086
 21
-146.4999999999995
 31
0.0
  0
LINE
  5
120
330
1F
100
AcDbEntity
  8
DEFAULT
100
AcDbLine
 10
-381.2276068751086
 20
-146.4999999999995
 30
0.0
 11
-373.9999999999995
 21
-149.4999999999995
 31
0.0
  0
LINE
  5
121
330
1F
100
AcDbEntity
  8
DEFAULT
100
AcDbLine
 10
-373.9999999999995
 20
-149.4999999999995
 30
0.0
 11
-370.9999999999995
 21
-149.4999999999995
 31
0.0
  0
LINE
  5
122
330
1F
100
AcDbEntity
  8
DEFAULT
100
AcDbLine
 10
-370.9999999999995
 20
-149.4999999999995
 30
0.0
 11
-370.9999999999995
 21
-173.4999999999995
 31
0.0
  0
LINE
  5
123
330
1F
100
AcDbEntity
  8
DEFAULT
100
AcDbLine
 10
-370.9999999999995
 20
-173.4999999999995
 30
0.0
 11
-373.9999999999995
 21
-173.4999999999995
 31
0.0
  0
LINE
  5
124
330
1F
100
AcDbEntity
  8
DEFAULT
100
AcDbLine
 10
-373.9999999999995
 20
-173.4999999999995
 30
0.0
 11
-376.9999999999995
 21
-176.4999999999995
 31
0.0
  0
LINE
  5
125
330
1F
100
AcDbEntity
  8
DEFAULT
100
AcDbLine
 10
-376.9999999999995
 20
-176.4999999999995
 30
0.0
 11
-376.9999999999995
 21
-179.4999999999995
 31
0.0
  0
LINE
  5
126
330
1F
100
AcDbEntity
  8
DEFAULT
100
AcDbLine
 10
-376.9999999999995
 20
-179.4999999999995
 30
0.0
 11
-370.9999999999995
 21
-179.4999999999995
 31
0.0
  0
LINE
  5
127
330
1F
100
AcDbEntity
  8
DEFAULT
100
AcDbLine
 10
-358.9999999999995
 20
-261.4999999999995
 30
0.0
 11
-358.9999999999995
 21
-240.4999999999995
 31
0.0
  0
ARC
  5
128
330
1F
100
AcDbEntity
  8
DEFAULT
100
AcDbCircle
 10
-379.9999999999995
 20
-240.4999999999995
 30
0.0
 40
21.0
100
AcDbArc
 50
359.9999999998797
 51
89.99999999974844
  0
ARC
  5
129
330
1F
100
AcDbEntity
  8
DEFAULT
100
AcDbCircle
 10
-380.0000000000148
 20
-223.4999999999995
 30
0.0
 40
4.0
100
AcDbArc
 50
90.00000000021659
 51
270.0000000002166
  0
ARC
  5
12A
330
1F
100
AcDbEntity
  8
DEFAULT
100
AcDbCircle
 10
-379.9999999999995
 20
-240.4999999999995
 30
0.0
 40
13.0
100
AcDbArc
 50
270.0
 51
90.0
  0
LINE
  5
12B
330
1F
100
AcDbEntity
  8
DEFAULT
100
AcDbLine
 10
-379.9999999999995
 20
-253.4999999999995
 30
0.0
 11
-415.9999999999995
 21
-253.4999999999995
 31
0.0
  0
ARC
  5
12C
330
1F
100
AcDbEntity
  8
DEFAULT
100
AcDbCircle
 10
-415.9999999999995
 20
-250.4999999999995
 30
0.0
 40
3.0
100
AcDbArc
 50
180.0
 51
270.0000000000011
  0
LINE
  5
12D
330
1F
100
AcDbEntity
  8
DEFAULT
100
AcDbLine
 10
-418.9999999999995
 20
-250.4999999999995
 30
0.0
 11
-418.9999999999995
 21
-240.4999999999995
 31
0.0
  0
ARC
  5
12E
330
1F
100
AcDbEntity
  8
DEFAULT
100
AcDbCircle
 10
-439.9999999999995
 20
-240.4999999999995
 30
0.0
 40
21.0
100
AcDbArc
 50
0.0
 51
90.00000000004127
  0
ARC
  5
12F
330
1F
100
AcDbEntity
  8
DEFAULT
100
AcDbCircle
 10
-440.0000000000147
 20
-223.4999999999995
 30
0.0
 40
3.999999999999943
100
AcDbArc
 50
90.00000000021659
 51
270.0000000002166
  0
ARC
  5
130
330
1F
100
AcDbEntity
  8
DEFAULT
100
AcDbCircle
 10
-439.9999999999995
 20
-240.4999999999995
 30
0.0
 40
13.0
100
AcDbArc
 50
270.0
 51
90.0
  0
LINE
  5
131
330
1F
100
AcDbEntity
  8
DEFAULT
100
AcDbLine
 10
-439.9999999999995
 20
-253.4999999999995
 30
0.0
 11
-451.9999999999995
 21
-253.4999999999995
 31
0.0
  0
ARC
  5
132
330
1F
100
AcDbEntity
  8
DEFAULT
100
AcDbCircle
 10
-451.9999999999995
 20
-256.4999999999995
 30
0.0
 40
3.0
100
AcDbArc
 50
90.0
 51
180.0
  0
LINE
  5
133
330
1F
100
AcDbEntity
  8
DEFAULT
100
AcDbLine
 10
-454.9999999999995
 20
-256.4999999999995
 30
0.0
 11
-454.9999999999995
 21
-261.4999999999995
 31
0.0
  0
LINE
  5
134
330
1F
100
AcDbEntity
  8
DEFAULT
100
AcDbLine
 10
-454.9999999999995
 20
-261.4999999999995
 30
0.0
 11
-454.9999999999995
 21
-267.4999999999995
 31
0.0
  0
LINE
  5
135
330
1F
100
AcDbEntity
  8
DEFAULT
100
AcDbLine
 10
-454.9999999999995
 20
-267.4999999999995
 30
0.0
 11
-457.9104275004356
 21
-267.9999999999995
 31
0.0
  0
LINE
  5
136
330
1F
100
AcDbEntity
  8
DEFAULT
100
AcDbLine
 10
-457.9104275004356
 20
-267.9999999999995
 30
0.0
 11
-457.9104275004356
 21
-271.7276068751087
 31
0.0
  0
LINE
  5
137
330
1F
100
AcDbEntity
  8
DEFAULT
100
AcDbLine
 10
-457.9104275004356
 20
-271.7276068751087
 30
0.0
 11
-451.9999999999995
 21
-271.7276068751087
 31
0.0
  0
LINE
  5
138
330
1F
100
AcDbEntity
  8
DEFAULT
100
AcDbLine
 10
-451.9999999999995
 20
-271.7276068751087
 30
0.0
 11
-448.9999999999995
 21
-264.4999999999995
 31
0.0
  0
LINE
  5
139
330
1F
100
AcDbEntity
  8
DEFAULT
100
AcDbLine
 10
-448.9999999999995
 20
-264.4999999999995
 30
0.0
 11
-448.9999999999995
 21
-261.4999999999995
 31
0.0
  0
LINE
  5
13A
330
1F
100
AcDbEntity
  8
DEFAULT
100
AcDbLine
 10
-448.9999999999995
 20
-261.4999999999995
 30
0.0
 11
-424.9999999999995
 21
-261.4999999999995
 31
0.0
  0
LINE
  5
13B
330
1F
100
AcDbEntity
  8
DEFAULT
100
AcDbLine
 10
-424.9999999999995
 20
-261.4999999999995
 30
0.0
 11
-424.9999999999995
 21
-264.4999999999995
 31
0.0
  0
LINE
  5
13C
330
1F
100
AcDbEntity
  8
DEFAULT
100
AcDbLine
 10
-424.9999999999995
 20
-264.4999999999995
 30
0.0
 11
-421.9999999999995
 21
-267.4999999999995
 31
0.0
  0
LINE
  5
13D
330
1F
100
AcDbEntity
  8
DEFAULT
100
AcDbLine
 10
-421.9999999999995
 20
-267.4999999999995
 30
0.0
 11
-418.9999999999995
 21
-267.4999999999995
 31
0.0
  0
LINE
  5
13E
330
1F
100
AcDbEntity
  8
DEFAULT
100
AcDbLine
 10
-418.9999999999995
 20
-267.4999999999995
 30
0.0
 11
-418.9999999999995
 21
-261.4999999999995
 31
0.0
  0
LINE
  5
13F
330
1F
100
AcDbEntity
  8
DEFAULT
100
AcDbLine
 10
-418.9999999999995
 20
-261.4999999999995
 30
0.0
 11
-394.9999999999995
 21
-261.4999999999995
 31
0.0
  0
LINE
  5
140
330
1F
100
AcDbEntity
  8
DEFAULT
100
AcDbLine
 10
-394.9999999999995
 20
-261.4999999999995
 30
0.0
 11
-394.9999999999995
 21
-264.4999999999995
 31
0.0
  0
LINE
  5
141
330
1F
100
AcDbEntity
  8
DEFAULT
100
AcDbLine
 10
-394.9999999999995
 20
-264.4999999999995
 30
0.0
 11
-391.9999999999995
 21
-267.4999999999995
 31
0.0
  0
LINE
  5
142
330
1F
100
AcDbEntity
  8
DEFAULT
100
AcDbLine
 10
-391.9999999999995
 20
-267.4999999999995
 30
0.0
 11
-388.9999999999995
 21
-267.4999999999995
 31
0.0
  0
LINE
  5
143
330
1F
100
AcDbEntity
  8
DEFAULT
100
AcDbLine
 10
-388.9999999999995
 20
-267.4999999999995
 30
0.0
 11
-388.9999999999995
 21
-261.4999999999995
 31
0.0
  0
LINE
  5
144
330
1F
100
AcDbEntity
  8
DEFAULT
100
AcDbLine
 10
-388.9999999999995
 20
-261.4999999999995
 30
0.0
 11
-364.9999999999995
 21
-261.4999999999995
 31
0.0
  0
LINE
  5
145
330
1F
100
AcDbEntity
  8
DEFAULT
100
AcDbLine
 10
-364.9999999999995
 20
-261.4999999999995
 30
0.0
 11
-364.9999999999995
 21
-264.4999999999995
 31
0.0
  0
LINE
  5
146
330
1F
100
AcDbEntity
  8
DEFAULT
100
AcDbLine
 10
-364.9999999999995
 20
-264.4999999999995
 30
0.0
 11
-361.9999999999995
 21
-267.4999999999995
 31
0.0
  0
LINE
  5
147
330
1F
100
AcDbEntity
  8
DEFAULT
100
AcDbLine
 10
-361.9999999999995
 20
-267.4999999999995
 30
0.0
 11
-358.9999999999995
 21
-267.4999999999995
 31
0.0
  0
LINE
  5
148
330
1F
100
AcDbEntity
  8
DEFAULT
100
AcDbLine
 10
-358.9999999999995
 20
-267.4999999999995
 30
0.0
 11
-358.9999999999995
 21
-261.4999999999995
 31
0.0
  0
LINE
  5
149
330
1F
100
AcDbEntity
  8
DEFAULT
100
AcDbLine
 10
-458.9999999999995
 20
-210.4999999999995
 30
0.0
 11
-458.9999999999995
 21
-231.4999999999995
 31
0.0
  0
ARC
  5
14A
330
1F
100
AcDbEntity
  8
DEFAULT
100
AcDbCircle
 10
-437.9999999999995
 20
-231.4999999999995
 30
0.0
 40
21.0
100
AcDbArc
 50
179.9999999998797
 51
269.9999999997485
  0
ARC
  5
14B
330
1F
100
AcDbEntity
  8
DEFAULT
100
AcDbCircle
 10
-437.9999999999843
 20
-248.4999999999995
 30
0.0
 40
4.0
100
AcDbArc
 50
270.0000000002166
 51
90.00000000021659
  0
ARC
  5
14C
330
1F
100
AcDbEntity
  8
DEFAULT
100
AcDbCircle
 10
-437.9999999999995
 20
-231.4999999999995
 30
0.0
 40
13.0
100
AcDbArc
 50
90.0
 51
270.0
  0
LINE
  5
14D
330
1F
100
AcDbEntity
  8
DEFAULT
100
AcDbLine
 10
-437.9999999999995
 20
-218.4999999999995
 30
0.0
 11
-401.9999999999995
 21
-218.4999999999995
 31
0.0
  0
ARC
  5
14E
330
1F
100
AcDbEntity
  8
DEFAULT
100
AcDbCircle
 10
-401.9999999999995
 20
-221.4999999999995
 30
0.0
 40
3.0
100
AcDbArc
 50
0.0
 51
90.0000000000011
  0
LINE
  5
14F
330
1F
100
AcDbEntity
  8
DEFAULT
100
AcDbLine
 10
-398.9999999999995
 20
-221.4999999999995
 30
0.0
 11
-398.9999999999995
 21
-231.4999999999995
 31
0.0
  0
ARC
  5
150
330
1F
100
AcDbEntity
  8
DEFAULT
100
AcDbCircle
 10
-377.9999999999995
 20
-231.4999999999995
 30
0.0
 40
21.0
100
AcDbArc
 50
180.0
 51
270.0000000000412
  0
ARC
  5
151
330
1F
100
AcDbEntity
  8
DEFAULT
100
AcDbCircle
 10
-377.9999999999844
 20
-248.4999999999995
 30
0.0
 40
3.999999999999943
100
AcDbArc
 50
270.0000000002166
 51
90.00000000021659
  0
ARC
  5
152
330
1F
100
AcDbEntity
  8
DEFAULT
100
AcDbCircle
 10
-377.9999999999995
 20
-231.4999999999995
 30
0.0
 40
13.0
100
AcDbArc
 50
90.0
 51
270.0
  0
LINE
  5
153
330
1F
100
AcDbEntity
  8
DEFAULT
100
AcDbLine
 10
-377.9999999999995
 20
-218.4999999999995
 30
0.0
 11
-365.9999999999995
 21
-218.4999999999995
 31
0.0
  0
ARC
  5
154
330
1F
100
AcDbEntity
  8
DEFAULT
100
AcDbCircle
 10
-365.9999999999995
 20
-215.4999999999995
 30
0.0
 40
3.0
100
AcDbArc
 50
270.0
 51
0.0
  0
LINE
  5
155
330
1F
100
AcDbEntity
  8
DEFAULT
100
AcDbLine
 10
-362.9999999999995
 20
-215.4999999999995
 30
0.0
 11
-362.9999999999995
 21
-210.4999999999995
 31
0.0
  0
LINE
  5
156
330
1F
100
AcDbEntity
  8
DEFAULT
100
AcDbLine
 10
-362.9999999999995
 20
-210.4999999999995
 30
0.0
 11
-362.9999999999995
 21
-204.4999999999995
 31
0.0
  0
LINE
  5
157
330
1F
100
AcDbEntity
  8
DEFAULT
100
AcDbLine
 10
-362.9999999999995
 20
-204.4999999999995
 30
0.0
 11
-360.0895724995635
 21
-203.9999999999995
 31
0.0
  0
LINE
  5
158
330
1F
100
AcDbEntity
  8
DEFAULT
100
AcDbLine
 10
-360.0895724995635
 20
-203.9999999999995
 30
0.0
 11
-360.0895724995635
 21
-200.2723931248906
 31
0.0
  0
LINE
  5
159
330
1F
100
AcDbEntity
  8
DEFAULT
100
AcDbLine
 10
-360.0895724995635
 20
-200.2723931248906
 30
0.0
 11
-365.9999999999995
 21
-200.2723931248906
 31
0.0
  0
LINE
  5
15A
330
1F
100
AcDbEntity
  8
DEFAULT
100
AcDbLine
 10
-365.9999999999995
 20
-200.2723931248906
 30
0.0
 11
-368.9999999999995
 21
-207.4999999999995
 31
0.0
  0
LINE
  5
15B
330
1F
100
AcDbEntity
  8
DEFAULT
100
AcDbLine
 10
-368.9999999999995
 20
-207.4999999999995
 30
0.0
 11
-368.9999999999995
 21
-210.4999999999995
 31
0.0
  0
LINE
  5
15C
330
1F
100
AcDbEntity
  8
DEFAULT
100
AcDbLine
 10
-368.9999999999995
 20
-210.4999999999995
 30
0.0
 11
-392.9999999999995
 21
-210.4999999999995
 31
0.0
  0
LINE
  5
15D
330
1F
100
AcDbEntity
  8
DEFAULT
100
AcDbLine
 10
-392.9999999999995
 20
-210.4999999999995
 30
0.0
 11
-392.9999999999995
 21
-207.4999999999995
 31
0.0
  0
LINE
  5
15E
330
1F
100
AcDbEntity
  8
DEFAULT
100
AcDbLine
 10
-392.9999999999995
 20
-207.4999999999995
 30
0.0
 11
-395.9999999999995
 21
-204.4999999999995
 31
0.0
  0
LINE
  5
15F
330
1F
100
AcDbEntity
  8
DEFAULT
100
AcDbLine
 10
-395.9999999999995
 20
-204.4999999999995
 30
0.0
 11
-398.9999999999995
 21
-204.4999999999995
 31
0.0
  0
LINE
  5
160
330
1F
100
AcDbEntity
  8
DEFAULT
100
AcDbLine
 10
-398.9999999999995
 20
-204.4999999999995
 30
0.0
 11
-398.9999999999995
 21
-210.4999999999995
 31
0.0
  0
LINE
  5
161
330
1F
100
AcDbEntity
  8
DEFAULT
100
AcDbLine
 10
-398.9999999999995
 20
-210.4999999999995
 30
0.0
 11
-422.9999999999995
 21
-210.4999999999995
 31
0.0
  0
LINE
  5
162
330
1F
100
AcDbEntity
  8
DEFAULT
100
AcDbLine
 10
-422.9999999999995
 20
-210.4999999999995
 30
0.0
 11
-422.9999999999995
 21
-207.4999999999995
 31
0.0
  0
LINE
  5
163
330
1F
100
AcDbEntity
  8
DEFAULT
100
AcDbLine
 10
-422.9999999999995
 20
-207.4999999999995
 30
0.0
 11
-425.9999999999995
 21
-204.4999999999995
 31
0.0
  0
LINE
  5
164
330
1F
100
AcDbEntity
  8
DEFAULT
100
AcDbLine
 10
-425.9999999999995
 20
-204.4999999999995
 30
0.0
 11
-428.9999999999995
 21
-204.4999999999995
 31
0.0
  0
LINE
  5
165
330
1F
100
AcDbEntity
  8
DEFAULT
100
AcDbLine
 10
-428.9999999999995
 20
-204.4999999999995
 30
0.0
 11
-428.9999999999995
 21
-210.4999999999995
 31
0.0
  0
LINE
  5
166
330
1F
100
AcDbEntity
  8
DEFAULT
100
AcDbLine
 10
-428.9999999999995
 20
-210.4999999999995
 30
0.0
 11
-452.9999999999995
 21
-210.4999999999995
 31
0.0
  0
LINE
  5
167
330
1F
100
AcDbEntity
  8
DEFAULT
100
AcDbLine
 10
-452.9999999999995
 20
-210.4999999999995
 30
0.0
 11
-452.9999999999995
 21
-207.4999999999995
 31
0.0
  0
LINE
  5
168
330
1F
100
AcDbEntity
  8
DEFAULT
100
AcDbLine
 10
-452.9999999999995
 20
-207.4999999999995
 30
0.0
 11
-455.9999999999995
 21
-204.4999999999995
 31
0.0
  0
LINE
  5
169
330
1F
100
AcDbEntity
  8
DEFAULT
100
AcDbLine
 10
-455.9999999999995
 20
-204.4999999999995
 30
0.0
 11
-458.9999999999995
 21
-204.4999999999995
 31
0.0
  0
LINE
  5
16A
330
1F
100
AcDbEntity
  8
DEFAULT
100
AcDbLine
 10
-458.9999999999995
 20
-204.4999999999995
 30
0.0
 11
-458.9999999999995
 21
-210.4999999999995
 31
0.0
  0
ENDSEC
  0
SECTION
  2
OBJECTS
  0
DICTIONARY
  5
C
330
0
100
AcDbDictionary
  3
ACAD_GROUP
350
D
  3
ACAD_LAYOUT
350
1A
  3
ACAD_MATERIAL
350
43
  3
ACAD_MLEADERSTYLE
350
18D
  3
ACAD_MLINESTYLE
350
17
  3
ACAD_PLOTSETTINGS
350
19
  3
ACAD_SCALELIST
350
47
  3
ACAD_VISUALSTYLE
350
2A
  3
ACDBHEADERROUNDTRIPXREC
350
16B
  3
ACDBVARIABLEDICTIONARY
350
18B
  0
DICTIONARY
  5
D
102
{ACAD_REACTORS
330
C
102
}
330
C
100
AcDbDictionary
  0
DICTIONARY
  5
1A
102
{ACAD_REACTORS
330
C
102
}
330
C
100
AcDbDictionary
  0
DICTIONARY
  5
43
102
{ACAD_REACTORS
330
C
102
}
330
C
100
AcDbDictionary
  3
BYBLOCK
350
45
  3
BYLAYER
350
44
  3
GLOBAL
350
46
  0
DICTIONARY
  5
18D
102
{ACAD_REACTORS
330
C
102
}
330
C
100
AcDbDictionary
  0
DICTIONARY
  5
17
102
{ACAD_REACTORS
330
C
102
}
330
C
100
AcDbDictionary
  3
STANDARD
350
18
  0
DICTIONARY
  5
19
102
{ACAD_REACTORS
330
C
102
}
330
C
100
AcDbDictionary
  0
DICTIONARY
  5
47
102
{ACAD_REACTORS
330
C
102
}
330
C
100
AcDbDictionary
  3
A0
350
48
  3
A1
350
49
  3
A2
350
4A
  3
A3
350
4B
  3
A4
350
4C
  3
A5
350
4D
  3
A6
350
4E
  3
A7
350
4F
  3
A8
350
50
  3
A9
350
51
  3
B0
350
52
  3
B1
350
53
  3
B2
350
54
  3
B3
350
55
  3
B4
350
56
  3
B5
350
57
  3
B6
350
58
  3
B7
350
59
  3
B8
350
5A
  3
B9
350
5B
  3
C0
350
5C
  3
C1
350
5D
  3
C2
350
5E
  3
C3
350
5F
  3
C4
350
60
  3
C5
350
61
  3
C6
350
62
  3
C7
350
63
  3
C8
350
64
  3
C9
350
65
  3
D0
350
66
  3
D1
350
67
  3
D2
350
68
  0
DICTIONARY
  5
2A
102
{ACAD_REACTORS
330
C
102
}
330
C
100
AcDbDictionary
  3
2DWIREFRAME
350
2F
  3
BASIC
350
32
  3
BRIGHTEN
350
36
  3
COLORCHANGE
350
3A
  3
CONCEPTUAL
350
34
  3
DIM
350
35
  3
EDGECOLOROFF
350
3D
  3
FACEPATTERN
350
39
  3
FLAT
350
2B
  3
FLATWITHEDGES
350
2C
  3
GOURAUD
350
2D
  3
GOURAUDWITHEDGES
350
2E
  3
HIDDEN
350
31
  3
JITTEROFF
350
3B
  3
LINEPATTERN
350
38
  3
OVERHANGOFF
350
3C
  3
REALISTIC
350
33
  3
SHADED
350
42
  3
SHADED_WITH_EDGES
350
41
  3
SHADES_OF_GRAY
350
3E
  3
SKETCHY
350
3F
  3
THICKEN
350
37
  3
WIREFRAME
350
30
  3
X-RAY
350
40
  0
DICTIONARY
  5
16B
102
{ACAD_REACTORS
330
C
102
}
330
C
100
AcDbDictionary
  3
CEPSNTYPE
350
174
  3
DIMSTYLEDATA
350
18A
  3
FINGERPRINTGUID
350
175
  3
HYPERLINKBASE
350
16E
  3
INSUNITS
350
173
  3
LAYOUTDICT
350
170
  3
LWETCUNION
350
172
  3
PLOTSETDICT
350
171
  3
PSVPSCALE
350
177
  3
PUCSBASE
350
17A
  3
PUCSORGBACK
350
180
  3
PUCSORGBOTTOM
350
17C
  3
PUCSORGFRONT
350
17F
  3
PUCSORGLEFT
350
17D
  3
PUCSORGRIGHT
350
17E
  3
PUCSORGTOP
350
17B
  3
PUCSORTHOREF
350
178
  3
PUCSORTHOVIEW
350
179
  3
STYLESHEET
350
16F
  3
TSTACKALIGN
350
16C
  3
TSTACKSIZE
350
16D
  3
UCSBASE
350
183
  3
UCSORGBACK
350
189
  3
UCSORGBOTTOM
350
185
  3
UCSORGFRONT
350
188
  3
UCSORGLEFT
350
186
  3
UCSORGRIGHT
350
187
  3
UCSORGTOP
350
184
  3
UCSORTHOREF
350
181
  3
UCSORTHOVIEW
350
182
  3
VERSIONGUID
350
176
  0
DICTIONARY
  5
18B
102
{ACAD_REACTORS
330
C
102
}
330
C
100
AcDbDictionary
  3
CANNOSCALE
350
192
  3
DIMASSOC
350
190
  3
HIDETEXT
350
191
  3
MSLTSCALE
350
193
  0
MATERIAL
  5
45
102
{ACAD_REACTORS
330
43
102
}
102
{ACAD_XDICTIONARY
360
196
102
}
330
43
100
AcDbMaterial
  1
BYBLOCK
  0
MATERIAL
  5
44
102
{ACAD_REACTORS
330
43
102
}
102
{ACAD_XDICTIONARY
360
194
102
}
330
43
100
AcDbMaterial
  1
BYLAYER
  0
MATERIAL
  5
46
102
{ACAD_REACTORS
330
43
102
}
102
{ACAD_XDICTIONARY
360
198
102
}
330
43
100
AcDbMaterial
  1
GLOBAL
  0
MLINESTYLE
  5
18
102
{ACAD_REACTORS
330
17
102
}
330
17
100
AcDbMlineStyle
  2
Standard
 70
     0
  3

 62
   256
 51
90.0
 52
90.0
 71
     2
 49
0.5
 62
   256
  6
BYLAYER
 49
-0.5
 62
   256
  6
BYLAYER
  0
ACAD_PROXY_OBJECT
  5
48
102
{ACAD_REACTORS
330
47
102
}
330
47
100
AcDbProxyObject
 90
      499
 91
      503
 93
       41
310
903313A31580
  0
ACAD_PROXY_OBJECT
  5
49
102
{ACAD_REACTORS
330
47
102
}
330
47
100
AcDbProxyObject
 90
      499
 91
      503
 93
      105
310
903313A324000000000000004000
  0
ACAD_PROXY_OBJECT
  5
4A
102
{ACAD_REACTORS
330
47
102
}
330
47
100
AcDbProxyObject
 90
      499
 91
      503
 93
      105
310
903313A344000000000000104000
  0
ACAD_PROXY_OBJECT
  5
4B
102
{ACAD_REACTORS
330
47
102
}
330
47
100
AcDbProxyObject
 90
      499
 91
      503
 93
      105
310
903313A354000000000000144000
  0
ACAD_PROXY_OBJECT
  5
4C
102
{ACAD_REACTORS
330
47
102
}
330
47
100
AcDbProxyObject
 90
      499
 91
      503
 93
      105
310
903313A384000000000000204000
  0
ACAD_PROXY_OBJECT
  5
4D
102
{ACAD_REACTORS
330
47
102
}
330
47
100
AcDbProxyObject
 90
      499
 91
      503
 93
      113
310
904313A31304000000000000244000
  0
ACAD_PROXY_OBJECT
  5
4E
102
{ACAD_REACTORS
330
47
102
}
330
47
100
AcDbProxyObject
 90
      499
 91
      503
 93
      113
310
904313A31364000000000000304000
  0
ACAD_PROXY_OBJECT
  5
4F
102
{ACAD_REACTORS
330
47
102
}
330
47
100
AcDbProxyObject
 90
      499
 91
      503
 93
      113
310
904313A32304000000000000344000
  0
ACAD_PROXY_OBJECT
  5
50
102
{ACAD_REACTORS
330
47
102
}
330
47
100
AcDbProxyObject
 90
      499
 91
      503
 93
      113
310
904313A333040000000000003E4000
  0
ACAD_PROXY_OBJECT
  5
51
102
{ACAD_REACTORS
330
47
102
}
330
47
100
AcDbProxyObject
 90
      499
 91
      503
 93
      113
310
904313A34304000000000000444000
  0
ACAD_PROXY_OBJECT
  5
52
102
{ACAD_REACTORS
330
47
102
}
330
47
100
AcDbProxyObject
 90
      499
 91
      503
 93
      113
310
904313A35304000000000000494000
  0
ACAD_PROXY_OBJECT
  5
53
102
{ACAD_REACTORS
330
47
102
}
330
47
100
AcDbProxyObject
 90
      499
 91
      503
 93
      121
310
905313A3130304000000000000594000
  0
ACAD_PROXY_OBJECT
  5
54
102
{ACAD_REACTORS
330
47
102
}
330
47
100
AcDbProxyObject
 90
      499
 91
      503
 93
      105
310
903323A310000000000000010100
  0
ACAD_PROXY_OBJECT
  5
55
102
{ACAD_REACTORS
330
47
102
}
330
47
100
AcDbProxyObject
 90
      499
 91
      503
 93
      105
310
903343A310000000000000410100
  0
ACAD_PROXY_OBJECT
  5
56
102
{ACAD_REACTORS
330
47
102
}
330
47
100
AcDbProxyObject
 90
      499
 91
      503
 93
      105
310
903383A310000000000000810100
  0
ACAD_PROXY_OBJECT
  5
57
102
{ACAD_REACTORS
330
47
102
}
330
47
100
AcDbProxyObject
 90
      499
 91
      503
 93
      113
310
90431303A310000000000000910100
  0
ACAD_PROXY_OBJECT
  5
58
102
{ACAD_REACTORS
330
47
102
}
330
47
100
AcDbProxyObject
 90
      499
 91
      503
 93
      121
310
9053130303A310000000000001650100
  0
ACAD_PROXY_OBJECT
  5
59
102
{ACAD_REACTORS
330
47
102
}
330
47
100
AcDbProxyObject
 90
      499
 91
      503
 93
      257
310
90E312F31323822203D2031272D3022000000000000200FC000000000000284000
  0
ACAD_PROXY_OBJECT
  5
5A
102
{ACAD_REACTORS
330
47
102
}
330
47
100
AcDbProxyObject
 90
      499
 91
      503
 93
      249
310
90D312F363422203D2031272D3022000000000000240FC000000000000284000
  0
ACAD_PROXY_OBJECT
  5
5B
102
{ACAD_REACTORS
330
47
102
}
330
47
100
AcDbProxyObject
 90
      499
 91
      503
 93
      249
310
90D312F333222203D2031272D3022000000000000280FC000000000000284000
  0
ACAD_PROXY_OBJECT
  5
5C
102
{ACAD_REACTORS
330
47
102
}
330
47
100
AcDbProxyObject
 90
      499
 91
      503
 93
      249
310
90D312F313622203D2031272D30220000000000002C0FC000000000000284000
  0
ACAD_PROXY_OBJECT
  5
5D
102
{ACAD_REACTORS
330
47
102
}
330
47
100
AcDbProxyObject
 90
      499
 91
      503
 93
      249
310
90D332F333222203D2031272D30220000000000002E0FC000000000000284000
  0
ACAD_PROXY_OBJECT
  5
5E
102
{ACAD_REACTORS
330
47
102
}
330
47
100
AcDbProxyObject
 90
      499
 91
      503
 93
      241
310
90C312F3822203D2031272D3022000000000000300FC000000000000284000
  0
ACAD_PROXY_OBJECT
  5
5F
102
{ACAD_REACTORS
330
47
102
}
330
47
100
AcDbProxyObject
 90
      499
 91
      503
 93
      249
310
90D332F313622203D2031272D3022000000000000320FC000000000000284000
  0
ACAD_PROXY_OBJECT
  5
60
102
{ACAD_REACTORS
330
47
102
}
330
47
100
AcDbProxyObject
 90
      499
 91
      503
 93
      241
310
90C312F3422203D2031272D3022000000000000340FC000000000000284000
  0
ACAD_PROXY_OBJECT
  5
61
102
{ACAD_REACTORS
330
47
102
}
330
47
100
AcDbProxyObject
 90
      499
 91
      503
 93
      241
310
90C332F3822203D2031272D3022000000000000360FC000000000000284000
  0
ACAD_PROXY_OBJECT
  5
62
102
{ACAD_REACTORS
330
47
102
}
330
47
100
AcDbProxyObject
 90
      499
 91
      503
 93
      241
310
90C312F3222203D2031272D3022000000000000380FC000000000000284000
  0
ACAD_PROXY_OBJECT
  5
63
102
{ACAD_REACTORS
330
47
102
}
330
47
100
AcDbProxyObject
 90
      499
 91
      503
 93
      241
310
90C332F3422203D2031272D30220000000000003A0FC000000000000284000
  0
ACAD_PROXY_OBJECT
  5
64
102
{ACAD_REACTORS
330
47
102
}
330
47
100
AcDbProxyObject
 90
      499
 91
      503
 93
      161
310
90A3122203D2031272D30224000000000000284000
  0
ACAD_PROXY_OBJECT
  5
65
102
{ACAD_REACTORS
330
47
102
}
330
47
100
AcDbProxyObject
 90
      499
 91
      503
 93
      257
310
90E312D312F3222203D2031272D30220000000000003E0FC000000000000284000
  0
ACAD_PROXY_OBJECT
  5
66
102
{ACAD_REACTORS
330
47
102
}
330
47
100
AcDbProxyObject
 90
      499
 91
      503
 93
      225
310
90A3322203D2031272D302200000000000002100000000000000284000
  0
ACAD_PROXY_OBJECT
  5
67
102
{ACAD_REACTORS
330
47
102
}
330
47
100
AcDbProxyObject
 90
      499
 91
      503
 93
      225
310
90A3622203D2031272D302200000000000006100000000000000284000
  0
ACAD_PROXY_OBJECT
  5
68
102
{ACAD_REACTORS
330
47
102
}
330
47
100
AcDbProxyObject
 90
      499
 91
      503
 93
      249
310
90D31272D3022203D2031272D30220000000000000A100000000000000284000
  0
ACAD_PROXY_OBJECT
  5
2F
102
{ACAD_REACTORS
330
2A
102
}
330
2A
100
AcDbProxyObject
 90
      499
 91
      501
 93
      436
310
42CC9915DA5C99599C985B595049028333333333333E33F0000000000000F90107901411070040501600405405064090741402480A0340
1001
ACAD
1000
AcDbSavedByObjectVersion
1070
     0
  0
ACAD_PROXY_OBJECT
  5
32
102
{ACAD_REACTORS
330
2A
102
}
330
2A
100
AcDbProxyObject
 90
      499
 91
      501
 93
      388
310
4150985CDA58D07406404333333333333E33F0000000000000F90107A41107004050150841D405064090741402480A0350
1001
ACAD
1000
AcDbSavedByObjectVersion
1070
     0
  0
ACAD_PROXY_OBJECT
  5
36
102
{ACAD_REACTORS
330
2A
102
}
330
2A
100
AcDbProxyObject
 90
      499
 91
      501
 93
      428
310
42109C9A59DA1D195B90C409028333333333333E33F0000000000000F9010790141107004050150841D405064090741402480A029950
1001
ACAD
1000
AcDbSavedByObjectVersion
1070
     0
  0
ACAD_PROXY_OBJECT
  5
3A
102
{ACAD_REACTORS
330
2A
102
}
330
2A
100
AcDbProxyObject
 90
      499
 91
      501
 93
      452
310
42D0DBDB1BDC90DA185B99D95104090240C333333333333E33F0000000000000F90108901411070040501508421405064090741402480A0350
1001
ACAD
1000
AcDbSavedByObjectVersion
1070
     0
  0
ACAD_PROXY_OBJECT
  5
34
102
{ACAD_REACTORS
330
2A
102
}
330
2A
100
AcDbProxyObject
 90
      499
 91
      501
 93
      500
310
4290DBDB98D95C1D1D585B10940D028333333333333E33F0000000000000F90107902409070040501000000000018199010841D405064090740C02480A0340
1001
ACAD
1000
AcDbSavedByObjectVersion
1070
     0
  0
ACAD_PROXY_OBJECT
  5
35
102
{ACAD_REACTORS
330
2A
102
}
330
2A
100
AcDbProxyObject
 90
      499
 91
      501
 93
      412
310
40D11A5B50B409028333333333333E33F0000000000000F9010790141107004050150841D405064090741402480A02677FFFFFD0
1001
ACAD
1000
AcDbSavedByObjectVersion
1070
     0
  0
ACAD_PROXY_OBJECT
  5
3D
102
{ACAD_REACTORS
330
2A
102
}
330
2A
100
AcDbProxyObject
 90
      499
 91
      501
 93
      452
310
43115919D950DBDB1BDC93D999916409028333333333333E33F0000000000000F9010790141107004050150841D405064090741402480A0350
1001
ACAD
1000
AcDbSavedByObjectVersion
1070
     0
  0
ACAD_PROXY_OBJECT
  5
39
102
{ACAD_REACTORS
330
2A
102
}
330
2A
100
AcDbProxyObject
 90
      499
 91
      501
 93
      444
310
42D19858D95C185D1D195C9B90F409028333333333333E33F0000000000000F9010790141107004050150841D405064090741402480A0350
1001
ACAD
1000
AcDbSavedByObjectVersion
1070
     0
  0
ACAD_PROXY_OBJECT
  5
2B
102
{ACAD_REACTORS
330
2A
102
}
330
2A
100
AcDbProxyObject
 90
      499
 91
      501
 93
      380
310
41119B185D240901404333333333333E33F0000000000000F9010740A907004050150841D405064090741402480A1B50
1001
ACAD
1000
AcDbSavedByObjectVersion
1070
     0
  0
ACAD_PROXY_OBJECT
  5
2C
102
{ACAD_REACTORS
330
2A
102
}
330
2A
100
AcDbProxyObject
 90
      499
 91
      501
 93
      468
310
43519B185D15DA5D1A115919D95CD0140901404333333333333E33F0000000000000F90107409019070040501600405405064090741402480A1B50
1001
ACAD
1000
AcDbSavedByObjectVersion
1070
     0
  0
ACAD_PROXY_OBJECT
  5
2D
102
{ACAD_REACTORS
330
2A
102
}
330
2A
100
AcDbProxyObject
 90
      499
 91
      501
 93
      404
310
41D1DBDD5C985D5910240902404333333333333E33F0000000000000F9010740A9070040501641D405064090741402480A1B50
1001
ACAD
1000
AcDbSavedByObjectVersion
1070
     0
  0
ACAD_PROXY_OBJECT
  5
2E
102
{ACAD_REACTORS
330
2A
102
}
330
2A
100
AcDbProxyObject
 90
      499
 91
      501
 93
      492
310
4411DBDD5C985D5915DA5D1A115919D95CD0340902404333333333333E33F0000000000000F90107409019070040501600405405064090741402480A1B50
1001
ACAD
1000
AcDbSavedByObjectVersion
1070
     0
  0
ACAD_PROXY_OBJECT
  5
31
102
{ACAD_REACTORS
330
2A
102
}
330
2A
100
AcDbProxyObject
 90
      499
 91
      501
 93
      476
310
41921A5919195B90640502408333333333333E33F0000000000000F901079024090700405020000000000001110200405405064090740C02480A0340
1001
ACAD
1000
AcDbSavedByObjectVersion
1070
     0
  0
ACAD_PROXY_OBJECT
  5
3B
102
{ACAD_REACTORS
330
2A
102
}
330
2A
100
AcDbProxyObject
 90
      499
 91
      501
 93
      428
310
42529A5D1D195C93D999914409028333333333333E33F0000000000000F9010790141107004050150A41D405064090741402480A0350
1001
ACAD
1000
AcDbSavedByObjectVersion
1070
     0
  0
ACAD_PROXY_OBJECT
  5
38
102
{ACAD_REACTORS
330
2A
102
}
330
2A
100
AcDbProxyObject
 90
      499
 91
      501
 93
      444
310
42D31A5B995C185D1D195C9B90E409028333333333333E33F0000000000000F9010790141107004050750841D405064090741402483A0350
1001
ACAD
1000
AcDbSavedByObjectVersion
1070
     0
  0
ACAD_PROXY_OBJECT
  5
3C
102
{ACAD_REACTORS
330
2A
102
}
330
2A
100
AcDbProxyObject
 90
      499
 91
      501
 93
      444
310
42D3DD995C9A185B99D3D999915409028333333333333E33F0000000000000F9010790141107004050150941D405064090741402480A0350
1001
ACAD
1000
AcDbSavedByObjectVersion
1070
     0
  0
ACAD_PROXY_OBJECT
  5
33
102
{ACAD_REACTORS
330
2A
102
}
330
2A
100
AcDbProxyObject
 90
      499
 91
      501
 93
      428
310
425499585B1A5CDD1A58D08409038333333333333E33F0000000000000F9010740A907004050150800405405064090740C02480A1B40
1001
ACAD
1000
AcDbSavedByObjectVersion
1070
     0
  0
ACAD_PROXY_OBJECT
  5
42
102
{ACAD_REACTORS
330
2A
102
}
330
2A
100
AcDbProxyObject
 90
      499
 91
      501
 93
      420
310
4194DA1859195911B40902404333333333333E33F0000000000000F9010740A41107004050150800405405064090840C02480A0B40
1001
ACAD
1000
AcDbSavedByObjectVersion
1070
     0
  0
ACAD_PROXY_OBJECT
  5
41
102
{ACAD_REACTORS
330
2A
102
}
330
2A
100
AcDbProxyObject
 90
      499
 91
      501
 93
      516
310
4454DA18591959081DDA5D1A08195919D95CD1A40902404333333333333E33F0000000000000F901074090142907004050250800405405064090740C02480A0B40
1001
ACAD
1000
AcDbSavedByObjectVersion
1070
     0
  0
ACAD_PROXY_OBJECT
  5
3E
102
{ACAD_REACTORS
330
2A
102
}
330
2A
100
AcDbProxyObject
 90
      499
 91
      501
 93
      532
310
4394DA1859195CC81BD98811DC985E5174090240C333333333333E33F0000000000000F901079024090741D01000000000000111010841D405064090740C02480A0340
1001
ACAD
1000
AcDbSavedByObjectVersion
1070
     0
  0
ACAD_PROXY_OBJECT
  5
3F
102
{ACAD_REACTORS
330
2A
102
}
330
2A
100
AcDbProxyObject
 90
      499
 91
      501
 93
      476
310
41D4DAD95D18DA1E51840502408333333333333E33F0000000000000F901079024090741D01000000000000111010B41D405064090741802480A0340
1001
ACAD
1000
AcDbSavedByObjectVersion
1070
     0
  0
ACAD_PROXY_OBJECT
  5
37
102
{ACAD_REACTORS
330
2A
102
}
330
2A
100
AcDbProxyObject
 90
      499
 91
      501
 93
      412
310
41D51A1A58DAD95B90D409028333333333333E33F0000000000000F9010790141107004050150C41D405064090741402480A0350
1001
ACAD
1000
AcDbSavedByObjectVersion
1070
     0
  0
ACAD_PROXY_OBJECT
  5
30
102
{ACAD_REACTORS
330
2A
102
}
330
2A
100
AcDbProxyObject
 90
      499
 91
      501
 93
      420
310
4255DA5C99599C985B595059028333333333333E33F0000000000000F90107901411070040501600405405064090740C02480A0340
1001
ACAD
1000
AcDbSavedByObjectVersion
1070
     0
  0
ACAD_PROXY_OBJECT
  5
40
102
{ACAD_REACTORS
330
2A
102
}
330
2A
100
AcDbProxyObject
 90
      499
 91
      501
 93
      404
310
41560B54985E51940902404000000000000E03F0000000000000F9010740501907004050150841D405064090740C02480A1B40
1001
ACAD
1000
AcDbSavedByObjectVersion
1070
     0
  0
XRECORD
  5
174
102
{ACAD_REACTORS
330
16B
102
}
330
16B
100
AcDbXrecord
 90
        0
  0
XRECORD
  5
18A
102
{ACAD_REACTORS
330
16B
102
}
330
16B
100
AcDbXrecord
1000
DSTYLE
1002
{
1070
   279
 70
     2
1070
   340
340
11
1002
}
  0
XRECORD
  5
175
102
{ACAD_REACTORS
330
16B
102
}
330
16B
100
AcDbXrecord
  1
{F9B96A1D-6BB0-4F93-B325-A6E32252A916}
  0
XRECORD
  5
16E
102
{ACAD_REACTORS
330
16B
102
}
330
16B
100
AcDbXrecord
  1

  0
XRECORD
  5
173
102
{ACAD_REACTORS
330
16B
102
}
330
16B
100
AcDbXrecord
 90
        4
  0
XRECORD
  5
170
102
{ACAD_REACTORS
330
16B
102
}
330
16B
100
AcDbXrecord
340
1A
  0
XRECORD
  5
172
102
{ACAD_REACTORS
330
16B
102
}
330
16B
100
AcDbXrecord
 90
    10781
  0
XRECORD
  5
171
102
{ACAD_REACTORS
330
16B
102
}
330
16B
100
AcDbXrecord
340
19
  0
XRECORD
  5
177
102
{ACAD_REACTORS
330
16B
102
}
330
16B
100
AcDbXrecord
 40
0.0
  0
XRECORD
  5
17A
102
{ACAD_REACTORS
330
16B
102
}
330
16B
100
AcDbXrecord
340
0
  0
XRECORD
  5
180
102
{ACAD_REACTORS
330
16B
102
}
330
16B
100
AcDbXrecord
 10
0.0
 20
0.0
 30
0.0
  0
XRECORD
  5
17C
102
{ACAD_REACTORS
330
16B
102
}
330
16B
100
AcDbXrecord
 10
0.0
 20
0.0
 30
0.0
  0
XRECORD
  5
17F
102
{ACAD_REACTORS
330
16B
102
}
330
16B
100
AcDbXrecord
 10
0.0
 20
0.0
 30
0.0
  0
XRECORD
  5
17D
102
{ACAD_REACTORS
330
16B
102
}
330
16B
100
AcDbXrecord
 10
0.0
 20
0.0
 30
0.0
  0
XRECORD
  5
17E
102
{ACAD_REACTORS
330
16B
102
}
330
16B
100
AcDbXrecord
 10
0.0
 20
0.0
 30
0.0
  0
XRECORD
  5
17B
102
{ACAD_REACTORS
330
16B
102
}
330
16B
100
AcDbXrecord
 10
0.0
 20
0.0
 30
0.0
  0
XRECORD
  5
178
102
{ACAD_REACTORS
330
16B
102
}
330
16B
100
AcDbXrecord
340
0
  0
XRECORD
  5
179
102
{ACAD_REACTORS
330
16B
102
}
330
16B
100
AcDbXrecord
 70
     0
  0
XRECORD
  5
16F
102
{ACAD_REACTORS
330
16B
102
}
330
16B
100
AcDbXrecord
  1

  0
XRECORD
  5
16C
102
{ACAD_REACTORS
330
16B
102
}
330
16B
100
AcDbXrecord
 90
        1
  0
XRECORD
  5
16D
102
{ACAD_REACTORS
330
16B
102
}
330
16B
100
AcDbXrecord
 90
       70
  0
XRECORD
  5
183
102
{ACAD_REACTORS
330
16B
102
}
330
16B
100
AcDbXrecord
340
0
  0
XRECORD
  5
189
102
{ACAD_REACTORS
330
16B
102
}
330
16B
100
AcDbXrecord
 10
0.0
 20
0.0
 30
0.0
  0
XRECORD
  5
185
102
{ACAD_REACTORS
330
16B
102
}
330
16B
100
AcDbXrecord
 10
0.0
 20
0.0
 30
0.0
  0
XRECORD
  5
188
102
{ACAD_REACTORS
330
16B
102
}
330
16B
100
AcDbXrecord
 10
0.0
 20
0.0
 30
0.0
  0
XRECORD
  5
186
102
{ACAD_REACTORS
330
16B
102
}
330
16B
100
AcDbXrecord
 10
0.0
 20
0.0
 30
0.0
  0
XRECORD
  5
187
102
{ACAD_REACTORS
330
16B
102
}
330
16B
100
AcDbXrecord
 10
0.0
 20
0.0
 30
0.0
  0
XRECORD
  5
184
102
{ACAD_REACTORS
330
16B
102
}
330
16B
100
AcDbXrecord
 10
0.0
 20
0.0
 30
0.0
  0
XRECORD
  5
181
102
{ACAD_REACTORS
330
16B
102
}
330
16B
100
AcDbXrecord
340
0
  0
XRECORD
  5
182
102
{ACAD_REACTORS
330
16B
102
}
330
16B
100
AcDbXrecord
 70
     0
  0
XRECORD
  5
176
102
{ACAD_REACTORS
330
16B
102
}
330
16B
100
AcDbXrecord
  1
{FAEB1C32-E019-11D5-929B-00C0DF256EC4}
  0
DICTIONARYVAR
  5
192
102
{ACAD_REACTORS
330
18B
102
}
330
18B
100
DictionaryVariables
280
     0
  1
1:1
  0
DICTIONARYVAR
  5
190
102
{ACAD_REACTORS
330
18B
102
}
330
18B
100
DictionaryVariables
280
     0
  1
2
  0
DICTIONARYVAR
  5
191
102
{ACAD_REACTORS
330
18B
102
}
330
18B
100
DictionaryVariables
280
     0
  1
1
  0
DICTIONARYVAR
  5
193
102
{ACAD_REACTORS
330
18B
102
}
330
18B
100
DictionaryVariables
280
     0
  1
1
  0
DICTIONARY
  5
196
330
45
100
AcDbDictionary
280
     1
  3
ACAD_XREC_ROUNDTRIP
360
197
  0
DICTIONARY
  5
194
330
44
100
AcDbDictionary
280
     1
  3
ACAD_XREC_ROUNDTRIP
360
195
  0
DICTIONARY
  5
198
330
46
100
AcDbDictionary
280
     1
  3
ACAD_XREC_ROUNDTRIP
360
199
  0
XRECORD
  5
197
102
{ACAD_REACTORS
330
196
102
}
330
196
100
AcDbXrecord
102
MATERIAL
148
0.0
149
0.0
149
0.0
 93
        0
 94
      127
282
     0
 72
     1
 77
     1
171
     1
175
     1
179
     1
273
     0
  0
XRECORD
  5
195
102
{ACAD_REACTORS
330
194
102
}
330
194
100
AcDbXrecord
102
MATERIAL
148
0.0
149
0.0
149
0.0
 93
        0
 94
      127
282
     0
 72
     1
 77
     1
171
     1
175
     1
179
     1
273
     0
  0
XRECORD
  5
199
102
{ACAD_REACTORS
330
198
102
}
330
198
100
AcDbXrecord
102
MATERIAL
148
0.0
149
0.0
149
0.0
 93
        0
 94
      127
282
     0
 72
     1
 77
     1
171
     1
175
     1
179
     1
273
     0
  0
ENDSEC
  0
EOF
